<svg width="60" height="60" viewBox="0 0 60 60" fill="none" xmlns="http://www.w3.org/2000/svg">
<mask id="mask0_1747_4576" style="mask-type:alpha" maskUnits="userSpaceOnUse" x="0" y="0" width="60" height="60">
<rect width="60" height="60" fill="#D9D9D9"/>
</mask>
<g mask="url(#mask0_1747_4576)">
<path d="M30.0081 52.5C26.8969 52.5 23.9717 51.9096 21.2325 50.7288C18.4938 49.5479 16.1113 47.9454 14.085 45.9212C12.0588 43.8971 10.4548 41.5167 9.27312 38.78C8.09104 36.0438 7.5 33.1198 7.5 30.0081C7.5 26.8969 8.09063 23.9717 9.27188 21.2325C10.4531 18.4937 12.0563 16.1112 14.0813 14.085C16.1063 12.0587 18.4875 10.4548 21.225 9.27312C23.9625 8.09104 26.8875 7.5 30 7.5C31.4713 7.5 32.9056 7.62813 34.3031 7.88438C35.7002 8.14104 37.0398 8.54167 38.3219 9.08625C38.796 9.26208 39.0948 9.52 39.2181 9.86C39.3419 10.2 39.3477 10.5223 39.2356 10.8269C39.1235 11.1315 38.9304 11.3646 38.6563 11.5262C38.3821 11.6883 38.0831 11.7035 37.7594 11.5719C36.5802 11.0369 35.3452 10.641 34.0544 10.3844C32.764 10.1281 31.4125 10 30 10C24.4583 10 19.7396 11.9479 15.8438 15.8438C11.9479 19.7396 10 24.4583 10 30C10 35.5417 11.9479 40.2604 15.8438 44.1563C19.7396 48.0521 24.4583 50 30 50C35.5417 50 40.2604 48.0521 44.1563 44.1563C48.0521 40.2604 50 35.5417 50 30C50 29.0896 49.9423 28.1888 49.8269 27.2975C49.7115 26.4058 49.5383 25.539 49.3075 24.6969C49.1954 24.3219 49.2435 24.0127 49.4519 23.7694C49.6602 23.5256 49.9167 23.3573 50.2212 23.2644C50.5258 23.1715 50.8367 23.2044 51.1538 23.3631C51.4708 23.5223 51.684 23.8244 51.7931 24.2694C52.0335 25.199 52.2115 26.1379 52.3269 27.0863C52.4423 28.035 52.5 29.0062 52.5 30C52.5 33.1125 51.9096 36.0375 50.7288 38.775C49.5479 41.5125 47.9454 43.8938 45.9212 45.9188C43.8971 47.9438 41.5167 49.5469 38.78 50.7281C36.0438 51.9094 33.1198 52.5 30.0081 52.5ZM51.25 11.25H47.5C47.1458 11.25 46.849 11.13 46.6094 10.89C46.3698 10.65 46.25 10.3527 46.25 9.99812C46.25 9.64354 46.3698 9.34687 46.6094 9.10812C46.849 8.86937 47.1458 8.75 47.5 8.75H51.25V5C51.25 4.64583 51.37 4.34896 51.61 4.10937C51.85 3.86979 52.1473 3.75 52.5019 3.75C52.8565 3.75 53.1531 3.86979 53.3919 4.10937C53.6306 4.34896 53.75 4.64583 53.75 5V8.75H57.5C57.8542 8.75 58.151 8.87 58.3906 9.11C58.6302 9.35 58.75 9.64729 58.75 10.0019C58.75 10.3565 58.6302 10.6531 58.3906 10.8919C58.151 11.1306 57.8542 11.25 57.5 11.25H53.75V15C53.75 15.3542 53.63 15.651 53.39 15.8906C53.15 16.1302 52.8527 16.25 52.4981 16.25C52.1435 16.25 51.8469 16.1302 51.6081 15.8906C51.3694 15.651 51.25 15.3542 51.25 15V11.25ZM38.2806 26.5388C39.0581 26.5388 39.7154 26.2665 40.2525 25.7219C40.7892 25.1773 41.0575 24.5163 41.0575 23.7388C41.0575 22.9608 40.7854 22.3035 40.2412 21.7669C39.6967 21.2298 39.0356 20.9613 38.2581 20.9613C37.4802 20.9613 36.8229 21.2335 36.2863 21.7781C35.7492 22.3227 35.4806 22.9838 35.4806 23.7613C35.4806 24.5392 35.7529 25.1965 36.2975 25.7331C36.8417 26.2702 37.5027 26.5388 38.2806 26.5388ZM21.7419 26.5388C22.5198 26.5388 23.1771 26.2665 23.7138 25.7219C24.2508 25.1773 24.5194 24.5163 24.5194 23.7388C24.5194 22.9608 24.2471 22.3035 23.7025 21.7669C23.1583 21.2298 22.4973 20.9613 21.7194 20.9613C20.9419 20.9613 20.2846 21.2335 19.7475 21.7781C19.2108 22.3227 18.9425 22.9838 18.9425 23.7613C18.9425 24.5392 19.2146 25.1965 19.7588 25.7331C20.3033 26.2702 20.9644 26.5388 21.7419 26.5388ZM30 42.2113C32.0712 42.2113 33.9817 41.7321 35.7313 40.7738C37.4808 39.8154 38.914 38.5158 40.0306 36.875C40.254 36.4646 40.2598 36.0496 40.0481 35.63C39.8365 35.21 39.4871 35 39 35H21C20.5129 35 20.1635 35.21 19.9519 35.63C19.7402 36.0496 19.746 36.4646 19.9694 36.875C21.086 38.5158 22.5281 39.8154 24.2956 40.7738C26.0631 41.7321 27.9646 42.2113 30 42.2113Z" fill="#4044E8"/>
<path d="M30.0081 52.5C26.8969 52.5 23.9717 51.9096 21.2325 50.7288C18.4938 49.5479 16.1113 47.9454 14.085 45.9212C12.0588 43.8971 10.4548 41.5167 9.27312 38.78C8.09104 36.0438 7.5 33.1198 7.5 30.0081C7.5 26.8969 8.09063 23.9717 9.27188 21.2325C10.4531 18.4937 12.0563 16.1112 14.0813 14.085C16.1063 12.0587 18.4875 10.4548 21.225 9.27312C23.9625 8.09104 26.8875 7.5 30 7.5C31.4713 7.5 32.9056 7.62813 34.3031 7.88438C35.7002 8.14104 37.0398 8.54167 38.3219 9.08625C38.796 9.26208 39.0948 9.52 39.2181 9.86C39.3419 10.2 39.3477 10.5223 39.2356 10.8269C39.1235 11.1315 38.9304 11.3646 38.6563 11.5262C38.3821 11.6883 38.0831 11.7035 37.7594 11.5719C36.5802 11.0369 35.3452 10.641 34.0544 10.3844C32.764 10.1281 31.4125 10 30 10C24.4583 10 19.7396 11.9479 15.8438 15.8438C11.9479 19.7396 10 24.4583 10 30C10 35.5417 11.9479 40.2604 15.8438 44.1563C19.7396 48.0521 24.4583 50 30 50C35.5417 50 40.2604 48.0521 44.1563 44.1563C48.0521 40.2604 50 35.5417 50 30C50 29.0896 49.9423 28.1888 49.8269 27.2975C49.7115 26.4058 49.5383 25.539 49.3075 24.6969C49.1954 24.3219 49.2435 24.0127 49.4519 23.7694C49.6602 23.5256 49.9167 23.3573 50.2212 23.2644C50.5258 23.1715 50.8367 23.2044 51.1538 23.3631C51.4708 23.5223 51.684 23.8244 51.7931 24.2694C52.0335 25.199 52.2115 26.1379 52.3269 27.0863C52.4423 28.035 52.5 29.0062 52.5 30C52.5 33.1125 51.9096 36.0375 50.7288 38.775C49.5479 41.5125 47.9454 43.8938 45.9212 45.9188C43.8971 47.9438 41.5167 49.5469 38.78 50.7281C36.0438 51.9094 33.1198 52.5 30.0081 52.5ZM51.25 11.25H47.5C47.1458 11.25 46.849 11.13 46.6094 10.89C46.3698 10.65 46.25 10.3527 46.25 9.99812C46.25 9.64354 46.3698 9.34687 46.6094 9.10812C46.849 8.86937 47.1458 8.75 47.5 8.75H51.25V5C51.25 4.64583 51.37 4.34896 51.61 4.10937C51.85 3.86979 52.1473 3.75 52.5019 3.75C52.8565 3.75 53.1531 3.86979 53.3919 4.10937C53.6306 4.34896 53.75 4.64583 53.75 5V8.75H57.5C57.8542 8.75 58.151 8.87 58.3906 9.11C58.6302 9.35 58.75 9.64729 58.75 10.0019C58.75 10.3565 58.6302 10.6531 58.3906 10.8919C58.151 11.1306 57.8542 11.25 57.5 11.25H53.75V15C53.75 15.3542 53.63 15.651 53.39 15.8906C53.15 16.1302 52.8527 16.25 52.4981 16.25C52.1435 16.25 51.8469 16.1302 51.6081 15.8906C51.3694 15.651 51.25 15.3542 51.25 15V11.25ZM38.2806 26.5388C39.0581 26.5388 39.7154 26.2665 40.2525 25.7219C40.7892 25.1773 41.0575 24.5163 41.0575 23.7388C41.0575 22.9608 40.7854 22.3035 40.2412 21.7669C39.6967 21.2298 39.0356 20.9613 38.2581 20.9613C37.4802 20.9613 36.8229 21.2335 36.2863 21.7781C35.7492 22.3227 35.4806 22.9838 35.4806 23.7613C35.4806 24.5392 35.7529 25.1965 36.2975 25.7331C36.8417 26.2702 37.5027 26.5388 38.2806 26.5388ZM21.7419 26.5388C22.5198 26.5388 23.1771 26.2665 23.7138 25.7219C24.2508 25.1773 24.5194 24.5163 24.5194 23.7388C24.5194 22.9608 24.2471 22.3035 23.7025 21.7669C23.1583 21.2298 22.4973 20.9613 21.7194 20.9613C20.9419 20.9613 20.2846 21.2335 19.7475 21.7781C19.2108 22.3227 18.9425 22.9838 18.9425 23.7613C18.9425 24.5392 19.2146 25.1965 19.7588 25.7331C20.3033 26.2702 20.9644 26.5388 21.7419 26.5388ZM30 42.2113C32.0712 42.2113 33.9817 41.7321 35.7313 40.7738C37.4808 39.8154 38.914 38.5158 40.0306 36.875C40.254 36.4646 40.2598 36.0496 40.0481 35.63C39.8365 35.21 39.4871 35 39 35H21C20.5129 35 20.1635 35.21 19.9519 35.63C19.7402 36.0496 19.746 36.4646 19.9694 36.875C21.086 38.5158 22.5281 39.8154 24.2956 40.7738C26.0631 41.7321 27.9646 42.2113 30 42.2113Z" fill="white" fill-opacity="0.3"/>
</g>
</svg>
