<svg width="64" height="64" viewBox="0 0 64 64" fill="none" xmlns="http://www.w3.org/2000/svg">
<mask id="mask0_1747_4530" style="mask-type:alpha" maskUnits="userSpaceOnUse" x="0" y="0" width="64" height="64">
<rect width="64" height="64" fill="#D9D9D9"/>
</mask>
<g mask="url(#mask0_1747_4530)">
<path d="M14.974 53.3333C13.7465 53.3333 12.7216 52.9222 11.8993 52.1C11.0771 51.2777 10.666 50.2529 10.666 49.0253V14.9746C10.666 13.7471 11.0771 12.7222 11.8993 11.9C12.7216 11.0777 13.7465 10.6666 14.974 10.6666H49.0247C50.2522 10.6666 51.2771 11.0777 52.0994 11.9C52.9216 12.7222 53.3327 13.7471 53.3327 14.9746V49.0253C53.3327 50.2529 52.9216 51.2777 52.0994 52.1C51.2771 52.9222 50.2522 53.3333 49.0247 53.3333H14.974ZM14.974 50.6666H49.0247C49.4354 50.6666 49.8116 50.4957 50.1533 50.154C50.4951 49.8122 50.666 49.436 50.666 49.0253V14.9746C50.666 14.564 50.4951 14.1877 50.1533 13.846C49.8116 13.5042 49.4354 13.3333 49.0247 13.3333H14.974C14.5633 13.3333 14.1871 13.5042 13.8453 13.846C13.5036 14.1877 13.3327 14.564 13.3327 14.9746V49.0253C13.3327 49.436 13.5036 49.8122 13.8453 50.154C14.1871 50.4957 14.5633 50.6666 14.974 50.6666ZM21.3327 44H34.666C35.0456 44 35.3627 43.8726 35.6174 43.618C35.872 43.3633 35.9993 43.0462 35.9993 42.6666C35.9993 42.2871 35.872 41.97 35.6174 41.7153C35.3627 41.4606 35.0456 41.3333 34.666 41.3333H21.3327C20.9531 41.3333 20.636 41.4606 20.3813 41.7153C20.1267 41.97 19.9993 42.2871 19.9993 42.6666C19.9993 43.0462 20.1267 43.3633 20.3813 43.618C20.636 43.8726 20.9531 44 21.3327 44ZM21.3327 33.3333H42.666C43.0456 33.3333 43.3627 33.206 43.6174 32.9513C43.872 32.6966 43.9993 32.3795 43.9993 32C43.9993 31.6204 43.872 31.3033 43.6174 31.0486C43.3627 30.794 43.0456 30.6666 42.666 30.6666H21.3327C20.9531 30.6666 20.636 30.794 20.3813 31.0486C20.1267 31.3033 19.9993 31.6204 19.9993 32C19.9993 32.3795 20.1267 32.6966 20.3813 32.9513C20.636 33.206 20.9531 33.3333 21.3327 33.3333ZM21.3327 22.6666H42.666C43.0456 22.6666 43.3627 22.5393 43.6174 22.2846C43.872 22.03 43.9993 21.7128 43.9993 21.3333C43.9993 20.9537 43.872 20.6366 43.6174 20.382C43.3627 20.1273 43.0456 20 42.666 20H21.3327C20.9531 20 20.636 20.1273 20.3813 20.382C20.1267 20.6366 19.9993 20.9537 19.9993 21.3333C19.9993 21.7128 20.1267 22.03 20.3813 22.2846C20.636 22.5393 20.9531 22.6666 21.3327 22.6666Z" fill="#40C8E8"/>
<path d="M14.974 53.3333C13.7465 53.3333 12.7216 52.9222 11.8993 52.1C11.0771 51.2777 10.666 50.2529 10.666 49.0253V14.9746C10.666 13.7471 11.0771 12.7222 11.8993 11.9C12.7216 11.0777 13.7465 10.6666 14.974 10.6666H49.0247C50.2522 10.6666 51.2771 11.0777 52.0994 11.9C52.9216 12.7222 53.3327 13.7471 53.3327 14.9746V49.0253C53.3327 50.2529 52.9216 51.2777 52.0994 52.1C51.2771 52.9222 50.2522 53.3333 49.0247 53.3333H14.974ZM14.974 50.6666H49.0247C49.4354 50.6666 49.8116 50.4957 50.1533 50.154C50.4951 49.8122 50.666 49.436 50.666 49.0253V14.9746C50.666 14.564 50.4951 14.1877 50.1533 13.846C49.8116 13.5042 49.4354 13.3333 49.0247 13.3333H14.974C14.5633 13.3333 14.1871 13.5042 13.8453 13.846C13.5036 14.1877 13.3327 14.564 13.3327 14.9746V49.0253C13.3327 49.436 13.5036 49.8122 13.8453 50.154C14.1871 50.4957 14.5633 50.6666 14.974 50.6666ZM21.3327 44H34.666C35.0456 44 35.3627 43.8726 35.6174 43.618C35.872 43.3633 35.9993 43.0462 35.9993 42.6666C35.9993 42.2871 35.872 41.97 35.6174 41.7153C35.3627 41.4606 35.0456 41.3333 34.666 41.3333H21.3327C20.9531 41.3333 20.636 41.4606 20.3813 41.7153C20.1267 41.97 19.9993 42.2871 19.9993 42.6666C19.9993 43.0462 20.1267 43.3633 20.3813 43.618C20.636 43.8726 20.9531 44 21.3327 44ZM21.3327 33.3333H42.666C43.0456 33.3333 43.3627 33.206 43.6174 32.9513C43.872 32.6966 43.9993 32.3795 43.9993 32C43.9993 31.6204 43.872 31.3033 43.6174 31.0486C43.3627 30.794 43.0456 30.6666 42.666 30.6666H21.3327C20.9531 30.6666 20.636 30.794 20.3813 31.0486C20.1267 31.3033 19.9993 31.6204 19.9993 32C19.9993 32.3795 20.1267 32.6966 20.3813 32.9513C20.636 33.206 20.9531 33.3333 21.3327 33.3333ZM21.3327 22.6666H42.666C43.0456 22.6666 43.3627 22.5393 43.6174 22.2846C43.872 22.03 43.9993 21.7128 43.9993 21.3333C43.9993 20.9537 43.872 20.6366 43.6174 20.382C43.3627 20.1273 43.0456 20 42.666 20H21.3327C20.9531 20 20.636 20.1273 20.3813 20.382C20.1267 20.6366 19.9993 20.9537 19.9993 21.3333C19.9993 21.7128 20.1267 22.03 20.3813 22.2846C20.636 22.5393 20.9531 22.6666 21.3327 22.6666Z" fill="white" fill-opacity="0.15"/>
</g>
</svg>
