<svg width="64" height="64" viewBox="0 0 64 64" fill="none" xmlns="http://www.w3.org/2000/svg">
<mask id="mask0_1747_4606" style="mask-type:alpha" maskUnits="userSpaceOnUse" x="0" y="0" width="64" height="64">
<rect width="64" height="64" fill="#D9D9D9"/>
</mask>
<g mask="url(#mask0_1747_4606)">
<path d="M33.6413 56C32.4138 56 31.3889 55.5889 30.5667 54.7667C29.7444 53.9444 29.3333 52.9196 29.3333 51.692V33.6413C29.3333 32.4138 29.7444 31.3889 30.5667 30.5667C31.3889 29.7444 32.4138 29.3333 33.6413 29.3333H51.692C52.9196 29.3333 53.9444 29.7444 54.7667 30.5667C55.5889 31.3889 56 32.4138 56 33.6413V51.692C56 52.9196 55.5889 53.9444 54.7667 54.7667C53.9444 55.5889 52.9196 56 51.692 56H33.6413ZM33.6413 53.3333H51.692C52.1027 53.3333 52.4789 53.1624 52.8207 52.8207C53.1624 52.4789 53.3333 52.1027 53.3333 51.692V33.6413C53.3333 33.2307 53.1624 32.8544 52.8207 32.5127C52.4789 32.1709 52.1027 32 51.692 32H33.6413C33.2307 32 32.8544 32.1709 32.5127 32.5127C32.1709 32.8544 32 33.2307 32 33.6413V51.692C32 52.1027 32.1709 52.4789 32.5127 52.8207C32.8544 53.1624 33.2307 53.3333 33.6413 53.3333ZM18.6667 44.6153V22.9747C18.6667 21.7471 19.0778 20.7222 19.9 19.9C20.7222 19.0778 21.7471 18.6667 22.9747 18.6667H44.6153C44.9949 18.6667 45.312 18.794 45.5667 19.0487C45.8213 19.3033 45.9487 19.6204 45.9487 20C45.9487 20.3796 45.8213 20.6967 45.5667 20.9513C45.312 21.206 44.9949 21.3333 44.6153 21.3333H22.9747C22.564 21.3333 22.1878 21.5042 21.846 21.846C21.5042 22.1878 21.3333 22.564 21.3333 22.9747V44.6153C21.3333 44.9949 21.206 45.312 20.9513 45.5667C20.6967 45.8213 20.3796 45.9487 20 45.9487C19.6204 45.9487 19.3033 45.8213 19.0487 45.5667C18.794 45.312 18.6667 44.9949 18.6667 44.6153ZM8 33.9487V12.308C8 11.0804 8.41111 10.0556 9.23333 9.23333C10.0556 8.41111 11.0804 8 12.308 8H33.9487C34.3282 8 34.6453 8.12733 34.9 8.382C35.1547 8.63667 35.282 8.95378 35.282 9.33333C35.282 9.71289 35.1547 10.03 34.9 10.2847C34.6453 10.5393 34.3282 10.6667 33.9487 10.6667H12.308C11.8973 10.6667 11.5211 10.8376 11.1793 11.1793C10.8376 11.5211 10.6667 11.8973 10.6667 12.308V33.9487C10.6667 34.3282 10.5393 34.6453 10.2847 34.9C10.03 35.1547 9.71289 35.282 9.33333 35.282C8.95378 35.282 8.63667 35.1547 8.382 34.9C8.12733 34.6453 8 34.3282 8 33.9487Z" fill="#40C8E8"/>
<path d="M33.6413 56C32.4138 56 31.3889 55.5889 30.5667 54.7667C29.7444 53.9444 29.3333 52.9196 29.3333 51.692V33.6413C29.3333 32.4138 29.7444 31.3889 30.5667 30.5667C31.3889 29.7444 32.4138 29.3333 33.6413 29.3333H51.692C52.9196 29.3333 53.9444 29.7444 54.7667 30.5667C55.5889 31.3889 56 32.4138 56 33.6413V51.692C56 52.9196 55.5889 53.9444 54.7667 54.7667C53.9444 55.5889 52.9196 56 51.692 56H33.6413ZM33.6413 53.3333H51.692C52.1027 53.3333 52.4789 53.1624 52.8207 52.8207C53.1624 52.4789 53.3333 52.1027 53.3333 51.692V33.6413C53.3333 33.2307 53.1624 32.8544 52.8207 32.5127C52.4789 32.1709 52.1027 32 51.692 32H33.6413C33.2307 32 32.8544 32.1709 32.5127 32.5127C32.1709 32.8544 32 33.2307 32 33.6413V51.692C32 52.1027 32.1709 52.4789 32.5127 52.8207C32.8544 53.1624 33.2307 53.3333 33.6413 53.3333ZM18.6667 44.6153V22.9747C18.6667 21.7471 19.0778 20.7222 19.9 19.9C20.7222 19.0778 21.7471 18.6667 22.9747 18.6667H44.6153C44.9949 18.6667 45.312 18.794 45.5667 19.0487C45.8213 19.3033 45.9487 19.6204 45.9487 20C45.9487 20.3796 45.8213 20.6967 45.5667 20.9513C45.312 21.206 44.9949 21.3333 44.6153 21.3333H22.9747C22.564 21.3333 22.1878 21.5042 21.846 21.846C21.5042 22.1878 21.3333 22.564 21.3333 22.9747V44.6153C21.3333 44.9949 21.206 45.312 20.9513 45.5667C20.6967 45.8213 20.3796 45.9487 20 45.9487C19.6204 45.9487 19.3033 45.8213 19.0487 45.5667C18.794 45.312 18.6667 44.9949 18.6667 44.6153ZM8 33.9487V12.308C8 11.0804 8.41111 10.0556 9.23333 9.23333C10.0556 8.41111 11.0804 8 12.308 8H33.9487C34.3282 8 34.6453 8.12733 34.9 8.382C35.1547 8.63667 35.282 8.95378 35.282 9.33333C35.282 9.71289 35.1547 10.03 34.9 10.2847C34.6453 10.5393 34.3282 10.6667 33.9487 10.6667H12.308C11.8973 10.6667 11.5211 10.8376 11.1793 11.1793C10.8376 11.5211 10.6667 11.8973 10.6667 12.308V33.9487C10.6667 34.3282 10.5393 34.6453 10.2847 34.9C10.03 35.1547 9.71289 35.282 9.33333 35.282C8.95378 35.282 8.63667 35.1547 8.382 34.9C8.12733 34.6453 8 34.3282 8 33.9487Z" fill="white" fill-opacity="0.15"/>
</g>
</svg>
