<svg width="64" height="64" viewBox="0 0 64 64" fill="none" xmlns="http://www.w3.org/2000/svg">
<mask id="mask0_1747_4696" style="mask-type:alpha" maskUnits="userSpaceOnUse" x="0" y="0" width="64" height="64">
<rect width="64" height="64" fill="#D9D9D9"/>
</mask>
<g mask="url(#mask0_1747_4696)">
<path d="M31.9999 33.8874L18.0099 47.8767C17.7606 48.1265 17.4546 48.2598 17.0919 48.2767C16.7297 48.2941 16.4068 48.1607 16.1233 47.8767C15.8393 47.5932 15.6973 47.2787 15.6973 46.9334C15.6973 46.5881 15.8393 46.2736 16.1233 45.9901L30.1126 32.0001L16.1233 18.0101C15.8735 17.7607 15.7402 17.4547 15.7233 17.0921C15.7059 16.7298 15.8393 16.4069 16.1233 16.1234C16.4068 15.8394 16.7213 15.6974 17.0666 15.6974C17.4119 15.6974 17.7264 15.8394 18.0099 16.1234L31.9999 30.1127L45.9899 16.1234C46.2393 15.8736 46.5453 15.7403 46.9079 15.7234C47.2702 15.7061 47.593 15.8394 47.8766 16.1234C48.1606 16.4069 48.3026 16.7214 48.3026 17.0667C48.3026 17.4121 48.1606 17.7265 47.8766 18.0101L33.8873 32.0001L47.8766 45.9901C48.1264 46.2394 48.2597 46.5454 48.2766 46.9081C48.2939 47.2703 48.1606 47.5932 47.8766 47.8767C47.593 48.1607 47.2786 48.3027 46.9333 48.3027C46.5879 48.3027 46.2735 48.1607 45.9899 47.8767L31.9999 33.8874Z" fill="#40C8E8"/>
<path d="M31.9999 33.8874L18.0099 47.8767C17.7606 48.1265 17.4546 48.2598 17.0919 48.2767C16.7297 48.2941 16.4068 48.1607 16.1233 47.8767C15.8393 47.5932 15.6973 47.2787 15.6973 46.9334C15.6973 46.5881 15.8393 46.2736 16.1233 45.9901L30.1126 32.0001L16.1233 18.0101C15.8735 17.7607 15.7402 17.4547 15.7233 17.0921C15.7059 16.7298 15.8393 16.4069 16.1233 16.1234C16.4068 15.8394 16.7213 15.6974 17.0666 15.6974C17.4119 15.6974 17.7264 15.8394 18.0099 16.1234L31.9999 30.1127L45.9899 16.1234C46.2393 15.8736 46.5453 15.7403 46.9079 15.7234C47.2702 15.7061 47.593 15.8394 47.8766 16.1234C48.1606 16.4069 48.3026 16.7214 48.3026 17.0667C48.3026 17.4121 48.1606 17.7265 47.8766 18.0101L33.8873 32.0001L47.8766 45.9901C48.1264 46.2394 48.2597 46.5454 48.2766 46.9081C48.2939 47.2703 48.1606 47.5932 47.8766 47.8767C47.593 48.1607 47.2786 48.3027 46.9333 48.3027C46.5879 48.3027 46.2735 48.1607 45.9899 47.8767L31.9999 33.8874Z" fill="white" fill-opacity="0.15"/>
</g>
</svg>
