<svg width="64" height="64" viewBox="0 0 64 64" fill="none" xmlns="http://www.w3.org/2000/svg">
<mask id="mask0_1747_4654" style="mask-type:alpha" maskUnits="userSpaceOnUse" x="0" y="0" width="64" height="64">
<rect width="64" height="64" fill="#D9D9D9"/>
</mask>
<g mask="url(#mask0_1747_4654)">
<path d="M46.4617 43.4766V53.3846C46.4617 53.6717 46.5608 53.9144 46.759 54.1126C46.9577 54.3108 47.2005 54.41 47.4877 54.41C47.7748 54.41 48.0174 54.3108 48.2157 54.1126C48.4139 53.9144 48.513 53.6717 48.513 53.3846V43.4766L52.585 47.5486C52.7832 47.7468 53.0174 47.8546 53.2877 47.872C53.5574 47.8889 53.8088 47.7811 54.0417 47.5486C54.2741 47.3162 54.3903 47.0735 54.3903 46.8206C54.3903 46.5677 54.2741 46.3248 54.0417 46.092L48.995 41.046C48.5643 40.6153 48.0619 40.4 47.4877 40.4C46.913 40.4 46.4103 40.6153 45.9797 41.046L40.9337 46.092C40.7354 46.2906 40.6277 46.5249 40.6103 46.7946C40.5934 47.0649 40.7012 47.3162 40.9337 47.5486C41.1661 47.7811 41.4088 47.8973 41.6617 47.8973C41.915 47.8973 42.1579 47.7811 42.3903 47.5486L46.4617 43.4766ZM32.0003 23.708C35.819 23.708 39.6685 23.1702 43.549 22.0946C47.4294 21.0195 49.7508 19.8648 50.513 18.6306C49.785 17.3075 47.5003 16.094 43.659 14.99C39.8181 13.8855 35.9319 13.3333 32.0003 13.3333C28.127 13.3333 24.2459 13.8657 20.357 14.9306C16.4681 15.9955 14.1441 17.1604 13.385 18.4253C14.1099 19.728 16.3997 20.934 20.2543 22.0433C24.109 23.1531 28.0243 23.708 32.0003 23.708ZM47.4877 57.6413C44.5165 57.6413 41.9959 56.6062 39.9257 54.536C37.8559 52.4657 36.821 49.9453 36.821 46.9746C36.821 44.0035 37.8559 41.4828 39.9257 39.4126C41.9959 37.3428 44.5165 36.308 47.4877 36.308C50.4583 36.308 52.9788 37.3428 55.049 39.4126C57.1192 41.4828 58.1543 44.0035 58.1543 46.9746C58.1543 49.9453 57.1192 52.4657 55.049 54.536C52.9788 56.6062 50.4583 57.6413 47.4877 57.6413ZM30.867 50.6513C30.9661 51.1504 31.0892 51.6137 31.2363 52.0413C31.3834 52.4684 31.5372 52.8991 31.6977 53.3333C28.6243 53.3231 25.8072 53.106 23.2463 52.682C20.6859 52.258 18.4723 51.6708 16.6057 50.9206C14.739 50.17 13.2825 49.2724 12.2363 48.228C11.1901 47.1835 10.667 46.0477 10.667 44.8206V18.6666C10.667 16.4511 12.7465 14.564 16.9057 13.0053C21.0643 11.4462 26.0959 10.6666 32.0003 10.6666C37.9048 10.6666 42.9363 11.4462 47.095 13.0053C51.2541 14.564 53.3337 16.4511 53.3337 18.6666V30.9793C52.8994 30.8188 52.4688 30.6822 52.0417 30.5693C51.6141 30.4564 51.1559 30.3504 50.667 30.2513V22.0666C48.4928 23.3897 45.7628 24.4188 42.477 25.154C39.1917 25.8891 35.6994 26.2395 32.0003 26.2053C28.1541 26.2053 24.6054 25.8377 21.3543 25.1026C18.1028 24.3675 15.4292 23.3555 13.3337 22.0666V32.6973C15.4292 34.1711 18.1412 35.278 21.4697 36.018C24.7977 36.758 28.3079 37.128 32.0003 37.128H33.6057C33.3012 37.552 33.0319 37.9777 32.7977 38.4053C32.5634 38.8324 32.3421 39.2955 32.1337 39.7946C28.995 39.788 25.6992 39.488 22.2463 38.8946C18.7934 38.3017 15.8225 37.2224 13.3337 35.6566V45.3333C13.8159 46.0822 14.5852 46.7822 15.6417 47.4333C16.6977 48.0844 17.9848 48.6349 19.503 49.0846C21.0208 49.534 22.7481 49.8997 24.685 50.182C26.6219 50.4642 28.6825 50.6206 30.867 50.6513Z" fill="#40C8E8"/>
<path d="M46.4617 43.4766V53.3846C46.4617 53.6717 46.5608 53.9144 46.759 54.1126C46.9577 54.3108 47.2005 54.41 47.4877 54.41C47.7748 54.41 48.0174 54.3108 48.2157 54.1126C48.4139 53.9144 48.513 53.6717 48.513 53.3846V43.4766L52.585 47.5486C52.7832 47.7468 53.0174 47.8546 53.2877 47.872C53.5574 47.8889 53.8088 47.7811 54.0417 47.5486C54.2741 47.3162 54.3903 47.0735 54.3903 46.8206C54.3903 46.5677 54.2741 46.3248 54.0417 46.092L48.995 41.046C48.5643 40.6153 48.0619 40.4 47.4877 40.4C46.913 40.4 46.4103 40.6153 45.9797 41.046L40.9337 46.092C40.7354 46.2906 40.6277 46.5249 40.6103 46.7946C40.5934 47.0649 40.7012 47.3162 40.9337 47.5486C41.1661 47.7811 41.4088 47.8973 41.6617 47.8973C41.915 47.8973 42.1579 47.7811 42.3903 47.5486L46.4617 43.4766ZM32.0003 23.708C35.819 23.708 39.6685 23.1702 43.549 22.0946C47.4294 21.0195 49.7508 19.8648 50.513 18.6306C49.785 17.3075 47.5003 16.094 43.659 14.99C39.8181 13.8855 35.9319 13.3333 32.0003 13.3333C28.127 13.3333 24.2459 13.8657 20.357 14.9306C16.4681 15.9955 14.1441 17.1604 13.385 18.4253C14.1099 19.728 16.3997 20.934 20.2543 22.0433C24.109 23.1531 28.0243 23.708 32.0003 23.708ZM47.4877 57.6413C44.5165 57.6413 41.9959 56.6062 39.9257 54.536C37.8559 52.4657 36.821 49.9453 36.821 46.9746C36.821 44.0035 37.8559 41.4828 39.9257 39.4126C41.9959 37.3428 44.5165 36.308 47.4877 36.308C50.4583 36.308 52.9788 37.3428 55.049 39.4126C57.1192 41.4828 58.1543 44.0035 58.1543 46.9746C58.1543 49.9453 57.1192 52.4657 55.049 54.536C52.9788 56.6062 50.4583 57.6413 47.4877 57.6413ZM30.867 50.6513C30.9661 51.1504 31.0892 51.6137 31.2363 52.0413C31.3834 52.4684 31.5372 52.8991 31.6977 53.3333C28.6243 53.3231 25.8072 53.106 23.2463 52.682C20.6859 52.258 18.4723 51.6708 16.6057 50.9206C14.739 50.17 13.2825 49.2724 12.2363 48.228C11.1901 47.1835 10.667 46.0477 10.667 44.8206V18.6666C10.667 16.4511 12.7465 14.564 16.9057 13.0053C21.0643 11.4462 26.0959 10.6666 32.0003 10.6666C37.9048 10.6666 42.9363 11.4462 47.095 13.0053C51.2541 14.564 53.3337 16.4511 53.3337 18.6666V30.9793C52.8994 30.8188 52.4688 30.6822 52.0417 30.5693C51.6141 30.4564 51.1559 30.3504 50.667 30.2513V22.0666C48.4928 23.3897 45.7628 24.4188 42.477 25.154C39.1917 25.8891 35.6994 26.2395 32.0003 26.2053C28.1541 26.2053 24.6054 25.8377 21.3543 25.1026C18.1028 24.3675 15.4292 23.3555 13.3337 22.0666V32.6973C15.4292 34.1711 18.1412 35.278 21.4697 36.018C24.7977 36.758 28.3079 37.128 32.0003 37.128H33.6057C33.3012 37.552 33.0319 37.9777 32.7977 38.4053C32.5634 38.8324 32.3421 39.2955 32.1337 39.7946C28.995 39.788 25.6992 39.488 22.2463 38.8946C18.7934 38.3017 15.8225 37.2224 13.3337 35.6566V45.3333C13.8159 46.0822 14.5852 46.7822 15.6417 47.4333C16.6977 48.0844 17.9848 48.6349 19.503 49.0846C21.0208 49.534 22.7481 49.8997 24.685 50.182C26.6219 50.4642 28.6825 50.6206 30.867 50.6513Z" fill="white" fill-opacity="0.15"/>
</g>
</svg>
