<svg width="64" height="64" viewBox="0 0 64 64" fill="none" xmlns="http://www.w3.org/2000/svg">
<mask id="mask0_1747_4546" style="mask-type:alpha" maskUnits="userSpaceOnUse" x="0" y="0" width="64" height="64">
<rect width="64" height="64" fill="#D9D9D9"/>
</mask>
<g mask="url(#mask0_1747_4546)">
<path d="M11.282 32C11.282 36.988 12.8418 41.3802 15.9613 45.1766C19.0813 48.9735 23.0822 51.3522 27.964 52.3126C28.2853 52.4086 28.5478 52.6011 28.7513 52.89C28.9549 53.1789 29.0567 53.5113 29.0567 53.8873C29.0567 54.4238 28.8456 54.8562 28.4233 55.1846C28.0011 55.5126 27.5216 55.5913 26.9847 55.4206C21.3709 54.2135 16.8033 51.4358 13.282 47.0873C9.76067 42.7384 8 37.7093 8 32C8 26.2906 9.76067 21.2615 13.282 16.9126C16.8033 12.5642 21.3709 9.78643 26.9847 8.57931C27.5216 8.40865 28.0011 8.48731 28.4233 8.81531C28.8456 9.14376 29.0567 9.5762 29.0567 10.1126C29.0567 10.4886 28.9549 10.8211 28.7513 11.11C28.5478 11.3989 28.2853 11.5913 27.964 11.6873C23.0822 12.6478 19.0813 15.0264 15.9613 18.8233C12.8418 22.6198 11.282 27.012 11.282 32ZM49.0053 48.954C47.3778 50.5913 45.5444 51.9715 43.5053 53.0946C41.4658 54.2178 39.2802 54.9931 36.9487 55.4206C36.4118 55.5571 35.9238 55.4698 35.4847 55.1586C35.0451 54.8475 34.8253 54.4238 34.8253 53.8873C34.8253 53.5113 34.9271 53.1789 35.1307 52.89C35.3342 52.6011 35.6138 52.4086 35.9693 52.3126C38.0307 51.9366 39.9682 51.2573 41.782 50.2746C43.5958 49.2915 45.236 48.0666 46.7027 46.6C48.1351 45.1231 49.3316 43.4915 50.292 41.7053C51.2529 39.9186 51.9264 38.0066 52.3127 35.9693C52.4087 35.6138 52.6011 35.3342 52.89 35.1306C53.1789 34.9271 53.5113 34.8253 53.8873 34.8253C54.4238 34.8253 54.8476 35.0451 55.1587 35.4846C55.4698 35.9238 55.5571 36.4118 55.4207 36.9486C54.9931 39.2802 54.2264 41.4546 53.1207 43.472C52.0144 45.4889 50.6427 47.3162 49.0053 48.954ZM49.0053 15.046C50.6427 16.6838 52.0144 18.5111 53.1207 20.528C54.2264 22.5453 54.9931 24.7198 55.4207 27.0513C55.5571 27.5882 55.4698 28.0762 55.1587 28.5153C54.8476 28.9549 54.4238 29.1746 53.8873 29.1746C53.5113 29.1746 53.1789 29.0729 52.89 28.8693C52.6011 28.6658 52.4087 28.3862 52.3127 28.0306C51.9264 25.9933 51.2529 24.0813 50.292 22.2946C49.3316 20.5084 48.1351 18.8769 46.7027 17.4C45.236 15.9333 43.5958 14.7084 41.782 13.7253C39.9682 12.7426 38.0307 12.0633 35.9693 11.6873C35.6138 11.5913 35.3342 11.3989 35.1307 11.11C34.9271 10.8211 34.8253 10.4886 34.8253 10.1126C34.8253 9.5762 35.0451 9.15243 35.4847 8.84131C35.9238 8.5302 36.4118 8.44287 36.9487 8.57931C39.2802 9.00687 41.4658 9.7822 43.5053 10.9053C45.5444 12.0284 47.3778 13.4086 49.0053 15.046Z" fill="#40C8E8"/>
<path d="M11.282 32C11.282 36.988 12.8418 41.3802 15.9613 45.1766C19.0813 48.9735 23.0822 51.3522 27.964 52.3126C28.2853 52.4086 28.5478 52.6011 28.7513 52.89C28.9549 53.1789 29.0567 53.5113 29.0567 53.8873C29.0567 54.4238 28.8456 54.8562 28.4233 55.1846C28.0011 55.5126 27.5216 55.5913 26.9847 55.4206C21.3709 54.2135 16.8033 51.4358 13.282 47.0873C9.76067 42.7384 8 37.7093 8 32C8 26.2906 9.76067 21.2615 13.282 16.9126C16.8033 12.5642 21.3709 9.78643 26.9847 8.57931C27.5216 8.40865 28.0011 8.48731 28.4233 8.81531C28.8456 9.14376 29.0567 9.5762 29.0567 10.1126C29.0567 10.4886 28.9549 10.8211 28.7513 11.11C28.5478 11.3989 28.2853 11.5913 27.964 11.6873C23.0822 12.6478 19.0813 15.0264 15.9613 18.8233C12.8418 22.6198 11.282 27.012 11.282 32ZM49.0053 48.954C47.3778 50.5913 45.5444 51.9715 43.5053 53.0946C41.4658 54.2178 39.2802 54.9931 36.9487 55.4206C36.4118 55.5571 35.9238 55.4698 35.4847 55.1586C35.0451 54.8475 34.8253 54.4238 34.8253 53.8873C34.8253 53.5113 34.9271 53.1789 35.1307 52.89C35.3342 52.6011 35.6138 52.4086 35.9693 52.3126C38.0307 51.9366 39.9682 51.2573 41.782 50.2746C43.5958 49.2915 45.236 48.0666 46.7027 46.6C48.1351 45.1231 49.3316 43.4915 50.292 41.7053C51.2529 39.9186 51.9264 38.0066 52.3127 35.9693C52.4087 35.6138 52.6011 35.3342 52.89 35.1306C53.1789 34.9271 53.5113 34.8253 53.8873 34.8253C54.4238 34.8253 54.8476 35.0451 55.1587 35.4846C55.4698 35.9238 55.5571 36.4118 55.4207 36.9486C54.9931 39.2802 54.2264 41.4546 53.1207 43.472C52.0144 45.4889 50.6427 47.3162 49.0053 48.954ZM49.0053 15.046C50.6427 16.6838 52.0144 18.5111 53.1207 20.528C54.2264 22.5453 54.9931 24.7198 55.4207 27.0513C55.5571 27.5882 55.4698 28.0762 55.1587 28.5153C54.8476 28.9549 54.4238 29.1746 53.8873 29.1746C53.5113 29.1746 53.1789 29.0729 52.89 28.8693C52.6011 28.6658 52.4087 28.3862 52.3127 28.0306C51.9264 25.9933 51.2529 24.0813 50.292 22.2946C49.3316 20.5084 48.1351 18.8769 46.7027 17.4C45.236 15.9333 43.5958 14.7084 41.782 13.7253C39.9682 12.7426 38.0307 12.0633 35.9693 11.6873C35.6138 11.5913 35.3342 11.3989 35.1307 11.11C34.9271 10.8211 34.8253 10.4886 34.8253 10.1126C34.8253 9.5762 35.0451 9.15243 35.4847 8.84131C35.9238 8.5302 36.4118 8.44287 36.9487 8.57931C39.2802 9.00687 41.4658 9.7822 43.5053 10.9053C45.5444 12.0284 47.3778 13.4086 49.0053 15.046Z" fill="white" fill-opacity="0.15"/>
</g>
</svg>
