<svg width="64" height="64" viewBox="0 0 64 64" fill="none" xmlns="http://www.w3.org/2000/svg">
<mask id="mask0_1747_4726" style="mask-type:alpha" maskUnits="userSpaceOnUse" x="0" y="0" width="64" height="64">
<rect width="64" height="64" fill="#D9D9D9"/>
</mask>
<g mask="url(#mask0_1747_4726)">
<path d="M32.0001 56C28.6872 56 25.5709 55.3684 22.6514 54.1053C19.7318 52.8418 17.1916 51.1298 15.0307 48.9693C12.8703 46.8084 11.1583 44.2682 9.89473 41.3487C8.63161 38.4291 8.00006 35.3129 8.00006 32C8.00006 29.2751 8.44628 26.6427 9.33873 24.1027C10.2307 21.5622 11.5418 19.2202 13.2721 17.0767L8.25139 12.0567C7.95717 11.7624 7.81006 11.4453 7.81006 11.1053C7.81006 10.7649 7.95717 10.4478 8.25139 10.154C8.54517 9.85978 8.86228 9.71267 9.20272 9.71267C9.54272 9.71267 9.85984 9.85978 10.1541 10.154L53.8461 53.846C54.1301 54.13 54.2721 54.4447 54.2721 54.79C54.2721 55.1353 54.1301 55.4498 53.8461 55.7333C53.5523 56.0276 53.2352 56.1747 52.8947 56.1747C52.5547 56.1747 52.2376 56.0276 51.9434 55.7333L46.9234 50.728C44.7798 52.4582 42.4378 53.7693 39.8974 54.6613C37.3574 55.5538 34.7249 56 32.0001 56ZM20.8307 10.7587C22.5298 9.788 24.3214 9.08556 26.2054 8.65133C28.0889 8.21711 30.0205 8 32.0001 8C35.1796 8 38.2378 8.60689 41.1747 9.82067C44.1112 11.0344 46.7094 12.7711 48.9694 15.0307C51.2289 17.2907 52.9656 19.8889 54.1794 22.8253C55.3932 25.7622 56.0001 28.8204 56.0001 32C56.0001 33.9453 55.7745 35.8427 55.3234 37.692C54.8718 39.5418 54.2118 41.3162 53.3434 43.0153C53.1692 43.3402 52.8974 43.5513 52.5281 43.6487C52.1592 43.746 51.8174 43.7024 51.5027 43.518C51.1881 43.3336 50.9794 43.0567 50.8767 42.6873C50.7745 42.318 50.8105 41.9658 50.9847 41.6307C51.7674 40.1267 52.3545 38.5609 52.7461 36.9333C53.1376 35.3058 53.3334 33.6613 53.3334 32C53.3334 26.0444 51.2667 21 47.1334 16.8667C43.0001 12.7333 37.9556 10.6667 32.0001 10.6667C30.3387 10.6667 28.6943 10.8624 27.0667 11.254C25.4392 11.6456 23.8734 12.2327 22.3694 13.0153C22.0343 13.1896 21.6821 13.234 21.3127 13.1487C20.9434 13.0633 20.6494 12.8633 20.4307 12.5487C20.2121 12.234 20.1429 11.9007 20.2234 11.5487C20.3034 11.1967 20.5058 10.9333 20.8307 10.7587ZM37.8101 30.3127L33.6874 26.19C33.4003 25.9024 33.2952 25.5631 33.3721 25.172C33.4489 24.7804 33.6805 24.518 34.0667 24.3847L40.2307 22.41C40.6512 22.2767 41.0161 22.3649 41.3254 22.6747C41.6352 22.984 41.7234 23.3489 41.5901 23.7693L39.6154 29.9333C39.4821 30.3196 39.2196 30.5511 38.8281 30.628C38.4369 30.7049 38.0976 30.5998 37.8101 30.3127ZM32.0001 53.3333C34.4583 53.3333 36.7838 52.9351 38.9767 52.1387C41.1701 51.3418 43.1796 50.2322 45.0054 48.81L34.3234 38.128L23.7694 41.59C23.3489 41.7233 22.9841 41.6351 22.6747 41.3253C22.3649 41.016 22.2767 40.6511 22.4101 40.2307L25.8721 29.6767L15.1901 18.9947C13.7678 20.8204 12.6583 22.83 11.8614 25.0233C11.0649 27.2162 10.6667 29.5418 10.6667 32C10.6667 37.9111 12.7445 42.9444 16.9001 47.1C21.0556 51.2556 26.0889 53.3333 32.0001 53.3333Z" fill="#40C8E8"/>
<path d="M32.0001 56C28.6872 56 25.5709 55.3684 22.6514 54.1053C19.7318 52.8418 17.1916 51.1298 15.0307 48.9693C12.8703 46.8084 11.1583 44.2682 9.89473 41.3487C8.63161 38.4291 8.00006 35.3129 8.00006 32C8.00006 29.2751 8.44628 26.6427 9.33873 24.1027C10.2307 21.5622 11.5418 19.2202 13.2721 17.0767L8.25139 12.0567C7.95717 11.7624 7.81006 11.4453 7.81006 11.1053C7.81006 10.7649 7.95717 10.4478 8.25139 10.154C8.54517 9.85978 8.86228 9.71267 9.20272 9.71267C9.54272 9.71267 9.85984 9.85978 10.1541 10.154L53.8461 53.846C54.1301 54.13 54.2721 54.4447 54.2721 54.79C54.2721 55.1353 54.1301 55.4498 53.8461 55.7333C53.5523 56.0276 53.2352 56.1747 52.8947 56.1747C52.5547 56.1747 52.2376 56.0276 51.9434 55.7333L46.9234 50.728C44.7798 52.4582 42.4378 53.7693 39.8974 54.6613C37.3574 55.5538 34.7249 56 32.0001 56ZM20.8307 10.7587C22.5298 9.788 24.3214 9.08556 26.2054 8.65133C28.0889 8.21711 30.0205 8 32.0001 8C35.1796 8 38.2378 8.60689 41.1747 9.82067C44.1112 11.0344 46.7094 12.7711 48.9694 15.0307C51.2289 17.2907 52.9656 19.8889 54.1794 22.8253C55.3932 25.7622 56.0001 28.8204 56.0001 32C56.0001 33.9453 55.7745 35.8427 55.3234 37.692C54.8718 39.5418 54.2118 41.3162 53.3434 43.0153C53.1692 43.3402 52.8974 43.5513 52.5281 43.6487C52.1592 43.746 51.8174 43.7024 51.5027 43.518C51.1881 43.3336 50.9794 43.0567 50.8767 42.6873C50.7745 42.318 50.8105 41.9658 50.9847 41.6307C51.7674 40.1267 52.3545 38.5609 52.7461 36.9333C53.1376 35.3058 53.3334 33.6613 53.3334 32C53.3334 26.0444 51.2667 21 47.1334 16.8667C43.0001 12.7333 37.9556 10.6667 32.0001 10.6667C30.3387 10.6667 28.6943 10.8624 27.0667 11.254C25.4392 11.6456 23.8734 12.2327 22.3694 13.0153C22.0343 13.1896 21.6821 13.234 21.3127 13.1487C20.9434 13.0633 20.6494 12.8633 20.4307 12.5487C20.2121 12.234 20.1429 11.9007 20.2234 11.5487C20.3034 11.1967 20.5058 10.9333 20.8307 10.7587ZM37.8101 30.3127L33.6874 26.19C33.4003 25.9024 33.2952 25.5631 33.3721 25.172C33.4489 24.7804 33.6805 24.518 34.0667 24.3847L40.2307 22.41C40.6512 22.2767 41.0161 22.3649 41.3254 22.6747C41.6352 22.984 41.7234 23.3489 41.5901 23.7693L39.6154 29.9333C39.4821 30.3196 39.2196 30.5511 38.8281 30.628C38.4369 30.7049 38.0976 30.5998 37.8101 30.3127ZM32.0001 53.3333C34.4583 53.3333 36.7838 52.9351 38.9767 52.1387C41.1701 51.3418 43.1796 50.2322 45.0054 48.81L34.3234 38.128L23.7694 41.59C23.3489 41.7233 22.9841 41.6351 22.6747 41.3253C22.3649 41.016 22.2767 40.6511 22.4101 40.2307L25.8721 29.6767L15.1901 18.9947C13.7678 20.8204 12.6583 22.83 11.8614 25.0233C11.0649 27.2162 10.6667 29.5418 10.6667 32C10.6667 37.9111 12.7445 42.9444 16.9001 47.1C21.0556 51.2556 26.0889 53.3333 32.0001 53.3333Z" fill="white" fill-opacity="0.15"/>
</g>
</svg>
