<svg width="64" height="64" viewBox="0 0 64 64" fill="none" xmlns="http://www.w3.org/2000/svg">
<mask id="mask0_1747_4636" style="mask-type:alpha" maskUnits="userSpaceOnUse" x="0" y="0" width="64" height="64">
<rect width="64" height="64" fill="#D9D9D9"/>
</mask>
<g mask="url(#mask0_1747_4636)">
<path d="M12.308 53.3333C11.0804 53.3333 10.0556 52.9222 9.23333 52.1C8.41111 51.2777 8 50.2529 8 49.0253V14.9746C8 13.7471 8.41111 12.7222 9.23333 11.9C10.0556 11.0777 11.0804 10.6666 12.308 10.6666H51.692C52.9196 10.6666 53.9444 11.0777 54.7667 11.9C55.5889 12.7222 56 13.7471 56 14.9746V49.0253C56 50.2529 55.5889 51.2777 54.7667 52.1C53.9444 52.9222 52.9196 53.3333 51.692 53.3333H12.308ZM12.308 50.6666H51.692C52.1027 50.6666 52.4789 50.4957 52.8207 50.154C53.1624 49.8122 53.3333 49.436 53.3333 49.0253V14.9746C53.3333 14.564 53.1624 14.1877 52.8207 13.846C52.4789 13.5042 52.1027 13.3333 51.692 13.3333H12.308C11.8973 13.3333 11.5211 13.5042 11.1793 13.846C10.8376 14.1877 10.6667 14.564 10.6667 14.9746V49.0253C10.6667 49.436 10.8376 49.8122 11.1793 50.154C11.5211 50.4957 11.8973 50.6666 12.308 50.6666ZM24 44C24.3796 44 24.6967 43.8726 24.9513 43.618C25.206 43.3633 25.3333 43.0462 25.3333 42.6666C25.3333 42.2871 25.206 41.97 24.9513 41.7153C24.6967 41.4606 24.3796 41.3333 24 41.3333H16C15.6204 41.3333 15.3033 41.4606 15.0487 41.7153C14.794 41.97 14.6667 42.2871 14.6667 42.6666C14.6667 43.0462 14.794 43.3633 15.0487 43.618C15.3033 43.8726 15.6204 44 16 44H24ZM38.8 34.364L35.9433 31.508C35.6838 31.248 35.3693 31.112 35 31.1C34.6307 31.088 34.3162 31.2291 34.0567 31.5233C33.8069 31.7829 33.688 32.0973 33.7 32.4666C33.712 32.836 33.848 33.1504 34.108 33.41L37.292 36.5946C37.7231 37.0257 38.2258 37.2413 38.8 37.2413C39.3742 37.2413 39.8769 37.0257 40.308 36.5946L49.1587 27.7433C49.4187 27.4837 49.5573 27.1777 49.5747 26.8253C49.5916 26.4733 49.4529 26.1504 49.1587 25.8566C48.8649 25.5624 48.548 25.4153 48.208 25.4153C47.8676 25.4153 47.5504 25.5624 47.2567 25.8566L38.8 34.364ZM24 33.3333C24.3796 33.3333 24.6967 33.206 24.9513 32.9513C25.206 32.6966 25.3333 32.3795 25.3333 32C25.3333 31.6204 25.206 31.3033 24.9513 31.0486C24.6967 30.794 24.3796 30.6666 24 30.6666H16C15.6204 30.6666 15.3033 30.794 15.0487 31.0486C14.794 31.3033 14.6667 31.6204 14.6667 32C14.6667 32.3795 14.794 32.6966 15.0487 32.9513C15.3033 33.206 15.6204 33.3333 16 33.3333H24ZM24 22.6666C24.3796 22.6666 24.6967 22.5393 24.9513 22.2846C25.206 22.03 25.3333 21.7128 25.3333 21.3333C25.3333 20.9537 25.206 20.6366 24.9513 20.382C24.6967 20.1273 24.3796 20 24 20H16C15.6204 20 15.3033 20.1273 15.0487 20.382C14.794 20.6366 14.6667 20.9537 14.6667 21.3333C14.6667 21.7128 14.794 22.03 15.0487 22.2846C15.3033 22.5393 15.6204 22.6666 16 22.6666H24Z" fill="#40C8E8"/>
<path d="M12.308 53.3333C11.0804 53.3333 10.0556 52.9222 9.23333 52.1C8.41111 51.2777 8 50.2529 8 49.0253V14.9746C8 13.7471 8.41111 12.7222 9.23333 11.9C10.0556 11.0777 11.0804 10.6666 12.308 10.6666H51.692C52.9196 10.6666 53.9444 11.0777 54.7667 11.9C55.5889 12.7222 56 13.7471 56 14.9746V49.0253C56 50.2529 55.5889 51.2777 54.7667 52.1C53.9444 52.9222 52.9196 53.3333 51.692 53.3333H12.308ZM12.308 50.6666H51.692C52.1027 50.6666 52.4789 50.4957 52.8207 50.154C53.1624 49.8122 53.3333 49.436 53.3333 49.0253V14.9746C53.3333 14.564 53.1624 14.1877 52.8207 13.846C52.4789 13.5042 52.1027 13.3333 51.692 13.3333H12.308C11.8973 13.3333 11.5211 13.5042 11.1793 13.846C10.8376 14.1877 10.6667 14.564 10.6667 14.9746V49.0253C10.6667 49.436 10.8376 49.8122 11.1793 50.154C11.5211 50.4957 11.8973 50.6666 12.308 50.6666ZM24 44C24.3796 44 24.6967 43.8726 24.9513 43.618C25.206 43.3633 25.3333 43.0462 25.3333 42.6666C25.3333 42.2871 25.206 41.97 24.9513 41.7153C24.6967 41.4606 24.3796 41.3333 24 41.3333H16C15.6204 41.3333 15.3033 41.4606 15.0487 41.7153C14.794 41.97 14.6667 42.2871 14.6667 42.6666C14.6667 43.0462 14.794 43.3633 15.0487 43.618C15.3033 43.8726 15.6204 44 16 44H24ZM38.8 34.364L35.9433 31.508C35.6838 31.248 35.3693 31.112 35 31.1C34.6307 31.088 34.3162 31.2291 34.0567 31.5233C33.8069 31.7829 33.688 32.0973 33.7 32.4666C33.712 32.836 33.848 33.1504 34.108 33.41L37.292 36.5946C37.7231 37.0257 38.2258 37.2413 38.8 37.2413C39.3742 37.2413 39.8769 37.0257 40.308 36.5946L49.1587 27.7433C49.4187 27.4837 49.5573 27.1777 49.5747 26.8253C49.5916 26.4733 49.4529 26.1504 49.1587 25.8566C48.8649 25.5624 48.548 25.4153 48.208 25.4153C47.8676 25.4153 47.5504 25.5624 47.2567 25.8566L38.8 34.364ZM24 33.3333C24.3796 33.3333 24.6967 33.206 24.9513 32.9513C25.206 32.6966 25.3333 32.3795 25.3333 32C25.3333 31.6204 25.206 31.3033 24.9513 31.0486C24.6967 30.794 24.3796 30.6666 24 30.6666H16C15.6204 30.6666 15.3033 30.794 15.0487 31.0486C14.794 31.3033 14.6667 31.6204 14.6667 32C14.6667 32.3795 14.794 32.6966 15.0487 32.9513C15.3033 33.206 15.6204 33.3333 16 33.3333H24ZM24 22.6666C24.3796 22.6666 24.6967 22.5393 24.9513 22.2846C25.206 22.03 25.3333 21.7128 25.3333 21.3333C25.3333 20.9537 25.206 20.6366 24.9513 20.382C24.6967 20.1273 24.3796 20 24 20H16C15.6204 20 15.3033 20.1273 15.0487 20.382C14.794 20.6366 14.6667 20.9537 14.6667 21.3333C14.6667 21.7128 14.794 22.03 15.0487 22.2846C15.3033 22.5393 15.6204 22.6666 16 22.6666H24Z" fill="white" fill-opacity="0.15"/>
</g>
</svg>
