<svg width="64" height="64" viewBox="0 0 64 64" fill="none" xmlns="http://www.w3.org/2000/svg">
<mask id="mask0_1747_4600" style="mask-type:alpha" maskUnits="userSpaceOnUse" x="0" y="0" width="64" height="64">
<rect width="64" height="64" fill="#D9D9D9"/>
</mask>
<g mask="url(#mask0_1747_4600)">
<path d="M35.9997 15.8413L31.343 20.4973C31.0834 20.7573 30.7774 20.8933 30.425 20.9053C30.073 20.9173 29.7501 20.7762 29.4563 20.482C29.1723 20.1882 29.0279 19.8738 29.023 19.5387C29.0177 19.2036 29.1621 18.8889 29.4563 18.5947L35.825 12.2253C36.2561 11.7947 36.7588 11.5793 37.333 11.5793C37.9072 11.5793 38.4099 11.7947 38.841 12.2253L45.2097 18.5947C45.4594 18.8445 45.5954 19.148 45.6177 19.5053C45.6399 19.8627 45.5039 20.1882 45.2097 20.482C44.9261 20.766 44.6117 20.908 44.2663 20.908C43.921 20.908 43.6066 20.766 43.323 20.482L38.6663 15.8413V52C38.6663 52.3796 38.539 52.6967 38.2843 52.9513C38.0297 53.206 37.7126 53.3333 37.333 53.3333C36.9534 53.3333 36.6363 53.206 36.3817 52.9513C36.127 52.6967 35.9997 52.3796 35.9997 52V43.8973C35.1312 40.6427 33.609 38.218 31.433 36.6233C29.257 35.0282 26.8834 34.2307 24.3123 34.2307C23.3448 34.2307 22.3601 34.2811 21.3583 34.382C20.357 34.4829 19.3897 34.612 18.4563 34.7693L23.1123 39.4253C23.3621 39.6751 23.4954 39.9787 23.5123 40.336C23.5297 40.6933 23.3912 41.0189 23.097 41.3127C22.8134 41.5967 22.499 41.7387 22.1537 41.7387C21.8083 41.7387 21.4937 41.5967 21.2097 41.3127L14.841 34.9433C14.4099 34.5127 14.1943 34.0102 14.1943 33.436C14.1943 32.8618 14.4099 32.3591 14.841 31.928L21.2097 25.5587C21.4594 25.3093 21.763 25.1736 22.1203 25.1513C22.4777 25.1291 22.8032 25.2649 23.097 25.5587C23.381 25.8427 23.523 26.1573 23.523 26.5027C23.523 26.848 23.381 27.1625 23.097 27.446L18.4563 32.1027C19.3688 31.9453 20.3037 31.8273 21.261 31.7487C22.2183 31.67 23.215 31.6307 24.251 31.6307C26.6852 31.6307 28.9057 32.1616 30.9123 33.2233C32.9194 34.2847 34.6152 35.8973 35.9997 38.0613V15.8413Z" fill="#40C8E8"/>
<path d="M35.9997 15.8413L31.343 20.4973C31.0834 20.7573 30.7774 20.8933 30.425 20.9053C30.073 20.9173 29.7501 20.7762 29.4563 20.482C29.1723 20.1882 29.0279 19.8738 29.023 19.5387C29.0177 19.2036 29.1621 18.8889 29.4563 18.5947L35.825 12.2253C36.2561 11.7947 36.7588 11.5793 37.333 11.5793C37.9072 11.5793 38.4099 11.7947 38.841 12.2253L45.2097 18.5947C45.4594 18.8445 45.5954 19.148 45.6177 19.5053C45.6399 19.8627 45.5039 20.1882 45.2097 20.482C44.9261 20.766 44.6117 20.908 44.2663 20.908C43.921 20.908 43.6066 20.766 43.323 20.482L38.6663 15.8413V52C38.6663 52.3796 38.539 52.6967 38.2843 52.9513C38.0297 53.206 37.7126 53.3333 37.333 53.3333C36.9534 53.3333 36.6363 53.206 36.3817 52.9513C36.127 52.6967 35.9997 52.3796 35.9997 52V43.8973C35.1312 40.6427 33.609 38.218 31.433 36.6233C29.257 35.0282 26.8834 34.2307 24.3123 34.2307C23.3448 34.2307 22.3601 34.2811 21.3583 34.382C20.357 34.4829 19.3897 34.612 18.4563 34.7693L23.1123 39.4253C23.3621 39.6751 23.4954 39.9787 23.5123 40.336C23.5297 40.6933 23.3912 41.0189 23.097 41.3127C22.8134 41.5967 22.499 41.7387 22.1537 41.7387C21.8083 41.7387 21.4937 41.5967 21.2097 41.3127L14.841 34.9433C14.4099 34.5127 14.1943 34.0102 14.1943 33.436C14.1943 32.8618 14.4099 32.3591 14.841 31.928L21.2097 25.5587C21.4594 25.3093 21.763 25.1736 22.1203 25.1513C22.4777 25.1291 22.8032 25.2649 23.097 25.5587C23.381 25.8427 23.523 26.1573 23.523 26.5027C23.523 26.848 23.381 27.1625 23.097 27.446L18.4563 32.1027C19.3688 31.9453 20.3037 31.8273 21.261 31.7487C22.2183 31.67 23.215 31.6307 24.251 31.6307C26.6852 31.6307 28.9057 32.1616 30.9123 33.2233C32.9194 34.2847 34.6152 35.8973 35.9997 38.0613V15.8413Z" fill="white" fill-opacity="0.15"/>
</g>
</svg>
