<svg width="64" height="64" viewBox="0 0 64 64" fill="none" xmlns="http://www.w3.org/2000/svg">
<mask id="mask0_1747_4714" style="mask-type:alpha" maskUnits="userSpaceOnUse" x="0" y="0" width="64" height="64">
<rect width="64" height="64" fill="#D9D9D9"/>
</mask>
<g mask="url(#mask0_1747_4714)">
<path d="M12.103 37.1947L16.7337 32.564L12.103 27.9333L7.47233 32.564L12.103 37.1947ZM47.2823 36.41L52.0003 28.8207L56.7697 36.41H47.2823ZM32.0183 34.6667C30.3997 34.6667 29.0177 34.0982 27.8723 32.9613C26.727 31.8249 26.1543 30.4447 26.1543 28.8207C26.1543 27.1642 26.7225 25.7758 27.859 24.6553C28.9959 23.5344 30.3763 22.974 32.0003 22.974C33.6568 22.974 35.0452 23.5327 36.1657 24.65C37.2861 25.7669 37.8463 27.1511 37.8463 28.8027C37.8463 30.4213 37.2879 31.8033 36.171 32.9487C35.0541 34.094 33.6699 34.6667 32.0183 34.6667ZM32.0003 25.6407C31.1421 25.6407 30.3977 25.9456 29.767 26.5553C29.1363 27.1647 28.821 27.9198 28.821 28.8207C28.821 29.6784 29.1363 30.4229 29.767 31.054C30.3977 31.6847 31.1505 32 32.0257 32C32.9012 32 33.6457 31.6847 34.259 31.054C34.8728 30.4229 35.1797 29.6698 35.1797 28.7947C35.1797 27.9196 34.875 27.1751 34.2657 26.5613C33.6563 25.9476 32.9012 25.6407 32.0003 25.6407ZM2.66699 44.9233V44.5693C2.66699 42.9213 3.53721 41.5598 5.27766 40.4847C7.0181 39.4096 9.27655 38.872 12.053 38.872C12.5614 38.872 13.0481 38.8916 13.513 38.9307C13.9779 38.9702 14.4208 39.0344 14.8417 39.1233C14.4585 39.8069 14.1628 40.5249 13.9543 41.2773C13.7459 42.0298 13.6417 42.8313 13.6417 43.682V46.872H4.61566C4.06366 46.872 3.60077 46.6851 3.22699 46.3113C2.85366 45.938 2.66699 45.4753 2.66699 44.9233ZM18.667 44.718V43.872C18.667 41.6667 19.8999 39.9144 22.3657 38.6153C24.831 37.3162 28.0472 36.6667 32.0143 36.6667C36.0188 36.6667 39.2397 37.3162 41.677 38.6153C44.1148 39.9144 45.3337 41.6667 45.3337 43.872V44.718C45.3337 45.3282 45.1272 45.8398 44.7143 46.2527C44.3014 46.6656 43.7899 46.872 43.1797 46.872H20.8417C20.2088 46.872 19.6881 46.6656 19.2797 46.2527C18.8712 45.8398 18.667 45.3282 18.667 44.718ZM52.0003 38.872C54.8003 38.872 57.0559 39.4096 58.767 40.4847C60.4781 41.5598 61.3337 42.9213 61.3337 44.5693V44.9233C61.3337 45.4753 61.147 45.938 60.7737 46.3113C60.3999 46.6851 59.937 46.872 59.385 46.872H50.359V43.674C50.359 42.8211 50.2659 42.0204 50.0797 41.272C49.8934 40.5231 49.6141 39.8069 49.2417 39.1233C49.6621 39.0344 50.1054 38.9702 50.5717 38.9307C51.0379 38.8916 51.5141 38.872 52.0003 38.872ZM31.9943 39.3333C28.9863 39.3333 26.491 39.7351 24.5083 40.5387C22.5252 41.3418 21.4925 42.376 21.4103 43.6413V44.2053H42.6057V43.6413C42.5132 42.376 41.4866 41.3418 39.5257 40.5387C37.5652 39.7351 35.0548 39.3333 31.9943 39.3333Z" fill="#40C8E8"/>
<path d="M12.103 37.1947L16.7337 32.564L12.103 27.9333L7.47233 32.564L12.103 37.1947ZM47.2823 36.41L52.0003 28.8207L56.7697 36.41H47.2823ZM32.0183 34.6667C30.3997 34.6667 29.0177 34.0982 27.8723 32.9613C26.727 31.8249 26.1543 30.4447 26.1543 28.8207C26.1543 27.1642 26.7225 25.7758 27.859 24.6553C28.9959 23.5344 30.3763 22.974 32.0003 22.974C33.6568 22.974 35.0452 23.5327 36.1657 24.65C37.2861 25.7669 37.8463 27.1511 37.8463 28.8027C37.8463 30.4213 37.2879 31.8033 36.171 32.9487C35.0541 34.094 33.6699 34.6667 32.0183 34.6667ZM32.0003 25.6407C31.1421 25.6407 30.3977 25.9456 29.767 26.5553C29.1363 27.1647 28.821 27.9198 28.821 28.8207C28.821 29.6784 29.1363 30.4229 29.767 31.054C30.3977 31.6847 31.1505 32 32.0257 32C32.9012 32 33.6457 31.6847 34.259 31.054C34.8728 30.4229 35.1797 29.6698 35.1797 28.7947C35.1797 27.9196 34.875 27.1751 34.2657 26.5613C33.6563 25.9476 32.9012 25.6407 32.0003 25.6407ZM2.66699 44.9233V44.5693C2.66699 42.9213 3.53721 41.5598 5.27766 40.4847C7.0181 39.4096 9.27655 38.872 12.053 38.872C12.5614 38.872 13.0481 38.8916 13.513 38.9307C13.9779 38.9702 14.4208 39.0344 14.8417 39.1233C14.4585 39.8069 14.1628 40.5249 13.9543 41.2773C13.7459 42.0298 13.6417 42.8313 13.6417 43.682V46.872H4.61566C4.06366 46.872 3.60077 46.6851 3.22699 46.3113C2.85366 45.938 2.66699 45.4753 2.66699 44.9233ZM18.667 44.718V43.872C18.667 41.6667 19.8999 39.9144 22.3657 38.6153C24.831 37.3162 28.0472 36.6667 32.0143 36.6667C36.0188 36.6667 39.2397 37.3162 41.677 38.6153C44.1148 39.9144 45.3337 41.6667 45.3337 43.872V44.718C45.3337 45.3282 45.1272 45.8398 44.7143 46.2527C44.3014 46.6656 43.7899 46.872 43.1797 46.872H20.8417C20.2088 46.872 19.6881 46.6656 19.2797 46.2527C18.8712 45.8398 18.667 45.3282 18.667 44.718ZM52.0003 38.872C54.8003 38.872 57.0559 39.4096 58.767 40.4847C60.4781 41.5598 61.3337 42.9213 61.3337 44.5693V44.9233C61.3337 45.4753 61.147 45.938 60.7737 46.3113C60.3999 46.6851 59.937 46.872 59.385 46.872H50.359V43.674C50.359 42.8211 50.2659 42.0204 50.0797 41.272C49.8934 40.5231 49.6141 39.8069 49.2417 39.1233C49.6621 39.0344 50.1054 38.9702 50.5717 38.9307C51.0379 38.8916 51.5141 38.872 52.0003 38.872ZM31.9943 39.3333C28.9863 39.3333 26.491 39.7351 24.5083 40.5387C22.5252 41.3418 21.4925 42.376 21.4103 43.6413V44.2053H42.6057V43.6413C42.5132 42.376 41.4866 41.3418 39.5257 40.5387C37.5652 39.7351 35.0548 39.3333 31.9943 39.3333Z" fill="white" fill-opacity="0.15"/>
</g>
</svg>
