<svg width="64" height="64" viewBox="0 0 64 64" fill="none" xmlns="http://www.w3.org/2000/svg">
<mask id="mask0_1747_4540" style="mask-type:alpha" maskUnits="userSpaceOnUse" x="0" y="0" width="64" height="64">
<rect width="64" height="64" fill="#D9D9D9"/>
</mask>
<g mask="url(#mask0_1747_4540)">
<path d="M16.0067 60C14.1564 60 12.5818 59.3525 11.2827 58.0574C9.98354 56.7623 9.33398 55.1896 9.33398 53.3394C9.33398 51.4891 9.98221 49.9145 11.2787 48.6154C12.5755 47.3163 14.15 46.6667 16.002 46.6667C16.5207 46.6667 17.0638 46.7418 17.6313 46.892C18.1989 47.0427 18.7271 47.2463 19.216 47.5027L25.9906 39.0767C25.0195 38.0412 24.358 36.896 24.006 35.6414C23.6535 34.3863 23.5935 33.1143 23.826 31.8254L13.862 28.5387C13.2775 29.5814 12.4711 30.4189 11.4427 31.0514C10.4138 31.6838 9.26643 32 8.00065 32C6.14865 32 4.57465 31.3525 3.27865 30.0574C1.98221 28.7623 1.33398 27.1896 1.33398 25.3394C1.33398 23.4892 1.98154 21.9145 3.27665 20.6154C4.57176 19.3163 6.14443 18.6667 7.99465 18.6667C9.84487 18.6667 11.4195 19.3149 12.7187 20.6114C14.0178 21.9074 14.6673 23.4814 14.6673 25.3334C14.6673 25.5592 14.6589 25.7336 14.642 25.8567C14.6247 25.9798 14.616 26.1027 14.616 26.2254L24.5287 29.682C25.11 28.5607 25.94 27.5812 27.0186 26.7434C28.0973 25.906 29.3649 25.366 30.8213 25.1234V14.554C29.1222 14.2358 27.7829 13.4452 26.8033 12.182C25.8238 10.9189 25.334 9.51782 25.334 7.97871C25.334 6.14671 25.9815 4.58115 27.2767 3.28204C28.5718 1.98293 30.1444 1.33337 31.9946 1.33337C33.8449 1.33337 35.4195 1.9816 36.7187 3.27804C38.0178 4.57404 38.6673 6.14804 38.6673 8.00004C38.6673 9.52493 38.1751 10.9189 37.1906 12.182C36.2058 13.4452 34.8689 14.2358 33.18 14.554V25.1234C34.6364 25.366 35.8955 25.906 36.9573 26.7434C38.0186 27.5812 38.8571 28.5607 39.4727 29.682L49.3853 26.2254C49.3511 26.0685 49.334 25.9369 49.334 25.8307V25.3334C49.334 23.4814 49.9815 21.9074 51.2766 20.6114C52.5718 19.3149 54.1444 18.6667 55.9946 18.6667C57.8449 18.6667 59.4195 19.3143 60.7186 20.6094C62.0178 21.9045 62.6673 23.4772 62.6673 25.3274C62.6673 27.1776 62.0191 28.7523 60.7226 30.0514C59.4266 31.3505 57.8526 32 56.0006 32C54.7455 32 53.5984 31.6838 52.5593 31.0514C51.5202 30.4189 50.7135 29.5814 50.1393 28.5387L40.1753 31.8254C40.4078 33.1143 40.3478 34.3836 39.9953 35.6334C39.6433 36.8832 38.9818 38.0138 38.0107 39.0254L44.7853 47.436C45.2742 47.2138 45.8024 47.03 46.37 46.8847C46.9375 46.7394 47.4806 46.6667 47.9993 46.6667C49.8513 46.6667 51.4258 47.3143 52.7226 48.6094C54.0191 49.9045 54.6673 51.4772 54.6673 53.3274C54.6673 55.1776 54.0198 56.7523 52.7246 58.0514C51.4295 59.3505 49.8569 60 48.0067 60C46.1564 60 44.5818 59.3518 43.2826 58.0554C41.9835 56.7594 41.334 55.1854 41.334 53.3334C41.334 52.5405 41.4613 51.7774 41.716 51.044C41.9706 50.3103 42.3938 49.6272 42.9853 48.9947L36.2107 40.4667C35.004 41.2498 33.6066 41.6414 32.0186 41.6414C30.4306 41.6414 29.0162 41.2498 27.7753 40.4667L21.016 48.9947C21.5733 49.6272 21.9878 50.3103 22.2593 51.044C22.5313 51.7774 22.6673 52.5405 22.6673 53.3334C22.6673 55.1854 22.0198 56.7594 20.7246 58.0554C19.4295 59.3518 17.8569 60 16.0067 60ZM8.00065 29.3334C9.09798 29.3334 10.0391 28.9412 10.824 28.1567C11.6084 27.3718 12.0007 26.4307 12.0007 25.3334C12.0007 24.236 11.6084 23.2949 10.824 22.51C10.0391 21.7256 9.09798 21.3334 8.00065 21.3334C6.90332 21.3334 5.96221 21.7256 5.17732 22.51C4.39287 23.2949 4.00065 24.236 4.00065 25.3334C4.00065 26.4307 4.39287 27.3718 5.17732 28.1567C5.96221 28.9412 6.90332 29.3334 8.00065 29.3334ZM16.0007 57.3334C17.098 57.3334 18.0391 56.9412 18.824 56.1567C19.6084 55.3718 20.0006 54.4307 20.0006 53.3334C20.0006 52.236 19.6084 51.2949 18.824 50.51C18.0391 49.7256 17.098 49.3334 16.0007 49.3334C14.9033 49.3334 13.9622 49.7256 13.1773 50.51C12.3929 51.2949 12.0007 52.236 12.0007 53.3334C12.0007 54.4307 12.3929 55.3718 13.1773 56.1567C13.9622 56.9412 14.9033 57.3334 16.0007 57.3334ZM32.0006 12C33.098 12 34.0391 11.6078 34.824 10.8234C35.6084 10.0385 36.0006 9.09737 36.0006 8.00004C36.0006 6.90271 35.6084 5.9616 34.824 5.17671C34.0391 4.39226 33.098 4.00004 32.0006 4.00004C30.9033 4.00004 29.9622 4.39226 29.1773 5.17671C28.3929 5.9616 28.0006 6.90271 28.0006 8.00004C28.0006 9.09737 28.3929 10.0385 29.1773 10.8234C29.9622 11.6078 30.9033 12 32.0006 12ZM32.0006 38.9747C33.5598 38.9747 34.8898 38.4243 35.9906 37.3234C37.0915 36.2225 37.642 34.8925 37.642 33.3334C37.642 31.7743 37.0915 30.4443 35.9906 29.3434C34.8898 28.2425 33.5598 27.692 32.0006 27.692C30.4415 27.692 29.1115 28.2425 28.0106 29.3434C26.9098 30.4443 26.3593 31.7743 26.3593 33.3334C26.3593 34.8925 26.9098 36.2225 28.0106 37.3234C29.1115 38.4243 30.4415 38.9747 32.0006 38.9747ZM48.0006 57.3334C49.098 57.3334 50.0391 56.9412 50.824 56.1567C51.6084 55.3718 52.0006 54.4307 52.0006 53.3334C52.0006 52.236 51.6084 51.2949 50.824 50.51C50.0391 49.7256 49.098 49.3334 48.0006 49.3334C46.9033 49.3334 45.9622 49.7256 45.1773 50.51C44.3929 51.2949 44.0006 52.236 44.0006 53.3334C44.0006 54.4307 44.3929 55.3718 45.1773 56.1567C45.9622 56.9412 46.9033 57.3334 48.0006 57.3334ZM56.0006 29.3334C57.098 29.3334 58.0391 28.9412 58.824 28.1567C59.6084 27.3718 60.0006 26.4307 60.0006 25.3334C60.0006 24.236 59.6084 23.2949 58.824 22.51C58.0391 21.7256 57.098 21.3334 56.0006 21.3334C54.9033 21.3334 53.9622 21.7256 53.1773 22.51C52.3929 23.2949 52.0006 24.236 52.0006 25.3334C52.0006 26.4307 52.3929 27.3718 53.1773 28.1567C53.9622 28.9412 54.9033 29.3334 56.0006 29.3334Z" fill="#40C8E8"/>
<path d="M16.0067 60C14.1564 60 12.5818 59.3525 11.2827 58.0574C9.98354 56.7623 9.33398 55.1896 9.33398 53.3394C9.33398 51.4891 9.98221 49.9145 11.2787 48.6154C12.5755 47.3163 14.15 46.6667 16.002 46.6667C16.5207 46.6667 17.0638 46.7418 17.6313 46.892C18.1989 47.0427 18.7271 47.2463 19.216 47.5027L25.9906 39.0767C25.0195 38.0412 24.358 36.896 24.006 35.6414C23.6535 34.3863 23.5935 33.1143 23.826 31.8254L13.862 28.5387C13.2775 29.5814 12.4711 30.4189 11.4427 31.0514C10.4138 31.6838 9.26643 32 8.00065 32C6.14865 32 4.57465 31.3525 3.27865 30.0574C1.98221 28.7623 1.33398 27.1896 1.33398 25.3394C1.33398 23.4892 1.98154 21.9145 3.27665 20.6154C4.57176 19.3163 6.14443 18.6667 7.99465 18.6667C9.84487 18.6667 11.4195 19.3149 12.7187 20.6114C14.0178 21.9074 14.6673 23.4814 14.6673 25.3334C14.6673 25.5592 14.6589 25.7336 14.642 25.8567C14.6247 25.9798 14.616 26.1027 14.616 26.2254L24.5287 29.682C25.11 28.5607 25.94 27.5812 27.0186 26.7434C28.0973 25.906 29.3649 25.366 30.8213 25.1234V14.554C29.1222 14.2358 27.7829 13.4452 26.8033 12.182C25.8238 10.9189 25.334 9.51782 25.334 7.97871C25.334 6.14671 25.9815 4.58115 27.2767 3.28204C28.5718 1.98293 30.1444 1.33337 31.9946 1.33337C33.8449 1.33337 35.4195 1.9816 36.7187 3.27804C38.0178 4.57404 38.6673 6.14804 38.6673 8.00004C38.6673 9.52493 38.1751 10.9189 37.1906 12.182C36.2058 13.4452 34.8689 14.2358 33.18 14.554V25.1234C34.6364 25.366 35.8955 25.906 36.9573 26.7434C38.0186 27.5812 38.8571 28.5607 39.4727 29.682L49.3853 26.2254C49.3511 26.0685 49.334 25.9369 49.334 25.8307V25.3334C49.334 23.4814 49.9815 21.9074 51.2766 20.6114C52.5718 19.3149 54.1444 18.6667 55.9946 18.6667C57.8449 18.6667 59.4195 19.3143 60.7186 20.6094C62.0178 21.9045 62.6673 23.4772 62.6673 25.3274C62.6673 27.1776 62.0191 28.7523 60.7226 30.0514C59.4266 31.3505 57.8526 32 56.0006 32C54.7455 32 53.5984 31.6838 52.5593 31.0514C51.5202 30.4189 50.7135 29.5814 50.1393 28.5387L40.1753 31.8254C40.4078 33.1143 40.3478 34.3836 39.9953 35.6334C39.6433 36.8832 38.9818 38.0138 38.0107 39.0254L44.7853 47.436C45.2742 47.2138 45.8024 47.03 46.37 46.8847C46.9375 46.7394 47.4806 46.6667 47.9993 46.6667C49.8513 46.6667 51.4258 47.3143 52.7226 48.6094C54.0191 49.9045 54.6673 51.4772 54.6673 53.3274C54.6673 55.1776 54.0198 56.7523 52.7246 58.0514C51.4295 59.3505 49.8569 60 48.0067 60C46.1564 60 44.5818 59.3518 43.2826 58.0554C41.9835 56.7594 41.334 55.1854 41.334 53.3334C41.334 52.5405 41.4613 51.7774 41.716 51.044C41.9706 50.3103 42.3938 49.6272 42.9853 48.9947L36.2107 40.4667C35.004 41.2498 33.6066 41.6414 32.0186 41.6414C30.4306 41.6414 29.0162 41.2498 27.7753 40.4667L21.016 48.9947C21.5733 49.6272 21.9878 50.3103 22.2593 51.044C22.5313 51.7774 22.6673 52.5405 22.6673 53.3334C22.6673 55.1854 22.0198 56.7594 20.7246 58.0554C19.4295 59.3518 17.8569 60 16.0067 60ZM8.00065 29.3334C9.09798 29.3334 10.0391 28.9412 10.824 28.1567C11.6084 27.3718 12.0007 26.4307 12.0007 25.3334C12.0007 24.236 11.6084 23.2949 10.824 22.51C10.0391 21.7256 9.09798 21.3334 8.00065 21.3334C6.90332 21.3334 5.96221 21.7256 5.17732 22.51C4.39287 23.2949 4.00065 24.236 4.00065 25.3334C4.00065 26.4307 4.39287 27.3718 5.17732 28.1567C5.96221 28.9412 6.90332 29.3334 8.00065 29.3334ZM16.0007 57.3334C17.098 57.3334 18.0391 56.9412 18.824 56.1567C19.6084 55.3718 20.0006 54.4307 20.0006 53.3334C20.0006 52.236 19.6084 51.2949 18.824 50.51C18.0391 49.7256 17.098 49.3334 16.0007 49.3334C14.9033 49.3334 13.9622 49.7256 13.1773 50.51C12.3929 51.2949 12.0007 52.236 12.0007 53.3334C12.0007 54.4307 12.3929 55.3718 13.1773 56.1567C13.9622 56.9412 14.9033 57.3334 16.0007 57.3334ZM32.0006 12C33.098 12 34.0391 11.6078 34.824 10.8234C35.6084 10.0385 36.0006 9.09737 36.0006 8.00004C36.0006 6.90271 35.6084 5.9616 34.824 5.17671C34.0391 4.39226 33.098 4.00004 32.0006 4.00004C30.9033 4.00004 29.9622 4.39226 29.1773 5.17671C28.3929 5.9616 28.0006 6.90271 28.0006 8.00004C28.0006 9.09737 28.3929 10.0385 29.1773 10.8234C29.9622 11.6078 30.9033 12 32.0006 12ZM32.0006 38.9747C33.5598 38.9747 34.8898 38.4243 35.9906 37.3234C37.0915 36.2225 37.642 34.8925 37.642 33.3334C37.642 31.7743 37.0915 30.4443 35.9906 29.3434C34.8898 28.2425 33.5598 27.692 32.0006 27.692C30.4415 27.692 29.1115 28.2425 28.0106 29.3434C26.9098 30.4443 26.3593 31.7743 26.3593 33.3334C26.3593 34.8925 26.9098 36.2225 28.0106 37.3234C29.1115 38.4243 30.4415 38.9747 32.0006 38.9747ZM48.0006 57.3334C49.098 57.3334 50.0391 56.9412 50.824 56.1567C51.6084 55.3718 52.0006 54.4307 52.0006 53.3334C52.0006 52.236 51.6084 51.2949 50.824 50.51C50.0391 49.7256 49.098 49.3334 48.0006 49.3334C46.9033 49.3334 45.9622 49.7256 45.1773 50.51C44.3929 51.2949 44.0006 52.236 44.0006 53.3334C44.0006 54.4307 44.3929 55.3718 45.1773 56.1567C45.9622 56.9412 46.9033 57.3334 48.0006 57.3334ZM56.0006 29.3334C57.098 29.3334 58.0391 28.9412 58.824 28.1567C59.6084 27.3718 60.0006 26.4307 60.0006 25.3334C60.0006 24.236 59.6084 23.2949 58.824 22.51C58.0391 21.7256 57.098 21.3334 56.0006 21.3334C54.9033 21.3334 53.9622 21.7256 53.1773 22.51C52.3929 23.2949 52.0006 24.236 52.0006 25.3334C52.0006 26.4307 52.3929 27.3718 53.1773 28.1567C53.9622 28.9412 54.9033 29.3334 56.0006 29.3334Z" fill="white" fill-opacity="0.15"/>
</g>
</svg>
