<svg width="64" height="64" viewBox="0 0 64 64" fill="none" xmlns="http://www.w3.org/2000/svg">
<mask id="mask0_1747_4618" style="mask-type:alpha" maskUnits="userSpaceOnUse" x="0" y="0" width="64" height="64">
<rect width="64" height="64" fill="#D9D9D9"/>
</mask>
<g mask="url(#mask0_1747_4618)">
<path d="M42.257 45.7433C43.2312 45.7433 44.0559 45.4057 44.731 44.7306C45.4061 44.0555 45.7437 43.2309 45.7437 42.2566C45.7437 41.282 45.4061 40.4571 44.731 39.782C44.0559 39.1068 43.2312 38.7693 42.257 38.7693C41.2823 38.7693 40.4574 39.1068 39.7823 39.782C39.1072 40.4571 38.7697 41.282 38.7697 42.2566C38.7697 43.2309 39.1072 44.0555 39.7823 44.7306C40.4574 45.4057 41.2823 45.7433 42.257 45.7433ZM32.0003 35.4873C32.9745 35.4873 33.7994 35.1497 34.475 34.4746C35.1501 33.7991 35.4877 32.9742 35.4877 32C35.4877 31.0257 35.1501 30.2008 34.475 29.5253C33.7994 28.8502 32.9745 28.5126 32.0003 28.5126C31.0261 28.5126 30.2012 28.8502 29.5257 29.5253C28.8505 30.2008 28.513 31.0257 28.513 32C28.513 32.9742 28.8505 33.7991 29.5257 34.4746C30.2012 35.1497 31.0261 35.4873 32.0003 35.4873ZM21.7437 25.2306C22.7183 25.2306 23.5432 24.8931 24.2183 24.218C24.8934 23.5428 25.231 22.718 25.231 21.7433C25.231 20.7691 24.8934 19.9444 24.2183 19.2693C23.5432 18.5942 22.7183 18.2566 21.7437 18.2566C20.7694 18.2566 19.9448 18.5942 19.2697 19.2693C18.5945 19.9444 18.257 20.7691 18.257 21.7433C18.257 22.718 18.5945 23.5428 19.2697 24.218C19.9448 24.8931 20.7694 25.2306 21.7437 25.2306ZM14.975 53.3333C13.7474 53.3333 12.7225 52.9222 11.9003 52.1C11.0781 51.2777 10.667 50.2529 10.667 49.0253V14.9746C10.667 13.7471 11.0781 12.7222 11.9003 11.9C12.7225 11.0777 13.7474 10.6666 14.975 10.6666H49.0257C50.2532 10.6666 51.2781 11.0777 52.1003 11.9C52.9226 12.7222 53.3337 13.7471 53.3337 14.9746V49.0253C53.3337 50.2529 52.9226 51.2777 52.1003 52.1C51.2781 52.9222 50.2532 53.3333 49.0257 53.3333H14.975ZM14.975 50.6666H49.0257C49.4363 50.6666 49.8125 50.4957 50.1543 50.154C50.4961 49.8122 50.667 49.436 50.667 49.0253V14.9746C50.667 14.564 50.4961 14.1877 50.1543 13.846C49.8125 13.5042 49.4363 13.3333 49.0257 13.3333H14.975C14.5643 13.3333 14.1881 13.5042 13.8463 13.846C13.5045 14.1877 13.3337 14.564 13.3337 14.9746V49.0253C13.3337 49.436 13.5045 49.8122 13.8463 50.154C14.1881 50.4957 14.5643 50.6666 14.975 50.6666Z" fill="#40C8E8"/>
<path d="M42.257 45.7433C43.2312 45.7433 44.0559 45.4057 44.731 44.7306C45.4061 44.0555 45.7437 43.2309 45.7437 42.2566C45.7437 41.282 45.4061 40.4571 44.731 39.782C44.0559 39.1068 43.2312 38.7693 42.257 38.7693C41.2823 38.7693 40.4574 39.1068 39.7823 39.782C39.1072 40.4571 38.7697 41.282 38.7697 42.2566C38.7697 43.2309 39.1072 44.0555 39.7823 44.7306C40.4574 45.4057 41.2823 45.7433 42.257 45.7433ZM32.0003 35.4873C32.9745 35.4873 33.7994 35.1497 34.475 34.4746C35.1501 33.7991 35.4877 32.9742 35.4877 32C35.4877 31.0257 35.1501 30.2008 34.475 29.5253C33.7994 28.8502 32.9745 28.5126 32.0003 28.5126C31.0261 28.5126 30.2012 28.8502 29.5257 29.5253C28.8505 30.2008 28.513 31.0257 28.513 32C28.513 32.9742 28.8505 33.7991 29.5257 34.4746C30.2012 35.1497 31.0261 35.4873 32.0003 35.4873ZM21.7437 25.2306C22.7183 25.2306 23.5432 24.8931 24.2183 24.218C24.8934 23.5428 25.231 22.718 25.231 21.7433C25.231 20.7691 24.8934 19.9444 24.2183 19.2693C23.5432 18.5942 22.7183 18.2566 21.7437 18.2566C20.7694 18.2566 19.9448 18.5942 19.2697 19.2693C18.5945 19.9444 18.257 20.7691 18.257 21.7433C18.257 22.718 18.5945 23.5428 19.2697 24.218C19.9448 24.8931 20.7694 25.2306 21.7437 25.2306ZM14.975 53.3333C13.7474 53.3333 12.7225 52.9222 11.9003 52.1C11.0781 51.2777 10.667 50.2529 10.667 49.0253V14.9746C10.667 13.7471 11.0781 12.7222 11.9003 11.9C12.7225 11.0777 13.7474 10.6666 14.975 10.6666H49.0257C50.2532 10.6666 51.2781 11.0777 52.1003 11.9C52.9226 12.7222 53.3337 13.7471 53.3337 14.9746V49.0253C53.3337 50.2529 52.9226 51.2777 52.1003 52.1C51.2781 52.9222 50.2532 53.3333 49.0257 53.3333H14.975ZM14.975 50.6666H49.0257C49.4363 50.6666 49.8125 50.4957 50.1543 50.154C50.4961 49.8122 50.667 49.436 50.667 49.0253V14.9746C50.667 14.564 50.4961 14.1877 50.1543 13.846C49.8125 13.5042 49.4363 13.3333 49.0257 13.3333H14.975C14.5643 13.3333 14.1881 13.5042 13.8463 13.846C13.5045 14.1877 13.3337 14.564 13.3337 14.9746V49.0253C13.3337 49.436 13.5045 49.8122 13.8463 50.154C14.1881 50.4957 14.5643 50.6666 14.975 50.6666Z" fill="white" fill-opacity="0.15"/>
</g>
</svg>
