<svg width="64" height="64" viewBox="0 0 64 64" fill="none" xmlns="http://www.w3.org/2000/svg">
<mask id="mask0_1747_4630" style="mask-type:alpha" maskUnits="userSpaceOnUse" x="0" y="0" width="64" height="64">
<rect width="64" height="64" fill="#D9D9D9"/>
</mask>
<g mask="url(#mask0_1747_4630)">
<path d="M14.975 53.3333C13.7474 53.3333 12.7225 52.9222 11.9003 52.1C11.0781 51.2777 10.667 50.2529 10.667 49.0253V41.3333C10.667 40.9537 10.7943 40.6366 11.049 40.382C11.3037 40.1273 11.6208 40 12.0003 40C12.3799 40 12.697 40.1273 12.9517 40.382C13.2063 40.6366 13.3337 40.9537 13.3337 41.3333V49.0253C13.3337 49.436 13.5045 49.8122 13.8463 50.154C14.1881 50.4957 14.5643 50.6666 14.975 50.6666H22.667C23.0465 50.6666 23.3637 50.794 23.6183 51.0486C23.873 51.3033 24.0003 51.6204 24.0003 52C24.0003 52.3795 23.873 52.6966 23.6183 52.9513C23.3637 53.206 23.0465 53.3333 22.667 53.3333H14.975ZM49.0257 53.3333H41.3337C40.9541 53.3333 40.637 53.206 40.3823 52.9513C40.1277 52.6966 40.0003 52.3795 40.0003 52C40.0003 51.6204 40.1277 51.3033 40.3823 51.0486C40.637 50.794 40.9541 50.6666 41.3337 50.6666H49.0257C49.4363 50.6666 49.8125 50.4957 50.1543 50.154C50.4961 49.8122 50.667 49.436 50.667 49.0253V41.3333C50.667 40.9537 50.7943 40.6366 51.049 40.382C51.3037 40.1273 51.6208 40 52.0003 40C52.3799 40 52.697 40.1273 52.9517 40.382C53.2063 40.6366 53.3337 40.9537 53.3337 41.3333V49.0253C53.3337 50.2529 52.9226 51.2777 52.1003 52.1C51.2781 52.9222 50.2532 53.3333 49.0257 53.3333ZM10.667 14.9746C10.667 13.7471 11.0781 12.7222 11.9003 11.9C12.7225 11.0777 13.7474 10.6666 14.975 10.6666H22.667C23.0465 10.6666 23.3637 10.794 23.6183 11.0486C23.873 11.3033 24.0003 11.6204 24.0003 12C24.0003 12.3795 23.873 12.6966 23.6183 12.9513C23.3637 13.206 23.0465 13.3333 22.667 13.3333H14.975C14.5643 13.3333 14.1881 13.5042 13.8463 13.846C13.5045 14.1877 13.3337 14.564 13.3337 14.9746V22.6666C13.3337 23.0462 13.2063 23.3633 12.9517 23.618C12.697 23.8726 12.3799 24 12.0003 24C11.6208 24 11.3037 23.8726 11.049 23.618C10.7943 23.3633 10.667 23.0462 10.667 22.6666V14.9746ZM53.3337 14.9746V22.6666C53.3337 23.0462 53.2063 23.3633 52.9517 23.618C52.697 23.8726 52.3799 24 52.0003 24C51.6208 24 51.3037 23.8726 51.049 23.618C50.7943 23.3633 50.667 23.0462 50.667 22.6666V14.9746C50.667 14.564 50.4961 14.1877 50.1543 13.846C49.8125 13.5042 49.4363 13.3333 49.0257 13.3333H41.3337C40.9541 13.3333 40.637 13.206 40.3823 12.9513C40.1277 12.6966 40.0003 12.3795 40.0003 12C40.0003 11.6204 40.1277 11.3033 40.3823 11.0486C40.637 10.794 40.9541 10.6666 41.3337 10.6666H49.0257C50.2532 10.6666 51.2781 11.0777 52.1003 11.9C52.9226 12.7222 53.3337 13.7471 53.3337 14.9746ZM32.103 45.8973C32.6946 45.8973 33.1928 45.6948 33.5977 45.29C34.003 44.8846 34.2057 44.3862 34.2057 43.7946C34.2057 43.2035 34.003 42.7053 33.5977 42.3C33.1928 41.8946 32.6946 41.692 32.103 41.692C31.5114 41.692 31.0132 41.8946 30.6083 42.3C30.203 42.7053 30.0003 43.2035 30.0003 43.7946C30.0003 44.3862 30.203 44.8846 30.6083 45.29C31.0132 45.6948 31.5114 45.8973 32.103 45.8973ZM32.103 20.5846C33.4634 20.5846 34.637 21.0171 35.6237 21.882C36.6099 22.7468 37.103 23.8375 37.103 25.154C37.103 26.1077 36.8234 26.976 36.2643 27.7586C35.7052 28.5417 35.065 29.2495 34.3437 29.882C33.1881 30.9384 32.3274 31.9222 31.7617 32.8333C31.1959 33.7444 30.8685 34.7417 30.7797 35.8253C30.7352 36.1742 30.8379 36.4709 31.0877 36.7153C31.337 36.9597 31.6412 37.082 32.0003 37.082C32.3492 37.082 32.651 36.9624 32.9057 36.7233C33.1603 36.4837 33.315 36.1844 33.3697 35.8253C33.4928 35.0697 33.7594 34.3946 34.1697 33.8C34.5799 33.2053 35.2243 32.4686 36.103 31.59C37.4532 30.2393 38.3839 29.1033 38.895 28.182C39.4061 27.2606 39.6617 26.236 39.6617 25.108C39.6617 23.0497 38.9661 21.3675 37.575 20.0613C36.1834 18.7555 34.3937 18.1026 32.2057 18.1026C30.691 18.1026 29.3054 18.4453 28.049 19.1306C26.7925 19.816 25.7865 20.8117 25.031 22.118C24.867 22.4117 24.8474 22.7253 24.9723 23.0586C25.0968 23.392 25.3283 23.6186 25.667 23.7386C25.9714 23.8582 26.2954 23.8666 26.639 23.764C26.9825 23.6613 27.2637 23.4682 27.4823 23.1846C28.0739 22.4255 28.7517 21.8024 29.5157 21.3153C30.2797 20.8282 31.1421 20.5846 32.103 20.5846Z" fill="#40C8E8"/>
<path d="M14.975 53.3333C13.7474 53.3333 12.7225 52.9222 11.9003 52.1C11.0781 51.2777 10.667 50.2529 10.667 49.0253V41.3333C10.667 40.9537 10.7943 40.6366 11.049 40.382C11.3037 40.1273 11.6208 40 12.0003 40C12.3799 40 12.697 40.1273 12.9517 40.382C13.2063 40.6366 13.3337 40.9537 13.3337 41.3333V49.0253C13.3337 49.436 13.5045 49.8122 13.8463 50.154C14.1881 50.4957 14.5643 50.6666 14.975 50.6666H22.667C23.0465 50.6666 23.3637 50.794 23.6183 51.0486C23.873 51.3033 24.0003 51.6204 24.0003 52C24.0003 52.3795 23.873 52.6966 23.6183 52.9513C23.3637 53.206 23.0465 53.3333 22.667 53.3333H14.975ZM49.0257 53.3333H41.3337C40.9541 53.3333 40.637 53.206 40.3823 52.9513C40.1277 52.6966 40.0003 52.3795 40.0003 52C40.0003 51.6204 40.1277 51.3033 40.3823 51.0486C40.637 50.794 40.9541 50.6666 41.3337 50.6666H49.0257C49.4363 50.6666 49.8125 50.4957 50.1543 50.154C50.4961 49.8122 50.667 49.436 50.667 49.0253V41.3333C50.667 40.9537 50.7943 40.6366 51.049 40.382C51.3037 40.1273 51.6208 40 52.0003 40C52.3799 40 52.697 40.1273 52.9517 40.382C53.2063 40.6366 53.3337 40.9537 53.3337 41.3333V49.0253C53.3337 50.2529 52.9226 51.2777 52.1003 52.1C51.2781 52.9222 50.2532 53.3333 49.0257 53.3333ZM10.667 14.9746C10.667 13.7471 11.0781 12.7222 11.9003 11.9C12.7225 11.0777 13.7474 10.6666 14.975 10.6666H22.667C23.0465 10.6666 23.3637 10.794 23.6183 11.0486C23.873 11.3033 24.0003 11.6204 24.0003 12C24.0003 12.3795 23.873 12.6966 23.6183 12.9513C23.3637 13.206 23.0465 13.3333 22.667 13.3333H14.975C14.5643 13.3333 14.1881 13.5042 13.8463 13.846C13.5045 14.1877 13.3337 14.564 13.3337 14.9746V22.6666C13.3337 23.0462 13.2063 23.3633 12.9517 23.618C12.697 23.8726 12.3799 24 12.0003 24C11.6208 24 11.3037 23.8726 11.049 23.618C10.7943 23.3633 10.667 23.0462 10.667 22.6666V14.9746ZM53.3337 14.9746V22.6666C53.3337 23.0462 53.2063 23.3633 52.9517 23.618C52.697 23.8726 52.3799 24 52.0003 24C51.6208 24 51.3037 23.8726 51.049 23.618C50.7943 23.3633 50.667 23.0462 50.667 22.6666V14.9746C50.667 14.564 50.4961 14.1877 50.1543 13.846C49.8125 13.5042 49.4363 13.3333 49.0257 13.3333H41.3337C40.9541 13.3333 40.637 13.206 40.3823 12.9513C40.1277 12.6966 40.0003 12.3795 40.0003 12C40.0003 11.6204 40.1277 11.3033 40.3823 11.0486C40.637 10.794 40.9541 10.6666 41.3337 10.6666H49.0257C50.2532 10.6666 51.2781 11.0777 52.1003 11.9C52.9226 12.7222 53.3337 13.7471 53.3337 14.9746ZM32.103 45.8973C32.6946 45.8973 33.1928 45.6948 33.5977 45.29C34.003 44.8846 34.2057 44.3862 34.2057 43.7946C34.2057 43.2035 34.003 42.7053 33.5977 42.3C33.1928 41.8946 32.6946 41.692 32.103 41.692C31.5114 41.692 31.0132 41.8946 30.6083 42.3C30.203 42.7053 30.0003 43.2035 30.0003 43.7946C30.0003 44.3862 30.203 44.8846 30.6083 45.29C31.0132 45.6948 31.5114 45.8973 32.103 45.8973ZM32.103 20.5846C33.4634 20.5846 34.637 21.0171 35.6237 21.882C36.6099 22.7468 37.103 23.8375 37.103 25.154C37.103 26.1077 36.8234 26.976 36.2643 27.7586C35.7052 28.5417 35.065 29.2495 34.3437 29.882C33.1881 30.9384 32.3274 31.9222 31.7617 32.8333C31.1959 33.7444 30.8685 34.7417 30.7797 35.8253C30.7352 36.1742 30.8379 36.4709 31.0877 36.7153C31.337 36.9597 31.6412 37.082 32.0003 37.082C32.3492 37.082 32.651 36.9624 32.9057 36.7233C33.1603 36.4837 33.315 36.1844 33.3697 35.8253C33.4928 35.0697 33.7594 34.3946 34.1697 33.8C34.5799 33.2053 35.2243 32.4686 36.103 31.59C37.4532 30.2393 38.3839 29.1033 38.895 28.182C39.4061 27.2606 39.6617 26.236 39.6617 25.108C39.6617 23.0497 38.9661 21.3675 37.575 20.0613C36.1834 18.7555 34.3937 18.1026 32.2057 18.1026C30.691 18.1026 29.3054 18.4453 28.049 19.1306C26.7925 19.816 25.7865 20.8117 25.031 22.118C24.867 22.4117 24.8474 22.7253 24.9723 23.0586C25.0968 23.392 25.3283 23.6186 25.667 23.7386C25.9714 23.8582 26.2954 23.8666 26.639 23.764C26.9825 23.6613 27.2637 23.4682 27.4823 23.1846C28.0739 22.4255 28.7517 21.8024 29.5157 21.3153C30.2797 20.8282 31.1421 20.5846 32.103 20.5846Z" fill="white" fill-opacity="0.15"/>
</g>
</svg>
