<svg width="60" height="60" viewBox="0 0 60 60" fill="none" xmlns="http://www.w3.org/2000/svg">
<mask id="mask0_1747_4732" style="mask-type:alpha" maskUnits="userSpaceOnUse" x="0" y="0" width="60" height="60">
<rect width="60" height="60" fill="#D9D9D9"/>
</mask>
<g mask="url(#mask0_1747_4732)">
<path d="M10 47.5H21.6825V27.5H10V47.5ZM24.1825 47.5H35.8175V12.5H24.1825V47.5ZM38.3175 47.5H50V32.5H38.3175V47.5ZM7.5 45.9613V29.0387C7.5 27.9279 7.89542 26.9771 8.68625 26.1862C9.47708 25.3954 10.4279 25 11.5387 25H21.6825V14.0387C21.6825 12.9279 22.0779 11.9771 22.8688 11.1862C23.6596 10.3954 24.6104 10 25.7213 10H34.2788C35.3896 10 36.3404 10.3954 37.1312 11.1862C37.9221 11.9771 38.3175 12.9279 38.3175 14.0387V30H48.4613C49.5721 30 50.5229 30.3954 51.3138 31.1863C52.1046 31.9771 52.5 32.9279 52.5 34.0388V45.9613C52.5 47.0721 52.1046 48.0229 51.3138 48.8138C50.5229 49.6046 49.5721 50 48.4613 50H11.5387C10.4279 50 9.47708 49.6046 8.68625 48.8138C7.89542 48.0229 7.5 47.0721 7.5 45.9613Z" fill="#4044E8"/>
<path d="M10 47.5H21.6825V27.5H10V47.5ZM24.1825 47.5H35.8175V12.5H24.1825V47.5ZM38.3175 47.5H50V32.5H38.3175V47.5ZM7.5 45.9613V29.0387C7.5 27.9279 7.89542 26.9771 8.68625 26.1862C9.47708 25.3954 10.4279 25 11.5387 25H21.6825V14.0387C21.6825 12.9279 22.0779 11.9771 22.8688 11.1862C23.6596 10.3954 24.6104 10 25.7213 10H34.2788C35.3896 10 36.3404 10.3954 37.1312 11.1862C37.9221 11.9771 38.3175 12.9279 38.3175 14.0387V30H48.4613C49.5721 30 50.5229 30.3954 51.3138 31.1863C52.1046 31.9771 52.5 32.9279 52.5 34.0388V45.9613C52.5 47.0721 52.1046 48.0229 51.3138 48.8138C50.5229 49.6046 49.5721 50 48.4613 50H11.5387C10.4279 50 9.47708 49.6046 8.68625 48.8138C7.89542 48.0229 7.5 47.0721 7.5 45.9613Z" fill="white" fill-opacity="0.3"/>
</g>
</svg>
