<svg width="64" height="64" viewBox="0 0 64 64" fill="none" xmlns="http://www.w3.org/2000/svg">
<mask id="mask0_1747_4672" style="mask-type:alpha" maskUnits="userSpaceOnUse" x="0" y="0" width="64" height="64">
<rect width="64" height="64" fill="#D9D9D9"/>
</mask>
<g mask="url(#mask0_1747_4672)">
<path d="M14.975 53.3333C13.7474 53.3333 12.7225 52.9222 11.9003 52.1C11.0781 51.2777 10.667 50.2529 10.667 49.0253V14.9746C10.667 13.7471 11.0781 12.7222 11.9003 11.9C12.7225 11.0777 13.7474 10.6666 14.975 10.6666H30.7183C31.0979 10.6666 31.415 10.794 31.6697 11.0486C31.9243 11.3033 32.0517 11.6204 32.0517 12C32.0517 12.3795 31.9243 12.6966 31.6697 12.9513C31.415 13.206 31.0979 13.3333 30.7183 13.3333H14.975C14.5643 13.3333 14.1881 13.5042 13.8463 13.846C13.5045 14.1877 13.3337 14.564 13.3337 14.9746V49.0253C13.3337 49.436 13.5045 49.8122 13.8463 50.154C14.1881 50.4957 14.5643 50.6666 14.975 50.6666H30.7183C31.0979 50.6666 31.415 50.794 31.6697 51.0486C31.9243 51.3033 32.0517 51.6204 32.0517 52C32.0517 52.3795 31.9243 52.6966 31.6697 52.9513C31.415 53.206 31.0979 53.3333 30.7183 53.3333H14.975ZM48.159 33.3333H25.8463C25.4668 33.3333 25.1497 33.206 24.895 32.9513C24.6403 32.6966 24.513 32.3795 24.513 32C24.513 31.6204 24.6403 31.3033 24.895 31.0486C25.1497 30.794 25.4668 30.6666 25.8463 30.6666H48.159L42.903 25.41C42.6532 25.1606 42.5199 24.86 42.503 24.508C42.4857 24.1555 42.619 23.8324 42.903 23.5386C43.1865 23.2444 43.501 23.0948 43.8463 23.09C44.1917 23.0846 44.5114 23.2291 44.8057 23.5233L51.775 30.492C52.2057 30.9231 52.421 31.4257 52.421 32C52.421 32.5742 52.2057 33.0768 51.775 33.508L44.8057 40.4766C44.5457 40.7366 44.237 40.8726 43.8797 40.8846C43.5223 40.8966 43.1968 40.7555 42.903 40.4613C42.619 40.1675 42.4797 39.8504 42.485 39.51C42.4899 39.17 42.6343 38.8582 42.9183 38.5746L48.159 33.3333Z" fill="#40C8E8"/>
<path d="M14.975 53.3333C13.7474 53.3333 12.7225 52.9222 11.9003 52.1C11.0781 51.2777 10.667 50.2529 10.667 49.0253V14.9746C10.667 13.7471 11.0781 12.7222 11.9003 11.9C12.7225 11.0777 13.7474 10.6666 14.975 10.6666H30.7183C31.0979 10.6666 31.415 10.794 31.6697 11.0486C31.9243 11.3033 32.0517 11.6204 32.0517 12C32.0517 12.3795 31.9243 12.6966 31.6697 12.9513C31.415 13.206 31.0979 13.3333 30.7183 13.3333H14.975C14.5643 13.3333 14.1881 13.5042 13.8463 13.846C13.5045 14.1877 13.3337 14.564 13.3337 14.9746V49.0253C13.3337 49.436 13.5045 49.8122 13.8463 50.154C14.1881 50.4957 14.5643 50.6666 14.975 50.6666H30.7183C31.0979 50.6666 31.415 50.794 31.6697 51.0486C31.9243 51.3033 32.0517 51.6204 32.0517 52C32.0517 52.3795 31.9243 52.6966 31.6697 52.9513C31.415 53.206 31.0979 53.3333 30.7183 53.3333H14.975ZM48.159 33.3333H25.8463C25.4668 33.3333 25.1497 33.206 24.895 32.9513C24.6403 32.6966 24.513 32.3795 24.513 32C24.513 31.6204 24.6403 31.3033 24.895 31.0486C25.1497 30.794 25.4668 30.6666 25.8463 30.6666H48.159L42.903 25.41C42.6532 25.1606 42.5199 24.86 42.503 24.508C42.4857 24.1555 42.619 23.8324 42.903 23.5386C43.1865 23.2444 43.501 23.0948 43.8463 23.09C44.1917 23.0846 44.5114 23.2291 44.8057 23.5233L51.775 30.492C52.2057 30.9231 52.421 31.4257 52.421 32C52.421 32.5742 52.2057 33.0768 51.775 33.508L44.8057 40.4766C44.5457 40.7366 44.237 40.8726 43.8797 40.8846C43.5223 40.8966 43.1968 40.7555 42.903 40.4613C42.619 40.1675 42.4797 39.8504 42.485 39.51C42.4899 39.17 42.6343 38.8582 42.9183 38.5746L48.159 33.3333Z" fill="white" fill-opacity="0.15"/>
</g>
</svg>
