<svg width="64" height="64" viewBox="0 0 64 64" fill="none" xmlns="http://www.w3.org/2000/svg">
<mask id="mask0_1747_4648" style="mask-type:alpha" maskUnits="userSpaceOnUse" x="0" y="0" width="64" height="64">
<rect width="64" height="64" fill="#D9D9D9"/>
</mask>
<g mask="url(#mask0_1747_4648)">
<path d="M6.35882 34.554C6.05482 34.3589 5.87282 34.088 5.81282 33.7414C5.75326 33.3943 5.81571 33.0634 6.00015 32.7487L13.5695 20.6054C14.3419 19.3574 15.4488 18.6863 16.8902 18.592C18.331 18.4983 19.5266 19.0036 20.4768 20.108L22.8722 22.882C23.2482 23.3265 23.7182 23.5231 24.2822 23.472C24.8462 23.4205 25.265 23.1554 25.5388 22.6767L31.0002 13.7947C31.817 12.448 33.0128 11.7549 34.5875 11.7154C36.1617 11.6763 37.3797 12.3249 38.2415 13.6614L40.7695 17.5487C41.1113 18.0274 41.5813 18.2667 42.1795 18.2667C42.7777 18.2667 43.2308 18.0103 43.5388 17.4974L50.3902 6.55403C50.5848 6.22914 50.8744 6.03159 51.2588 5.96136C51.6437 5.89159 51.9935 5.98137 52.3082 6.2307C52.5779 6.42581 52.7428 6.67959 52.8028 6.99203C52.8624 7.30492 52.7999 7.6187 52.6155 7.93336L45.7642 18.8767C44.9473 20.2136 43.7515 20.882 42.1768 20.882C40.6026 20.882 39.3848 20.2358 38.5235 18.9434L36.0462 15.1587C35.7044 14.6463 35.2344 14.3985 34.6362 14.4154C34.0379 14.4327 33.5848 14.6976 33.2768 15.21L27.8155 24.0414C27.0533 25.2889 25.943 25.9709 24.4848 26.0874C23.0266 26.2034 21.8224 25.7094 20.8722 24.6054L18.4615 21.764C18.0855 21.3196 17.6239 21.1231 17.0768 21.1747C16.5302 21.2258 16.1199 21.4907 15.8462 21.9694L8.27682 34.1794C8.08215 34.5043 7.7926 34.7103 7.40815 34.7974C7.02326 34.8845 6.67349 34.8034 6.35882 34.554ZM37.6415 48C39.7815 48 41.5899 47.2616 43.0668 45.7847C44.5437 44.3078 45.2822 42.4991 45.2822 40.3587C45.2822 38.2187 44.5437 36.4103 43.0668 34.9334C41.5899 33.4565 39.7815 32.718 37.6415 32.718C35.501 32.718 33.6924 33.4565 32.2155 34.9334C30.7386 36.4103 30.0002 38.2187 30.0002 40.3587C30.0002 42.4991 30.7386 44.3078 32.2155 45.7847C33.6924 47.2616 35.501 48 37.6415 48ZM37.6415 50.6667C34.7864 50.6667 32.3546 49.6625 30.3462 47.654C28.3377 45.6456 27.3335 43.2138 27.3335 40.3587C27.3335 37.504 28.3377 35.0725 30.3462 33.064C32.3546 31.0556 34.7864 30.0514 37.6415 30.0514C40.4962 30.0514 42.9277 31.0556 44.9362 33.064C46.9446 35.0725 47.9488 37.504 47.9488 40.3587C47.9488 41.5485 47.759 42.6794 47.3795 43.7514C46.9999 44.8229 46.465 45.7914 45.7748 46.6567L52.3388 53.272C52.5882 53.5214 52.7128 53.8187 52.7128 54.164C52.7128 54.5094 52.5882 54.8069 52.3388 55.0567C52.089 55.306 51.783 55.4307 51.4208 55.4307C51.0582 55.4307 50.7522 55.306 50.5028 55.0567L43.8875 48.492C43.0226 49.1827 42.0628 49.7178 41.0082 50.0974C39.953 50.4769 38.8308 50.6667 37.6415 50.6667Z" fill="#40C8E8"/>
<path d="M6.35882 34.554C6.05482 34.3589 5.87282 34.088 5.81282 33.7414C5.75326 33.3943 5.81571 33.0634 6.00015 32.7487L13.5695 20.6054C14.3419 19.3574 15.4488 18.6863 16.8902 18.592C18.331 18.4983 19.5266 19.0036 20.4768 20.108L22.8722 22.882C23.2482 23.3265 23.7182 23.5231 24.2822 23.472C24.8462 23.4205 25.265 23.1554 25.5388 22.6767L31.0002 13.7947C31.817 12.448 33.0128 11.7549 34.5875 11.7154C36.1617 11.6763 37.3797 12.3249 38.2415 13.6614L40.7695 17.5487C41.1113 18.0274 41.5813 18.2667 42.1795 18.2667C42.7777 18.2667 43.2308 18.0103 43.5388 17.4974L50.3902 6.55403C50.5848 6.22914 50.8744 6.03159 51.2588 5.96136C51.6437 5.89159 51.9935 5.98137 52.3082 6.2307C52.5779 6.42581 52.7428 6.67959 52.8028 6.99203C52.8624 7.30492 52.7999 7.6187 52.6155 7.93336L45.7642 18.8767C44.9473 20.2136 43.7515 20.882 42.1768 20.882C40.6026 20.882 39.3848 20.2358 38.5235 18.9434L36.0462 15.1587C35.7044 14.6463 35.2344 14.3985 34.6362 14.4154C34.0379 14.4327 33.5848 14.6976 33.2768 15.21L27.8155 24.0414C27.0533 25.2889 25.943 25.9709 24.4848 26.0874C23.0266 26.2034 21.8224 25.7094 20.8722 24.6054L18.4615 21.764C18.0855 21.3196 17.6239 21.1231 17.0768 21.1747C16.5302 21.2258 16.1199 21.4907 15.8462 21.9694L8.27682 34.1794C8.08215 34.5043 7.7926 34.7103 7.40815 34.7974C7.02326 34.8845 6.67349 34.8034 6.35882 34.554ZM37.6415 48C39.7815 48 41.5899 47.2616 43.0668 45.7847C44.5437 44.3078 45.2822 42.4991 45.2822 40.3587C45.2822 38.2187 44.5437 36.4103 43.0668 34.9334C41.5899 33.4565 39.7815 32.718 37.6415 32.718C35.501 32.718 33.6924 33.4565 32.2155 34.9334C30.7386 36.4103 30.0002 38.2187 30.0002 40.3587C30.0002 42.4991 30.7386 44.3078 32.2155 45.7847C33.6924 47.2616 35.501 48 37.6415 48ZM37.6415 50.6667C34.7864 50.6667 32.3546 49.6625 30.3462 47.654C28.3377 45.6456 27.3335 43.2138 27.3335 40.3587C27.3335 37.504 28.3377 35.0725 30.3462 33.064C32.3546 31.0556 34.7864 30.0514 37.6415 30.0514C40.4962 30.0514 42.9277 31.0556 44.9362 33.064C46.9446 35.0725 47.9488 37.504 47.9488 40.3587C47.9488 41.5485 47.759 42.6794 47.3795 43.7514C46.9999 44.8229 46.465 45.7914 45.7748 46.6567L52.3388 53.272C52.5882 53.5214 52.7128 53.8187 52.7128 54.164C52.7128 54.5094 52.5882 54.8069 52.3388 55.0567C52.089 55.306 51.783 55.4307 51.4208 55.4307C51.0582 55.4307 50.7522 55.306 50.5028 55.0567L43.8875 48.492C43.0226 49.1827 42.0628 49.7178 41.0082 50.0974C39.953 50.4769 38.8308 50.6667 37.6415 50.6667Z" fill="white" fill-opacity="0.15"/>
</g>
</svg>
