<svg width="64" height="64" viewBox="0 0 64 64" fill="none" xmlns="http://www.w3.org/2000/svg">
<mask id="mask0_1747_4720" style="mask-type:alpha" maskUnits="userSpaceOnUse" x="0" y="0" width="64" height="64">
<rect width="64" height="64" fill="#D9D9D9"/>
</mask>
<g mask="url(#mask0_1747_4720)">
<path d="M44.564 43.7333L38.5233 49.7747C38.2736 50.024 37.976 50.1402 37.6307 50.1233C37.2853 50.106 36.988 49.9727 36.7387 49.7233C36.4889 49.4736 36.364 49.1647 36.364 48.7967C36.364 48.4287 36.4889 48.1256 36.7387 47.8873L42.728 41.8973L36.6873 35.8567C36.4376 35.6069 36.3213 35.3009 36.3387 34.9387C36.3556 34.576 36.4889 34.27 36.7387 34.0207C36.988 33.7709 37.2967 33.646 37.6647 33.646C38.0331 33.646 38.3364 33.7709 38.5747 34.0207L44.564 40.0613L50.6053 34.0207C50.8436 33.7709 51.1467 33.646 51.5147 33.646C51.8827 33.646 52.1916 33.7709 52.4413 34.0207C52.6907 34.27 52.8153 34.5789 52.8153 34.9473C52.8153 35.3153 52.6907 35.6185 52.4413 35.8567L46.4 41.8973L52.4413 47.9387C52.6907 48.188 52.8153 48.4853 52.8153 48.8307C52.8153 49.176 52.6907 49.4736 52.4413 49.7233C52.1916 49.9727 51.8827 50.0973 51.5147 50.0973C51.1467 50.0973 50.8436 49.9727 50.6053 49.7233L44.564 43.7333ZM42.882 24.7233L53.272 14.3333C53.5316 14.0733 53.846 13.9373 54.2153 13.9253C54.5847 13.9138 54.8991 14.0549 55.1587 14.3487C55.4084 14.6211 55.5333 14.9387 55.5333 15.3013C55.5333 15.6645 55.4084 15.976 55.1587 16.236L44.4567 26.954C44.0256 27.3847 43.5229 27.6 42.9487 27.6C42.3744 27.6 41.872 27.3847 41.4413 26.954L36.272 21.7847C36.0222 21.5349 35.906 21.2289 35.9233 20.8667C35.9402 20.5044 36.0736 20.1984 36.3233 19.9487C36.5727 19.6993 36.8813 19.5747 37.2493 19.5747C37.6178 19.5747 37.9209 19.6993 38.1587 19.9487L42.882 24.7233ZM9.33333 40.308H28C28.3778 40.308 28.6944 40.4358 28.95 40.6913C29.2056 40.9473 29.3333 41.2645 29.3333 41.6427C29.3333 42.0209 29.2056 42.3373 28.95 42.592C28.6944 42.8471 28.3778 42.9747 28 42.9747H9.33333C8.95556 42.9747 8.63889 42.8467 8.38333 42.5907C8.12778 42.3347 8 42.0176 8 41.6393C8 41.2611 8.12778 40.9447 8.38333 40.69C8.63889 40.4353 8.95556 40.308 9.33333 40.308ZM9.33333 21.0253H28C28.3778 21.0253 28.6944 21.1533 28.95 21.4093C29.2056 21.6653 29.3333 21.9824 29.3333 22.3607C29.3333 22.7389 29.2056 23.0553 28.95 23.31C28.6944 23.5647 28.3778 23.692 28 23.692H9.33333C8.95556 23.692 8.63889 23.5642 8.38333 23.3087C8.12778 23.0527 8 22.7356 8 22.3573C8 21.9791 8.12778 21.6627 8.38333 21.408C8.63889 21.1529 8.95556 21.0253 9.33333 21.0253Z" fill="#40C8E8"/>
<path d="M44.564 43.7333L38.5233 49.7747C38.2736 50.024 37.976 50.1402 37.6307 50.1233C37.2853 50.106 36.988 49.9727 36.7387 49.7233C36.4889 49.4736 36.364 49.1647 36.364 48.7967C36.364 48.4287 36.4889 48.1256 36.7387 47.8873L42.728 41.8973L36.6873 35.8567C36.4376 35.6069 36.3213 35.3009 36.3387 34.9387C36.3556 34.576 36.4889 34.27 36.7387 34.0207C36.988 33.7709 37.2967 33.646 37.6647 33.646C38.0331 33.646 38.3364 33.7709 38.5747 34.0207L44.564 40.0613L50.6053 34.0207C50.8436 33.7709 51.1467 33.646 51.5147 33.646C51.8827 33.646 52.1916 33.7709 52.4413 34.0207C52.6907 34.27 52.8153 34.5789 52.8153 34.9473C52.8153 35.3153 52.6907 35.6185 52.4413 35.8567L46.4 41.8973L52.4413 47.9387C52.6907 48.188 52.8153 48.4853 52.8153 48.8307C52.8153 49.176 52.6907 49.4736 52.4413 49.7233C52.1916 49.9727 51.8827 50.0973 51.5147 50.0973C51.1467 50.0973 50.8436 49.9727 50.6053 49.7233L44.564 43.7333ZM42.882 24.7233L53.272 14.3333C53.5316 14.0733 53.846 13.9373 54.2153 13.9253C54.5847 13.9138 54.8991 14.0549 55.1587 14.3487C55.4084 14.6211 55.5333 14.9387 55.5333 15.3013C55.5333 15.6645 55.4084 15.976 55.1587 16.236L44.4567 26.954C44.0256 27.3847 43.5229 27.6 42.9487 27.6C42.3744 27.6 41.872 27.3847 41.4413 26.954L36.272 21.7847C36.0222 21.5349 35.906 21.2289 35.9233 20.8667C35.9402 20.5044 36.0736 20.1984 36.3233 19.9487C36.5727 19.6993 36.8813 19.5747 37.2493 19.5747C37.6178 19.5747 37.9209 19.6993 38.1587 19.9487L42.882 24.7233ZM9.33333 40.308H28C28.3778 40.308 28.6944 40.4358 28.95 40.6913C29.2056 40.9473 29.3333 41.2645 29.3333 41.6427C29.3333 42.0209 29.2056 42.3373 28.95 42.592C28.6944 42.8471 28.3778 42.9747 28 42.9747H9.33333C8.95556 42.9747 8.63889 42.8467 8.38333 42.5907C8.12778 42.3347 8 42.0176 8 41.6393C8 41.2611 8.12778 40.9447 8.38333 40.69C8.63889 40.4353 8.95556 40.308 9.33333 40.308ZM9.33333 21.0253H28C28.3778 21.0253 28.6944 21.1533 28.95 21.4093C29.2056 21.6653 29.3333 21.9824 29.3333 22.3607C29.3333 22.7389 29.2056 23.0553 28.95 23.31C28.6944 23.5647 28.3778 23.692 28 23.692H9.33333C8.95556 23.692 8.63889 23.5642 8.38333 23.3087C8.12778 23.0527 8 22.7356 8 22.3573C8 21.9791 8.12778 21.6627 8.38333 21.408C8.63889 21.1529 8.95556 21.0253 9.33333 21.0253Z" fill="white" fill-opacity="0.15"/>
</g>
</svg>
