<svg width="64" height="64" viewBox="0 0 64 64" fill="none" xmlns="http://www.w3.org/2000/svg">
<mask id="mask0_1747_4750" style="mask-type:alpha" maskUnits="userSpaceOnUse" x="0" y="0" width="64" height="64">
<rect width="64" height="64" fill="#D9D9D9"/>
</mask>
<g mask="url(#mask0_1747_4750)">
<path d="M30.3585 28.718C29.8083 28.718 29.3289 28.5137 28.9205 28.1053C28.5121 27.6964 28.3078 27.2168 28.3078 26.6666C28.3078 26.1164 28.5121 25.6368 28.9205 25.228C29.3289 24.8195 29.8083 24.6153 30.3585 24.6153C30.9092 24.6153 31.3887 24.8195 31.7972 25.228C32.2056 25.6368 32.4098 26.1164 32.4098 26.6666C32.4098 27.2168 32.2056 27.6964 31.7972 28.1053C31.3887 28.5137 30.9092 28.718 30.3585 28.718ZM41.0252 28.718C40.475 28.718 39.9956 28.5137 39.5872 28.1053C39.1787 27.6964 38.9745 27.2168 38.9745 26.6666C38.9745 26.1164 39.1787 25.6368 39.5872 25.228C39.9956 24.8195 40.475 24.6153 41.0252 24.6153C41.5758 24.6153 42.0554 24.8195 42.4638 25.228C42.8723 25.6368 43.0765 26.1164 43.0765 26.6666C43.0765 27.2168 42.8723 27.6964 42.4638 28.1053C42.0554 28.5137 41.5758 28.718 41.0252 28.718ZM51.6918 28.718C51.1416 28.718 50.6623 28.5137 50.2538 28.1053C49.8454 27.6964 49.6412 27.2168 49.6412 26.6666C49.6412 26.1164 49.8454 25.6368 50.2538 25.228C50.6623 24.8195 51.1416 24.6153 51.6918 24.6153C52.2425 24.6153 52.7221 24.8195 53.1305 25.228C53.539 25.6368 53.7432 26.1164 53.7432 26.6666C53.7432 27.2168 53.539 27.6964 53.1305 28.1053C52.7221 28.5137 52.2425 28.718 51.6918 28.718ZM50.4818 53.3333C45.9863 53.3333 41.3778 52.2077 36.6565 49.9566C31.9352 47.7051 27.5487 44.5451 23.4972 40.4766C19.4461 36.4086 16.2947 32.0224 14.0432 27.318C11.7921 22.6135 10.6665 18.0135 10.6665 13.518C10.6665 12.7033 10.9332 12.0244 11.4665 11.4813C11.9998 10.9382 12.6665 10.6666 13.4665 10.6666H20.0612C20.7861 10.6666 21.4185 10.8948 21.9585 11.3513C22.4989 11.8077 22.8649 12.3933 23.0565 13.108L24.3792 19.4666C24.5023 20.212 24.4801 20.8633 24.3125 21.4206C24.1449 21.978 23.8492 22.4344 23.4252 22.79L17.5745 28.246C18.6683 30.2322 19.8776 32.0775 21.2025 33.782C22.5274 35.4864 23.9403 37.1008 25.4412 38.6253C26.9896 40.1742 28.6563 41.6144 30.4412 42.946C32.2256 44.2775 34.1845 45.5349 36.3178 46.718L42.0205 40.9126C42.4547 40.4442 42.9427 40.1357 43.4845 39.9873C44.0263 39.8384 44.6254 39.8084 45.2818 39.8973L50.8918 41.046C51.6167 41.2237 52.2049 41.5889 52.6565 42.1413C53.1076 42.6933 53.3332 43.3266 53.3332 44.0413V50.5333C53.3332 51.3333 53.0616 52 52.5185 52.5333C51.9754 53.0666 51.2965 53.3333 50.4818 53.3333ZM16.3232 25.7433L21.4412 21.036C21.6118 20.8991 21.7229 20.7111 21.7745 20.472C21.8256 20.2324 21.8169 20.0102 21.7485 19.8053L20.5638 14.154C20.4954 13.8802 20.3758 13.6751 20.2052 13.5386C20.0341 13.4017 19.8118 13.3333 19.5385 13.3333H14.0665C13.8612 13.3333 13.6903 13.4017 13.5538 13.5386C13.4169 13.6751 13.3485 13.846 13.3485 14.0513C13.3996 15.8735 13.6852 17.776 14.2052 19.7586C14.7247 21.7417 15.4307 23.7366 16.3232 25.7433ZM38.8565 47.9693C40.6578 48.8617 42.5783 49.5215 44.6178 49.9486C46.657 50.3762 48.4338 50.6053 49.9485 50.636C50.1538 50.636 50.3247 50.5675 50.4612 50.4306C50.5981 50.2937 50.6665 50.1229 50.6665 49.918V44.564C50.6665 44.2906 50.5981 44.0684 50.4612 43.8973C50.3247 43.7266 50.1196 43.6071 49.8458 43.5386L44.9125 42.528C44.7076 42.4595 44.5283 42.4511 44.3745 42.5026C44.2203 42.5537 44.0578 42.6649 43.8872 42.836L38.8565 47.9693Z" fill="#40C8E8"/>
<path d="M30.3585 28.718C29.8083 28.718 29.3289 28.5137 28.9205 28.1053C28.5121 27.6964 28.3078 27.2168 28.3078 26.6666C28.3078 26.1164 28.5121 25.6368 28.9205 25.228C29.3289 24.8195 29.8083 24.6153 30.3585 24.6153C30.9092 24.6153 31.3887 24.8195 31.7972 25.228C32.2056 25.6368 32.4098 26.1164 32.4098 26.6666C32.4098 27.2168 32.2056 27.6964 31.7972 28.1053C31.3887 28.5137 30.9092 28.718 30.3585 28.718ZM41.0252 28.718C40.475 28.718 39.9956 28.5137 39.5872 28.1053C39.1787 27.6964 38.9745 27.2168 38.9745 26.6666C38.9745 26.1164 39.1787 25.6368 39.5872 25.228C39.9956 24.8195 40.475 24.6153 41.0252 24.6153C41.5758 24.6153 42.0554 24.8195 42.4638 25.228C42.8723 25.6368 43.0765 26.1164 43.0765 26.6666C43.0765 27.2168 42.8723 27.6964 42.4638 28.1053C42.0554 28.5137 41.5758 28.718 41.0252 28.718ZM51.6918 28.718C51.1416 28.718 50.6623 28.5137 50.2538 28.1053C49.8454 27.6964 49.6412 27.2168 49.6412 26.6666C49.6412 26.1164 49.8454 25.6368 50.2538 25.228C50.6623 24.8195 51.1416 24.6153 51.6918 24.6153C52.2425 24.6153 52.7221 24.8195 53.1305 25.228C53.539 25.6368 53.7432 26.1164 53.7432 26.6666C53.7432 27.2168 53.539 27.6964 53.1305 28.1053C52.7221 28.5137 52.2425 28.718 51.6918 28.718ZM50.4818 53.3333C45.9863 53.3333 41.3778 52.2077 36.6565 49.9566C31.9352 47.7051 27.5487 44.5451 23.4972 40.4766C19.4461 36.4086 16.2947 32.0224 14.0432 27.318C11.7921 22.6135 10.6665 18.0135 10.6665 13.518C10.6665 12.7033 10.9332 12.0244 11.4665 11.4813C11.9998 10.9382 12.6665 10.6666 13.4665 10.6666H20.0612C20.7861 10.6666 21.4185 10.8948 21.9585 11.3513C22.4989 11.8077 22.8649 12.3933 23.0565 13.108L24.3792 19.4666C24.5023 20.212 24.4801 20.8633 24.3125 21.4206C24.1449 21.978 23.8492 22.4344 23.4252 22.79L17.5745 28.246C18.6683 30.2322 19.8776 32.0775 21.2025 33.782C22.5274 35.4864 23.9403 37.1008 25.4412 38.6253C26.9896 40.1742 28.6563 41.6144 30.4412 42.946C32.2256 44.2775 34.1845 45.5349 36.3178 46.718L42.0205 40.9126C42.4547 40.4442 42.9427 40.1357 43.4845 39.9873C44.0263 39.8384 44.6254 39.8084 45.2818 39.8973L50.8918 41.046C51.6167 41.2237 52.2049 41.5889 52.6565 42.1413C53.1076 42.6933 53.3332 43.3266 53.3332 44.0413V50.5333C53.3332 51.3333 53.0616 52 52.5185 52.5333C51.9754 53.0666 51.2965 53.3333 50.4818 53.3333ZM16.3232 25.7433L21.4412 21.036C21.6118 20.8991 21.7229 20.7111 21.7745 20.472C21.8256 20.2324 21.8169 20.0102 21.7485 19.8053L20.5638 14.154C20.4954 13.8802 20.3758 13.6751 20.2052 13.5386C20.0341 13.4017 19.8118 13.3333 19.5385 13.3333H14.0665C13.8612 13.3333 13.6903 13.4017 13.5538 13.5386C13.4169 13.6751 13.3485 13.846 13.3485 14.0513C13.3996 15.8735 13.6852 17.776 14.2052 19.7586C14.7247 21.7417 15.4307 23.7366 16.3232 25.7433ZM38.8565 47.9693C40.6578 48.8617 42.5783 49.5215 44.6178 49.9486C46.657 50.3762 48.4338 50.6053 49.9485 50.636C50.1538 50.636 50.3247 50.5675 50.4612 50.4306C50.5981 50.2937 50.6665 50.1229 50.6665 49.918V44.564C50.6665 44.2906 50.5981 44.0684 50.4612 43.8973C50.3247 43.7266 50.1196 43.6071 49.8458 43.5386L44.9125 42.528C44.7076 42.4595 44.5283 42.4511 44.3745 42.5026C44.2203 42.5537 44.0578 42.6649 43.8872 42.836L38.8565 47.9693Z" fill="white" fill-opacity="0.15"/>
</g>
</svg>
