<svg width="64" height="64" viewBox="0 0 64 64" fill="none" xmlns="http://www.w3.org/2000/svg">
<mask id="mask0_1747_4624" style="mask-type:alpha" maskUnits="userSpaceOnUse" x="0" y="0" width="64" height="64">
<rect width="64" height="64" fill="#D9D9D9"/>
</mask>
<g mask="url(#mask0_1747_4624)">
<path d="M8.35834 52.3587L22.5077 38.21C23.3246 37.3931 24.3348 36.9847 25.5383 36.9847C26.7415 36.9847 27.7517 37.3931 28.569 38.21L34.9743 44.6154C35.3161 44.9571 35.7263 45.1196 36.205 45.1027C36.6837 45.0854 37.0768 44.8887 37.3843 44.5127L53.9384 25.5027C54.1877 25.1982 54.4877 25.046 54.8383 25.046C55.1886 25.046 55.5108 25.176 55.805 25.436C56.0543 25.6854 56.1901 25.9751 56.2123 26.3054C56.2346 26.6351 56.121 26.9471 55.8717 27.2414L39.323 46.3487C38.5057 47.2994 37.4783 47.7994 36.241 47.8487C35.0032 47.8985 33.9312 47.4702 33.025 46.564L26.7177 40.2567C26.4101 39.9487 26.017 39.7947 25.5383 39.7947C25.0597 39.7947 24.6663 39.9487 24.3583 40.2567L10.3077 54.308C10.0375 54.5778 9.72101 54.7214 9.35834 54.7387C8.99612 54.7556 8.66279 54.612 8.35834 54.308C8.05434 54.0036 7.90234 53.6787 7.90234 53.3334C7.90234 52.988 8.05434 52.6631 8.35834 52.3587ZM8.35834 36.3587L22.5077 22.21C23.3246 21.3931 24.3348 20.9847 25.5383 20.9847C26.7415 20.9847 27.7517 21.3931 28.569 22.21L34.9743 28.6154C35.3161 28.9571 35.7263 29.1196 36.205 29.1027C36.6837 29.0854 37.0768 28.8887 37.3843 28.5127L53.9384 9.50269C54.1877 9.19824 54.4877 9.04602 54.8383 9.04602C55.1886 9.04602 55.5108 9.17602 55.805 9.43602C56.0543 9.68535 56.1901 9.97513 56.2123 10.3054C56.2346 10.6351 56.121 10.9471 55.8717 11.2414L39.323 30.3487C38.5057 31.2994 37.4783 31.7994 36.241 31.8487C35.0032 31.8985 33.9312 31.4702 33.025 30.564L26.7177 24.2567C26.4101 23.9487 26.017 23.7947 25.5383 23.7947C25.0597 23.7947 24.6663 23.9487 24.3583 24.2567L10.3077 38.308C10.0375 38.5778 9.72101 38.7214 9.35834 38.7387C8.99612 38.7556 8.66279 38.612 8.35834 38.308C8.05434 38.0036 7.90234 37.6787 7.90234 37.3334C7.90234 36.988 8.05434 36.6631 8.35834 36.3587Z" fill="#40C8E8"/>
<path d="M8.35834 52.3587L22.5077 38.21C23.3246 37.3931 24.3348 36.9847 25.5383 36.9847C26.7415 36.9847 27.7517 37.3931 28.569 38.21L34.9743 44.6154C35.3161 44.9571 35.7263 45.1196 36.205 45.1027C36.6837 45.0854 37.0768 44.8887 37.3843 44.5127L53.9384 25.5027C54.1877 25.1982 54.4877 25.046 54.8383 25.046C55.1886 25.046 55.5108 25.176 55.805 25.436C56.0543 25.6854 56.1901 25.9751 56.2123 26.3054C56.2346 26.6351 56.121 26.9471 55.8717 27.2414L39.323 46.3487C38.5057 47.2994 37.4783 47.7994 36.241 47.8487C35.0032 47.8985 33.9312 47.4702 33.025 46.564L26.7177 40.2567C26.4101 39.9487 26.017 39.7947 25.5383 39.7947C25.0597 39.7947 24.6663 39.9487 24.3583 40.2567L10.3077 54.308C10.0375 54.5778 9.72101 54.7214 9.35834 54.7387C8.99612 54.7556 8.66279 54.612 8.35834 54.308C8.05434 54.0036 7.90234 53.6787 7.90234 53.3334C7.90234 52.988 8.05434 52.6631 8.35834 52.3587ZM8.35834 36.3587L22.5077 22.21C23.3246 21.3931 24.3348 20.9847 25.5383 20.9847C26.7415 20.9847 27.7517 21.3931 28.569 22.21L34.9743 28.6154C35.3161 28.9571 35.7263 29.1196 36.205 29.1027C36.6837 29.0854 37.0768 28.8887 37.3843 28.5127L53.9384 9.50269C54.1877 9.19824 54.4877 9.04602 54.8383 9.04602C55.1886 9.04602 55.5108 9.17602 55.805 9.43602C56.0543 9.68535 56.1901 9.97513 56.2123 10.3054C56.2346 10.6351 56.121 10.9471 55.8717 11.2414L39.323 30.3487C38.5057 31.2994 37.4783 31.7994 36.241 31.8487C35.0032 31.8985 33.9312 31.4702 33.025 30.564L26.7177 24.2567C26.4101 23.9487 26.017 23.7947 25.5383 23.7947C25.0597 23.7947 24.6663 23.9487 24.3583 24.2567L10.3077 38.308C10.0375 38.5778 9.72101 38.7214 9.35834 38.7387C8.99612 38.7556 8.66279 38.612 8.35834 38.308C8.05434 38.0036 7.90234 37.6787 7.90234 37.3334C7.90234 36.988 8.05434 36.6631 8.35834 36.3587Z" fill="white" fill-opacity="0.15"/>
</g>
</svg>
