<svg width="64" height="64" viewBox="0 0 64 64" fill="none" xmlns="http://www.w3.org/2000/svg">
<mask id="mask0_1747_4708" style="mask-type:alpha" maskUnits="userSpaceOnUse" x="0" y="0" width="64" height="64">
<rect width="64" height="64" fill="#D9D9D9"/>
</mask>
<g mask="url(#mask0_1747_4708)">
<path d="M32.0003 34.9693L20.6769 46.2767C20.4276 46.5264 20.1243 46.6624 19.7669 46.6847C19.4096 46.7069 19.084 46.5709 18.7903 46.2767C18.5063 45.9931 18.3643 45.6787 18.3643 45.3333C18.3643 44.988 18.5063 44.6735 18.7903 44.39L30.0463 33.1333C30.5898 32.5898 31.2411 32.318 32.0003 32.318C32.7594 32.318 33.4107 32.5898 33.9543 33.1333L45.2103 44.39C45.46 44.6393 45.596 44.9427 45.6183 45.3C45.6405 45.6573 45.5045 45.9829 45.2103 46.2767C44.9267 46.5607 44.6123 46.7027 44.2669 46.7027C43.9216 46.7027 43.6071 46.5607 43.3236 46.2767L32.0003 34.9693ZM32.0003 18.9693L20.6769 30.2767C20.4276 30.5264 20.1243 30.6624 19.7669 30.6847C19.4096 30.7069 19.084 30.5709 18.7903 30.2767C18.5063 29.9931 18.3643 29.6787 18.3643 29.3333C18.3643 28.988 18.5063 28.6735 18.7903 28.39L30.0463 17.1333C30.5898 16.5898 31.2411 16.318 32.0003 16.318C32.7594 16.318 33.4107 16.5898 33.9543 17.1333L45.2103 28.39C45.46 28.6393 45.596 28.9427 45.6183 29.3C45.6405 29.6573 45.5045 29.9829 45.2103 30.2767C44.9267 30.5607 44.6123 30.7027 44.2669 30.7027C43.9216 30.7027 43.6071 30.5607 43.3236 30.2767L32.0003 18.9693Z" fill="#40C8E8"/>
<path d="M32.0003 34.9693L20.6769 46.2767C20.4276 46.5264 20.1243 46.6624 19.7669 46.6847C19.4096 46.7069 19.084 46.5709 18.7903 46.2767C18.5063 45.9931 18.3643 45.6787 18.3643 45.3333C18.3643 44.988 18.5063 44.6735 18.7903 44.39L30.0463 33.1333C30.5898 32.5898 31.2411 32.318 32.0003 32.318C32.7594 32.318 33.4107 32.5898 33.9543 33.1333L45.2103 44.39C45.46 44.6393 45.596 44.9427 45.6183 45.3C45.6405 45.6573 45.5045 45.9829 45.2103 46.2767C44.9267 46.5607 44.6123 46.7027 44.2669 46.7027C43.9216 46.7027 43.6071 46.5607 43.3236 46.2767L32.0003 34.9693ZM32.0003 18.9693L20.6769 30.2767C20.4276 30.5264 20.1243 30.6624 19.7669 30.6847C19.4096 30.7069 19.084 30.5709 18.7903 30.2767C18.5063 29.9931 18.3643 29.6787 18.3643 29.3333C18.3643 28.988 18.5063 28.6735 18.7903 28.39L30.0463 17.1333C30.5898 16.5898 31.2411 16.318 32.0003 16.318C32.7594 16.318 33.4107 16.5898 33.9543 17.1333L45.2103 28.39C45.46 28.6393 45.596 28.9427 45.6183 29.3C45.6405 29.6573 45.5045 29.9829 45.2103 30.2767C44.9267 30.5607 44.6123 30.7027 44.2669 30.7027C43.9216 30.7027 43.6071 30.5607 43.3236 30.2767L32.0003 18.9693Z" fill="white" fill-opacity="0.15"/>
</g>
</svg>
