<svg width="64" height="64" viewBox="0 0 64 64" fill="none" xmlns="http://www.w3.org/2000/svg">
<mask id="mask0_1747_4678" style="mask-type:alpha" maskUnits="userSpaceOnUse" x="0" y="0" width="64" height="64">
<rect width="64" height="64" fill="#D9D9D9"/>
</mask>
<g mask="url(#mask0_1747_4678)">
<path d="M50.2361 55.1899L42.0768 47.0459L36.9488 52.1746C36.7675 52.3555 36.5212 52.4459 36.2101 52.4459C35.899 52.4459 35.653 52.3555 35.4721 52.1746C34.6548 51.3573 34.2461 50.3468 34.2461 49.1433C34.2461 47.9402 34.6548 46.9299 35.4721 46.1126L46.3795 35.2053C47.1968 34.3879 48.207 33.9793 49.4101 33.9793C50.6137 33.9793 51.6241 34.3879 52.4415 35.2053C52.6224 35.3862 52.7128 35.6322 52.7128 35.9433C52.7128 36.2544 52.6224 36.5006 52.4415 36.6819L47.3128 41.8099L55.4568 49.9693C55.8875 50.3999 56.1028 50.9024 56.1028 51.4766C56.1028 52.0513 55.8875 52.5539 55.4568 52.9846L53.2515 55.1899C52.8208 55.6206 52.3181 55.8359 51.7435 55.8359C51.1692 55.8359 50.6668 55.6206 50.2361 55.1899ZM55.3541 15.2513L26.5541 44.1026L28.5281 46.0613C29.3455 46.8786 29.7541 47.8888 29.7541 49.0919C29.7541 50.2955 29.3455 51.3059 28.5281 52.1233C28.3472 52.3042 28.1012 52.3946 27.7901 52.3946C27.479 52.3946 27.2328 52.3042 27.0515 52.1233L21.9235 46.9946L13.7641 55.1386C13.3335 55.5693 12.831 55.7846 12.2568 55.7846C11.6821 55.7846 11.1795 55.5693 10.7488 55.1386L8.54346 52.9333C8.11279 52.5026 7.89746 51.9999 7.89746 51.4253C7.89746 50.8511 8.11279 50.3486 8.54346 49.9179L16.6875 41.7586L11.5588 36.6306C11.3779 36.4493 11.2875 36.2031 11.2875 35.8919C11.2875 35.5808 11.3779 35.3348 11.5588 35.1539C12.3761 34.3366 13.3866 33.9279 14.5901 33.9279C15.7932 33.9279 16.8035 34.3366 17.6208 35.1539L19.6308 37.1793L47.8515 9.00994C48.2377 8.62372 48.7017 8.31439 49.2435 8.08194C49.7857 7.8495 50.3439 7.73328 50.9181 7.73328H53.8461C54.4652 7.73328 54.979 7.9375 55.3875 8.34594C55.7959 8.75439 56.0001 9.26816 56.0001 9.88728V13.7279C56.0001 14.0151 55.9506 14.2826 55.8515 14.5306C55.7524 14.7786 55.5866 15.0188 55.3541 15.2513ZM19.4208 26.0766L9.22546 15.8819C8.83924 15.4957 8.53857 15.0317 8.32346 14.4899C8.10791 13.9477 8.00013 13.3895 8.00013 12.8153V9.88728C8.00013 9.26816 8.20435 8.75439 8.61279 8.34594C9.02124 7.9375 9.53502 7.73328 10.1541 7.73328H13.0821C13.6563 7.73328 14.2146 7.8495 14.7568 8.08194C15.2986 8.31439 15.7626 8.62372 16.1488 9.00994L26.3081 19.2206C26.5677 19.4802 26.695 19.7775 26.6901 20.1126C26.6848 20.4477 26.5521 20.7453 26.2921 21.0053C26.0326 21.2546 25.7268 21.3819 25.3748 21.3873C25.0224 21.3922 24.7164 21.2648 24.4568 21.0053L13.8001 10.3999H10.6668V13.5333L21.3235 24.1899C21.5728 24.4393 21.7061 24.7426 21.7235 25.0999C21.7404 25.4573 21.607 25.7828 21.3235 26.0766C21.0292 26.3708 20.7121 26.5179 20.3721 26.5179C20.0317 26.5179 19.7146 26.3708 19.4208 26.0766ZM24.6668 42.1999L53.3335 13.5333V10.3999H50.2001L21.5335 39.0666L24.6668 42.1999Z" fill="#40C8E8"/>
<path d="M50.2361 55.1899L42.0768 47.0459L36.9488 52.1746C36.7675 52.3555 36.5212 52.4459 36.2101 52.4459C35.899 52.4459 35.653 52.3555 35.4721 52.1746C34.6548 51.3573 34.2461 50.3468 34.2461 49.1433C34.2461 47.9402 34.6548 46.9299 35.4721 46.1126L46.3795 35.2053C47.1968 34.3879 48.207 33.9793 49.4101 33.9793C50.6137 33.9793 51.6241 34.3879 52.4415 35.2053C52.6224 35.3862 52.7128 35.6322 52.7128 35.9433C52.7128 36.2544 52.6224 36.5006 52.4415 36.6819L47.3128 41.8099L55.4568 49.9693C55.8875 50.3999 56.1028 50.9024 56.1028 51.4766C56.1028 52.0513 55.8875 52.5539 55.4568 52.9846L53.2515 55.1899C52.8208 55.6206 52.3181 55.8359 51.7435 55.8359C51.1692 55.8359 50.6668 55.6206 50.2361 55.1899ZM55.3541 15.2513L26.5541 44.1026L28.5281 46.0613C29.3455 46.8786 29.7541 47.8888 29.7541 49.0919C29.7541 50.2955 29.3455 51.3059 28.5281 52.1233C28.3472 52.3042 28.1012 52.3946 27.7901 52.3946C27.479 52.3946 27.2328 52.3042 27.0515 52.1233L21.9235 46.9946L13.7641 55.1386C13.3335 55.5693 12.831 55.7846 12.2568 55.7846C11.6821 55.7846 11.1795 55.5693 10.7488 55.1386L8.54346 52.9333C8.11279 52.5026 7.89746 51.9999 7.89746 51.4253C7.89746 50.8511 8.11279 50.3486 8.54346 49.9179L16.6875 41.7586L11.5588 36.6306C11.3779 36.4493 11.2875 36.2031 11.2875 35.8919C11.2875 35.5808 11.3779 35.3348 11.5588 35.1539C12.3761 34.3366 13.3866 33.9279 14.5901 33.9279C15.7932 33.9279 16.8035 34.3366 17.6208 35.1539L19.6308 37.1793L47.8515 9.00994C48.2377 8.62372 48.7017 8.31439 49.2435 8.08194C49.7857 7.8495 50.3439 7.73328 50.9181 7.73328H53.8461C54.4652 7.73328 54.979 7.9375 55.3875 8.34594C55.7959 8.75439 56.0001 9.26816 56.0001 9.88728V13.7279C56.0001 14.0151 55.9506 14.2826 55.8515 14.5306C55.7524 14.7786 55.5866 15.0188 55.3541 15.2513ZM19.4208 26.0766L9.22546 15.8819C8.83924 15.4957 8.53857 15.0317 8.32346 14.4899C8.10791 13.9477 8.00013 13.3895 8.00013 12.8153V9.88728C8.00013 9.26816 8.20435 8.75439 8.61279 8.34594C9.02124 7.9375 9.53502 7.73328 10.1541 7.73328H13.0821C13.6563 7.73328 14.2146 7.8495 14.7568 8.08194C15.2986 8.31439 15.7626 8.62372 16.1488 9.00994L26.3081 19.2206C26.5677 19.4802 26.695 19.7775 26.6901 20.1126C26.6848 20.4477 26.5521 20.7453 26.2921 21.0053C26.0326 21.2546 25.7268 21.3819 25.3748 21.3873C25.0224 21.3922 24.7164 21.2648 24.4568 21.0053L13.8001 10.3999H10.6668V13.5333L21.3235 24.1899C21.5728 24.4393 21.7061 24.7426 21.7235 25.0999C21.7404 25.4573 21.607 25.7828 21.3235 26.0766C21.0292 26.3708 20.7121 26.5179 20.3721 26.5179C20.0317 26.5179 19.7146 26.3708 19.4208 26.0766ZM24.6668 42.1999L53.3335 13.5333V10.3999H50.2001L21.5335 39.0666L24.6668 42.1999Z" fill="white" fill-opacity="0.15"/>
</g>
</svg>
