<svg width="60" height="60" viewBox="0 0 60 60" fill="none" xmlns="http://www.w3.org/2000/svg">
<mask id="mask0_1747_4612" style="mask-type:alpha" maskUnits="userSpaceOnUse" x="0" y="0" width="60" height="60">
<rect width="60" height="60" fill="#D9D9D9"/>
</mask>
<g mask="url(#mask0_1747_4612)">
<path d="M40.5769 18.9425H50.9613C52.08 18.9425 53.0329 19.3358 53.82 20.1225C54.6067 20.9096 55 21.8623 55 22.9806V23.8893C55 24.1585 54.9687 24.4277 54.9062 24.6968C54.8437 24.9664 54.766 25.2198 54.6731 25.4568L48.6056 39.6875C48.4935 39.9216 48.3438 40.1123 48.1563 40.2593C47.9688 40.4068 47.7371 40.4806 47.4613 40.4806C46.9933 40.4806 46.64 40.2979 46.4012 39.9325C46.1625 39.5671 46.1298 39.16 46.3031 38.7112L52.5 24.1781V22.9806C52.5 22.5318 52.3558 22.1633 52.0675 21.875C51.7788 21.5866 51.41 21.4425 50.9613 21.4425H40.0575C39.4262 21.4425 38.911 21.2148 38.5119 20.7593C38.1131 20.3043 37.9554 19.766 38.0387 19.1443L39.1394 11.4325C38.3348 12.205 37.5488 12.975 36.7813 13.7425C36.0138 14.5104 35.2277 15.2966 34.4231 16.1012C34.1794 16.3446 33.8846 16.4743 33.5387 16.4906C33.1925 16.5064 32.8975 16.3925 32.6538 16.1487C32.4104 15.9054 32.2967 15.6083 32.3125 15.2575C32.3283 14.9062 32.4581 14.6089 32.7019 14.3656L38.5863 8.43247C38.8621 8.15706 39.165 8.01935 39.495 8.01935C39.8254 8.01935 40.1283 8.15706 40.4038 8.43247L40.5094 8.4906C40.9648 8.9456 41.2829 9.4656 41.4637 10.0506C41.645 10.6356 41.6892 11.2437 41.5962 11.875L40.5769 18.9425ZM7.01937 50C6.43896 50 5.95729 49.8085 5.57438 49.4256C5.19146 49.0427 5 48.561 5 47.9806V30.4806C5 29.9006 5.19146 29.4191 5.57438 29.0362C5.95729 28.6529 6.43896 28.4612 7.01937 28.4612H14.4231V30.9612H7.5V47.5H14.4231V50H7.01937ZM31.3512 50H11.9231V30.1925L23.875 18.1925C24.2146 17.8525 24.6135 17.6746 25.0719 17.6587C25.5302 17.6425 25.9133 17.7883 26.2213 18.0962L26.2788 18.1537C26.7338 18.6087 27.0198 19.1127 27.1369 19.6656C27.254 20.2185 27.266 20.8108 27.1731 21.4425L26.1538 28.4612H36.7306C37.8494 28.4612 38.8021 28.8548 39.5887 29.6418C40.3758 30.4285 40.7694 31.3812 40.7694 32.5V33.4712C40.7694 33.7404 40.7381 33.9991 40.6756 34.2475C40.6131 34.4958 40.5354 34.7546 40.4425 35.0237L35.0625 47.5768C34.7421 48.3331 34.2452 48.926 33.5719 49.3556C32.899 49.7852 32.1587 50 31.3512 50ZM32.3606 47.5L38.2694 33.7593V32.5C38.2694 32.0512 38.125 31.6827 37.8363 31.3943C37.5479 31.1056 37.1794 30.9612 36.7306 30.9612H25.5862C24.9646 30.9612 24.4519 30.7337 24.0481 30.2787C23.6444 29.8237 23.4842 29.2854 23.5675 28.6637L24.6681 20.9518L14.4231 31.245V47.5H32.3606Z" fill="#4044E8"/>
<path d="M40.5769 18.9425H50.9613C52.08 18.9425 53.0329 19.3358 53.82 20.1225C54.6067 20.9096 55 21.8623 55 22.9806V23.8893C55 24.1585 54.9687 24.4277 54.9062 24.6968C54.8437 24.9664 54.766 25.2198 54.6731 25.4568L48.6056 39.6875C48.4935 39.9216 48.3438 40.1123 48.1563 40.2593C47.9688 40.4068 47.7371 40.4806 47.4613 40.4806C46.9933 40.4806 46.64 40.2979 46.4012 39.9325C46.1625 39.5671 46.1298 39.16 46.3031 38.7112L52.5 24.1781V22.9806C52.5 22.5318 52.3558 22.1633 52.0675 21.875C51.7788 21.5866 51.41 21.4425 50.9613 21.4425H40.0575C39.4262 21.4425 38.911 21.2148 38.5119 20.7593C38.1131 20.3043 37.9554 19.766 38.0387 19.1443L39.1394 11.4325C38.3348 12.205 37.5488 12.975 36.7813 13.7425C36.0138 14.5104 35.2277 15.2966 34.4231 16.1012C34.1794 16.3446 33.8846 16.4743 33.5387 16.4906C33.1925 16.5064 32.8975 16.3925 32.6538 16.1487C32.4104 15.9054 32.2967 15.6083 32.3125 15.2575C32.3283 14.9062 32.4581 14.6089 32.7019 14.3656L38.5863 8.43247C38.8621 8.15706 39.165 8.01935 39.495 8.01935C39.8254 8.01935 40.1283 8.15706 40.4038 8.43247L40.5094 8.4906C40.9648 8.9456 41.2829 9.4656 41.4637 10.0506C41.645 10.6356 41.6892 11.2437 41.5962 11.875L40.5769 18.9425ZM7.01937 50C6.43896 50 5.95729 49.8085 5.57438 49.4256C5.19146 49.0427 5 48.561 5 47.9806V30.4806C5 29.9006 5.19146 29.4191 5.57438 29.0362C5.95729 28.6529 6.43896 28.4612 7.01937 28.4612H14.4231V30.9612H7.5V47.5H14.4231V50H7.01937ZM31.3512 50H11.9231V30.1925L23.875 18.1925C24.2146 17.8525 24.6135 17.6746 25.0719 17.6587C25.5302 17.6425 25.9133 17.7883 26.2213 18.0962L26.2788 18.1537C26.7338 18.6087 27.0198 19.1127 27.1369 19.6656C27.254 20.2185 27.266 20.8108 27.1731 21.4425L26.1538 28.4612H36.7306C37.8494 28.4612 38.8021 28.8548 39.5887 29.6418C40.3758 30.4285 40.7694 31.3812 40.7694 32.5V33.4712C40.7694 33.7404 40.7381 33.9991 40.6756 34.2475C40.6131 34.4958 40.5354 34.7546 40.4425 35.0237L35.0625 47.5768C34.7421 48.3331 34.2452 48.926 33.5719 49.3556C32.899 49.7852 32.1587 50 31.3512 50ZM32.3606 47.5L38.2694 33.7593V32.5C38.2694 32.0512 38.125 31.6827 37.8363 31.3943C37.5479 31.1056 37.1794 30.9612 36.7306 30.9612H25.5862C24.9646 30.9612 24.4519 30.7337 24.0481 30.2787C23.6444 29.8237 23.4842 29.2854 23.5675 28.6637L24.6681 20.9518L14.4231 31.245V47.5H32.3606Z" fill="white" fill-opacity="0.3"/>
</g>
</svg>
