<svg width="64" height="64" viewBox="0 0 64 64" fill="none" xmlns="http://www.w3.org/2000/svg">
<mask id="mask0_1747_4756" style="mask-type:alpha" maskUnits="userSpaceOnUse" x="0" y="0" width="64" height="64">
<rect width="64" height="64" fill="#D9D9D9"/>
</mask>
<g mask="url(#mask0_1747_4756)">
<path d="M26.358 6.66667C25.9802 6.66667 25.6636 6.53867 25.408 6.28267C25.1525 6.02667 25.0247 5.70955 25.0247 5.33133C25.0247 4.95311 25.1525 4.63667 25.408 4.382C25.6636 4.12733 25.9802 4 26.358 4H37.6407C38.0185 4 38.3351 4.128 38.5907 4.384C38.8462 4.64 38.974 4.95711 38.974 5.33534C38.974 5.71356 38.8462 6.03 38.5907 6.28467C38.3351 6.53933 38.0185 6.66667 37.6407 6.66667H26.358ZM32.0014 36.308C32.3796 36.308 32.696 36.1802 32.9507 35.9247C33.2053 35.6691 33.3327 35.3524 33.3327 34.9747V23.692C33.3327 23.3142 33.2047 22.9976 32.9487 22.742C32.6927 22.4864 32.3756 22.3587 31.9973 22.3587C31.6191 22.3587 31.3027 22.4864 31.048 22.742C30.7934 22.9976 30.666 23.3142 30.666 23.692V34.9747C30.666 35.3524 30.794 35.6691 31.05 35.9247C31.306 36.1802 31.6231 36.308 32.0014 36.308ZM31.9993 56C29.0682 56 26.3056 55.4436 23.7113 54.3307C21.1171 53.2178 18.8507 51.6922 16.912 49.754C14.9738 47.8153 13.4482 45.5489 12.3353 42.9547C11.2225 40.3604 10.666 37.5978 10.666 34.6667C10.666 31.7356 11.2225 28.9729 12.3353 26.3787C13.4482 23.7844 14.9738 21.518 16.912 19.5793C18.8507 17.6411 21.1171 16.1156 23.7113 15.0027C26.3056 13.8898 29.0682 13.3333 31.9993 13.3333C34.5838 13.3333 37.0829 13.7949 39.4967 14.718C41.9105 15.6411 44.1258 16.9471 46.1427 18.636L48.112 16.6667C48.3618 16.4169 48.6678 16.2836 49.03 16.2667C49.3927 16.2498 49.7158 16.3831 49.9994 16.6667C50.2829 16.9502 50.4247 17.2647 50.4247 17.61C50.4247 17.9553 50.2829 18.27 49.9994 18.554L48.03 20.5233C49.7189 22.5402 51.0249 24.7556 51.948 27.1693C52.8711 29.5831 53.3327 32.0822 53.3327 34.6667C53.3327 37.5978 52.7762 40.3604 51.6634 42.9547C50.5505 45.5489 49.0249 47.8153 47.0867 49.754C45.148 51.6922 42.8816 53.2178 40.2874 54.3307C37.6931 55.4436 34.9305 56 31.9993 56ZM31.9993 53.3333C37.1549 53.3333 41.5549 51.5111 45.1993 47.8667C48.8438 44.2222 50.666 39.8222 50.666 34.6667C50.666 29.5111 48.8438 25.1111 45.1993 21.4667C41.5549 17.8222 37.1549 16 31.9993 16C26.8438 16 22.4438 17.8222 18.7993 21.4667C15.1549 25.1111 13.3327 29.5111 13.3327 34.6667C13.3327 39.8222 15.1549 44.2222 18.7993 47.8667C22.4438 51.5111 26.8438 53.3333 31.9993 53.3333Z" fill="#40C8E8"/>
<path d="M26.358 6.66667C25.9802 6.66667 25.6636 6.53867 25.408 6.28267C25.1525 6.02667 25.0247 5.70955 25.0247 5.33133C25.0247 4.95311 25.1525 4.63667 25.408 4.382C25.6636 4.12733 25.9802 4 26.358 4H37.6407C38.0185 4 38.3351 4.128 38.5907 4.384C38.8462 4.64 38.974 4.95711 38.974 5.33534C38.974 5.71356 38.8462 6.03 38.5907 6.28467C38.3351 6.53933 38.0185 6.66667 37.6407 6.66667H26.358ZM32.0014 36.308C32.3796 36.308 32.696 36.1802 32.9507 35.9247C33.2053 35.6691 33.3327 35.3524 33.3327 34.9747V23.692C33.3327 23.3142 33.2047 22.9976 32.9487 22.742C32.6927 22.4864 32.3756 22.3587 31.9973 22.3587C31.6191 22.3587 31.3027 22.4864 31.048 22.742C30.7934 22.9976 30.666 23.3142 30.666 23.692V34.9747C30.666 35.3524 30.794 35.6691 31.05 35.9247C31.306 36.1802 31.6231 36.308 32.0014 36.308ZM31.9993 56C29.0682 56 26.3056 55.4436 23.7113 54.3307C21.1171 53.2178 18.8507 51.6922 16.912 49.754C14.9738 47.8153 13.4482 45.5489 12.3353 42.9547C11.2225 40.3604 10.666 37.5978 10.666 34.6667C10.666 31.7356 11.2225 28.9729 12.3353 26.3787C13.4482 23.7844 14.9738 21.518 16.912 19.5793C18.8507 17.6411 21.1171 16.1156 23.7113 15.0027C26.3056 13.8898 29.0682 13.3333 31.9993 13.3333C34.5838 13.3333 37.0829 13.7949 39.4967 14.718C41.9105 15.6411 44.1258 16.9471 46.1427 18.636L48.112 16.6667C48.3618 16.4169 48.6678 16.2836 49.03 16.2667C49.3927 16.2498 49.7158 16.3831 49.9994 16.6667C50.2829 16.9502 50.4247 17.2647 50.4247 17.61C50.4247 17.9553 50.2829 18.27 49.9994 18.554L48.03 20.5233C49.7189 22.5402 51.0249 24.7556 51.948 27.1693C52.8711 29.5831 53.3327 32.0822 53.3327 34.6667C53.3327 37.5978 52.7762 40.3604 51.6634 42.9547C50.5505 45.5489 49.0249 47.8153 47.0867 49.754C45.148 51.6922 42.8816 53.2178 40.2874 54.3307C37.6931 55.4436 34.9305 56 31.9993 56ZM31.9993 53.3333C37.1549 53.3333 41.5549 51.5111 45.1993 47.8667C48.8438 44.2222 50.666 39.8222 50.666 34.6667C50.666 29.5111 48.8438 25.1111 45.1993 21.4667C41.5549 17.8222 37.1549 16 31.9993 16C26.8438 16 22.4438 17.8222 18.7993 21.4667C15.1549 25.1111 13.3327 29.5111 13.3327 34.6667C13.3327 39.8222 15.1549 44.2222 18.7993 47.8667C22.4438 51.5111 26.8438 53.3333 31.9993 53.3333Z" fill="white" fill-opacity="0.15"/>
</g>
</svg>
