<svg width="64" height="64" viewBox="0 0 64 64" fill="none" xmlns="http://www.w3.org/2000/svg">
<mask id="mask0_1747_4564" style="mask-type:alpha" maskUnits="userSpaceOnUse" x="0" y="0" width="64" height="64">
<rect width="64" height="64" fill="#D9D9D9"/>
</mask>
<g mask="url(#mask0_1747_4564)">
<path d="M17.3333 36.6667H36V34H17.3333V36.6667ZM17.3333 28.6667H46.6667V26H17.3333V28.6667ZM17.3333 20.6667H46.6667V18H17.3333V20.6667ZM12.308 46.6667C11.1231 46.6667 10.1089 46.2449 9.26533 45.4013C8.42178 44.5578 8 43.5436 8 42.3587V12.308C8 11.1231 8.42178 10.1089 9.26533 9.26533C10.1089 8.42178 11.1231 8 12.308 8H51.692C52.8769 8 53.8911 8.42178 54.7347 9.26533C55.5782 10.1089 56 11.1231 56 12.308V42.3587C56 43.5436 55.5782 44.5578 54.7347 45.4013C53.8911 46.2449 52.8769 46.6667 51.692 46.6667H38.108L33.79 53.2307C33.5731 53.5622 33.3109 53.8109 33.0033 53.9767C32.6962 54.1425 32.3618 54.2253 32 54.2253C31.6382 54.2253 31.3038 54.1425 30.9967 53.9767C30.6891 53.8109 30.4269 53.5622 30.21 53.2307L25.892 46.6667H12.308ZM32 51.1693L36.6767 44H51.692C52.1707 44 52.564 43.8462 52.872 43.5387C53.1796 43.2307 53.3333 42.8373 53.3333 42.3587V12.308C53.3333 11.8293 53.1796 11.436 52.872 11.128C52.564 10.8204 52.1707 10.6667 51.692 10.6667H12.308C11.8293 10.6667 11.436 10.8204 11.128 11.128C10.8204 11.436 10.6667 11.8293 10.6667 12.308V42.3587C10.6667 42.8373 10.8204 43.2307 11.128 43.5387C11.436 43.8462 11.8293 44 12.308 44H27.3233L32 51.1693Z" fill="#40C8E8"/>
<path d="M17.3333 36.6667H36V34H17.3333V36.6667ZM17.3333 28.6667H46.6667V26H17.3333V28.6667ZM17.3333 20.6667H46.6667V18H17.3333V20.6667ZM12.308 46.6667C11.1231 46.6667 10.1089 46.2449 9.26533 45.4013C8.42178 44.5578 8 43.5436 8 42.3587V12.308C8 11.1231 8.42178 10.1089 9.26533 9.26533C10.1089 8.42178 11.1231 8 12.308 8H51.692C52.8769 8 53.8911 8.42178 54.7347 9.26533C55.5782 10.1089 56 11.1231 56 12.308V42.3587C56 43.5436 55.5782 44.5578 54.7347 45.4013C53.8911 46.2449 52.8769 46.6667 51.692 46.6667H38.108L33.79 53.2307C33.5731 53.5622 33.3109 53.8109 33.0033 53.9767C32.6962 54.1425 32.3618 54.2253 32 54.2253C31.6382 54.2253 31.3038 54.1425 30.9967 53.9767C30.6891 53.8109 30.4269 53.5622 30.21 53.2307L25.892 46.6667H12.308ZM32 51.1693L36.6767 44H51.692C52.1707 44 52.564 43.8462 52.872 43.5387C53.1796 43.2307 53.3333 42.8373 53.3333 42.3587V12.308C53.3333 11.8293 53.1796 11.436 52.872 11.128C52.564 10.8204 52.1707 10.6667 51.692 10.6667H12.308C11.8293 10.6667 11.436 10.8204 11.128 11.128C10.8204 11.436 10.6667 11.8293 10.6667 12.308V42.3587C10.6667 42.8373 10.8204 43.2307 11.128 43.5387C11.436 43.8462 11.8293 44 12.308 44H27.3233L32 51.1693Z" fill="white" fill-opacity="0.15"/>
</g>
</svg>
