<svg width="64" height="64" viewBox="0 0 64 64" fill="none" xmlns="http://www.w3.org/2000/svg">
<mask id="mask0_1747_4684" style="mask-type:alpha" maskUnits="userSpaceOnUse" x="0" y="0" width="64" height="64">
<rect width="64" height="64" fill="#D9D9D9"/>
</mask>
<g mask="url(#mask0_1747_4684)">
<path d="M51.5482 42.9233L36.6562 28.2153C36.314 27.9077 35.9207 27.754 35.4762 27.754C35.0318 27.754 34.6558 27.9077 34.3482 28.2153L27.8915 34.672C27.0404 35.5231 26.0131 35.9486 24.8095 35.9486C23.6064 35.9486 22.5962 35.5231 21.7789 34.672L8.94288 21.754C8.69355 21.5042 8.55777 21.2006 8.53555 20.8433C8.51333 20.4864 8.6491 20.1608 8.94288 19.8666C9.22688 19.5831 9.54155 19.4413 9.88688 19.4413C10.2322 19.4413 10.5467 19.5831 10.8302 19.8666L23.6302 32.6666C23.9378 32.9742 24.3309 33.128 24.8095 33.128C25.2882 33.128 25.6815 32.9742 25.9895 32.6666L32.4455 26.21C33.2629 25.3931 34.2731 24.9846 35.4762 24.9846C36.6798 24.9846 37.6902 25.3931 38.5075 26.21L53.3329 41.036V33.59C53.3329 33.2104 53.4602 32.8933 53.7149 32.6386C53.9695 32.384 54.2867 32.2566 54.6662 32.2566C55.0458 32.2566 55.3629 32.384 55.6175 32.6386C55.8722 32.8933 55.9995 33.2104 55.9995 33.59V43.436C55.9995 44.0546 55.7953 44.5682 55.3869 44.9766C54.9784 45.3855 54.4647 45.59 53.8455 45.59H43.9995C43.62 45.59 43.3029 45.4626 43.0482 45.208C42.7935 44.9528 42.6662 44.6357 42.6662 44.2566C42.6662 43.8771 42.7935 43.56 43.0482 43.3053C43.3029 43.0506 43.62 42.9233 43.9995 42.9233H51.5482Z" fill="#40C8E8"/>
<path d="M51.5482 42.9233L36.6562 28.2153C36.314 27.9077 35.9207 27.754 35.4762 27.754C35.0318 27.754 34.6558 27.9077 34.3482 28.2153L27.8915 34.672C27.0404 35.5231 26.0131 35.9486 24.8095 35.9486C23.6064 35.9486 22.5962 35.5231 21.7789 34.672L8.94288 21.754C8.69355 21.5042 8.55777 21.2006 8.53555 20.8433C8.51333 20.4864 8.6491 20.1608 8.94288 19.8666C9.22688 19.5831 9.54155 19.4413 9.88688 19.4413C10.2322 19.4413 10.5467 19.5831 10.8302 19.8666L23.6302 32.6666C23.9378 32.9742 24.3309 33.128 24.8095 33.128C25.2882 33.128 25.6815 32.9742 25.9895 32.6666L32.4455 26.21C33.2629 25.3931 34.2731 24.9846 35.4762 24.9846C36.6798 24.9846 37.6902 25.3931 38.5075 26.21L53.3329 41.036V33.59C53.3329 33.2104 53.4602 32.8933 53.7149 32.6386C53.9695 32.384 54.2867 32.2566 54.6662 32.2566C55.0458 32.2566 55.3629 32.384 55.6175 32.6386C55.8722 32.8933 55.9995 33.2104 55.9995 33.59V43.436C55.9995 44.0546 55.7953 44.5682 55.3869 44.9766C54.9784 45.3855 54.4647 45.59 53.8455 45.59H43.9995C43.62 45.59 43.3029 45.4626 43.0482 45.208C42.7935 44.9528 42.6662 44.6357 42.6662 44.2566C42.6662 43.8771 42.7935 43.56 43.0482 43.3053C43.3029 43.0506 43.62 42.9233 43.9995 42.9233H51.5482Z" fill="white" fill-opacity="0.15"/>
</g>
</svg>
