<svg width="64" height="64" viewBox="0 0 64 64" fill="none" xmlns="http://www.w3.org/2000/svg">
<mask id="mask0_1747_4552" style="mask-type:alpha" maskUnits="userSpaceOnUse" x="0" y="0" width="64" height="64">
<rect width="64" height="64" fill="#D9D9D9"/>
</mask>
<g mask="url(#mask0_1747_4552)">
<path d="M18.666 46.7386C16.3513 46.7386 14.4985 47.2104 13.1073 48.154C11.7158 49.0975 10.0353 49.7693 8.06602 50.1693C7.68646 50.2684 7.35824 50.2017 7.08135 49.9693C6.80446 49.7368 6.66602 49.448 6.66602 49.1026C6.66602 48.7231 6.80202 48.406 7.07402 48.1513C7.34557 47.8966 7.67113 47.7095 8.05068 47.59C9.85557 47.1011 11.4265 46.4146 12.7633 45.5306C14.1002 44.6471 16.0678 44.2053 18.666 44.2053C20.1496 44.2053 21.4189 44.3942 22.474 44.772C23.5287 45.1497 24.5482 45.572 25.5327 46.0386C26.5171 46.5053 27.5102 46.9386 28.512 47.3386C29.5138 47.7386 30.6762 47.9386 31.9993 47.9386C33.3225 47.9386 34.4849 47.7386 35.4867 47.3386C36.4885 46.9386 37.4816 46.5053 38.466 46.0386C39.4505 45.572 40.4811 45.1497 41.558 44.772C42.6354 44.3942 43.8936 44.2053 45.3327 44.2053C47.9309 44.2053 49.8985 44.6471 51.2353 45.5306C52.5722 46.4146 54.1431 47.1011 55.948 47.59C56.3276 47.7095 56.6531 47.8966 56.9247 48.1513C57.1967 48.406 57.3327 48.7231 57.3327 49.1026C57.3327 49.448 57.1942 49.7368 56.9174 49.9693C56.6405 50.2017 56.3122 50.2684 55.9327 50.1693C53.9634 49.7693 52.2829 49.0975 50.8914 48.154C49.5002 47.2104 47.6474 46.7386 45.3327 46.7386C44.0882 46.7386 42.9678 46.9275 41.9714 47.3053C40.9745 47.6831 39.9865 48.1053 39.0074 48.572C38.0278 49.0386 36.9885 49.472 35.8893 49.872C34.7902 50.272 33.4936 50.472 31.9993 50.472C30.5051 50.472 29.2085 50.272 28.1094 49.872C27.0102 49.472 25.9709 49.0386 24.9914 48.572C24.0122 48.1053 23.0354 47.6831 22.0607 47.3053C21.0865 46.9275 19.9549 46.7386 18.666 46.7386ZM18.666 36.5126C16.3513 36.5126 14.4985 36.9844 13.1073 37.928C11.7158 38.8715 10.0353 39.5433 8.06602 39.9433C7.68646 40.0424 7.35824 39.9757 7.08135 39.7433C6.80446 39.5108 6.66602 39.222 6.66602 38.8766C6.66602 38.4975 6.80202 38.1804 7.07402 37.9253C7.34557 37.6706 7.67113 37.4835 8.05068 37.364C9.85557 36.8751 11.4265 36.1888 12.7633 35.3053C14.1002 34.4213 16.0678 33.9793 18.666 33.9793C20.1496 33.9793 21.4189 34.1682 22.474 34.546C23.5287 34.9237 24.5482 35.346 25.5327 35.8126C26.5171 36.2793 27.5102 36.7126 28.512 37.1126C29.5138 37.5126 30.6762 37.7126 31.9993 37.7126C33.3225 37.7126 34.4849 37.5126 35.4867 37.1126C36.4885 36.7126 37.4816 36.2793 38.466 35.8126C39.4505 35.346 40.4811 34.9237 41.558 34.546C42.6354 34.1682 43.8936 33.9793 45.3327 33.9793C47.9309 33.9793 49.8985 34.4213 51.2353 35.3053C52.5722 36.1888 54.1431 36.8751 55.948 37.364C56.3276 37.4835 56.6531 37.6706 56.9247 37.9253C57.1967 38.1804 57.3327 38.4975 57.3327 38.8766C57.3327 39.222 57.1942 39.5108 56.9174 39.7433C56.6405 39.9757 56.3122 40.0424 55.9327 39.9433C53.9634 39.5433 52.2829 38.8715 50.8914 37.928C49.5002 36.9844 47.6474 36.5126 45.3327 36.5126C44.078 36.5126 42.9525 36.7015 41.956 37.0793C40.9591 37.4571 39.9709 37.8793 38.9914 38.346C38.0122 38.8126 36.9756 39.246 35.8813 39.646C34.7876 40.046 33.4936 40.246 31.9993 40.246C30.5051 40.246 29.2085 40.046 28.1094 39.646C27.0102 39.246 25.9709 38.8126 24.9914 38.346C24.0122 37.8793 23.0354 37.4571 22.0607 37.0793C21.0865 36.7015 19.9549 36.5126 18.666 36.5126ZM18.666 26.2873C16.3513 26.2873 14.4985 26.7591 13.1073 27.7026C11.7158 28.6462 10.0353 29.318 8.06602 29.718C7.68646 29.8171 7.35824 29.7504 7.08135 29.518C6.80446 29.2855 6.66602 28.9966 6.66602 28.6513C6.66602 28.2717 6.80202 27.9546 7.07402 27.7C7.34557 27.4453 7.67113 27.2582 8.05068 27.1386C9.85557 26.6497 11.4265 25.9633 12.7633 25.0793C14.1002 24.1957 16.0678 23.754 18.666 23.754C20.1496 23.754 21.4189 23.9428 22.474 24.3206C23.5287 24.6984 24.5482 25.1206 25.5327 25.5873C26.5171 26.054 27.5102 26.4873 28.512 26.8873C29.5138 27.2873 30.6762 27.4873 31.9993 27.4873C33.3225 27.4873 34.4849 27.2873 35.4867 26.8873C36.4885 26.4873 37.4816 26.054 38.466 25.5873C39.4505 25.1206 40.4811 24.6984 41.558 24.3206C42.6354 23.9428 43.8936 23.754 45.3327 23.754C47.9309 23.754 49.8985 24.1957 51.2353 25.0793C52.5722 25.9633 54.1431 26.6497 55.948 27.1386C56.3276 27.2582 56.6531 27.4453 56.9247 27.7C57.1967 27.9546 57.3327 28.2717 57.3327 28.6513C57.3327 28.9966 57.1942 29.2855 56.9174 29.518C56.6405 29.7504 56.3122 29.8171 55.9327 29.718C53.9634 29.318 52.2829 28.6462 50.8914 27.7026C49.5002 26.7591 47.6474 26.2873 45.3327 26.2873C44.0882 26.2873 42.9678 26.4762 41.9714 26.854C40.9745 27.2317 39.9865 27.654 39.0074 28.1206C38.0278 28.5873 36.9885 29.0206 35.8893 29.4206C34.7902 29.8206 33.4936 30.0206 31.9993 30.0206C30.5051 30.0206 29.2085 29.8206 28.1094 29.4206C27.0102 29.0206 25.9709 28.5873 24.9914 28.1206C24.0122 27.654 23.0354 27.2317 22.0607 26.854C21.0865 26.4762 19.9549 26.2873 18.666 26.2873ZM18.666 16.0613C16.3513 16.0613 14.4985 16.5331 13.1073 17.4766C11.7158 18.4202 10.0353 19.092 8.06602 19.492C7.68646 19.5915 7.35824 19.5248 7.08135 19.292C6.80446 19.0595 6.66602 18.7706 6.66602 18.4253C6.66602 18.0462 6.80202 17.7293 7.07402 17.4746C7.34557 17.2195 7.67113 17.0322 8.05068 16.9126C9.85557 16.4237 11.4265 15.7375 12.7633 14.854C14.1002 13.97 16.0678 13.528 18.666 13.528C20.1496 13.528 21.4189 13.7168 22.474 14.0946C23.5287 14.4724 24.5482 14.8946 25.5327 15.3613C26.5171 15.828 27.5102 16.2613 28.512 16.6613C29.5138 17.0613 30.6762 17.2613 31.9993 17.2613C33.3225 17.2613 34.4849 17.0613 35.4867 16.6613C36.4885 16.2613 37.4816 15.828 38.466 15.3613C39.4505 14.8946 40.4811 14.4724 41.558 14.0946C42.6354 13.7168 43.8936 13.528 45.3327 13.528C47.9309 13.528 49.8985 13.97 51.2353 14.854C52.5722 15.7375 54.1431 16.4237 55.948 16.9126C56.3276 17.0322 56.6531 17.2195 56.9247 17.4746C57.1967 17.7293 57.3327 18.0462 57.3327 18.4253C57.3327 18.7706 57.1942 19.0595 56.9174 19.292C56.6405 19.5248 56.3122 19.5915 55.9327 19.492C53.9634 19.092 52.2829 18.4202 50.8914 17.4766C49.5002 16.5331 47.6474 16.0613 45.3327 16.0613C44.0882 16.0613 42.9678 16.2502 41.9714 16.628C40.9745 17.0057 39.9865 17.428 39.0074 17.8946C38.0278 18.3613 36.9885 18.7946 35.8893 19.1946C34.7902 19.5946 33.4936 19.7946 31.9993 19.7946C30.5051 19.7946 29.2085 19.5946 28.1094 19.1946C27.0102 18.7946 25.9709 18.3613 24.9914 17.8946C24.0122 17.428 23.0354 17.0057 22.0607 16.628C21.0865 16.2502 19.9549 16.0613 18.666 16.0613Z" fill="#40C8E8"/>
<path d="M18.666 46.7386C16.3513 46.7386 14.4985 47.2104 13.1073 48.154C11.7158 49.0975 10.0353 49.7693 8.06602 50.1693C7.68646 50.2684 7.35824 50.2017 7.08135 49.9693C6.80446 49.7368 6.66602 49.448 6.66602 49.1026C6.66602 48.7231 6.80202 48.406 7.07402 48.1513C7.34557 47.8966 7.67113 47.7095 8.05068 47.59C9.85557 47.1011 11.4265 46.4146 12.7633 45.5306C14.1002 44.6471 16.0678 44.2053 18.666 44.2053C20.1496 44.2053 21.4189 44.3942 22.474 44.772C23.5287 45.1497 24.5482 45.572 25.5327 46.0386C26.5171 46.5053 27.5102 46.9386 28.512 47.3386C29.5138 47.7386 30.6762 47.9386 31.9993 47.9386C33.3225 47.9386 34.4849 47.7386 35.4867 47.3386C36.4885 46.9386 37.4816 46.5053 38.466 46.0386C39.4505 45.572 40.4811 45.1497 41.558 44.772C42.6354 44.3942 43.8936 44.2053 45.3327 44.2053C47.9309 44.2053 49.8985 44.6471 51.2353 45.5306C52.5722 46.4146 54.1431 47.1011 55.948 47.59C56.3276 47.7095 56.6531 47.8966 56.9247 48.1513C57.1967 48.406 57.3327 48.7231 57.3327 49.1026C57.3327 49.448 57.1942 49.7368 56.9174 49.9693C56.6405 50.2017 56.3122 50.2684 55.9327 50.1693C53.9634 49.7693 52.2829 49.0975 50.8914 48.154C49.5002 47.2104 47.6474 46.7386 45.3327 46.7386C44.0882 46.7386 42.9678 46.9275 41.9714 47.3053C40.9745 47.6831 39.9865 48.1053 39.0074 48.572C38.0278 49.0386 36.9885 49.472 35.8893 49.872C34.7902 50.272 33.4936 50.472 31.9993 50.472C30.5051 50.472 29.2085 50.272 28.1094 49.872C27.0102 49.472 25.9709 49.0386 24.9914 48.572C24.0122 48.1053 23.0354 47.6831 22.0607 47.3053C21.0865 46.9275 19.9549 46.7386 18.666 46.7386ZM18.666 36.5126C16.3513 36.5126 14.4985 36.9844 13.1073 37.928C11.7158 38.8715 10.0353 39.5433 8.06602 39.9433C7.68646 40.0424 7.35824 39.9757 7.08135 39.7433C6.80446 39.5108 6.66602 39.222 6.66602 38.8766C6.66602 38.4975 6.80202 38.1804 7.07402 37.9253C7.34557 37.6706 7.67113 37.4835 8.05068 37.364C9.85557 36.8751 11.4265 36.1888 12.7633 35.3053C14.1002 34.4213 16.0678 33.9793 18.666 33.9793C20.1496 33.9793 21.4189 34.1682 22.474 34.546C23.5287 34.9237 24.5482 35.346 25.5327 35.8126C26.5171 36.2793 27.5102 36.7126 28.512 37.1126C29.5138 37.5126 30.6762 37.7126 31.9993 37.7126C33.3225 37.7126 34.4849 37.5126 35.4867 37.1126C36.4885 36.7126 37.4816 36.2793 38.466 35.8126C39.4505 35.346 40.4811 34.9237 41.558 34.546C42.6354 34.1682 43.8936 33.9793 45.3327 33.9793C47.9309 33.9793 49.8985 34.4213 51.2353 35.3053C52.5722 36.1888 54.1431 36.8751 55.948 37.364C56.3276 37.4835 56.6531 37.6706 56.9247 37.9253C57.1967 38.1804 57.3327 38.4975 57.3327 38.8766C57.3327 39.222 57.1942 39.5108 56.9174 39.7433C56.6405 39.9757 56.3122 40.0424 55.9327 39.9433C53.9634 39.5433 52.2829 38.8715 50.8914 37.928C49.5002 36.9844 47.6474 36.5126 45.3327 36.5126C44.078 36.5126 42.9525 36.7015 41.956 37.0793C40.9591 37.4571 39.9709 37.8793 38.9914 38.346C38.0122 38.8126 36.9756 39.246 35.8813 39.646C34.7876 40.046 33.4936 40.246 31.9993 40.246C30.5051 40.246 29.2085 40.046 28.1094 39.646C27.0102 39.246 25.9709 38.8126 24.9914 38.346C24.0122 37.8793 23.0354 37.4571 22.0607 37.0793C21.0865 36.7015 19.9549 36.5126 18.666 36.5126ZM18.666 26.2873C16.3513 26.2873 14.4985 26.7591 13.1073 27.7026C11.7158 28.6462 10.0353 29.318 8.06602 29.718C7.68646 29.8171 7.35824 29.7504 7.08135 29.518C6.80446 29.2855 6.66602 28.9966 6.66602 28.6513C6.66602 28.2717 6.80202 27.9546 7.07402 27.7C7.34557 27.4453 7.67113 27.2582 8.05068 27.1386C9.85557 26.6497 11.4265 25.9633 12.7633 25.0793C14.1002 24.1957 16.0678 23.754 18.666 23.754C20.1496 23.754 21.4189 23.9428 22.474 24.3206C23.5287 24.6984 24.5482 25.1206 25.5327 25.5873C26.5171 26.054 27.5102 26.4873 28.512 26.8873C29.5138 27.2873 30.6762 27.4873 31.9993 27.4873C33.3225 27.4873 34.4849 27.2873 35.4867 26.8873C36.4885 26.4873 37.4816 26.054 38.466 25.5873C39.4505 25.1206 40.4811 24.6984 41.558 24.3206C42.6354 23.9428 43.8936 23.754 45.3327 23.754C47.9309 23.754 49.8985 24.1957 51.2353 25.0793C52.5722 25.9633 54.1431 26.6497 55.948 27.1386C56.3276 27.2582 56.6531 27.4453 56.9247 27.7C57.1967 27.9546 57.3327 28.2717 57.3327 28.6513C57.3327 28.9966 57.1942 29.2855 56.9174 29.518C56.6405 29.7504 56.3122 29.8171 55.9327 29.718C53.9634 29.318 52.2829 28.6462 50.8914 27.7026C49.5002 26.7591 47.6474 26.2873 45.3327 26.2873C44.0882 26.2873 42.9678 26.4762 41.9714 26.854C40.9745 27.2317 39.9865 27.654 39.0074 28.1206C38.0278 28.5873 36.9885 29.0206 35.8893 29.4206C34.7902 29.8206 33.4936 30.0206 31.9993 30.0206C30.5051 30.0206 29.2085 29.8206 28.1094 29.4206C27.0102 29.0206 25.9709 28.5873 24.9914 28.1206C24.0122 27.654 23.0354 27.2317 22.0607 26.854C21.0865 26.4762 19.9549 26.2873 18.666 26.2873ZM18.666 16.0613C16.3513 16.0613 14.4985 16.5331 13.1073 17.4766C11.7158 18.4202 10.0353 19.092 8.06602 19.492C7.68646 19.5915 7.35824 19.5248 7.08135 19.292C6.80446 19.0595 6.66602 18.7706 6.66602 18.4253C6.66602 18.0462 6.80202 17.7293 7.07402 17.4746C7.34557 17.2195 7.67113 17.0322 8.05068 16.9126C9.85557 16.4237 11.4265 15.7375 12.7633 14.854C14.1002 13.97 16.0678 13.528 18.666 13.528C20.1496 13.528 21.4189 13.7168 22.474 14.0946C23.5287 14.4724 24.5482 14.8946 25.5327 15.3613C26.5171 15.828 27.5102 16.2613 28.512 16.6613C29.5138 17.0613 30.6762 17.2613 31.9993 17.2613C33.3225 17.2613 34.4849 17.0613 35.4867 16.6613C36.4885 16.2613 37.4816 15.828 38.466 15.3613C39.4505 14.8946 40.4811 14.4724 41.558 14.0946C42.6354 13.7168 43.8936 13.528 45.3327 13.528C47.9309 13.528 49.8985 13.97 51.2353 14.854C52.5722 15.7375 54.1431 16.4237 55.948 16.9126C56.3276 17.0322 56.6531 17.2195 56.9247 17.4746C57.1967 17.7293 57.3327 18.0462 57.3327 18.4253C57.3327 18.7706 57.1942 19.0595 56.9174 19.292C56.6405 19.5248 56.3122 19.5915 55.9327 19.492C53.9634 19.092 52.2829 18.4202 50.8914 17.4766C49.5002 16.5331 47.6474 16.0613 45.3327 16.0613C44.0882 16.0613 42.9678 16.2502 41.9714 16.628C40.9745 17.0057 39.9865 17.428 39.0074 17.8946C38.0278 18.3613 36.9885 18.7946 35.8893 19.1946C34.7902 19.5946 33.4936 19.7946 31.9993 19.7946C30.5051 19.7946 29.2085 19.5946 28.1094 19.1946C27.0102 18.7946 25.9709 18.3613 24.9914 17.8946C24.0122 17.428 23.0354 17.0057 22.0607 16.628C21.0865 16.2502 19.9549 16.0613 18.666 16.0613Z" fill="white" fill-opacity="0.15"/>
</g>
</svg>
