<svg width="96" height="96" viewBox="0 0 96 96" fill="none" xmlns="http://www.w3.org/2000/svg">
<path d="M34.4814 20.7382C34.4825 9.24783 47.9175 3.31403 56.3681 10.5808L57.1685 11.3256L57.9928 12.1514C59.4247 13.5861 59.4325 15.9097 58.0101 17.3538C56.5743 18.8117 54.2281 18.8194 52.7826 17.3712L51.9585 16.5454C48.228 12.8081 41.851 15.4533 41.8499 20.7382V41.946C41.8498 46.0224 38.5515 49.327 34.4826 49.327H13.3142C8.03913 49.3282 5.39894 55.7169 9.12931 59.4542L36.4779 86.8538C40.2083 90.5911 46.5854 87.9459 46.5865 82.661V61.4534C46.5865 57.3769 49.8849 54.0722 53.9537 54.0722H75.1222C80.3973 54.071 83.0374 47.6823 79.3071 43.945L78.4285 43.0648C77.0043 41.6379 76.9877 39.3295 78.3914 37.8824C79.8238 36.4058 82.1852 36.3889 83.6385 37.8448L84.5171 38.7252C92.8886 47.1123 86.9608 61.4533 75.1222 61.4545H57.6385C55.6041 61.4545 53.955 63.1068 53.955 65.145V82.661C53.9539 94.5217 39.6395 100.461 31.2679 92.0736L3.91912 64.674C-4.45239 56.2868 1.47566 41.9459 13.3142 41.9447H30.7978C32.8322 41.9447 34.4814 40.2924 34.4814 38.2542V20.7382Z" fill="url(#paint0_linear_950_3296)"/>
<path d="M57.7515 32.207C58.2522 35.2525 60.6348 37.6394 63.6747 38.1411L68.8732 38.9989L63.6747 39.8568C60.6348 40.3584 58.2522 42.7455 57.7515 45.7911L56.8952 50.9993L56.039 45.7911C55.5382 42.7455 53.1557 40.3584 50.1158 39.8568L44.9173 38.9989L50.1158 38.1411C53.1556 37.6394 55.5382 35.2525 56.039 32.207L56.8952 26.9987L57.7515 32.207Z" fill="url(#paint1_linear_950_3296)"/>
<path d="M75.1195 8.56989C76.1466 14.8171 81.034 19.7136 87.2696 20.7426L95.8235 22.1541L87.2696 23.5659C81.034 24.5949 76.1466 29.4913 75.1195 35.7386L73.7105 44.3085L72.3015 35.7386C71.2744 29.4913 66.3872 24.5949 60.1516 23.5659L51.5977 22.1541L60.1516 20.7426C66.3872 19.7135 71.2744 14.8171 72.3015 8.56989L73.7105 0L75.1195 8.56989Z" fill="url(#paint2_linear_950_3296)"/>
<defs>
<linearGradient id="paint0_linear_950_3296" x1="95.9192" y1="-0.0931193" x2="-0.173803" y2="95.8257" gradientUnits="userSpaceOnUse">
<stop offset="0.2" stop-color="#F4DC7C"/>
<stop offset="0.4" stop-color="#F06058"/>
<stop offset="0.8" stop-color="#4044E8"/>
</linearGradient>
<linearGradient id="paint1_linear_950_3296" x1="95.9192" y1="-0.0931193" x2="-0.173803" y2="95.8257" gradientUnits="userSpaceOnUse">
<stop offset="0.2" stop-color="#F4DC7C"/>
<stop offset="0.4" stop-color="#F06058"/>
<stop offset="0.8" stop-color="#4044E8"/>
</linearGradient>
<linearGradient id="paint2_linear_950_3296" x1="95.9192" y1="-0.0931193" x2="-0.173803" y2="95.8257" gradientUnits="userSpaceOnUse">
<stop offset="0.2" stop-color="#F4DC7C"/>
<stop offset="0.4" stop-color="#F06058"/>
<stop offset="0.8" stop-color="#4044E8"/>
</linearGradient>
</defs>
</svg>
