<svg xmlns="http://www.w3.org/2000/svg" width="206" height="60" viewBox="0 0 206 60" fill="none">
  <g clip-path="url(#clip0_1118_3489)">
    <path d="M50.3828 0C55.6941 0 60 4.30589 60 9.61719V50.3828C60 55.6941 55.6941 60 50.3828 60H9.61719C4.3059 60 0 55.6941 0 50.3828V9.61719C0 4.30589 4.3059 0 9.61719 0H50.3828ZM38.7383 16.3047C38.4161 16.169 38.0426 16.3727 38.0342 16.6865C38.0087 17.5346 37.9409 19.061 37.8477 20.1973C37.8052 20.7315 37.6528 21.2403 37.3984 21.7236L21.4463 51.9824H14.2969C13.7458 51.9825 13.3047 52.4235 13.3047 52.9746C13.3048 53.5257 13.7458 53.9667 14.2969 53.9668H23.1172C28.7652 54.0262 41.6463 54.1279 44.8438 53.9414C46.6926 51.3802 47.9399 48.4373 48.3809 45.2656C48.3809 45.2233 48.3886 45.181 48.3887 45.1387C48.4057 44.9946 48.4228 44.8504 48.4229 44.7148C48.4229 44.5791 48.4226 44.4429 48.4141 44.3242C48.4057 44.1887 48.3978 44.0531 48.3809 43.9346C48.1435 42.2979 47.0146 40.9063 45.4287 40.1855C44.6656 39.8295 43.8092 39.6348 42.8936 39.6348H42.8174C40.6633 39.6348 36.6853 41.8906 36.168 41.3818C36.1341 41.3479 36.1092 41.3132 36.0752 41.2793C35.7957 40.9825 35.897 40.5248 36.2783 40.3467L40.6719 38.3203L45.4717 36.1914L53.6641 32.5537C53.6663 32.5537 53.6805 32.5526 53.6807 32.5449C54.1809 32.3245 54.0285 31.5872 53.4775 31.5869L53.4854 31.5352C50.5425 31.5607 43.4958 31.6033 43.3262 31.3828C43.3008 31.3488 43.2751 31.3151 43.2412 31.2812C42.9954 30.959 43.1478 30.5183 43.5547 30.374L48.1514 28.7451L50.0684 28.1006C50.4498 27.9395 50.8482 27.7532 51.1025 27.5752C51.2721 27.4565 51.442 27.3206 51.5947 27.1934C52.4172 26.464 52.9684 25.5141 53.1465 24.4541C52.9599 24.2591 52.7562 24.0722 52.5527 23.8857C51.1874 22.6731 49.5423 21.6979 47.7275 21.0449C47.7275 21.0449 47.481 20.9602 47.0654 20.833C46.3531 20.6294 45.115 20.3247 43.7754 20.2061H43.708C43.1059 20.1552 42.4944 20.1382 41.8838 20.2061C41.6548 18.4761 40.4343 17.0171 38.7383 16.3047ZM10.0225 47.7695C9.47118 47.7695 9.03028 48.2105 9.03027 48.7617C9.03027 49.313 9.47118 49.7539 10.0225 49.7539H20.1992C20.7503 49.7537 21.1914 49.3129 21.1914 48.7617C21.1914 48.2106 20.7503 47.7697 20.1992 47.7695H10.0225ZM8.06348 43.584C7.51227 43.584 7.07135 44.0249 7.07129 44.5762C7.07129 45.1274 7.51224 45.5684 8.06348 45.5684H22.1074C22.6586 45.5682 23.0996 45.1273 23.0996 44.5762C23.0996 44.025 22.6585 43.5842 22.1074 43.584H8.06348ZM6.98926 39.4053C6.43802 39.4053 5.99708 39.8463 5.99707 40.3975C5.99707 40.9488 6.43802 41.3896 6.98926 41.3896H24.2041C24.7553 41.3896 25.1963 40.9488 25.1963 40.3975C25.1963 39.8463 24.7553 39.4053 24.2041 39.4053H6.98926ZM18.4531 35.2422C17.902 35.2423 17.4609 35.6832 17.4609 36.2344C17.4609 36.7855 17.902 37.2265 18.4531 37.2266H25.9668C26.5181 37.2266 26.959 36.7856 26.959 36.2344C26.959 35.6832 26.5181 35.2422 25.9668 35.2422H18.4531ZM6.98926 35.2363C6.43805 35.2363 5.99713 35.6773 5.99707 36.2285C5.99707 36.7797 6.43802 37.2207 6.98926 37.2207H15.7578C16.309 37.2207 16.75 36.7797 16.75 36.2285C16.7499 35.6773 16.3089 35.2364 15.7578 35.2363H6.98926ZM8.74414 31.0576C8.19312 31.0579 7.75196 31.4988 7.75195 32.0498C7.75195 32.6009 8.19312 33.0417 8.74414 33.042H28.0977C28.6487 33.0417 29.0898 32.6008 29.0898 32.0498C29.0898 31.4988 28.6487 31.0579 28.0977 31.0576H8.74414ZM10.8174 26.8799C10.2662 26.8799 9.82526 27.3208 9.8252 27.8721C9.8252 28.4233 10.2662 28.8643 10.8174 28.8643H30.0176C30.5686 28.8641 31.0098 28.4231 31.0098 27.8721C31.0097 27.321 30.5686 26.8801 30.0176 26.8799H10.8174ZM14.2969 22.707C13.7458 22.7071 13.3047 23.1481 13.3047 23.6992C13.3047 24.2504 13.7458 24.6913 14.2969 24.6914H25.2119C25.763 24.6912 26.2041 24.2503 26.2041 23.6992C26.2041 23.1481 25.7629 22.7072 25.2119 22.707H14.2969ZM27.9434 22.707C27.3921 22.7071 26.9512 23.1481 26.9512 23.6992C26.9512 24.2504 27.3921 24.6913 27.9434 24.6914H33.04C33.5912 24.6914 34.0322 24.2504 34.0322 23.6992C34.0322 23.148 33.5912 22.707 33.04 22.707H27.9434ZM15.875 18.5303C15.3238 18.5304 14.8828 18.9712 14.8828 19.5225C14.8828 20.0736 15.3238 20.5146 15.875 20.5146H33.8535C34.4048 20.5146 34.8457 20.0737 34.8457 19.5225C34.8457 18.9712 34.4048 18.5303 33.8535 18.5303H15.875ZM17.3418 14.3408C16.7907 14.3409 16.3496 14.7819 16.3496 15.333C16.3496 15.8841 16.7907 16.3251 17.3418 16.3252H22.3457C22.8969 16.3251 23.3379 15.8841 23.3379 15.333C23.3379 14.7819 22.8969 14.3409 22.3457 14.3408H17.3418ZM25.1357 14.3408C24.5845 14.3408 24.1436 14.7818 24.1436 15.333C24.1436 15.8842 24.5845 16.3252 25.1357 16.3252H33.8535C34.4047 16.3252 34.8457 15.8842 34.8457 15.333C34.8457 14.7818 34.4047 14.3408 33.8535 14.3408H25.1357ZM20.3535 10.1797C19.8023 10.1797 19.3613 10.6206 19.3613 11.1719C19.3613 11.7231 19.8023 12.1641 20.3535 12.1641H30.1816C30.7328 12.1641 31.1738 11.7231 31.1738 11.1719C31.1738 10.6206 30.7328 10.1797 30.1816 10.1797H20.3535ZM16.249 5.99316C15.6978 5.99319 15.2569 6.43416 15.2568 6.98535C15.2568 7.53657 15.6977 7.97751 16.249 7.97754H23.1523C23.7036 7.97745 24.1445 7.53654 24.1445 6.98535C24.1445 6.4342 23.7036 5.99325 23.1523 5.99316H16.249Z" fill="white"/>
    <path d="M87.6291 28.9328V28.7971C90.945 27.559 92.5733 24.913 92.5733 22.1314C92.5733 19.5703 91.4284 17.535 89.5288 16.2968C87.4086 14.7957 84.7542 14.5752 81.0058 14.5752H73.8906C73.3988 14.5752 73.0087 14.9738 73.0087 15.4572V44.6134C73.0087 45.1053 73.4072 45.4954 73.8906 45.4954H79.7676C85.2461 45.4954 88.7316 44.7406 90.8093 42.8409C92.5309 41.3399 93.6333 39.2198 93.6333 36.5229C93.6333 32.588 91.0722 29.8487 87.6291 28.9243V28.9328ZM78.9281 19.7908C78.9281 19.2989 79.3267 18.9088 79.81 18.9088H81.6249C84.8899 18.9088 86.6199 20.2318 86.6199 22.8862C86.6199 25.5406 84.7627 27.1265 81.5401 27.1265H79.8185C79.3267 27.1265 78.9366 26.7279 78.9366 26.2445V19.7908H78.9281ZM81.6249 41.1703H79.81C79.3182 41.1703 78.9281 40.7717 78.9281 40.2883V32.3844C78.9281 31.8925 79.3267 31.5024 79.81 31.5024H81.4468C84.8051 31.5024 87.3662 32.9611 87.3662 36.3618C87.3662 39.7625 84.8051 41.1788 81.6249 41.1788V41.1703Z" fill="white"/>
    <path d="M115.369 23.8713C115.369 23.3794 114.97 22.9893 114.487 22.9893H110.289C109.797 22.9893 109.407 23.3879 109.407 23.8713V35.6253C109.407 38.4494 108.169 41.1462 105.565 41.1462C102.961 41.1462 102.122 38.9412 102.122 36.1087V23.8713C102.122 23.3794 101.723 22.9893 101.24 22.9893H97.0422C96.5503 22.9893 96.1602 23.3879 96.1602 23.8713V36.855C96.1602 43.2578 98.9842 46.0904 103.004 46.0904C105.2 46.0904 106.752 44.9455 107.795 43.2918C108.262 42.554 109.407 42.9101 109.407 43.7836V44.6317C109.407 45.1236 109.805 45.5137 110.289 45.5137H114.622C115.123 45.5137 115.53 45.0981 115.504 44.5978C115.436 42.961 115.369 40.8748 115.369 38.8904V23.8713Z" fill="white"/>
    <path d="M138.826 13.5744C138.826 13.0825 138.427 12.6924 137.944 12.6924H133.746C133.254 12.6924 132.864 13.091 132.864 13.5744V25.0401C132.864 25.939 131.702 26.2443 131.227 25.4896C129.947 23.4542 128.166 22.4111 126.105 22.4111C121.33 22.4111 118.201 27.1348 118.243 33.809C118.243 41.9419 121.737 46.0889 126.241 46.0889C128.344 46.0889 130.048 44.8507 131.244 42.9256C131.71 42.1793 132.864 42.5185 132.864 43.4005V44.6302C132.864 45.1221 133.262 45.5122 133.746 45.5122H138.071C138.571 45.5122 138.978 45.0966 138.953 44.5963C138.885 43.0443 138.826 40.992 138.826 39.0669V13.5744ZM132.906 35.0048C132.906 38.4055 130.964 41.2804 128.802 41.2804C125.927 41.2804 124.256 38.4988 124.256 34.1228C124.256 30.2811 125.715 27.2281 128.674 27.2281C131.015 27.2281 132.915 30.103 132.915 33.368V35.0048H132.906Z" fill="white"/>
    <path d="M162.325 13.5744C162.325 13.0825 161.927 12.6924 161.443 12.6924H157.245C156.753 12.6924 156.363 13.091 156.363 13.5744V25.0401C156.363 25.939 155.202 26.2443 154.727 25.4896C153.446 23.4542 151.665 22.4111 149.604 22.4111C144.83 22.4111 141.701 27.1348 141.743 33.809C141.743 41.9419 145.237 46.0889 149.74 46.0889C151.843 46.0889 153.548 44.8507 154.744 42.9256C155.21 42.1793 156.363 42.5185 156.363 43.4005V44.6302C156.363 45.1221 156.762 45.5122 157.245 45.5122H161.57C162.071 45.5122 162.478 45.0966 162.452 44.5963C162.385 43.0443 162.325 40.992 162.325 39.0669V13.5744ZM156.406 35.0048C156.406 38.4055 154.464 41.2804 152.301 41.2804C149.426 41.2804 147.756 38.4988 147.756 34.1228C147.756 30.2811 149.214 27.2281 152.174 27.2281C154.515 27.2281 156.414 30.103 156.414 33.368V35.0048H156.406Z" fill="white"/>
    <path d="M195.833 34.4679V44.0849C195.833 44.4835 195.51 44.8057 195.112 44.8057C194.713 44.8057 194.391 44.4835 194.391 44.0849V40.3704C194.391 39.9718 194.069 39.6496 193.67 39.6496H190.575C190.176 39.6496 189.854 39.9718 189.854 40.3704V44.0849C189.854 44.4835 189.532 44.8057 189.133 44.8057C188.734 44.8057 188.412 44.4835 188.412 44.0849V34.4679C188.412 34.0693 188.734 33.7471 189.133 33.7471C189.532 33.7471 189.854 34.0693 189.854 34.4679V37.6736C189.854 38.0722 190.176 38.3944 190.575 38.3944H193.67C194.069 38.3944 194.391 38.0722 194.391 37.6736V34.4679C194.391 34.0693 194.713 33.7471 195.112 33.7471C195.51 33.7471 195.833 34.0693 195.833 34.4679Z" fill="white"/>
    <path d="M203.923 44.0396L205.738 45.0149L205.433 45.5067C205.229 45.829 204.814 45.9392 204.483 45.7611L202.973 44.9385C202.812 44.8537 202.626 44.8368 202.456 44.8792C202.159 44.947 201.837 44.9725 201.515 44.9725C198.894 44.9725 197.122 42.776 197.122 39.3159C197.122 35.8559 198.954 33.5322 201.591 33.5322C204.229 33.5322 205.992 35.7456 205.992 39.1887C205.992 41.3513 205.136 43.1237 203.923 43.9293V44.0226V44.0396ZM200.768 43.6495C201.082 43.7597 201.438 43.6241 201.617 43.3357L201.854 42.9371L202.677 43.3951H202.821C203.923 42.7166 204.474 41.0714 204.474 39.2396C204.474 36.9838 203.542 34.7534 201.566 34.7534C199.59 34.7534 198.631 36.9329 198.631 39.3159C198.631 41.2749 199.361 43.1407 200.768 43.641V43.6495Z" fill="white"/>
    <path d="M184.341 22.9531H180.025C179.618 22.9531 179.262 23.2329 179.168 23.6315L175.98 36.5559C175.827 37.175 174.953 37.1919 174.784 36.5728C173.622 32.2817 171.256 23.5976 171.256 23.5976C171.146 23.216 170.798 22.9531 170.408 22.9531H165.803C165.192 22.9531 164.76 23.5637 164.972 24.1403L172.553 46.3425C172.749 46.9191 172.859 47.5382 172.782 48.1403C172.706 48.7425 172.494 49.3022 172.053 49.6923C171.027 50.5912 168.517 50.1587 167.236 50.3707C166.685 50.4555 166.676 50.6675 166.634 51.2781C166.592 51.8039 166.592 54.4414 166.761 54.7382C168.194 55.035 169.882 54.7636 171.298 54.5092C172.553 54.2803 173.893 53.9326 174.97 53.1948C176.234 52.3382 176.573 51.1933 177.014 49.811C177.939 46.9191 178.855 44.0357 179.779 41.1439C180.898 37.6329 182.018 34.1135 183.137 30.6025C183.807 28.5078 184.469 26.4216 185.139 24.3269L185.206 24.1234C185.393 23.5552 184.969 22.9615 184.367 22.9615L184.341 22.9531Z" fill="white"/>
  </g>
  <defs>
    <clipPath id="clip0_1118_3489">
      <rect width="206" height="60" fill="white"/>
    </clipPath>
  </defs>
</svg>