<svg xmlns="http://www.w3.org/2000/svg" width="180" height="30" viewBox="0 0 180 30" fill="none">
  <mask id="mask0_1110_3339" style="mask-type:luminance" maskUnits="userSpaceOnUse" x="1" y="2" width="177" height="26">
    <path d="M177.852 2.92676H1.42334V27.0731H177.852V2.92676Z" fill="white"/>
  </mask>
  <g mask="url(#mask0_1110_3339)">
    <path d="M90.4721 12.2715H86.9026C85.9258 12.2715 85.1338 13.0634 85.1338 14.0403V25.3052C85.1338 26.2822 85.9258 27.0742 86.9026 27.0742H90.4721C91.4492 27.0742 92.2409 26.2822 92.2409 25.3052V14.0403C92.2409 13.0634 91.4492 12.2715 90.4721 12.2715Z" fill="black"/>
    <path d="M112.667 3.15625H96.845C95.8686 3.15625 95.0762 3.94759 95.0762 4.92512V8.49461C95.0762 9.47106 95.8675 10.2635 96.845 10.2635H101.203V25.3042C101.203 26.2806 101.994 27.073 102.972 27.073H106.541C107.517 27.073 108.31 26.2806 108.31 25.3042V10.2635H112.667C113.644 10.2635 114.436 9.47214 114.436 8.49461V4.92512C114.436 3.94864 113.644 3.15625 112.667 3.15625Z" fill="black"/>
    <path d="M52.7327 12.2715H49.1632C48.1864 12.2715 47.3944 13.0634 47.3944 14.0403V25.3052C47.3944 26.2822 48.1864 27.0742 49.1632 27.0742H52.7327C53.7098 27.0742 54.5018 26.2822 54.5018 25.3052V14.0403C54.5018 13.0634 53.7098 12.2715 52.7327 12.2715Z" fill="black"/>
    <path d="M138.67 26.6115V26.6084C138.658 26.6084 138.645 26.6084 138.634 26.6084C138.645 26.6084 138.657 26.6115 138.67 26.6115Z" fill="black"/>
    <path d="M176.344 20.5435L176.809 20.9085C178.336 22.1103 178.156 24.478 176.464 25.4344L176.414 25.463L176.425 25.4777C174.68 26.4607 172.667 27.0233 170.522 27.0233C163.884 27.0233 158.473 21.6364 158.473 14.9745C158.473 8.31271 163.867 2.92676 170.522 2.92676C171.596 2.92676 172.772 3.08862 173.958 3.43562C179.11 4.94424 178.773 10.6783 174.944 14.4413C170.468 18.8413 167.308 21.4914 165.316 23.3724L162.655 20.4398L171.519 10.7502C172.149 10.0625 171.662 8.95487 170.73 8.95171C167.758 8.94324 165.076 11.0052 164.585 13.9356C163.975 17.5675 166.634 20.754 170.126 20.973C171.232 21.0386 172.323 20.8101 173.325 20.2621C174.29 19.7352 175.481 19.8633 176.344 20.5435Z" fill="black"/>
    <path d="M143.247 17.417C143.247 10.3236 148.442 4.4446 155.235 3.37715C156.403 3.19412 157.46 4.0976 157.46 5.2793V8.59488C157.46 9.50788 156.814 10.2802 155.922 10.477C152.736 11.1794 150.353 14.02 150.353 17.417V25.1506C150.353 26.2128 149.492 27.0728 148.431 27.0728H145.17C144.108 27.0728 143.248 26.2117 143.248 25.1506L143.247 17.417Z" fill="black"/>
    <path d="M81.9593 12.8184C80.5353 6.52578 75.1853 3.18905 69.8365 3.15625C67.3692 3.17106 64.9054 3.89681 62.8233 5.28589C62.7684 5.3229 62.7155 5.36311 62.6604 5.40014C58.1547 8.62895 57.4437 15.6399 57.3653 18.8497C57.3728 19.3596 57.377 19.915 57.3781 20.5127C57.3803 21.6839 57.3728 23.0306 57.3634 24.5901C57.3537 26.0733 57.3432 23.1925 57.339 25.0937C57.3368 26.1579 58.1979 27.0243 59.2624 27.0243H62.5959C63.6601 27.0243 64.1046 26.2213 64.1024 25.1571C64.0982 23.2867 64.096 26.1886 64.1024 24.7202C64.1362 15.989 64.4367 13.8277 65.9887 12.0852C67.0234 10.9247 68.4294 10.3587 69.8374 10.3544C71.2444 10.3587 72.6526 10.9247 73.6863 12.0852C75.2266 13.8139 75.233 15.9097 75.1812 24.461C75.1715 25.977 75.161 23.1386 75.1557 25.0937C75.1535 26.1579 76.0147 27.0243 77.0791 27.0243H80.3386C81.3997 27.0243 82.2598 26.1622 82.2609 25.1C82.2628 23.1766 82.2672 26.0573 82.2725 24.5911C82.3063 15.3691 82.3697 14.4656 81.9593 12.8184Z" fill="black"/>
    <path d="M117.053 17.3622C118.477 23.6548 123.827 26.9916 129.176 27.0243C131.643 27.0096 134.107 26.2839 136.189 24.8948C136.244 24.8577 136.297 24.8175 136.352 24.7805C140.858 21.5517 141.568 14.5407 141.647 11.3309C141.639 10.821 141.635 10.2656 141.634 9.66786C141.632 8.49671 141.639 7.14996 141.649 5.59057C141.658 4.10734 141.669 6.98809 141.673 5.08699C141.675 4.0227 140.814 3.15625 139.75 3.15625H136.416C135.352 3.15625 134.908 3.95922 134.91 5.02351C134.914 6.89395 134.916 3.99202 134.91 5.46044C134.876 14.1916 134.576 16.3529 133.023 18.0954C131.989 19.2559 130.583 19.8219 129.175 19.8262C127.768 19.8219 126.359 19.2559 125.326 18.0954C123.786 16.3667 123.779 14.2709 123.831 5.71962C123.841 4.20361 123.851 7.04205 123.857 5.08699C123.859 4.0227 122.997 3.15625 121.933 3.15625H118.674C117.613 3.15625 116.753 4.01847 116.751 5.08064C116.749 7.00397 116.745 4.1232 116.74 5.58949C116.706 14.8115 116.642 15.715 117.053 17.3622Z" fill="black"/>
    <path d="M44.1276 12.8184C42.7036 6.52578 37.3536 3.18799 32.0048 3.15625C29.5377 3.17106 27.0737 3.89681 24.9916 5.28589C24.9367 5.3229 24.8838 5.36311 24.8287 5.40014C20.323 8.62895 19.6121 15.6399 19.5338 18.8497C19.5412 19.3596 19.5454 19.915 19.5465 20.5127C19.5486 21.6839 19.5412 23.0306 19.5317 24.5901C19.5221 26.0733 19.5116 23.1925 19.5073 25.0937C19.5052 26.1579 20.3664 27.0243 21.4307 27.0243H24.7642C25.8286 27.0243 26.2729 26.2213 26.2707 25.1571C26.2665 23.2867 26.2643 26.1886 26.2707 24.7202C26.3045 15.989 26.605 13.8277 28.1569 12.0852C29.1917 10.9247 30.5977 10.3587 32.0059 10.3544C33.4129 10.3587 34.8209 10.9247 35.8546 12.0852C37.3949 13.8139 37.4013 15.9097 37.3495 24.461C37.3398 25.977 37.3293 23.1386 37.324 25.0937C37.322 26.1579 38.1832 27.0243 39.2474 27.0243H42.5069C43.568 27.0243 44.4281 26.1622 44.4292 25.1C44.4314 23.1766 44.4355 26.0573 44.4408 24.5911C44.4746 15.3691 44.538 14.4656 44.1276 12.8184Z" fill="black"/>
    <path d="M26.0437 12.8184C24.6196 6.52578 19.2697 3.18799 13.9207 3.15625C11.4537 3.17106 8.98971 3.89681 6.90768 5.28589C6.85267 5.3229 6.79977 5.36311 6.74476 5.40014C2.23901 8.63002 1.52808 15.6399 1.44979 18.8497C1.4572 19.3596 1.46143 19.915 1.46249 20.5127C1.4646 21.6839 1.4572 23.0306 1.44768 24.5901C1.43921 26.0733 1.42758 23.1925 1.42334 25.0937C1.42123 26.1579 2.28239 27.0243 3.34667 27.0243H6.68022C7.74451 27.0243 8.18884 26.2213 8.18674 25.1571C8.1825 23.2867 8.18039 26.1886 8.18674 24.7202C8.22059 15.989 8.52103 13.8277 10.073 12.0852C11.1077 10.9247 12.5137 10.3587 13.9218 10.3544C15.3289 10.3587 16.737 10.9247 17.7706 12.0852C19.3109 13.8139 19.3173 15.9097 19.2655 24.461C19.2559 25.977 19.2453 23.1386 19.2401 25.0937C19.2379 26.1579 20.0991 27.0243 21.1634 27.0243H24.4229C25.484 27.0243 26.344 26.1622 26.3451 25.1C26.3473 23.1766 26.3515 26.0573 26.3568 24.5911C26.3906 15.3691 26.4542 14.4656 26.0437 12.8184Z" fill="black"/>
    <path d="M88.6853 10.2635C90.6479 10.2635 92.239 8.67246 92.239 6.70986C92.239 4.74725 90.6479 3.15625 88.6853 3.15625C86.7226 3.15625 85.1316 4.74725 85.1316 6.70986C85.1316 8.67246 86.7226 10.2635 88.6853 10.2635Z" fill="black"/>
    <path d="M86.9725 6.2622H88.0283C88.1447 6.2622 88.2399 6.16803 88.2399 6.05062V4.99479C88.2399 4.87842 88.3341 4.7832 88.4516 4.7832H88.9222C89.0385 4.7832 89.1338 4.87736 89.1338 4.99479V6.05062C89.1338 6.16698 89.228 6.2622 89.3454 6.2622H90.4013C90.5176 6.2622 90.6129 6.35635 90.6129 6.47379V6.94456C90.6129 7.06094 90.5187 7.15615 90.4013 7.15615H89.3454C89.2291 7.15615 89.1338 7.25032 89.1338 7.36773V8.42357C89.1338 8.53993 89.0396 8.63515 88.9222 8.63515H88.4516C88.3352 8.63515 88.2399 8.541 88.2399 8.42357V7.36773C88.2399 7.25137 88.1458 7.15615 88.0283 7.15615H86.9725C86.8561 7.15615 86.7609 7.062 86.7609 6.94456V6.47379C86.7609 6.35741 86.855 6.2622 86.9725 6.2622Z" fill="black"/>
    <path d="M50.9481 10.2635C52.9108 10.2635 54.5018 8.67246 54.5018 6.70986C54.5018 4.74725 52.9108 3.15625 50.9481 3.15625C48.9854 3.15625 47.3944 4.74725 47.3944 6.70986C47.3944 8.67246 48.9854 10.2635 50.9481 10.2635Z" fill="black"/>
    <path d="M50.5004 8.42357V7.36773C50.5004 7.25137 50.4063 7.15615 50.2888 7.15615H49.233C49.1166 7.15615 49.0214 7.062 49.0214 6.94456V6.47379C49.0214 6.35741 49.1155 6.2622 49.233 6.2622H50.2888C50.4052 6.2622 50.5004 6.16803 50.5004 6.05062V4.99479C50.5004 4.87842 50.5946 4.7832 50.712 4.7832H51.1829C51.2992 4.7832 51.3943 4.87736 51.3943 4.99479V6.05062C51.3943 6.16698 51.4885 6.2622 51.6059 6.2622H52.6618C52.7781 6.2622 52.8734 6.35635 52.8734 6.47379V6.94456C52.8734 7.06094 52.7792 7.15615 52.6618 7.15615H51.6059C51.4896 7.15615 51.3943 7.25032 51.3943 7.36773V8.42357C51.3943 8.53993 51.3001 8.63515 51.1829 8.63515H50.712C50.5957 8.63515 50.5004 8.541 50.5004 8.42357Z" fill="black"/>
  </g>
</svg>