<svg xmlns="http://www.w3.org/2000/svg" width="205" height="40" viewBox="0 0 205 40" fill="none">
  <path d="M30.678 12.2048L58.3684 0L29.2879 19.9289L17.069 2.85138L30.678 12.2048Z" fill="white"/>
  <path fill-rule="evenodd" clip-rule="evenodd" d="M36.0807 15.5781L48.2996 32.6556L34.6906 23.3022L7.00024 35.5109L36.0807 15.582M34.8596 22.3761L45.2123 29.6275L35.8772 16.7271L35.3818 19.4824L34.8634 22.3722L34.8596 22.3761Z" fill="white"/>
  <path fill-rule="evenodd" clip-rule="evenodd" d="M21.1892 18.7113L16.8615 2.99414L29.0805 20.0717L0 40.0006L21.1892 18.7075V18.7113ZM28.0283 19.8911L18.7124 6.87155L22.0302 18.9265L6.14403 34.8896L28.0283 19.8911Z" fill="white"/>
  <path d="M200.157 20.7209V20.2175L201.002 20.2098C201.132 20.2021 201.232 20.1829 201.298 20.1483C201.371 20.1061 201.424 20.0561 201.459 19.9985C201.524 19.8793 201.563 19.6718 201.574 19.3721C201.582 19.2952 201.601 18.4536 201.635 16.8435V13.189C201.635 12.209 201.616 11.1945 201.582 10.1493C201.559 9.44606 201.524 9.05024 201.482 8.96955C201.451 8.9119 201.405 8.86963 201.336 8.84658C201.244 8.8043 200.833 8.78509 200.092 8.78509V8.26631C201.447 8.10107 202.392 7.8974 202.918 7.65146C202.995 7.61687 203.056 7.59766 203.099 7.59766C203.141 7.59766 203.175 7.61303 203.198 7.63993C203.221 7.66298 203.233 7.69757 203.233 7.74753C203.233 7.7898 203.225 7.84744 203.214 7.9243L203.206 8.21635C203.175 9.26929 203.16 10.1647 203.152 10.9025L203.133 12.2782V16.8512C203.164 18.3768 203.179 19.203 203.187 19.326C203.191 19.618 203.229 19.8332 203.294 19.9677C203.317 20.0215 203.356 20.0676 203.402 20.1099C203.448 20.1445 203.521 20.1752 203.617 20.1983C203.659 20.206 203.993 20.2137 204.615 20.2252V20.7286C203.801 20.6825 203.083 20.6594 202.465 20.6594C201.847 20.6594 201.102 20.6825 200.142 20.7286L200.157 20.7209Z" fill="white"/>
  <path d="M198.817 19.3525L198.529 19.9866C198.114 20.2402 197.811 20.4055 197.619 20.49C197.335 20.613 197.012 20.7168 196.647 20.7975C196.286 20.8858 195.906 20.9281 195.503 20.9281C194.712 20.9281 193.994 20.7667 193.353 20.4439C192.711 20.1211 192.208 19.6408 191.851 18.999C191.498 18.3534 191.321 17.6002 191.321 16.7356C191.321 16.0592 191.413 15.4521 191.601 14.9141C191.793 14.3684 192.009 13.9649 192.25 13.7074C192.423 13.5191 192.696 13.3039 193.061 13.0657C193.425 12.8197 193.79 12.6238 194.151 12.4854C194.624 12.2933 195.138 12.1934 195.691 12.1934C196.363 12.1934 196.97 12.3432 197.507 12.643C198.053 12.9427 198.452 13.3501 198.706 13.8688C198.959 14.3838 199.082 14.9717 199.082 15.6212C199.082 15.7864 199.07 15.9862 199.047 16.2206C198.617 16.3013 198.229 16.3551 197.888 16.3782C197.239 16.4243 196.59 16.4474 195.945 16.4474H193.057C193.068 17.2889 193.214 17.9691 193.498 18.4918C193.786 19.0067 194.178 19.391 194.677 19.6369C195.18 19.8829 195.703 20.0058 196.244 20.0058C196.609 20.0058 196.974 19.9482 197.335 19.8367C197.699 19.7176 198.149 19.5063 198.686 19.2027L198.832 19.3525H198.817ZM193.049 15.7518C193.218 15.771 193.537 15.7864 194.005 15.8056C194.9 15.8364 195.514 15.8479 195.849 15.8479C196.647 15.8479 197.173 15.8325 197.423 15.8056C197.431 15.6634 197.431 15.5558 197.431 15.479C197.431 14.5529 197.239 13.8688 196.855 13.4346C196.471 13.0004 195.956 12.7813 195.315 12.7813C194.635 12.7813 194.09 13.0196 193.675 13.4961C193.26 13.9726 193.053 14.7219 193.045 15.7518H193.049Z" fill="white"/>
  <path d="M185.027 20.8091C184.793 20.2096 184.632 19.8061 184.54 19.6024L183.802 17.9193L181.959 13.7191C181.84 13.4539 181.737 13.2771 181.652 13.1887C181.568 13.1004 181.475 13.0466 181.372 13.0197C181.287 12.9966 181.065 12.9774 180.707 12.9659V12.4355C181.702 12.4778 182.428 12.497 182.885 12.497C183.388 12.497 184.079 12.4778 184.954 12.4355V12.9659C184.305 12.9851 183.925 13.0235 183.81 13.0888C183.695 13.1542 183.637 13.2425 183.637 13.354C183.637 13.5308 183.756 13.9073 183.998 14.4915L185.097 17.1699L185.358 17.7694C185.649 18.4688 185.853 18.9338 185.961 19.1682L186.859 17.1699C186.913 17.0508 187.186 16.3937 187.677 15.187C187.965 14.4876 188.157 13.9535 188.253 13.5846C188.276 13.4846 188.288 13.3963 188.288 13.3194C188.288 13.2195 188.249 13.1503 188.172 13.108C188.026 13.0312 187.642 12.9851 187.02 12.9659V12.4355C187.915 12.4778 188.487 12.497 188.741 12.497C188.952 12.497 189.524 12.4778 190.461 12.4355V12.9659C190.089 12.9851 189.839 13.0273 189.712 13.0965C189.593 13.1618 189.474 13.3002 189.351 13.5115C189.267 13.6537 188.944 14.2878 188.38 15.4137L187.516 17.2199C187.366 17.5427 186.848 18.7378 185.957 20.8052H185.02L185.027 20.8091Z" fill="white"/>
  <path d="M173.177 14.6882L172.701 14.5653C172.709 14.4308 172.709 14.2463 172.709 14.0119C172.709 13.766 172.709 13.57 172.701 13.4201C173.461 12.9321 174.087 12.6054 174.575 12.4325C174.947 12.3095 175.362 12.248 175.827 12.248C176.51 12.248 177.086 12.3749 177.555 12.6285C178.023 12.8821 178.369 13.2433 178.599 13.7122C178.757 14.0426 178.833 14.4884 178.833 15.061L178.799 16.6711V19.2958C178.799 19.5763 178.822 19.78 178.872 19.903C178.906 19.9913 178.964 20.0567 179.045 20.0951C179.106 20.1297 179.229 20.1527 179.421 20.1643L180.005 20.2181V20.7215C179.513 20.6792 179.079 20.66 178.707 20.66C178.334 20.66 177.866 20.6792 177.267 20.7215L177.313 19.1728C176.088 20.0759 175.362 20.587 175.136 20.7061C174.909 20.8175 174.621 20.8752 174.272 20.8752C173.546 20.8752 172.977 20.6869 172.57 20.3103C172.167 19.9299 171.968 19.4226 171.968 18.7962C171.968 18.3927 172.037 18.02 172.175 17.6856C172.321 17.3513 172.49 17.0862 172.689 16.894C172.889 16.6942 173.089 16.5482 173.292 16.4521C173.642 16.2945 174.206 16.1216 174.986 15.941C175.773 15.7604 176.549 15.622 177.317 15.5375C177.324 14.9803 177.255 14.5461 177.109 14.2348C176.963 13.9235 176.721 13.6699 176.38 13.4701C176.038 13.2702 175.619 13.1703 175.128 13.1703C174.775 13.1703 174.464 13.2164 174.191 13.3125C173.926 13.4047 173.765 13.4854 173.703 13.5508L173.542 13.8697C173.381 14.2233 173.262 14.4999 173.181 14.6959L173.177 14.6882ZM177.305 16.0678C176.526 16.1985 175.857 16.3407 175.308 16.4982C174.755 16.6558 174.368 16.821 174.137 16.9901C173.999 17.09 173.88 17.2399 173.776 17.4397C173.619 17.7318 173.542 18.0584 173.542 18.4158C173.542 18.85 173.665 19.192 173.911 19.438C174.156 19.6801 174.498 19.7992 174.936 19.7992C175.339 19.7992 175.735 19.6878 176.122 19.4649C176.518 19.2343 176.91 18.8961 177.301 18.4427V16.064L177.305 16.0678Z" fill="white"/>
  <path d="M164.357 20.7212V20.2178C165.036 20.2063 165.401 20.1948 165.455 20.1832C165.558 20.164 165.631 20.141 165.681 20.1025C165.735 20.0603 165.777 20.0065 165.808 19.9334C165.87 19.7989 165.904 19.5876 165.916 19.2994C165.95 17.7315 165.969 16.913 165.969 16.84V15.7909C165.969 15.3221 165.962 14.8148 165.942 14.2768C165.931 13.931 165.904 13.7234 165.862 13.662C165.827 13.5966 165.758 13.5505 165.654 13.5198C165.558 13.4852 165.167 13.4698 164.483 13.4775V12.9741C165.697 12.8088 166.58 12.5936 167.137 12.3323C167.256 12.2747 167.336 12.2439 167.379 12.2439C167.421 12.2439 167.455 12.2593 167.479 12.2862C167.502 12.317 167.513 12.3592 167.513 12.4169C167.513 12.4591 167.513 12.5053 167.505 12.5591C167.475 12.9164 167.459 13.4737 167.452 14.223C167.72 13.9194 167.97 13.6158 168.2 13.3161C168.427 13.0164 168.592 12.8242 168.696 12.7358C168.876 12.5821 169.084 12.463 169.318 12.3746C169.552 12.2824 169.794 12.2324 170.047 12.2324C170.301 12.2324 170.547 12.2862 170.796 12.39L170.85 12.5129C170.762 13.293 170.708 13.9809 170.696 14.5727H170.293C170.155 14.2922 169.994 14.0847 169.806 13.9579C169.625 13.8272 169.399 13.7657 169.122 13.7657C168.661 13.7657 168.266 13.954 167.943 14.3306C167.621 14.6995 167.455 15.2567 167.455 16.0061V16.913C167.455 17.3011 167.471 18.0082 167.502 19.0342C167.509 19.3993 167.521 19.6299 167.548 19.7298C167.571 19.8297 167.601 19.9027 167.636 19.9488C167.678 19.9911 167.743 20.0257 167.836 20.0564C168.016 20.1102 168.5 20.164 169.295 20.214V20.7174C168.239 20.6751 167.34 20.6559 166.595 20.6559C165.85 20.6559 165.082 20.6751 164.364 20.7174L164.357 20.7212Z" fill="white"/>
  <path d="M155.321 11.1179H154.764C154.756 9.71525 154.73 8.74301 154.676 8.20117C155.329 8.22423 156.358 8.25497 157.755 8.28956C158.888 8.31261 159.645 8.32414 160.025 8.32414C160.432 8.32414 161.377 8.30493 162.859 8.27034C163.934 8.24729 164.717 8.22423 165.209 8.20117C165.136 8.8583 165.09 9.83053 165.063 11.1179H164.487L164.414 10.2725C164.368 9.76136 164.333 9.4693 164.314 9.40013C164.295 9.33096 164.268 9.28101 164.234 9.25026C164.203 9.21952 164.157 9.19646 164.088 9.18109C164.003 9.16188 163.704 9.13882 163.189 9.11192C162.675 9.08118 162.264 9.06965 161.964 9.06965H160.866C160.804 9.63455 160.778 10.3954 160.778 11.3523V16.5055C160.778 17.3048 160.785 18.0811 160.804 18.8381C160.824 19.3953 160.866 19.7297 160.931 19.8334C161.004 19.941 161.115 20.0179 161.265 20.0717C161.423 20.1178 161.857 20.1485 162.571 20.16V20.7249C161.496 20.6788 160.689 20.6558 160.152 20.6558C159.917 20.6558 158.98 20.6788 157.345 20.7249V20.16C158.059 20.1485 158.493 20.1178 158.65 20.0717C158.808 20.0179 158.911 19.9487 158.965 19.8603C159.042 19.7412 159.092 19.4568 159.111 19.0072C159.111 18.8842 159.123 18.0503 159.146 16.5055V11.3715C159.146 11.1256 159.138 10.8566 159.126 10.5607L159.073 9.07349H157.732C156.957 9.07349 156.342 9.10424 155.889 9.16188C155.743 9.18109 155.651 9.21952 155.609 9.27716C155.544 9.37708 155.482 9.69603 155.428 10.2379L155.329 11.1294L155.321 11.1179Z" fill="white"/>
  <path d="M142.81 20.7212V20.2178C143.49 20.2063 143.855 20.1948 143.908 20.1832C144.012 20.164 144.085 20.141 144.135 20.1025C144.189 20.0603 144.231 20.0065 144.262 19.9334C144.323 19.7989 144.358 19.5876 144.369 19.2994C144.404 17.7315 144.423 16.913 144.423 16.84V15.7909C144.423 15.3221 144.415 14.8148 144.396 14.2768C144.385 13.931 144.358 13.7234 144.315 13.662C144.281 13.5966 144.212 13.5505 144.108 13.5198C144.012 13.4852 143.62 13.4698 142.937 13.4775V12.9741C144.15 12.8088 145.034 12.5936 145.59 12.3323C145.709 12.2747 145.79 12.2439 145.832 12.2439C145.875 12.2439 145.909 12.2593 145.932 12.2862C145.955 12.317 145.967 12.3592 145.967 12.4169C145.967 12.4591 145.967 12.5053 145.959 12.5591C145.928 12.9164 145.913 13.4737 145.905 14.223C146.174 13.9194 146.424 13.6158 146.654 13.3161C146.881 13.0164 147.046 12.8242 147.149 12.7358C147.33 12.5821 147.537 12.463 147.771 12.3746C148.006 12.2824 148.248 12.2324 148.501 12.2324C148.755 12.2324 149 12.2862 149.25 12.39L149.304 12.5129C149.215 13.293 149.162 13.9809 149.15 14.5727H148.747C148.609 14.2922 148.447 14.0847 148.259 13.9579C148.079 13.8272 147.852 13.7657 147.576 13.7657C147.115 13.7657 146.719 13.954 146.397 14.3306C146.074 14.6995 145.909 15.2567 145.909 16.0061V16.913C145.909 17.3011 145.924 18.0082 145.955 19.0342C145.963 19.3993 145.974 19.6299 146.001 19.7298C146.024 19.8297 146.055 19.9027 146.09 19.9488C146.132 19.9911 146.197 20.0257 146.289 20.0564C146.47 20.1102 146.954 20.164 147.748 20.214V20.7174C146.692 20.6751 145.794 20.6559 145.049 20.6559C144.304 20.6559 143.536 20.6751 142.818 20.7174L142.81 20.7212Z" fill="white"/>
  <path d="M141.908 20.2175V20.7209C141.121 20.6786 140.529 20.6594 140.126 20.6594C139.681 20.6594 139.231 20.6786 138.774 20.7209C138.809 20.2444 138.836 19.7102 138.855 19.1184C138.494 19.399 138.068 19.7833 137.569 20.2713C137.453 20.3827 137.342 20.4634 137.234 20.5172C136.977 20.6594 136.72 20.7593 136.459 20.817C136.201 20.8823 135.89 20.913 135.533 20.913C135.046 20.913 134.639 20.8477 134.308 20.7209C133.986 20.5903 133.705 20.3943 133.471 20.1291C133.298 19.937 133.164 19.6872 133.068 19.3798C132.98 19.0685 132.934 18.6957 132.934 18.2615C132.934 18.0578 132.941 17.8618 132.953 17.6812C132.972 17.5006 132.98 17.32 132.98 17.1432V15.6368C132.98 15.4831 132.972 15.0989 132.953 14.484C132.941 14.0959 132.914 13.8422 132.872 13.727C132.849 13.6693 132.811 13.6194 132.757 13.5848C132.669 13.5271 132.507 13.4964 132.281 13.4964C131.951 13.4964 131.689 13.4964 131.497 13.4887V12.9853C132.788 12.8431 133.725 12.6164 134.304 12.3051C134.4 12.2513 134.477 12.2244 134.531 12.2244C134.573 12.2244 134.608 12.2398 134.631 12.2667C134.662 12.2974 134.677 12.3397 134.677 12.3973C134.677 12.4435 134.677 12.5049 134.669 12.5741C134.646 12.7624 134.623 13.1236 134.608 13.6578C134.573 14.6377 134.554 15.2948 134.554 15.6292V17.3469C134.554 18.0617 134.6 18.5689 134.7 18.861C134.804 19.1492 134.996 19.3798 135.276 19.5565C135.564 19.7256 135.917 19.8102 136.34 19.8102C136.628 19.8102 136.912 19.764 137.196 19.668C137.484 19.5681 137.741 19.4259 137.972 19.2453C138.141 19.1108 138.31 18.9263 138.486 18.6996C138.617 18.5305 138.705 18.3998 138.747 18.3115C138.79 18.2192 138.817 18.0809 138.828 17.908C138.859 17.393 138.874 16.8781 138.874 16.367V15.6253C138.874 15.4716 138.866 15.0873 138.847 14.4725C138.836 14.0843 138.809 13.8307 138.767 13.7154C138.744 13.6578 138.705 13.6078 138.651 13.5733C138.563 13.5156 138.402 13.4849 138.175 13.4849C137.845 13.4849 137.584 13.4849 137.392 13.4772V12.9738C138.682 12.8316 139.619 12.6049 140.199 12.2936C140.295 12.2398 140.372 12.2129 140.425 12.2129C140.468 12.2129 140.502 12.2283 140.525 12.2552C140.556 12.2859 140.571 12.3282 140.571 12.3858C140.571 12.4319 140.571 12.4934 140.564 12.5626C140.545 12.7509 140.525 13.1236 140.502 13.6808C140.468 14.6377 140.449 15.2833 140.449 15.6176V16.8243L140.468 18.0501C140.487 18.7611 140.498 19.1761 140.502 19.3029C140.51 19.595 140.541 19.8102 140.602 19.9447C140.633 19.9985 140.671 20.0446 140.717 20.0868C140.763 20.1214 140.836 20.1522 140.932 20.1752C140.967 20.1829 141.301 20.1906 141.931 20.2021L141.908 20.2175Z" fill="white"/>
  <path d="M121.813 16.6665C121.813 15.3522 122.239 14.2801 123.092 13.45C123.948 12.6161 125.047 12.1973 126.387 12.1973C127.646 12.1973 128.672 12.5854 129.466 13.3616C130.257 14.1379 130.653 15.137 130.653 16.3667C130.653 17.2237 130.449 18.0076 130.042 18.7185C129.635 19.4295 129.059 19.9867 128.314 20.394C127.569 20.7937 126.751 20.9935 125.857 20.9935C125.162 20.9935 124.57 20.8782 124.083 20.6515C123.603 20.4209 123.211 20.1365 122.911 19.7868C122.612 19.441 122.382 19.0836 122.228 18.7224C121.951 18.0806 121.813 17.3966 121.813 16.6703V16.6665ZM123.514 16.017C123.514 16.7395 123.637 17.4735 123.883 18.219C124.129 18.9645 124.482 19.5102 124.947 19.856C125.415 20.198 125.922 20.3671 126.467 20.3671C127.162 20.3671 127.746 20.0981 128.215 19.5563C128.683 19.0144 128.917 18.1844 128.917 17.0623C128.917 16.1285 128.775 15.3253 128.495 14.649C128.218 13.9688 127.865 13.4885 127.431 13.2118C127.001 12.9312 126.521 12.7891 125.999 12.7891C125.262 12.7891 124.663 13.0504 124.198 13.573C123.741 14.0956 123.514 14.9103 123.514 16.0132V16.017Z" fill="white"/>
  <path d="M110.804 8.97646V8.43846L112.973 8.02344C113.211 8.10414 113.376 8.18484 113.469 8.26169C113.557 8.33086 113.749 8.55375 114.037 8.93034C114.463 9.48756 114.955 10.2484 115.511 11.213C116.068 12.1775 116.663 13.2766 117.293 14.5178C117.931 13.561 118.58 12.5195 119.248 11.4013L121.164 8.20405H122.543V8.44231C122.212 8.79969 121.606 9.57978 120.726 10.7749C120.215 11.4666 119.555 12.4734 118.737 13.7954C118.226 14.61 117.938 15.1135 117.873 15.3018C117.808 15.4824 117.773 15.6553 117.773 15.8205V16.5007C117.773 17.3 117.781 18.0763 117.8 18.8333C117.819 19.3905 117.862 19.7248 117.927 19.8286C118 19.9362 118.111 20.0131 118.261 20.0669C118.418 20.113 118.852 20.1437 119.567 20.1552V20.7201C118.587 20.674 117.742 20.651 117.028 20.651C116.314 20.651 115.442 20.674 114.321 20.7201V20.1552C115.028 20.1437 115.462 20.113 115.619 20.0669C115.776 20.0131 115.88 19.9439 115.934 19.8555C116.011 19.7364 116.061 19.452 116.08 19.0024C116.087 18.8794 116.099 18.0455 116.114 16.5007V15.4708C115.988 15.2057 115.865 14.9674 115.746 14.7561C115.661 14.61 115.354 14.1028 114.828 13.242L114.233 12.289C113.764 11.5358 113.419 11.0016 113.188 10.6865C112.75 10.0755 112.386 9.63742 112.098 9.37227C111.94 9.22624 111.775 9.12249 111.602 9.06484C111.433 9.0072 111.172 8.97646 110.811 8.97646H110.804Z" fill="white"/>
  <path d="M105.432 19.3525L105.144 19.9866C104.729 20.2402 104.426 20.4055 104.234 20.49C103.953 20.613 103.627 20.7168 103.262 20.7975C102.901 20.8858 102.521 20.9281 102.118 20.9281C101.327 20.9281 100.609 20.7667 99.9673 20.4439C99.326 20.1211 98.823 19.6408 98.4658 18.999C98.1126 18.3534 97.9359 17.6002 97.9359 16.7356C97.9359 16.0592 98.0281 15.4521 98.2162 14.9141C98.4082 14.3684 98.6233 13.9649 98.8652 13.7074C99.038 13.5191 99.3106 13.3039 99.6754 13.0657C100.04 12.8197 100.405 12.6238 100.766 12.4854C101.238 12.2933 101.753 12.1934 102.306 12.1934C102.978 12.1934 103.585 12.3432 104.122 12.643C104.667 12.9427 105.067 13.3501 105.32 13.8688C105.574 14.3838 105.697 14.9717 105.697 15.6212C105.697 15.7864 105.685 15.9862 105.662 16.2206C105.232 16.3013 104.844 16.3551 104.502 16.3782C103.853 16.4243 103.204 16.4474 102.559 16.4474H99.6716C99.6831 17.2889 99.829 17.9691 100.113 18.4918C100.401 19.0067 100.793 19.391 101.292 19.6369C101.795 19.8829 102.317 20.0058 102.859 20.0058C103.224 20.0058 103.588 19.9482 103.949 19.8367C104.314 19.7176 104.763 19.5063 105.301 19.2027L105.447 19.3525H105.432ZM99.6639 15.7518C99.8329 15.771 100.152 15.7864 100.616 15.8056C101.511 15.8364 102.125 15.8479 102.459 15.8479C103.258 15.8479 103.784 15.8325 104.034 15.8056C104.042 15.6634 104.042 15.5558 104.042 15.479C104.042 14.5529 103.85 13.8688 103.466 13.4346C103.082 13.0004 102.567 12.7813 101.926 12.7813C101.246 12.7813 100.701 13.0196 100.286 13.4961C99.8713 13.9726 99.6639 14.7219 99.6562 15.7518H99.6639Z" fill="white"/>
  <path d="M91.8799 13.8153V13.4464C92.479 13.2235 92.9551 13.0237 93.3123 12.8469C93.3123 11.4481 93.2931 10.5566 93.2585 10.1685C93.8806 9.9571 94.3913 9.73038 94.7792 9.48828L94.9942 9.66505C94.9289 10.1531 94.856 11.2252 94.7792 12.8892C95.2592 12.8969 95.5472 12.8969 95.6432 12.8969C95.6969 12.8969 96.008 12.8892 96.5686 12.8777C96.8796 12.87 97.1139 12.8584 97.2713 12.8431L97.3328 12.9046L97.1446 13.7231C96.7683 13.7154 96.4188 13.7154 96.1001 13.7154C95.7814 13.7154 95.3398 13.7154 94.7753 13.7231L94.7216 17.3084C94.7024 18.1846 94.71 18.7072 94.7407 18.8763C94.7715 19.0454 94.8291 19.1953 94.9136 19.3259C94.998 19.4489 95.1056 19.5488 95.2361 19.6257C95.3744 19.7025 95.6048 19.7602 95.9273 19.8024C96.1731 19.8024 96.3728 19.7947 96.5225 19.7755C96.68 19.7525 96.872 19.6987 97.1062 19.618L97.2137 19.96C96.9334 20.179 96.6569 20.4019 96.3958 20.6402C96.1692 20.7209 95.9542 20.7747 95.7584 20.7977C95.5587 20.8285 95.3321 20.84 95.0748 20.84C94.7561 20.84 94.5027 20.8054 94.3107 20.7324C94.1263 20.6632 93.9535 20.5633 93.7961 20.4403C93.6387 20.3097 93.5119 20.1483 93.4083 19.9561C93.3046 19.764 93.2393 19.4566 93.2086 19.0415C93.2163 18.6419 93.2278 18.2038 93.2431 17.7273C93.2508 17.6351 93.2508 17.5313 93.2508 17.4199V13.7653H92.8822C92.5827 13.7653 92.2447 13.7807 91.8761 13.8076L91.8799 13.8153Z" fill="white"/>
  <path d="M90.9892 20.2175V20.7209C90.202 20.6786 89.6106 20.6594 89.2074 20.6594C88.762 20.6594 88.3127 20.6786 87.8557 20.7209C87.8903 20.2444 87.9172 19.7102 87.9364 19.1184C87.5754 19.399 87.1492 19.7833 86.65 20.2713C86.5348 20.3827 86.4234 20.4634 86.3159 20.5172C86.0586 20.6594 85.8013 20.7593 85.5402 20.817C85.2829 20.8823 84.9719 20.913 84.6148 20.913C84.1271 20.913 83.72 20.8477 83.3898 20.7209C83.0672 20.5903 82.7869 20.3943 82.5527 20.1291C82.3799 19.937 82.2416 19.6872 82.1456 19.3798C82.0573 19.0685 82.0112 18.6957 82.0112 18.2615C82.0112 18.0578 82.0189 17.8618 82.0304 17.6812C82.0496 17.5006 82.0573 17.32 82.0573 17.1432V15.6368C82.0573 15.4831 82.0496 15.0989 82.0304 14.484C82.0189 14.0959 81.992 13.8422 81.9498 13.727C81.9268 13.6693 81.8884 13.6194 81.8346 13.5848C81.7463 13.5271 81.585 13.4964 81.3584 13.4964C81.0282 13.4964 80.7671 13.4964 80.5751 13.4887V12.9853C81.8653 12.8431 82.8023 12.6164 83.3821 12.3051C83.4781 12.2513 83.5549 12.2244 83.6087 12.2244C83.6509 12.2244 83.6855 12.2398 83.7085 12.2667C83.7392 12.2974 83.7546 12.3397 83.7546 12.3973C83.7546 12.4435 83.7546 12.5049 83.7469 12.5741C83.7239 12.7624 83.7008 13.1236 83.6855 13.6578C83.6509 14.6377 83.6317 15.2948 83.6317 15.6292V17.3469C83.6317 18.0617 83.6778 18.5689 83.7776 18.861C83.8813 19.1492 84.0733 19.3798 84.3536 19.5565C84.6416 19.7256 84.9949 19.8102 85.4173 19.8102C85.7053 19.8102 85.9895 19.764 86.2737 19.668C86.5617 19.5681 86.8189 19.4259 87.0493 19.2453C87.2183 19.1108 87.3873 18.9263 87.5639 18.6996C87.6945 18.5305 87.7828 18.3998 87.825 18.3115C87.8673 18.2192 87.8941 18.0809 87.9057 17.908C87.9364 17.393 87.9517 16.8781 87.9517 16.367V15.6253C87.9517 15.4716 87.9441 15.0873 87.9249 14.4725C87.9133 14.0843 87.8865 13.8307 87.8442 13.7154C87.8212 13.6578 87.7828 13.6078 87.729 13.5733C87.6407 13.5156 87.4794 13.4849 87.2529 13.4849C86.9226 13.4849 86.6615 13.4849 86.4695 13.4772V12.9738C87.7597 12.8316 88.6967 12.6049 89.2765 12.2936C89.3725 12.2398 89.4494 12.2129 89.5031 12.2129C89.5454 12.2129 89.5799 12.2283 89.603 12.2552C89.6337 12.2859 89.649 12.3282 89.649 12.3858C89.649 12.4319 89.649 12.4934 89.6414 12.5626C89.6222 12.7509 89.603 13.1236 89.5799 13.6808C89.5454 14.6377 89.5262 15.2833 89.5262 15.6176V16.8243L89.5454 18.0501C89.5646 18.7611 89.5761 19.1761 89.5799 19.3029C89.5876 19.595 89.6183 19.8102 89.6798 19.9447C89.7105 19.9985 89.7489 20.0446 89.795 20.0868C89.841 20.1214 89.914 20.1522 90.01 20.1752C90.0446 20.1829 90.3786 20.1906 91.0084 20.2021L90.9892 20.2175Z" fill="white"/>
  <path d="M70.8905 16.6665C70.8905 15.3522 71.3167 14.2801 72.1692 13.45C73.0294 12.6161 74.1238 12.1973 75.464 12.1973C76.7235 12.1973 77.7488 12.5854 78.5437 13.3616C79.3347 14.1379 79.7302 15.137 79.7302 16.3667C79.7302 17.2237 79.5267 18.0076 79.1197 18.7185C78.7126 19.4295 78.1366 19.9867 77.3916 20.394C76.6467 20.7937 75.8288 20.9935 74.934 20.9935C74.239 20.9935 73.6476 20.8782 73.16 20.6515C72.68 20.4209 72.2921 20.1365 71.9887 19.7868C71.6892 19.441 71.4588 19.0836 71.3052 18.7224C71.0287 18.0806 70.8905 17.3966 70.8905 16.6703V16.6665ZM72.5916 16.017C72.5916 16.7395 72.7145 17.4735 72.9603 18.219C73.206 18.9645 73.5593 19.5102 74.0201 19.856C74.4886 20.198 74.9955 20.3671 75.5408 20.3671C76.2358 20.3671 76.8195 20.0981 77.288 19.5563C77.7565 19.0144 77.9907 18.1844 77.9907 17.0623C77.9907 16.1285 77.8486 15.3253 77.5683 14.649C77.2918 13.9688 76.9385 13.4885 76.5046 13.2118C76.0745 12.9312 75.5945 12.7891 75.0723 12.7891C74.335 12.7891 73.7321 13.0504 73.2713 13.573C72.8144 14.0956 72.5878 14.9103 72.5878 16.0132L72.5916 16.017Z" fill="white"/>
  <path d="M58.372 8.76575V8.20085C58.6062 8.20854 58.9634 8.21623 59.4434 8.22775L61.1714 8.27003C61.5131 8.27003 62.0431 8.2585 62.765 8.23544C63.7019 8.20085 64.2434 8.18164 64.3932 8.18164C65.5413 8.18164 66.3746 8.28155 66.8968 8.48138C67.4268 8.68121 67.8338 9.00785 68.1218 9.45746C68.4098 9.90323 68.5519 10.3913 68.5519 10.9216C68.5519 11.4135 68.4175 11.9053 68.1487 12.3934C67.8799 12.8814 67.4844 13.2849 66.9698 13.6077C66.4591 13.9305 65.7948 14.1803 64.973 14.3571C65.1228 14.5607 65.476 15.0219 66.0367 15.7328L68.3061 18.6572C68.9551 19.4719 69.3314 19.9292 69.4389 20.0214C69.4927 20.0637 69.5465 20.0906 69.6002 20.1098C69.6924 20.1405 69.8882 20.152 70.1954 20.152V20.7169C69.7385 20.6824 69.3391 20.6631 68.9973 20.6631C68.6556 20.6631 68.2101 20.6824 67.6917 20.7169C67.3039 20.275 66.6472 19.4142 65.7295 18.1346C65.2188 17.4236 64.7695 16.8318 64.3778 16.3553C63.748 15.5676 63.149 14.8566 62.5768 14.2149L62.6651 13.9497C62.9762 13.9689 63.2143 13.9766 63.3755 13.9766C64.4661 13.9766 65.2956 13.723 65.86 13.2196C66.4245 12.7162 66.7048 12.0475 66.7048 11.2213C66.7048 10.4989 66.4629 9.92628 65.9752 9.50357C65.4914 9.07318 64.7541 8.86182 63.7711 8.86182C63.1528 8.86182 62.5461 8.95405 61.9547 9.13466C61.9317 9.45362 61.9125 9.74951 61.901 10.0262C61.8933 10.1069 61.8741 10.9638 61.8395 12.5894V16.5014C61.8395 17.3007 61.8511 18.0769 61.8741 18.834C61.8856 19.3912 61.924 19.7255 61.9893 19.8292C62.0623 19.9368 62.1775 20.0137 62.3311 20.0675C62.4885 20.1136 62.9186 20.1444 63.629 20.1559V20.7208C62.7765 20.6747 61.9931 20.6516 61.2789 20.6516C60.7029 20.6516 59.7352 20.6747 58.372 20.7208V20.1559C59.0786 20.1444 59.5125 20.1136 59.6699 20.0675C59.8274 20.0137 59.9349 19.9445 59.9925 19.8561C60.0655 19.737 60.1115 19.4527 60.1269 19.003C60.1346 18.8801 60.1461 18.0462 60.1615 16.5014V12.4241C60.1615 11.6248 60.1538 10.8447 60.1346 10.08C60.1154 9.52279 60.0731 9.1923 60.0002 9.09239C59.9349 8.98479 59.8235 8.91178 59.6661 8.86182C59.5163 8.80802 59.0824 8.77728 58.3682 8.76575H58.372Z" fill="white"/>
  <path d="M139.65 31.265V31.1229C139.765 31.0575 139.861 30.9999 139.942 30.9461C139.953 30.8116 139.965 30.6271 139.972 30.3927C139.988 29.9892 139.992 29.7087 139.992 29.555V28.356C139.992 28.1639 139.984 27.9372 139.972 27.6797C139.965 27.5183 139.949 27.4145 139.93 27.3761C139.915 27.3492 139.896 27.3338 139.869 27.3223C139.803 27.2954 139.665 27.28 139.458 27.2762V27.0917C139.75 27.1033 140.007 27.1109 140.234 27.1109C140.406 27.1109 140.641 27.111 140.936 27.0994C141.236 27.0917 141.466 27.0879 141.627 27.0879C142.119 27.0879 142.511 27.1494 142.81 27.2723C143.11 27.3953 143.359 27.599 143.571 27.8872C143.778 28.1754 143.882 28.5251 143.882 28.9401C143.882 29.236 143.832 29.5166 143.736 29.7779C143.636 30.0392 143.505 30.2659 143.336 30.4619C143.167 30.654 142.987 30.8077 142.795 30.923C142.603 31.0383 142.399 31.1229 142.188 31.1805C141.977 31.2381 141.689 31.265 141.32 31.265C141.197 31.265 141.032 31.2612 140.825 31.2535C140.552 31.2458 140.376 31.242 140.291 31.242C140.168 31.242 139.953 31.2497 139.65 31.265ZM140.583 30.9422C140.802 30.9807 141.036 30.9999 141.278 30.9999C141.52 30.9999 141.75 30.9768 141.942 30.9346C142.138 30.8923 142.3 30.8308 142.438 30.7539C142.576 30.6771 142.71 30.5618 142.837 30.4081C142.964 30.2544 143.064 30.0622 143.133 29.824C143.202 29.5857 143.236 29.3398 143.236 29.0823C143.236 28.7173 143.171 28.406 143.037 28.1447C142.906 27.8834 142.707 27.6835 142.438 27.5413C142.169 27.403 141.8 27.3338 141.332 27.3338C141.086 27.3338 140.836 27.353 140.583 27.3876C140.575 27.4837 140.571 27.6528 140.568 27.8987L140.556 28.3253V29.4973L140.564 30.4081C140.564 30.5464 140.571 30.7271 140.583 30.9422Z" fill="white"/>
  <path d="M134.608 31.265V31.0806C134.819 31.0806 134.957 31.0614 135.022 31.0345C135.049 31.0229 135.068 31.0037 135.084 30.9768C135.103 30.9384 135.118 30.8346 135.126 30.6694C135.138 30.4119 135.145 30.1891 135.145 30.0008V28.4982C135.145 28.2331 135.145 27.9717 135.138 27.7181C135.13 27.5337 135.118 27.4222 135.091 27.3876C135.068 27.353 135.034 27.3261 134.98 27.3108C134.93 27.2916 134.784 27.2839 134.55 27.28V27.0917L135.406 27.1109L136.313 27.0956C136.747 27.0879 137.061 27.0879 137.257 27.0879C137.453 27.0879 137.641 27.0994 137.818 27.1186C137.787 27.2301 137.764 27.3261 137.753 27.4107C137.749 27.4299 137.73 27.6336 137.699 28.0217H137.511C137.511 27.8219 137.499 27.6413 137.472 27.476C137.361 27.4299 137.242 27.3992 137.108 27.3838C136.885 27.3569 136.658 27.3415 136.435 27.3415C136.389 27.3415 136.282 27.3454 136.113 27.353C135.948 27.3607 135.829 27.3684 135.756 27.3723C135.748 27.5913 135.74 27.795 135.737 27.9833L135.725 28.9747C135.959 28.9862 136.174 28.9939 136.37 28.9939C136.608 28.9939 136.812 28.9824 136.981 28.9632C137.046 28.9555 137.084 28.9401 137.104 28.9171C137.123 28.894 137.138 28.8133 137.15 28.675L137.169 28.4713H137.349V28.529L137.334 29.14L137.349 29.824H137.138L137.131 29.6242C137.131 29.4781 137.111 29.3897 137.088 29.3552C137.065 29.3206 137.023 29.2937 136.958 29.2821C136.843 29.2591 136.624 29.2476 136.293 29.2476C136.159 29.2476 135.971 29.2514 135.725 29.2629C135.714 29.4589 135.71 29.751 135.71 30.1353C135.71 30.4965 135.714 30.7732 135.725 30.9615C136.013 30.9845 136.336 30.9922 136.693 30.9922C136.946 30.9922 137.127 30.9845 137.234 30.9691C137.342 30.9538 137.442 30.9269 137.534 30.8884C137.557 30.827 137.58 30.7463 137.607 30.6425C137.653 30.4696 137.68 30.3351 137.695 30.2505H137.895C137.841 30.6463 137.818 30.973 137.818 31.2343C137.645 31.2612 137.438 31.2727 137.192 31.2727L135.403 31.2497C135.376 31.2497 135.115 31.2574 134.615 31.2727L134.608 31.265Z" fill="white"/>
  <path d="M133.006 31.0768V31.2651C132.58 31.2497 132.3 31.2421 132.165 31.2421L131.24 31.2651V31.0768C131.474 31.073 131.62 31.0614 131.67 31.0461C131.724 31.0269 131.758 31.0038 131.777 30.9769C131.801 30.9385 131.816 30.8424 131.824 30.6925C131.824 30.6503 131.831 30.3736 131.835 29.8586V28.4983C131.835 28.2331 131.835 27.9718 131.827 27.7182C131.82 27.5337 131.808 27.4223 131.781 27.3877C131.758 27.3531 131.724 27.3262 131.67 27.3108C131.62 27.2916 131.474 27.2839 131.24 27.2801V27.0918C131.62 27.1072 131.916 27.111 132.123 27.111C132.33 27.111 132.618 27.1033 133.006 27.0918V27.2801C132.768 27.2839 132.622 27.2955 132.572 27.3108C132.522 27.3262 132.488 27.3493 132.469 27.38C132.446 27.4184 132.43 27.5145 132.423 27.6644C132.423 27.7028 132.415 27.9795 132.411 28.4983V29.8586C132.411 30.1238 132.411 30.3851 132.419 30.6349C132.426 30.8193 132.438 30.9308 132.461 30.9654C132.484 31 132.522 31.0269 132.572 31.0461C132.626 31.0614 132.768 31.073 133.006 31.0768Z" fill="white"/>
  <path d="M126.582 27.28V27.0917C126.885 27.1033 127.143 27.1109 127.354 27.1109C127.504 27.1109 127.772 27.111 128.16 27.0994C128.548 27.0917 128.809 27.0879 128.947 27.0879C129.093 27.0879 129.228 27.0879 129.347 27.0917C129.47 27.0917 129.577 27.0994 129.677 27.1071C129.627 27.2723 129.596 27.5682 129.581 27.9986H129.393C129.374 27.7604 129.351 27.5798 129.32 27.453C129.216 27.4184 129.086 27.3915 128.932 27.3761C128.779 27.3569 128.602 27.3492 128.402 27.3492C128.203 27.3492 127.991 27.3607 127.776 27.3838C127.765 27.4875 127.757 27.5875 127.753 27.6797C127.753 27.7335 127.746 27.9564 127.738 28.3522V29.0055C127.961 29.0131 128.16 29.0131 128.333 29.0131C128.587 29.0131 128.79 29.0016 128.944 28.9747C129.001 28.9632 129.04 28.9478 129.055 28.9286C129.074 28.9055 129.093 28.821 129.113 28.6788L129.136 28.4982H129.324L129.301 29.1669L129.324 29.8855H129.136L129.116 29.6972C129.093 29.482 129.078 29.3705 129.07 29.3552C129.055 29.3283 129.017 29.3052 128.955 29.2937C128.84 29.2668 128.583 29.2552 128.179 29.2552C128.037 29.2552 127.891 29.2591 127.742 29.2668V29.8586C127.742 30.1237 127.742 30.385 127.753 30.6348C127.757 30.8193 127.769 30.9307 127.792 30.9653C127.815 30.9999 127.853 31.0268 127.907 31.046C127.961 31.0614 128.103 31.0729 128.337 31.0767V31.265C128.083 31.2497 127.83 31.242 127.577 31.242C127.35 31.242 127.02 31.2497 126.586 31.265V31.0767C126.82 31.0729 126.966 31.0614 127.016 31.046C127.066 31.0268 127.104 31.0037 127.123 30.9768C127.147 30.9384 127.162 30.8423 127.17 30.6925C127.17 30.6502 127.177 30.3735 127.181 29.8586V28.4982C127.181 28.2331 127.181 27.9717 127.173 27.7181C127.166 27.5337 127.154 27.4222 127.127 27.3876C127.104 27.353 127.07 27.3261 127.016 27.3108C126.966 27.2916 126.82 27.2839 126.586 27.28H126.582Z" fill="white"/>
  <path d="M125.058 31.0768V31.2651C124.631 31.2497 124.351 31.2421 124.217 31.2421L123.291 31.2651V31.0768C123.526 31.073 123.671 31.0614 123.721 31.0461C123.775 31.0269 123.81 31.0038 123.829 30.9769C123.852 30.9385 123.867 30.8424 123.875 30.6925C123.875 30.6503 123.883 30.3736 123.886 29.8586V28.4983C123.886 28.2331 123.886 27.9718 123.879 27.7182C123.871 27.5337 123.86 27.4223 123.833 27.3877C123.81 27.3531 123.775 27.3262 123.721 27.3108C123.671 27.2916 123.526 27.2839 123.291 27.2801V27.0918C123.671 27.1072 123.967 27.111 124.174 27.111C124.382 27.111 124.67 27.1033 125.058 27.0918V27.2801C124.82 27.2839 124.674 27.2955 124.624 27.3108C124.574 27.3262 124.539 27.3493 124.52 27.38C124.497 27.4184 124.482 27.5145 124.474 27.6644C124.474 27.7028 124.466 27.9795 124.462 28.4983V29.8586C124.462 30.1238 124.462 30.3851 124.47 30.6349C124.478 30.8193 124.489 30.9308 124.512 30.9654C124.535 31 124.574 31.0269 124.624 31.0461C124.678 31.0614 124.82 31.073 125.058 31.0768Z" fill="white"/>
  <path d="M118.545 31.265V31.1113C118.668 31.0537 118.749 31.0114 118.783 30.9768C118.802 30.9576 118.818 30.9384 118.825 30.9077C118.845 30.8539 118.856 30.7347 118.86 30.5541C118.868 30.2851 118.871 30.1276 118.871 30.0738V28.4944C118.871 28.2292 118.871 27.9679 118.864 27.7143C118.856 27.5298 118.845 27.4184 118.818 27.3838C118.795 27.3492 118.76 27.3223 118.706 27.3069C118.656 27.2877 118.51 27.28 118.276 27.2762V27.0879C118.764 27.1033 119.067 27.1109 119.182 27.1109C119.309 27.1109 119.597 27.1033 120.043 27.0879V27.2762C119.805 27.28 119.659 27.2916 119.609 27.3069C119.559 27.3223 119.524 27.3454 119.505 27.3761C119.482 27.4145 119.467 27.5106 119.459 27.6605C119.459 27.6989 119.451 27.9756 119.447 28.4944V30.4657C119.447 30.6694 119.451 30.8385 119.459 30.9691C119.686 30.9845 119.912 30.9884 120.139 30.9884C120.703 30.9884 121.099 30.9538 121.325 30.8846C121.352 30.827 121.375 30.7578 121.394 30.6809L121.513 30.1929H121.713C121.671 30.485 121.625 30.827 121.583 31.2189C121.502 31.2343 121.437 31.2458 121.387 31.2497C121.283 31.2574 121.122 31.2574 120.907 31.2574L119.133 31.2343C118.941 31.2343 118.745 31.242 118.549 31.2574L118.545 31.265Z" fill="white"/>
  <path d="M113.384 27.28V27.0917C113.787 27.1033 114.106 27.1109 114.336 27.1109C114.494 27.1109 114.659 27.1109 114.835 27.1033L115.308 27.0879C115.361 27.0879 115.407 27.0879 115.454 27.0879C115.772 27.0879 116.022 27.1225 116.202 27.1916C116.383 27.2608 116.525 27.3684 116.629 27.5221C116.732 27.672 116.782 27.8411 116.782 28.0332C116.782 28.2062 116.74 28.3752 116.652 28.5482C116.567 28.7173 116.444 28.8633 116.283 28.9824C116.122 29.1015 115.953 29.1822 115.776 29.236C115.657 29.2706 115.519 29.2898 115.369 29.2898C115.242 29.2898 115.104 29.2745 114.954 29.2476L114.893 29.0285C115.07 29.0669 115.212 29.0862 115.311 29.0862C115.461 29.0862 115.603 29.0516 115.738 28.9824C115.872 28.9094 115.98 28.8018 116.053 28.6596C116.129 28.5136 116.168 28.356 116.168 28.1793C116.168 28.0025 116.129 27.8603 116.056 27.7258C115.983 27.5875 115.872 27.4837 115.722 27.4145C115.573 27.3454 115.396 27.3108 115.181 27.3108C114.993 27.3108 114.785 27.3454 114.57 27.4107C114.551 27.6182 114.543 27.9448 114.543 28.3868V29.8663C114.543 30.1314 114.543 30.3927 114.551 30.6425C114.559 30.827 114.57 30.9384 114.593 30.973C114.616 31.0076 114.655 31.0345 114.705 31.0537C114.759 31.0691 114.901 31.0806 115.139 31.0844V31.2727C114.77 31.2574 114.497 31.2497 114.325 31.2497C114.255 31.2497 113.944 31.2574 113.384 31.2727V31.0844C113.618 31.0806 113.764 31.0691 113.814 31.0537C113.868 31.0345 113.902 31.0114 113.921 30.9845C113.944 30.9461 113.96 30.85 113.967 30.7001C113.967 30.6579 113.971 30.3812 113.979 29.8663V28.5059C113.979 28.2407 113.979 27.9794 113.971 27.7258C113.964 27.5413 113.952 27.4299 113.925 27.3953C113.902 27.3607 113.868 27.3338 113.814 27.3185C113.764 27.2992 113.618 27.2916 113.384 27.2877V27.28Z" fill="white"/>
  <path d="M106.292 27.2801V27.0918C106.503 27.0995 106.702 27.1033 106.894 27.1033C107.086 27.1033 107.275 27.1033 107.451 27.0918C107.628 27.4838 107.789 27.8258 107.935 28.1217L109.072 30.412L110.097 28.3138C110.377 27.7412 110.565 27.3339 110.658 27.0918C110.869 27.0995 111.049 27.1033 111.195 27.1033C111.33 27.1033 111.545 27.1033 111.848 27.0918V27.2801C111.61 27.2839 111.464 27.2955 111.414 27.3108C111.364 27.3262 111.33 27.3493 111.31 27.38C111.284 27.4184 111.268 27.5145 111.264 27.6644C111.264 27.7028 111.257 27.9795 111.249 28.4983V29.8586C111.249 30.1238 111.253 30.3851 111.26 30.6349C111.268 30.8193 111.28 30.9308 111.303 30.9654C111.326 31 111.364 31.0269 111.414 31.0461C111.468 31.0614 111.61 31.073 111.848 31.0768V31.2651C111.445 31.2459 111.161 31.2382 110.992 31.2382C110.857 31.2382 110.562 31.2459 110.105 31.2651V31.0768C110.343 31.073 110.489 31.0614 110.539 31.0461C110.592 31.0269 110.627 31.0038 110.642 30.9769C110.669 30.9385 110.684 30.8424 110.688 30.6925C110.688 30.6503 110.696 30.3736 110.704 29.8586V27.7028L109.667 29.824C109.506 30.1545 109.379 30.4197 109.287 30.6234C109.221 30.7694 109.122 31.0038 108.987 31.3228H108.872C108.845 31.2497 108.822 31.1883 108.799 31.1421L108.596 30.7156L107.163 27.7989V29.8586C107.163 30.1238 107.167 30.3851 107.175 30.6349C107.182 30.8193 107.194 30.9308 107.217 30.9654C107.24 31 107.278 31.0269 107.328 31.0461C107.382 31.0614 107.524 31.073 107.762 31.0768V31.2651L107.04 31.2421L106.292 31.2651V31.0768C106.526 31.073 106.672 31.0614 106.722 31.0461C106.775 31.0269 106.81 31.0038 106.829 30.9769C106.852 30.9385 106.868 30.8424 106.875 30.6925C106.875 30.6503 106.883 30.3736 106.887 29.8586V28.4983C106.887 28.2331 106.887 27.9718 106.879 27.7182C106.871 27.5337 106.86 27.4223 106.833 27.3877C106.81 27.3531 106.775 27.3262 106.722 27.3108C106.672 27.2916 106.526 27.2839 106.292 27.2801Z" fill="white"/>
  <path d="M104.79 31.0768V31.2651C104.364 31.2497 104.083 31.2421 103.949 31.2421L103.023 31.2651V31.0768C103.262 31.073 103.404 31.0614 103.454 31.0461C103.507 31.0269 103.542 31.0038 103.561 30.9769C103.584 30.9385 103.599 30.8424 103.607 30.6925C103.607 30.6503 103.615 30.3736 103.619 29.8586V28.4983C103.619 28.2331 103.619 27.9718 103.611 27.7182C103.607 27.5337 103.592 27.4223 103.565 27.3877C103.542 27.3531 103.507 27.3262 103.454 27.3108C103.404 27.2916 103.258 27.2839 103.023 27.2801V27.0918C103.404 27.1072 103.699 27.111 103.91 27.111C104.122 27.111 104.406 27.1033 104.794 27.0918V27.2801C104.556 27.2839 104.41 27.2955 104.36 27.3108C104.31 27.3262 104.275 27.3493 104.256 27.38C104.233 27.4184 104.218 27.5145 104.21 27.6644C104.21 27.7028 104.202 27.9795 104.198 28.4983V29.8586C104.198 30.1238 104.198 30.3851 104.206 30.6349C104.214 30.8193 104.225 30.9308 104.248 30.9654C104.271 31 104.31 31.0269 104.36 31.0461C104.414 31.0614 104.556 31.073 104.794 31.0768H104.79Z" fill="white"/>
  <path d="M98.6191 31.1196C98.6498 30.9313 98.669 30.6278 98.6767 30.205H98.8802C98.8917 30.4894 98.9071 30.6585 98.9263 30.7123C98.9493 30.7623 99.0069 30.8161 99.0953 30.8775C99.1836 30.9352 99.3026 30.989 99.4485 31.0351C99.5983 31.0812 99.7404 31.1043 99.8786 31.1043C100.082 31.1043 100.266 31.0582 100.435 30.9698C100.604 30.8775 100.731 30.7584 100.808 30.6124C100.885 30.4625 100.923 30.305 100.923 30.1359C100.923 30.0052 100.904 29.8938 100.862 29.8015C100.823 29.7093 100.766 29.6325 100.685 29.5748C100.604 29.5172 100.505 29.4749 100.389 29.4519C100.316 29.4403 100.167 29.4211 99.9439 29.3942C99.7212 29.3673 99.533 29.3366 99.3756 29.302C99.1682 29.2405 99.0146 29.1675 98.9148 29.0829C98.8149 28.9984 98.7381 28.887 98.6767 28.7525C98.6153 28.6141 98.5884 28.4681 98.5884 28.3105C98.5884 28.08 98.6498 27.8609 98.7727 27.6573C98.8956 27.4536 99.0799 27.2922 99.318 27.1769C99.5599 27.0616 99.821 27.0078 100.105 27.0078C100.274 27.0078 100.458 27.0309 100.662 27.077C100.866 27.1193 101.054 27.1846 101.226 27.2691C101.2 27.3921 101.18 27.5074 101.165 27.615C101.154 27.7187 101.146 27.8763 101.138 28.0838H100.935C100.927 27.7841 100.919 27.6188 100.908 27.5919C100.858 27.5228 100.789 27.4574 100.704 27.3998C100.497 27.2845 100.282 27.2307 100.059 27.2307C99.7673 27.2307 99.5369 27.3191 99.3641 27.492C99.1913 27.6649 99.1068 27.8878 99.1068 28.1645C99.1068 28.3297 99.1375 28.4604 99.1989 28.5526C99.2604 28.641 99.3717 28.714 99.533 28.7717C99.6444 28.8101 99.8249 28.8447 100.074 28.8793C100.324 28.91 100.551 28.9446 100.75 28.983C100.938 29.0368 101.077 29.1022 101.169 29.179C101.257 29.252 101.334 29.3519 101.392 29.4749C101.449 29.594 101.48 29.7401 101.48 29.9015C101.48 30.2896 101.315 30.6316 100.985 30.9198C100.654 31.208 100.228 31.3541 99.702 31.3541C99.3065 31.3541 98.9455 31.2772 98.6268 31.1235L98.6191 31.1196Z" fill="white"/>
  <path d="M90.5091 27.3502V27.1696L91.231 27.0312C91.3116 27.0581 91.3654 27.085 91.3961 27.1119C91.4268 27.135 91.4883 27.208 91.5843 27.3348C91.7264 27.5193 91.8915 27.7729 92.0758 28.0957C92.2601 28.4185 92.4598 28.7836 92.671 29.1986C92.8822 28.8796 93.1011 28.5338 93.3238 28.1572L93.9612 27.0927H94.4182V27.1734C94.3069 27.2926 94.1072 27.5539 93.8115 27.9497C93.6425 28.1803 93.4198 28.5146 93.1472 28.9565C92.9782 29.2293 92.8822 29.3946 92.8592 29.4599C92.8361 29.5214 92.8246 29.579 92.8246 29.6328V29.8596C92.8246 30.1247 92.8246 30.386 92.8323 30.6358C92.84 30.8203 92.8515 30.9317 92.8745 30.9663C92.8976 31.0009 92.936 31.0278 92.9859 31.047C93.0396 31.0624 93.1817 31.0739 93.4198 31.0777V31.266C93.0934 31.2507 92.8131 31.243 92.575 31.243C92.3369 31.243 92.0451 31.2507 91.6726 31.266V31.0777C91.9068 31.0739 92.0528 31.0624 92.1027 31.047C92.1564 31.0278 92.191 31.0047 92.2064 30.9778C92.2332 30.9394 92.2486 30.8433 92.2524 30.6935C92.2524 30.6512 92.2601 30.3745 92.264 29.8596V29.5176C92.2217 29.4292 92.1795 29.3485 92.1411 29.2793C92.1142 29.2293 92.0105 29.0603 91.8339 28.7759L91.638 28.4569C91.4806 28.2072 91.3654 28.0304 91.2886 27.9228C91.1427 27.7191 91.0236 27.5731 90.9276 27.4847C90.8739 27.4347 90.8201 27.4002 90.7625 27.3809C90.7088 27.3617 90.6166 27.3502 90.4976 27.3502H90.5091Z" fill="white"/>
  <path d="M85.6669 31.265V31.0806C85.8781 31.0806 86.0163 31.0614 86.0816 31.0345C86.1085 31.0229 86.1277 31.0037 86.143 30.9768C86.1622 30.9384 86.1776 30.8346 86.1853 30.6694C86.1968 30.4119 86.2045 30.1891 86.2045 30.0008V28.4982C86.2045 28.2331 86.2045 27.9717 86.1968 27.7181C86.1891 27.5337 86.1776 27.4222 86.1507 27.3876C86.1277 27.353 86.0931 27.3261 86.0393 27.3108C85.9894 27.2916 85.8435 27.2839 85.6093 27.28V27.0917L86.4656 27.1109L87.3718 27.0956C87.8057 27.0879 88.1206 27.0879 88.3165 27.0879C88.5123 27.0879 88.7005 27.0994 88.8771 27.1186C88.8464 27.2301 88.8233 27.3261 88.8118 27.4107C88.808 27.4299 88.7888 27.6336 88.7581 28.0217H88.5699C88.5699 27.8219 88.5584 27.6413 88.5315 27.476C88.4201 27.4299 88.3011 27.3992 88.1667 27.3838C87.944 27.3569 87.7174 27.3415 87.4947 27.3415C87.4486 27.3415 87.3411 27.3454 87.1721 27.353C87.007 27.3607 86.888 27.3684 86.815 27.3723C86.8073 27.5913 86.7997 27.795 86.7958 27.9833L86.7843 28.9747C87.0185 28.9862 87.2336 28.9939 87.4294 28.9939C87.6675 28.9939 87.871 28.9824 88.04 28.9632C88.1053 28.9555 88.1437 28.9401 88.1629 28.9171C88.1821 28.894 88.1974 28.8133 88.2089 28.675L88.2281 28.4713H88.4086V28.529L88.3933 29.14L88.4086 29.824H88.1974L88.1897 29.6242C88.1859 29.4781 88.1705 29.3897 88.1475 29.3552C88.1245 29.3206 88.0822 29.2937 88.0169 29.2821C87.9017 29.2591 87.6829 29.2476 87.3526 29.2476C87.2182 29.2476 87.0301 29.2514 86.7843 29.2629C86.7728 29.4589 86.7689 29.751 86.7689 30.1353C86.7689 30.4965 86.7728 30.7732 86.7843 30.9615C87.0723 30.9845 87.3949 30.9922 87.752 30.9922C88.0054 30.9922 88.1859 30.9845 88.2934 30.9691C88.4009 30.9538 88.5008 30.9269 88.5929 30.8884C88.616 30.827 88.639 30.7463 88.6659 30.6425C88.7081 30.4696 88.7389 30.3351 88.7542 30.2505H88.9539C88.9001 30.6463 88.8771 30.973 88.8771 31.2343C88.7043 31.2612 88.4969 31.2727 88.2512 31.2727L86.4617 31.2497C86.4349 31.2497 86.1737 31.2574 85.6745 31.2727L85.6669 31.265Z" fill="white"/>
  <path d="M79.2924 31.265V31.0806C79.5036 31.0806 79.6418 31.0614 79.7071 31.0345C79.734 31.0229 79.7532 31.0037 79.7686 30.9768C79.7878 30.9384 79.8031 30.8346 79.8108 30.6694C79.8223 30.4119 79.83 30.1891 79.83 30.0008V27.6067C79.83 27.5413 79.8262 27.4991 79.8185 27.4799C79.8031 27.4453 79.7647 27.403 79.711 27.353C79.6764 27.3223 79.6342 27.3031 79.5842 27.2954C79.5382 27.2839 79.4345 27.28 79.2732 27.2762V27.0917C79.6073 27.0994 79.8185 27.1033 79.903 27.1033C80.0489 27.1033 80.1948 27.1033 80.3369 27.0917C80.5058 27.3108 80.6326 27.4683 80.7132 27.5721L81.3353 28.3214L82.2415 29.3897C82.5334 29.7318 82.7638 29.9969 82.9404 30.1929C83.0518 30.3236 83.1478 30.4235 83.2207 30.5003V28.3522C83.2207 28.16 83.213 27.9333 83.2015 27.6758C83.1938 27.5144 83.1823 27.4107 83.1631 27.3723C83.1478 27.3454 83.1286 27.33 83.1017 27.3185C83.0364 27.2916 82.8982 27.2762 82.6908 27.2723V27.0879C82.925 27.0956 83.167 27.0994 83.4089 27.0994C83.6354 27.0994 83.8428 27.0994 84.031 27.0879V27.2723C83.8236 27.2723 83.6854 27.2877 83.6201 27.3185C83.5932 27.33 83.574 27.3492 83.5586 27.3761C83.5394 27.4145 83.5241 27.5144 83.5164 27.6835C83.5049 27.941 83.4972 28.1639 83.4972 28.3522V29.7625C83.4972 30.0469 83.501 30.581 83.5126 31.3611L83.2054 31.2727L83.1324 31.2574C83.1324 31.2574 83.1094 31.2458 83.0978 31.2381C83.0825 31.2266 83.0441 31.1882 82.9826 31.119C82.8175 30.9346 82.6946 30.7962 82.6178 30.704L82.23 30.2236L80.1026 27.7373V29.9892C80.1026 30.1814 80.1103 30.4081 80.1218 30.6656C80.1295 30.827 80.141 30.9269 80.1602 30.9653C80.1756 30.9922 80.1948 31.0114 80.2217 31.0229C80.287 31.0498 80.4252 31.0652 80.6326 31.0691V31.2535C80.4559 31.2381 80.2639 31.2343 80.0527 31.2343C79.8223 31.2343 79.5689 31.242 79.2962 31.2535L79.2924 31.265Z" fill="white"/>
  <path d="M73.924 27.28V27.0917C74.0008 27.0917 74.1198 27.0956 74.2811 27.0994L74.8571 27.1148C74.9723 27.1148 75.1489 27.1109 75.387 27.1033C75.698 27.0917 75.8785 27.0879 75.9284 27.0879C76.3086 27.0879 76.5889 27.1225 76.7617 27.1878C76.9384 27.2531 77.0728 27.3646 77.1688 27.5144C77.2648 27.6643 77.3147 27.8257 77.3147 28.0025C77.3147 28.1677 77.2686 28.3291 77.1803 28.4944C77.0881 28.6558 76.9576 28.7903 76.7886 28.8979C76.6196 29.0055 76.3969 29.09 76.1243 29.1476C76.1742 29.2168 76.2932 29.3705 76.4776 29.6049L77.234 30.581C77.4491 30.8539 77.5758 31.0037 77.6142 31.0345C77.6334 31.0498 77.6488 31.0575 77.668 31.0652C77.6987 31.0767 77.764 31.0806 77.8676 31.0806V31.2689C77.714 31.2574 77.5835 31.2497 77.4683 31.2497C77.3531 31.2497 77.2072 31.2574 77.0344 31.2689C76.9038 31.1229 76.6849 30.8346 76.3816 30.4081C76.2126 30.1698 76.0628 29.9739 75.9323 29.8163C75.7211 29.555 75.5214 29.3167 75.3332 29.1015L75.364 29.0131C75.4676 29.017 75.5483 29.0208 75.602 29.0208C75.9668 29.0208 76.2433 28.9363 76.4315 28.7672C76.6196 28.5981 76.7156 28.3752 76.7156 28.1024C76.7156 27.8603 76.635 27.672 76.4737 27.5298C76.3124 27.3876 76.0667 27.3146 75.7403 27.3146C75.5329 27.3146 75.3332 27.3454 75.1336 27.4068C75.1259 27.5144 75.1182 27.6105 75.1144 27.7027C75.1144 27.7296 75.1067 28.014 75.0952 28.5559V29.8586C75.0952 30.1237 75.0952 30.385 75.1067 30.6348C75.1105 30.8193 75.122 30.9307 75.1451 30.9653C75.1681 30.9999 75.2065 31.0268 75.2603 31.046C75.314 31.0614 75.4561 31.0729 75.6904 31.0767V31.265C75.4062 31.2497 75.1451 31.242 74.907 31.242C74.715 31.242 74.3924 31.2497 73.9393 31.265V31.0767C74.1736 31.0729 74.3195 31.0614 74.3694 31.046C74.4232 31.0268 74.4577 31.0037 74.4769 30.9768C74.5 30.9384 74.5153 30.8423 74.523 30.6925C74.523 30.6502 74.5268 30.3735 74.5345 29.8586V28.4982C74.5345 28.2331 74.5345 27.9717 74.5268 27.7181C74.523 27.5337 74.5076 27.4222 74.4808 27.3876C74.4577 27.353 74.4232 27.3261 74.3694 27.3108C74.3195 27.2916 74.1736 27.2839 73.9393 27.28H73.924Z" fill="white"/>
  <path d="M67.8683 27.2801V27.0918C68.1947 27.1072 68.4981 27.1149 68.7784 27.1149C69.0587 27.1149 69.3429 27.1072 69.6232 27.0918V27.2801C69.3889 27.2839 69.243 27.2955 69.1931 27.3108C69.1432 27.3262 69.1048 27.3493 69.0894 27.38C69.0625 27.4184 69.0472 27.5145 69.0433 27.6644C69.0433 27.7028 69.0395 27.9795 69.0318 28.4983V29.5858C69.0318 30.0085 69.0587 30.2852 69.1125 30.4197C69.1701 30.5542 69.2584 30.6618 69.3774 30.7502C69.4696 30.8155 69.5925 30.8693 69.7499 30.9116C69.9073 30.95 70.0801 30.9692 70.2721 30.9692C70.4949 30.9692 70.6945 30.9423 70.8673 30.8885C71.0401 30.8347 71.1707 30.7694 71.259 30.6925C71.3473 30.6157 71.4126 30.5273 71.4549 30.4312C71.5009 30.3351 71.5317 30.2045 71.547 30.0392C71.5662 29.8702 71.5777 29.6588 71.5777 29.4013V28.4983C71.5777 28.2331 71.5777 27.9718 71.5662 27.7182C71.5662 27.5337 71.547 27.4223 71.524 27.3877C71.5009 27.3531 71.4664 27.3262 71.4126 27.3108C71.3589 27.2916 71.2168 27.2839 70.9825 27.2801V27.0918C71.3128 27.1072 71.5547 27.1149 71.7045 27.1149C71.8427 27.1149 72.0923 27.1072 72.4533 27.0918V27.2801C72.2152 27.2839 72.0693 27.2955 72.0193 27.3108C71.9694 27.3262 71.9349 27.3493 71.9157 27.38C71.8926 27.4184 71.8773 27.5145 71.8696 27.6644C71.8696 27.7028 71.8657 27.9795 71.8581 28.4983V29.482C71.8581 29.9662 71.8235 30.3044 71.7544 30.4965C71.6853 30.6887 71.5585 30.8578 71.3742 31.0038C71.236 31.1152 71.0593 31.1998 70.8405 31.2613C70.6254 31.3227 70.3835 31.3535 70.1185 31.3535C69.8113 31.3535 69.5425 31.3189 69.316 31.2497C69.0894 31.1767 68.9166 31.0845 68.8014 30.9692C68.6824 30.8501 68.6017 30.731 68.5595 30.6118C68.5019 30.4504 68.475 30.1814 68.475 29.8048V28.506C68.475 28.2408 68.475 27.9795 68.4673 27.7259C68.4597 27.5414 68.4481 27.43 68.4212 27.3954C68.3982 27.3608 68.3637 27.3339 68.3099 27.3185C68.26 27.2993 68.1141 27.2916 67.8798 27.2878L67.8683 27.2801Z" fill="white"/>
  <path d="M61.8665 29.2059C61.8665 28.8985 61.9125 28.6103 62.0085 28.349C62.1045 28.0876 62.262 27.8494 62.4847 27.6419C62.7074 27.4344 62.9532 27.2768 63.2297 27.1692C63.5061 27.0616 63.8249 27.0078 64.182 27.0078C64.5122 27.0078 64.8117 27.0539 65.0805 27.1462C65.3493 27.2345 65.5721 27.3575 65.7449 27.5074C65.9177 27.6573 66.0559 27.8186 66.1558 27.9993C66.2326 28.1338 66.2902 28.2875 66.3362 28.4681C66.3823 28.6487 66.4054 28.8408 66.4054 29.0484C66.4054 29.7093 66.1788 30.2588 65.7257 30.6969C65.2726 31.135 64.7042 31.3541 64.013 31.3541C63.6981 31.3541 63.4063 31.3041 63.1337 31.2042C62.861 31.1043 62.6306 30.9582 62.4425 30.7623C62.2543 30.5663 62.1122 30.3242 62.0124 30.0475C61.9164 29.767 61.8665 29.4864 61.8665 29.2136V29.2059ZM62.4885 28.9638C62.4885 29.1483 62.5077 29.3404 62.5461 29.5287C62.5845 29.7209 62.6306 29.8861 62.6921 30.0244C62.7881 30.2588 62.9109 30.4587 63.0684 30.6162C63.2258 30.7738 63.3986 30.8929 63.5868 30.9698C63.7788 31.0428 63.99 31.0812 64.2242 31.0812C64.5468 31.0812 64.8271 31.0044 65.0652 30.8506C65.3033 30.6969 65.4799 30.4779 65.5951 30.2012C65.7141 29.9207 65.7718 29.5979 65.7718 29.2367C65.7718 28.9254 65.7295 28.6372 65.645 28.3759C65.5951 28.2145 65.5222 28.0723 65.4377 27.9416C65.3532 27.811 65.2495 27.6957 65.1305 27.5996C65.0114 27.4997 64.8578 27.419 64.6697 27.3537C64.4815 27.2883 64.2741 27.2538 64.0553 27.2538C63.7365 27.2538 63.4562 27.3229 63.2181 27.4613C62.9801 27.5996 62.7957 27.8033 62.6767 28.0646C62.5577 28.3259 62.4962 28.6256 62.4962 28.9561L62.4885 28.9638Z" fill="white"/>
  <path d="M58.3718 32.391L58.3795 32.1873V32.1451C58.3795 32.0989 58.3795 32.0298 58.3718 31.9375L58.4294 31.8991C58.487 31.9414 58.5408 31.9683 58.5869 31.9837C58.6368 32.0029 58.6905 32.0106 58.752 32.0106C58.8595 32.0106 58.944 31.9875 59.0016 31.9452C59.0592 31.903 59.1014 31.8376 59.1283 31.7492C59.1552 31.6609 59.1667 31.4264 59.1667 31.046V28.4944C59.1667 28.2292 59.1629 27.9679 59.1552 27.7143C59.1514 27.5298 59.136 27.4184 59.113 27.3838C59.0899 27.3492 59.0553 27.3223 59.0016 27.3069C58.9478 27.2877 58.8057 27.28 58.5715 27.2762V27.0879C58.8864 27.0994 59.1821 27.1071 59.4586 27.1071C59.7504 27.1071 60.0461 27.0994 60.3494 27.0879V27.2762C60.1114 27.28 59.9693 27.2916 59.9194 27.3069C59.8694 27.3223 59.831 27.3454 59.8157 27.3761C59.7888 27.4145 59.7734 27.5106 59.7696 27.6605C59.7696 27.6989 59.7658 27.9756 59.7581 28.4944V30.6041C59.7581 30.9269 59.7312 31.1767 59.6736 31.365C59.616 31.5494 59.5238 31.7262 59.3894 31.8953C59.2589 32.0644 59.1129 32.1912 58.9593 32.2757C58.8019 32.3602 58.6521 32.4064 58.5062 32.4064C58.4678 32.4064 58.4256 32.4025 58.3795 32.391H58.3718Z" fill="white"/>
</svg>