<svg width="96" height="96" viewBox="0 0 96 96" fill="none" xmlns="http://www.w3.org/2000/svg">
<path d="M80.6123 0C89.1102 0 95.9998 6.88883 96 15.3867V80.6133C95.9997 89.1111 89.1102 96 80.6123 96H15.3867C6.88899 95.9998 0.000259929 89.111 0 80.6133V15.3867C0.000225258 6.88896 6.88897 0.000207928 15.3867 0H80.6123ZM61.9805 26.0869C61.4651 25.8702 60.8679 26.1963 60.8545 26.6982C60.8137 28.0551 60.7059 30.4973 60.5566 32.3154C60.4888 33.1703 60.2439 33.9844 59.8369 34.7578L34.3145 83.1719H22.875C21.9933 83.1721 21.2881 83.878 21.2881 84.7598C21.2883 85.6413 21.9934 86.3464 22.875 86.3467H36.9873C46.0242 86.4417 66.6356 86.605 71.751 86.3066C74.7091 82.2087 76.7036 77.4995 77.4092 72.4248C77.4092 72.3571 77.4219 72.2894 77.4219 72.2217C77.4491 71.991 77.4766 71.7601 77.4766 71.543C77.4766 71.3259 77.4765 71.1088 77.4629 70.9189C77.4495 70.7019 77.4364 70.4848 77.4092 70.2949C77.0293 67.6762 75.224 65.4511 72.6865 64.2979C71.4653 63.728 70.0952 63.4151 68.6299 63.415H68.5078C65.0613 63.415 58.6968 67.025 57.8691 66.2109C57.815 66.1566 57.775 66.102 57.7207 66.0479C57.2731 65.573 57.4356 64.8407 58.0459 64.5557L65.0742 61.3125L72.7549 57.9062L85.8623 52.085C85.8643 52.0849 85.8891 52.0849 85.8896 52.0723C86.6901 51.7194 86.4455 50.5381 85.5635 50.5381L85.5771 50.457C80.8688 50.4978 69.5926 50.5657 69.3213 50.2129C69.2807 50.1586 69.2397 50.104 69.1855 50.0498C68.7925 49.5342 69.0373 48.8293 69.6885 48.5986L77.043 45.9932L80.1094 44.9619C80.7199 44.7042 81.3577 44.405 81.7646 44.1201C82.0359 43.9303 82.3075 43.7132 82.5518 43.5098C83.8678 42.3428 84.7492 40.823 85.0342 39.127C84.7357 38.815 84.4105 38.5161 84.085 38.2178C81.9004 36.2774 79.2679 34.7176 76.3643 33.6729C76.3643 33.6729 75.9706 33.5365 75.3057 33.333C74.166 33.0073 72.1848 32.519 70.041 32.3291H69.9326C68.9693 32.2477 67.9916 32.2205 67.0146 32.3291C66.6482 29.561 64.6944 27.2267 61.9805 26.0869ZM16.0361 76.4316C15.1542 76.4316 14.4485 77.1368 14.4482 78.0186C14.4482 78.9006 15.1541 79.6064 16.0361 79.6064H32.3184C33.2002 79.6064 33.9062 78.9006 33.9062 78.0186C33.906 77.1369 33.2001 76.4317 32.3184 76.4316H16.0361ZM12.9014 69.7344C12.0194 69.7344 11.3135 70.4402 11.3135 71.3223C11.3135 72.2042 12.0194 72.9102 12.9014 72.9102H35.3711C36.2532 72.9102 36.959 72.2042 36.959 71.3223C36.959 70.4402 36.2532 69.7344 35.3711 69.7344H12.9014ZM11.1826 63.0488C10.3008 63.0488 9.59495 63.754 9.59473 64.6357C9.59473 65.5178 10.3006 66.2236 11.1826 66.2236H38.7266C39.6085 66.2236 40.3145 65.5178 40.3145 64.6357C40.3142 63.754 39.6083 63.0488 38.7266 63.0488H11.1826ZM29.5254 56.3877C28.6435 56.3877 27.9375 57.0937 27.9375 57.9756C27.9377 58.8573 28.6436 59.5625 29.5254 59.5625H41.5479C42.4296 59.5622 43.1346 58.8572 43.1348 57.9756C43.1348 57.0938 42.4297 56.3879 41.5479 56.3877H29.5254ZM11.1826 56.3779C10.3007 56.3779 9.59482 57.0838 9.59473 57.9658C9.59473 58.8477 10.3006 59.5537 11.1826 59.5537H25.2129C26.0946 59.5535 26.7998 58.8476 26.7998 57.9658C26.7997 57.084 26.0945 56.3782 25.2129 56.3779H11.1826ZM13.9912 49.6924C13.1094 49.6925 12.4043 50.3985 12.4043 51.2803C12.4045 52.1619 13.1095 52.867 13.9912 52.8672H44.9561C45.8378 52.867 46.5428 52.1619 46.543 51.2803C46.543 50.3985 45.8379 49.6926 44.9561 49.6924H13.9912ZM17.3076 43.0078C16.4257 43.0078 15.7197 43.7136 15.7197 44.5957C15.7197 45.4776 16.4257 46.1836 17.3076 46.1836H48.0273C48.9093 46.1836 49.6152 45.4776 49.6152 44.5957C49.6152 43.7136 48.9093 43.0078 48.0273 43.0078H17.3076ZM22.875 36.3311C21.9933 36.3313 21.2881 37.0372 21.2881 37.9189C21.2881 38.8007 21.9933 39.5066 22.875 39.5068H40.3389C41.2207 39.5067 41.9258 38.8008 41.9258 37.9189C41.9258 37.0371 41.2207 36.3312 40.3389 36.3311H22.875ZM44.709 36.3311C43.8271 36.3313 43.1221 37.0372 43.1221 37.9189C43.1221 38.8007 43.8271 39.5066 44.709 39.5068H52.8643C53.7462 39.5068 54.4521 38.8009 54.4521 37.9189C54.4521 37.037 53.7462 36.3311 52.8643 36.3311H44.709ZM25.4004 29.6484C24.5183 29.6484 23.8125 30.3542 23.8125 31.2363C23.8126 32.1182 24.5184 32.8232 25.4004 32.8232H54.166C55.048 32.8232 55.7538 32.1182 55.7539 31.2363C55.7539 30.3542 55.0481 29.6484 54.166 29.6484H25.4004ZM27.7471 22.9453C26.8653 22.9455 26.1602 23.6514 26.1602 24.5332C26.1602 25.415 26.8653 26.12 27.7471 26.1201H35.7529C36.635 26.1201 37.3407 25.415 37.3408 24.5332C37.3408 23.6513 36.635 22.9453 35.7529 22.9453H27.7471ZM40.2168 22.9453C39.3349 22.9453 38.6289 23.6513 38.6289 24.5332C38.629 25.415 39.3349 26.1201 40.2168 26.1201H54.165C55.0469 26.1201 55.7528 25.415 55.7529 24.5332C55.7529 23.6513 55.047 22.9453 54.165 22.9453H40.2168ZM32.5645 16.2881C31.6828 16.2883 30.9777 16.9932 30.9775 17.875C30.9775 18.7568 31.6827 19.4626 32.5645 19.4629H48.291C49.1729 19.4629 49.8789 18.7569 49.8789 17.875C49.8788 16.993 49.1729 16.2881 48.291 16.2881H32.5645ZM25.999 9.58887C25.117 9.58887 24.4112 10.2948 24.4111 11.1768C24.4111 12.0587 25.1169 12.7646 25.999 12.7646H37.0439C37.9259 12.7645 38.6309 12.0586 38.6309 11.1768C38.6308 10.2949 37.9259 9.58904 37.0439 9.58887H25.999Z" fill="white"/>
</svg>
