<svg width="167" height="32" viewBox="0 0 167 32" fill="none" xmlns="http://www.w3.org/2000/svg">
<mask id="mask0_408_1888" style="mask-type:luminance" maskUnits="userSpaceOnUse" x="1" y="0" width="166" height="32">
<path d="M166.53 0H1.05518V32H166.53V0Z" fill="white"/>
</mask>
<g mask="url(#mask0_408_1888)">
<mask id="mask1_408_1888" style="mask-type:luminance" maskUnits="userSpaceOnUse" x="1" y="0" width="166" height="32">
<path d="M166.445 0H1.11328V32H166.445V0Z" fill="white"/>
</mask>
<g mask="url(#mask1_408_1888)">
<path d="M43.3823 22.225V9.59277H52.5672C55.018 9.59277 56.6436 10.7051 56.6436 12.8608C56.6436 14.4606 55.8308 15.2579 54.8997 15.5557C56.0401 15.9199 56.8677 16.929 56.8677 18.4055C56.8677 20.7164 55.2791 22.2274 52.8283 22.2274H43.3823V22.225ZM47.1632 16.7344V14.874H52.5845C53.8258 14.874 54.4145 14.4384 54.4145 13.3458C54.4145 12.0069 53.3627 11.8003 51.7371 11.8003H45.5721V20.0371H51.9268C53.4982 20.0371 54.6362 19.6015 54.6362 18.3685C54.6362 17.3251 53.9613 16.7344 52.7372 16.7344H47.1608H47.1632Z" fill="#9DA3AF"/>
<path d="M59.3975 22.225V9.59277H70.6193V11.8003H61.5774V20.0199H70.6366V22.2274H59.3975V22.225ZM63.1832 16.7344V14.874H70.1513V16.7344H63.1832Z" fill="#9DA3AF"/>
<path d="M86.5382 22.2252L84.6562 19.0186H78.7182L79.7522 17.2147H83.6024L80.8037 12.4503L75.107 22.2252H72.6045L79.8216 10.0311C80.0801 9.59304 80.4073 9.3125 80.893 9.3125C81.3779 9.3125 81.6861 9.59304 81.9469 10.0311L89.1812 22.2252H86.5382Z" fill="#9DA3AF"/>
<path d="M95.2871 22.225C91.7747 22.225 89.1782 19.444 89.1782 15.7772C89.1782 12.1103 91.7747 9.59033 95.2871 9.59033H102.105V11.7978H95.2871C93.0383 11.7978 91.3759 13.4836 91.3759 15.8805C91.3759 18.2775 93.0207 20.015 95.2871 20.015H102.105V22.2224H95.2871V22.225Z" fill="#9DA3AF"/>
<path d="M110.228 22.225C106.686 22.225 104.072 19.444 104.072 15.7772C104.072 12.1103 106.689 9.59033 110.228 9.59033H113.314C116.977 9.59033 119.523 12.1103 119.523 15.7772C119.523 19.444 116.924 22.225 113.314 22.225H110.228ZM113.314 20.0174C115.652 20.0174 117.309 18.2628 117.309 15.883C117.309 13.5032 115.652 11.8003 113.314 11.8003H110.228C107.959 11.8003 106.287 13.486 106.287 15.883C106.287 18.28 107.945 20.0174 110.228 20.0174H113.314Z" fill="#9DA3AF"/>
<path d="M124.13 13.1267V22.3479H122.053V10.9093C122.053 10.0948 122.482 9.59277 123.17 9.59277C123.494 9.59277 123.77 9.7133 124.098 10.0431L132.901 18.8656V9.64199H134.977V21.1863C134.977 22.0182 134.531 22.5054 133.896 22.5054C133.536 22.5054 133.209 22.3504 132.901 22.0379L124.13 13.1267Z" fill="#9DA3AF"/>
<path d="M137.788 22.225V9.59277H149.009V11.8003H139.968V20.0199H149.027V22.2274H137.788V22.225ZM141.574 16.7344V14.874H148.541V16.7344H141.574Z" fill="#9DA3AF"/>
<path d="M163.309 22.2226L160.105 18.7132H155.369V16.7666H160.647C162.234 16.7666 163.069 15.8634 163.069 14.2293C163.069 12.5952 162.162 11.7955 160.647 11.7955H153.751V22.22H151.556V9.58789H160.647C163.539 9.58789 165.246 11.3771 165.246 14.1924C165.246 16.2768 164.27 17.7534 162.634 18.3786L166.448 22.2176H163.312L163.309 22.2226Z" fill="#9DA3AF"/>
<path fill-rule="evenodd" clip-rule="evenodd" d="M34.6526 9.42309C34.628 9.42309 34.6034 9.42309 34.5763 9.42309C33.5639 9.38369 32.7487 8.52724 32.7609 7.51334C32.7683 6.86365 33.1034 6.27302 33.66 5.92848C34.0369 5.69715 34.2709 5.26648 34.2709 4.80627V4.61925C34.2709 4.16397 34.0319 3.73822 33.633 3.48227C33.6231 3.47489 33.6132 3.46997 33.6034 3.46258C33.3694 3.30509 33.1009 3.22387 32.8275 3.22387C32.6452 3.22387 32.4679 3.26079 32.3029 3.33215L30.8275 3.97447C30.4087 4.15658 30.1132 4.54295 30.0393 5.00808C29.9383 5.64054 29.5295 6.17457 28.9482 6.43544C28.7092 6.54126 28.4555 6.59539 28.192 6.59539C27.458 6.59539 26.7831 6.1795 26.4703 5.53472C26.2437 5.06714 26.2191 4.54049 26.3989 4.05322C26.5787 3.56594 26.9407 3.18449 27.4161 2.97777C27.6575 2.87195 27.9088 2.82027 28.1673 2.82027C28.5418 2.82027 28.9063 2.93102 29.2191 3.14019C29.4531 3.29523 29.7191 3.37891 29.9925 3.37891C30.1747 3.37891 30.3521 3.342 30.5172 3.27063L31.9925 2.62832C32.4112 2.44621 32.7068 2.05737 32.7807 1.59225C32.9161 0.73583 33.6157 0.0836731 34.4826 0.00738291C34.5368 0.00246097 34.5936 0 34.6477 0C35.5073 0 36.2807 0.602938 36.4851 1.43229C36.6797 2.21979 36.3521 3.04176 35.6748 3.47981C35.2733 3.73822 35.0344 4.16642 35.0344 4.6217V4.80874C35.0344 5.26648 35.2733 5.68977 35.6723 5.9457C36.2167 6.29517 36.5417 6.88826 36.5417 7.53549C36.5417 8.04 36.3448 8.51497 35.9877 8.87177C35.6305 9.22865 35.1551 9.42552 34.6502 9.42552L34.6526 9.42309ZM19.8027 19.3408C19.8027 20.3818 20.65 21.2307 21.6943 21.2307C21.7067 21.2307 21.719 21.2307 21.7338 21.2283H21.756H21.7707C22.783 21.1889 23.5983 20.3326 23.586 19.3186C23.5787 18.6689 23.2436 18.0758 22.6894 17.7338C22.3076 17.4975 22.0786 17.0989 22.0786 16.6682V16.3655C22.0786 15.9298 22.3028 15.5361 22.6771 15.3072C23.2461 14.9602 23.586 14.3574 23.586 13.6953C23.586 13.0333 23.2461 12.4279 22.6771 12.0833C22.3028 11.8545 22.0786 11.4607 22.0786 11.0251V10.7224C22.0786 10.2893 22.3052 9.89066 22.6869 9.65683C23.5023 9.15726 23.8102 8.15322 23.421 7.27463C23.1255 6.6077 22.4333 6.15981 21.6993 6.15981C21.6156 6.15981 21.5343 6.16719 21.4506 6.17704C20.5491 6.30255 19.8742 7.01623 19.8102 7.91695C19.7782 8.35497 19.5294 8.73646 19.1426 8.93577L17.4136 9.82666C17.2386 9.91771 17.0442 9.96449 16.8471 9.96449C16.618 9.96449 16.3963 9.90294 16.2017 9.78232C15.9012 9.60023 15.5589 9.50179 15.2091 9.50179C14.9135 9.50179 14.6302 9.56823 14.3667 9.70118C13.4603 10.1564 13.0712 11.2712 13.4998 12.1891C13.8101 12.8536 14.4824 13.2818 15.2165 13.2818C15.5194 13.2818 15.8101 13.2105 16.081 13.0703C16.6722 12.765 17.0515 12.1867 17.0983 11.5223C17.1303 11.0842 17.3791 10.7052 17.7658 10.5059L19.4948 9.61501C19.6697 9.5264 19.8643 9.47718 20.0614 9.47718C20.2904 9.47718 20.512 9.54118 20.7091 9.65928H20.7166C21.0835 9.88571 21.3126 10.2918 21.3126 10.72V11.0227C21.3126 11.4583 21.0885 11.852 20.714 12.0809C20.1451 12.4279 19.8051 13.0309 19.8051 13.6929C19.8051 14.3549 20.1451 14.9602 20.714 15.3048C21.0885 15.5336 21.3126 15.9274 21.3126 16.363V16.6657C21.3126 17.1013 21.0885 17.495 20.714 17.7239C20.1451 18.071 19.8051 18.6738 19.8051 19.3359L19.8027 19.3408ZM8.73369 22.2669C8.45779 22.2669 8.18932 22.2078 7.93562 22.0897C7.25582 21.7747 6.82724 21.0856 6.84448 20.335C6.85187 20.0347 6.67946 19.7493 6.41098 19.6115L4.97747 18.8733C4.86417 18.8141 4.73608 18.7846 4.61047 18.7846C4.43805 18.7846 4.27303 18.8387 4.13509 18.9421C4.03411 19.0184 3.92327 19.0824 3.80997 19.1366C3.55627 19.2546 3.28533 19.3162 3.007 19.3162C2.24591 19.3162 1.56117 18.8633 1.26315 18.1619C0.869054 17.2293 1.29763 16.1293 2.22128 15.7083C2.47005 15.5952 2.73115 15.5386 3.00208 15.5386C3.43312 15.5386 3.8543 15.6863 4.18929 15.9569C4.32968 16.0702 4.50455 16.1317 4.68683 16.1317C4.80506 16.1317 4.92328 16.1046 5.02919 16.0554L6.38881 15.4179C6.66221 15.2899 6.84448 15.0119 6.84941 14.7093C6.86172 13.9808 7.27798 13.336 7.93316 13.0283C8.18685 12.9103 8.45779 12.8488 8.73612 12.8488C9.49723 12.8488 10.1819 13.3016 10.48 14.0029C10.8741 14.9357 10.4455 16.0357 9.52187 16.4566C9.27304 16.5697 9.01202 16.6263 8.74109 16.6263C8.31001 16.6263 7.88883 16.4786 7.55384 16.2079C7.41345 16.0947 7.23857 16.0333 7.05631 16.0333C6.93808 16.0333 6.81986 16.0602 6.71394 16.1095L5.35432 16.7469C5.07846 16.8774 4.90358 17.1456 4.89373 17.4483V17.463C4.88634 17.7706 5.05382 18.0512 5.32722 18.1914L6.7632 18.9322C6.8765 18.9913 7.00459 19.0209 7.1302 19.0209C7.30261 19.0209 7.46763 18.9667 7.60557 18.8633C7.9307 18.6222 8.33218 18.4893 8.73857 18.4893C9.0169 18.4893 9.28784 18.5507 9.54398 18.6714C10.4455 19.0971 10.8667 20.1898 10.4825 21.1078C10.1869 21.8141 9.49968 22.2718 8.73612 22.2718L8.73369 22.2669ZM15.214 24.5704C15.1894 24.5704 15.1648 24.5704 15.1376 24.5704C14.1253 24.531 13.31 23.6745 13.3223 22.6607C13.3298 22.0183 13.6598 21.4277 14.2066 21.0856C14.5958 20.8394 14.8298 20.4088 14.8298 19.9338V19.7862C14.8298 19.3112 14.5958 18.8806 14.2066 18.6344C13.6598 18.2899 13.3298 17.7018 13.3223 17.0594C13.3125 16.0456 14.1253 15.1891 15.1376 15.1497C15.1623 15.1497 15.1869 15.1497 15.2115 15.1497C16.2559 15.1497 17.1032 15.9987 17.1032 17.0398C17.1032 17.6771 16.783 18.2678 16.2485 18.6173C15.8397 18.8855 15.5958 19.3235 15.5958 19.7862V19.9338C15.5958 20.399 15.8397 20.837 16.2485 21.1029C16.7854 21.4522 17.1032 22.0429 17.1032 22.6803C17.1032 23.1848 16.9062 23.6598 16.549 24.0166C16.1919 24.3735 15.7165 24.5704 15.2115 24.5704H15.214ZM28.1747 29.1773C28.1354 29.1773 28.0959 29.1773 28.0565 29.1747C27.2215 29.1207 26.5318 28.5399 26.3348 27.7302C26.2215 27.2577 25.8939 26.8837 25.458 26.7286L24.1574 26.2659C24.0122 26.2143 23.8619 26.1896 23.7068 26.1896C23.3988 26.1896 23.0909 26.2954 22.8348 26.4899C22.5072 26.7384 22.1008 26.8762 21.6919 26.8762C21.4777 26.8762 21.2633 26.8393 21.0613 26.7655C20.5737 26.5907 20.1844 26.2365 19.9702 25.7615C19.756 25.2889 19.7461 24.7623 19.9382 24.2799C20.2215 23.5712 20.9333 23.0986 21.7117 23.0986C21.9308 23.0986 22.1451 23.1357 22.3471 23.2119C22.9382 23.431 23.3816 23.928 23.5294 24.5432C23.6427 25.0158 23.9727 25.3898 24.4137 25.5448L25.719 26.0099C25.8619 26.0617 26.0122 26.0863 26.1624 26.0863C26.4678 26.0863 26.7757 25.9805 27.027 25.7861C27.0639 25.7565 27.1033 25.7295 27.1402 25.7048C27.5466 25.4391 27.788 25.0059 27.788 24.5457V24.3931C27.788 23.928 27.5442 23.4899 27.1353 23.2241C26.5984 22.8747 26.2806 22.2841 26.2806 21.6467C26.2806 21.0093 26.6009 20.4186 27.1353 20.0691C27.5442 19.801 27.788 19.3654 27.788 18.9002V18.7526C27.788 18.2776 27.5541 17.847 27.1648 17.6008C26.6181 17.2563 26.2879 16.6682 26.2806 16.0258C26.2708 15.0119 27.0836 14.1555 28.0959 14.1161C28.1206 14.1161 28.1452 14.1161 28.1698 14.1161C29.2141 14.1161 30.0615 14.9651 30.0615 16.0062C30.0615 16.6435 29.7412 17.2342 29.2068 17.5837C28.7979 17.8519 28.5541 18.2874 28.5541 18.7526V18.9002C28.5541 19.3654 28.7979 19.8034 29.2068 20.0691C29.7437 20.4186 30.0615 21.0093 30.0615 21.6467C30.0615 22.2841 29.7412 22.8747 29.2068 23.2241C28.7979 23.4925 28.5541 23.928 28.5541 24.3931V24.563C28.5541 25.0158 28.7929 25.4415 29.1944 25.6999C29.8718 26.1355 30.1994 26.9526 30.0098 27.7376C29.8103 28.5719 29.0368 29.1798 28.1747 29.1798V29.1773ZM34.0862 14.98C34.2635 15.0365 34.4506 15.0637 34.6378 15.0637C35.4137 15.0637 36.1256 14.5862 36.4088 13.8774C36.601 13.3951 36.591 12.8685 36.3768 12.3959C36.1625 11.9234 35.7758 11.5665 35.2881 11.3943C35.0837 11.3229 34.8693 11.2836 34.6551 11.2836C34.2782 11.2836 33.9113 11.3967 33.5959 11.6083C33.3742 11.756 33.1132 11.8349 32.8398 11.8349C32.6428 11.8349 32.4408 11.793 32.2585 11.7118L30.8472 11.0965C30.4211 10.9119 30.1181 10.5133 30.0344 10.0309C29.926 9.40092 29.5122 8.87177 28.9284 8.61585C28.687 8.51002 28.4333 8.45837 28.1723 8.45837C27.3865 8.45837 26.6945 8.93089 26.4087 9.66423C26.0417 10.6068 26.5023 11.697 27.4358 12.0907C27.6698 12.1891 27.9161 12.2408 28.1673 12.2408C28.5368 12.2408 28.8964 12.1326 29.2093 11.9283C29.4481 11.7709 29.7215 11.6872 29.9999 11.6872C30.1871 11.6872 30.3694 11.724 30.5394 11.8003L31.9655 12.4205C32.4014 12.6099 32.7142 13.0063 32.7831 13.4566C32.8941 14.1752 33.3915 14.7585 34.0862 14.975V14.98ZM34.6526 31.9976C35.1576 31.9976 35.633 31.7982 35.9901 31.4414C36.3473 31.0845 36.5443 30.6095 36.5443 30.105C36.5443 29.4677 36.2241 28.877 35.6896 28.5275C35.2808 28.2593 35.0369 27.8238 35.0369 27.3586V27.211C35.0369 26.7458 35.2808 26.3103 35.6896 26.0419C36.2241 25.6926 36.5443 25.1018 36.5443 24.4646C36.5443 23.8271 36.2241 23.2365 35.6896 22.887C35.2808 22.6189 35.0369 22.1832 35.0369 21.7181V21.5704C35.0369 21.1053 35.2808 20.6697 35.6896 20.4015C36.2241 20.052 36.5443 19.4614 36.5443 18.824C36.5443 17.783 35.6969 16.9339 34.6526 16.9339C34.628 16.9339 34.6034 16.9339 34.5763 16.9339C33.5639 16.9734 32.7487 17.8297 32.7609 18.8437C32.7683 19.4859 33.0985 20.0766 33.6452 20.4186C34.0345 20.6648 34.2684 21.0954 34.2684 21.5704V21.7181C34.2684 22.1832 34.0245 22.6189 33.6157 22.887C33.0812 23.2365 32.7609 23.8271 32.7609 24.4646C32.7609 25.1018 33.0812 25.6926 33.6157 26.0419C34.0245 26.3103 34.2684 26.7458 34.2684 27.211V27.3586C34.2684 27.8336 34.0345 28.2642 33.6452 28.5103C33.0985 28.8549 32.7683 29.4431 32.7609 30.0854C32.7511 31.0993 33.5639 31.9558 34.5763 31.9951C34.6009 31.9951 34.6256 31.9951 34.6502 31.9951L34.6526 31.9976Z" fill="#9DA3AF"/>
</g>
</g>
</svg>
