<svg width="165" height="32" viewBox="0 0 165 32" fill="none" xmlns="http://www.w3.org/2000/svg">
<g clip-path="url(#clip0_408_2061)">
<mask id="mask0_408_2061" style="mask-type:luminance" maskUnits="userSpaceOnUse" x="0" y="0" width="165" height="32">
<path d="M164.915 0H0.0581055V32H164.915V0Z" fill="white"/>
</mask>
<g mask="url(#mask0_408_2061)">
<path d="M42.2061 22.2249V9.59277H51.3645C53.8083 9.59277 55.4292 10.7051 55.4292 12.8609C55.4292 14.4606 54.6188 15.2579 53.6904 15.5557C54.8275 15.9199 55.6527 16.9289 55.6527 18.4055C55.6527 20.7164 54.0686 22.2274 51.6249 22.2274H42.2061V22.2249ZM45.976 16.7345V14.874H51.3817C52.6195 14.874 53.2065 14.4384 53.2065 13.3458C53.2065 12.0069 52.1578 11.8002 50.5369 11.8002H44.3895V20.0371H50.726C52.2929 20.0371 53.4276 19.6015 53.4276 18.3685C53.4276 17.3251 52.7546 16.7345 51.534 16.7345H45.9736H45.976Z" fill="white"/>
<path d="M58.1748 22.2249V9.59277H69.3644V11.8002H60.3484V20.0199H69.3816V22.2274H58.1748V22.2249ZM61.9497 16.7345V14.874H68.8978V16.7345H61.9497Z" fill="white"/>
<path d="M85.2375 22.2252L83.3609 19.0186H77.4399L78.471 17.2147H82.3101L79.5195 12.4503L73.8391 22.2252H71.3438L78.5402 10.0311C78.7979 9.59303 79.1241 9.3125 79.6085 9.3125C80.0921 9.3125 80.3993 9.59303 80.6593 10.0311L87.8729 22.2252H85.2375Z" fill="white"/>
<path d="M93.9614 22.2249C90.4592 22.2249 87.8701 19.444 87.8701 15.7772C87.8701 12.1103 90.4592 9.59033 93.9614 9.59033H100.76V11.7978H93.9614C91.7191 11.7978 90.0615 13.4836 90.0615 15.8805C90.0615 18.2776 91.7016 20.015 93.9614 20.015H100.76V22.2225H93.9614V22.2249Z" fill="white"/>
<path d="M108.859 22.2249C105.327 22.2249 102.722 19.444 102.722 15.7772C102.722 12.1103 105.331 9.59033 108.859 9.59033H111.937C115.589 9.59033 118.128 12.1103 118.128 15.7772C118.128 19.444 115.537 22.2249 111.937 22.2249H108.859ZM111.937 20.0175C114.268 20.0175 115.92 18.2628 115.92 15.8831C115.92 13.5032 114.268 11.8003 111.937 11.8003H108.859C106.597 11.8003 104.93 13.486 104.93 15.8831C104.93 18.28 106.583 20.0175 108.859 20.0175H111.937Z" fill="white"/>
<path d="M122.721 13.1267V22.348H120.651V10.9093C120.651 10.0948 121.078 9.59277 121.763 9.59277C122.087 9.59277 122.362 9.71331 122.689 10.0431L131.467 18.8657V9.64199H133.538V21.1864C133.538 22.0182 133.093 22.5055 132.459 22.5055C132.101 22.5055 131.774 22.3504 131.467 22.0379L122.721 13.1267Z" fill="white"/>
<path d="M136.34 22.2249V9.59277H147.529V11.8002H138.514V20.0199H147.547V22.2274H136.34V22.2249ZM140.115 16.7345V14.874H147.063V16.7345H140.115Z" fill="white"/>
<path d="M161.788 22.2226L158.593 18.7132H153.871V16.7666H159.134C160.716 16.7666 161.548 15.8634 161.548 14.2293C161.548 12.5952 160.644 11.7954 159.134 11.7954H152.257V22.22H150.069V9.58789H159.134C162.017 9.58789 163.719 11.3771 163.719 14.1924C163.719 16.2768 162.746 17.7534 161.115 18.3785L164.918 22.2176H161.791L161.788 22.2226Z" fill="white"/>
<path fill-rule="evenodd" clip-rule="evenodd" d="M33.5017 9.42309C33.4771 9.42309 33.4526 9.42309 33.4256 9.42309C32.4161 9.3837 31.6032 8.52724 31.6154 7.51334C31.6228 6.86365 31.9568 6.27301 32.5119 5.92848C32.8877 5.69715 33.121 5.26648 33.121 4.80628V4.61925C33.121 4.16396 32.8827 3.73822 32.4849 3.48227C32.4751 3.47489 32.4652 3.46997 32.4554 3.46258C32.2221 3.30508 31.9544 3.22387 31.6818 3.22387C31.5 3.22387 31.3232 3.26078 31.1587 3.33215L29.6875 3.97447C29.27 4.15658 28.9753 4.54295 28.9016 5.00808C28.8009 5.64054 28.3932 6.17458 27.8136 6.43544C27.5754 6.54126 27.3224 6.5954 27.0596 6.5954C26.3277 6.5954 25.6548 6.1795 25.3429 5.53472C25.1169 5.06714 25.0923 4.54049 25.2716 4.05322C25.4509 3.56594 25.8119 3.1845 26.2859 2.97778C26.5266 2.87195 26.7771 2.82027 27.035 2.82027C27.4083 2.82027 27.7719 2.93102 28.0838 3.1402C28.317 3.29524 28.5823 3.37891 28.8549 3.37891C29.0367 3.37891 29.2135 3.342 29.3781 3.27063L30.8492 2.62832C31.2667 2.4462 31.5615 2.05737 31.6351 1.59225C31.7702 0.73583 32.4677 0.0836731 33.3322 0.00738291C33.3863 0.00246097 33.4428 0 33.4967 0C34.3539 0 35.1251 0.602938 35.3289 1.43228C35.523 2.21979 35.1963 3.04176 34.521 3.47981C34.1206 3.73822 33.8824 4.16642 33.8824 4.62171V4.80874C33.8824 5.26648 34.1206 5.68977 34.5185 5.94571C35.0613 6.29516 35.3854 6.88826 35.3854 7.53549C35.3854 8.04 35.1889 8.51497 34.8329 8.87177C34.4767 9.22865 34.0027 9.42552 33.4993 9.42552L33.5017 9.42309ZM18.6944 19.3408C18.6944 20.3818 19.5393 21.2308 20.5806 21.2308C20.5929 21.2308 20.6052 21.2308 20.6199 21.2283H20.642H20.6568C21.6662 21.189 22.4792 20.3326 22.4668 19.3186C22.4595 18.669 22.1254 18.0758 21.5729 17.7338C21.1922 17.4975 20.9637 17.0988 20.9637 16.6682V16.3655C20.9637 15.9298 21.1873 15.5361 21.5606 15.3072C22.1279 14.9602 22.4668 14.3573 22.4668 13.6953C22.4668 13.0333 22.1279 12.4279 21.5606 12.0834C21.1873 11.8545 20.9637 11.4607 20.9637 11.0251V10.7224C20.9637 10.2893 21.1897 9.89067 21.5704 9.65684C22.3834 9.15726 22.6903 8.15322 22.3023 7.27463C22.0076 6.6077 21.3175 6.15981 20.5855 6.15981C20.502 6.15981 20.421 6.16719 20.3375 6.17704C19.4386 6.30254 18.7657 7.01623 18.7018 7.91695C18.6699 8.35497 18.4218 8.73646 18.0362 8.93577L16.3121 9.82667C16.1377 9.91771 15.9437 9.96449 15.7472 9.96449C15.5188 9.96449 15.2978 9.90293 15.1037 9.78232C14.8041 9.60023 14.4627 9.50179 14.114 9.50179C13.8192 9.50179 13.5368 9.56823 13.274 9.70118C12.3702 10.1564 11.9821 11.2712 12.4095 12.1892C12.7189 12.8536 13.3894 13.2818 14.1213 13.2818C14.4234 13.2818 14.7132 13.2105 14.9834 13.0702C15.5728 12.765 15.9511 12.1867 15.9977 11.5223C16.0296 11.0842 16.2777 10.7052 16.6633 10.5059L18.3874 9.61501C18.5618 9.5264 18.7558 9.47718 18.9523 9.47718C19.1807 9.47718 19.4017 9.54118 19.5982 9.65928H19.6056C19.9715 9.88571 20.2 10.2918 20.2 10.72V11.0227C20.2 11.4583 19.9765 11.852 19.6031 12.0809C19.0358 12.4279 18.6969 13.0309 18.6969 13.6929C18.6969 14.3548 19.0358 14.9602 19.6031 15.3048C19.9765 15.5336 20.2 15.9274 20.2 16.363V16.6657C20.2 17.1013 19.9765 17.495 19.6031 17.7239C19.0358 18.0709 18.6969 18.6738 18.6969 19.3358L18.6944 19.3408ZM7.65714 22.2669C7.38204 22.2669 7.11434 22.2078 6.86137 22.0897C6.18351 21.7747 5.75617 21.0856 5.77336 20.335C5.78072 20.0347 5.60881 19.7493 5.34109 19.6115L3.9117 18.8732C3.79873 18.8141 3.67101 18.7846 3.54576 18.7846C3.37383 18.7846 3.20928 18.8387 3.07174 18.9421C2.97105 19.0184 2.86053 19.0824 2.74755 19.1365C2.49459 19.2546 2.22442 19.3162 1.94689 19.3162C1.18798 19.3162 0.505216 18.8633 0.20804 18.162C-0.184922 17.2293 0.242424 16.1292 1.16342 15.7083C1.41149 15.5952 1.67182 15.5386 1.94198 15.5386C2.37178 15.5386 2.79176 15.6862 3.12578 15.957C3.26577 16.0702 3.44014 16.1317 3.62189 16.1317C3.73978 16.1317 3.85767 16.1046 3.96328 16.0554L5.31899 15.418C5.59161 15.29 5.77336 15.0119 5.77827 14.7093C5.79055 13.9808 6.20561 13.336 6.85891 13.0283C7.11188 12.9102 7.38204 12.8488 7.65957 12.8488C8.4185 12.8488 9.10123 13.3016 9.39846 14.0029C9.79142 14.9356 9.36402 16.0357 8.44306 16.4565C8.19495 16.5698 7.93467 16.6263 7.66452 16.6263C7.23468 16.6263 6.8147 16.4786 6.48068 16.2079C6.34069 16.0948 6.16632 16.0332 5.98457 16.0332C5.86668 16.0332 5.7488 16.0603 5.64319 16.1095L4.28747 16.7469C4.0124 16.8773 3.83802 17.1456 3.8282 17.4483V17.463C3.82083 17.7707 3.98784 18.0512 4.26045 18.1915L5.69231 18.9323C5.80528 18.9913 5.933 19.0209 6.05825 19.0209C6.23017 19.0209 6.39472 18.9667 6.53226 18.8633C6.85646 18.6222 7.25678 18.4893 7.66201 18.4893C7.93954 18.4893 8.2097 18.5508 8.46511 18.6714C9.36401 19.0971 9.78404 20.1898 9.40089 21.1077C9.10617 21.814 8.42093 22.2718 7.65957 22.2718L7.65714 22.2669ZM14.1189 24.5704C14.0943 24.5704 14.0698 24.5704 14.0427 24.5704C13.0333 24.531 12.2203 23.6745 12.2327 22.6606C12.24 22.0183 12.5691 21.4277 13.1144 21.0856C13.5024 20.8395 13.7358 20.4088 13.7358 19.9339V19.7862C13.7358 19.3112 13.5024 18.8805 13.1144 18.6344C12.5691 18.2899 12.24 17.7018 12.2327 17.0594C12.2228 16.0456 13.0333 15.1891 14.0427 15.1497C14.0673 15.1497 14.0918 15.1497 14.1164 15.1497C15.1578 15.1497 16.0026 15.9988 16.0026 17.0398C16.0026 17.6772 15.6834 18.2678 15.1504 18.6172C14.7427 18.8855 14.4995 19.3235 14.4995 19.7862V19.9339C14.4995 20.399 14.7427 20.837 15.1504 21.1029C15.6858 21.4523 16.0026 22.0429 16.0026 22.6803C16.0026 23.1848 15.8062 23.6597 15.45 24.0166C15.0939 24.3735 14.6199 24.5704 14.1164 24.5704H14.1189ZM27.0424 29.1773C27.0031 29.1773 26.9638 29.1773 26.9245 29.1748C26.0919 29.1207 25.4042 28.5399 25.2077 27.7302C25.0947 27.2577 24.7681 26.8837 24.3334 26.7286L23.0367 26.2659C22.8917 26.2142 22.7419 26.1896 22.5872 26.1896C22.2802 26.1896 21.9732 26.2955 21.7178 26.4899C21.3911 26.7384 20.9859 26.8763 20.5782 26.8763C20.3645 26.8763 20.1508 26.8393 19.9494 26.7655C19.4632 26.5908 19.0751 26.2364 18.8614 25.7614C18.6477 25.2889 18.6379 24.7623 18.8295 24.2799C19.1119 23.5712 19.8217 23.0987 20.5979 23.0987C20.8164 23.0987 21.03 23.1356 21.2315 23.2119C21.8209 23.4309 22.263 23.928 22.4103 24.5432C22.5233 25.0158 22.8524 25.3899 23.2921 25.5448L24.5937 26.01C24.7362 26.0617 24.886 26.0863 25.0358 26.0863C25.3403 26.0863 25.6474 25.9805 25.8979 25.7861C25.9347 25.7565 25.974 25.7294 26.0108 25.7048C26.4161 25.4391 26.6568 25.0059 26.6568 24.5458V24.3931C26.6568 23.928 26.4137 23.49 26.006 23.2242C25.4705 22.8747 25.1538 22.2841 25.1538 21.6467C25.1538 21.0093 25.473 20.4187 26.006 20.0692C26.4137 19.801 26.6568 19.3654 26.6568 18.9003V18.7526C26.6568 18.2776 26.4235 17.8469 26.0354 17.6008C25.4902 17.2563 25.1611 16.6682 25.1538 16.0258C25.1439 15.0119 25.9543 14.1555 26.9638 14.1161C26.9884 14.1161 27.0129 14.1161 27.0375 14.1161C28.0788 14.1161 28.9237 14.9652 28.9237 16.0062C28.9237 16.6436 28.6044 17.2342 28.0714 17.5836C27.6637 17.8519 27.4206 18.2875 27.4206 18.7526V18.9003C27.4206 19.3654 27.6637 19.8034 28.0714 20.0692C28.6069 20.4187 28.9237 21.0093 28.9237 21.6467C28.9237 22.2841 28.6044 22.8747 28.0714 23.2242C27.6637 23.4924 27.4206 23.928 27.4206 24.3931V24.563C27.4206 25.0158 27.6589 25.4415 28.0592 25.6999C28.7346 26.1355 29.0612 26.9525 28.8721 27.7376C28.6732 28.5719 27.902 29.1797 27.0424 29.1797V29.1773ZM32.9368 14.98C33.1137 15.0365 33.3003 15.0636 33.4869 15.0636C34.2606 15.0636 34.9704 14.5862 35.2528 13.8774C35.4444 13.395 35.4345 12.8684 35.2209 12.3959C35.0072 11.9234 34.6216 11.5666 34.1354 11.3943C33.9315 11.3229 33.7178 11.2836 33.5041 11.2836C33.1283 11.2836 32.7625 11.3967 32.448 11.6084C32.227 11.756 31.9667 11.8348 31.6941 11.8348C31.4976 11.8348 31.2962 11.793 31.1144 11.7118L29.7071 11.0965C29.2823 10.9119 28.9802 10.5133 28.8967 10.0309C28.7886 9.40091 28.376 8.87177 27.7939 8.61585C27.5532 8.51002 27.3003 8.45836 27.0399 8.45836C26.2564 8.45836 25.5663 8.9309 25.2814 9.66423C24.9155 10.6068 25.3748 11.697 26.3056 12.0907C26.5389 12.1892 26.7845 12.2408 27.035 12.2408C27.4035 12.2408 27.762 12.1326 28.0739 11.9283C28.3122 11.7708 28.5848 11.6872 28.8623 11.6872C29.049 11.6872 29.2307 11.724 29.4002 11.8004L30.8222 12.4205C31.2569 12.61 31.5688 13.0062 31.6376 13.4566C31.7481 14.1752 32.2442 14.7585 32.9368 14.975V14.98ZM33.5017 31.9976C34.0052 31.9976 34.4792 31.7982 34.8353 31.4414C35.1915 31.0845 35.3879 30.6095 35.3879 30.1051C35.3879 29.4677 35.0687 28.877 34.5356 28.5275C34.128 28.2594 33.8848 27.8238 33.8848 27.3586V27.211C33.8848 26.7458 34.128 26.3102 34.5356 26.042C35.0687 25.6926 35.3879 25.1019 35.3879 24.4645C35.3879 23.8271 35.0687 23.2365 34.5356 22.887C34.128 22.6188 33.8848 22.1832 33.8848 21.7181V21.5704C33.8848 21.1053 34.128 20.6697 34.5356 20.4014C35.0687 20.052 35.3879 19.4613 35.3879 18.824C35.3879 17.783 34.543 16.9339 33.5017 16.9339C33.4771 16.9339 33.4526 16.9339 33.4256 16.9339C32.4161 16.9733 31.6032 17.8297 31.6154 18.8437C31.6228 19.4859 31.952 20.0766 32.4972 20.4187C32.8853 20.6648 33.1185 21.0955 33.1185 21.5704V21.7181C33.1185 22.1832 32.8754 22.6188 32.4677 22.887C31.9348 23.2365 31.6154 23.8271 31.6154 24.4645C31.6154 25.1019 31.9348 25.6926 32.4677 26.042C32.8754 26.3102 33.1185 26.7458 33.1185 27.211V27.3586C33.1185 27.8336 32.8853 28.2642 32.4972 28.5103C31.952 28.8549 31.6228 29.443 31.6154 30.0853C31.6056 31.0993 32.4161 31.9557 33.4256 31.995C33.4501 31.995 33.4747 31.995 33.4993 31.995L33.5017 31.9976Z" fill="url(#paint0_linear_408_2061)"/>
</g>
</g>
<defs>
<linearGradient id="paint0_linear_408_2061" x1="34.7248" y1="15.9126" x2="0.109111" y2="18.3465" gradientUnits="userSpaceOnUse">
<stop stop-color="#D1D900"/>
<stop offset="1" stop-color="#55E21C"/>
</linearGradient>
<clipPath id="clip0_408_2061">
<rect width="165" height="32" fill="white"/>
</clipPath>
</defs>
</svg>
