    <svg width="160" height="32" viewBox="0 0 160 32" fill="none" xmlns="http://www.w3.org/2000/svg">
<g clip-path="url(#clip0_408_2075)">
<mask id="mask0_408_2075" fontStyle="mask-type:luminance" maskUnits="userSpaceOnUse" x="0" y="0" width="160" height="32">
<path d="M159.707 0H0.0361328V32H159.707V0Z" fill="white"/>
</mask>
<g mask="url(#mask0_408_2075)">
<path d="M157.533 22.3662C159.034 22.3662 159.707 21.5445 159.707 20.517C159.707 15.9447 156.498 12.0913 150.804 12.0913C144.799 12.0913 141.641 16.5097 141.641 21.4414C141.641 26.2196 144.592 30.5862 151.528 30.5862C154.324 30.5862 156.912 29.8671 158.517 28.7883C159.086 28.4285 159.345 27.9149 159.345 27.4011C159.345 26.3222 158.155 25.346 156.808 26.0139C155.514 26.7846 154.065 27.4011 151.943 27.4011C148.319 27.4011 146.197 25.1922 146.041 22.3662H157.533ZM146.093 19.5922C146.3 17.3833 147.853 15.2251 150.907 15.2251C153.91 15.2251 155.514 17.3833 155.721 19.5922H146.093Z" fill="white"/>
<path d="M133.167 25.2437C133.167 28.326 134.151 30.5864 137.722 30.5864C139.172 30.5864 139.845 30.124 139.845 28.8913C139.845 27.6065 139.379 27.2474 138.758 27.1955C137.464 27.0929 137.308 26.2197 137.308 24.6785V4.23136C137.308 2.74144 136.325 2.07373 135.186 2.07373C134.099 2.07373 133.167 2.74144 133.167 4.23136V25.2437Z" fill="white"/>
<path d="M110.781 28.5315C110.781 29.6616 111.402 30.5864 112.852 30.5864C114.043 30.5864 114.819 29.9701 114.819 28.5315L114.715 26.8876C115.958 29.1992 117.925 30.5864 120.979 30.5864C126.57 30.5864 129.52 26.2197 129.52 21.2363C129.52 16.3041 126.57 12.0915 121.031 12.0915C118.236 12.0915 116.165 13.3248 114.922 15.4824V4.12871C114.922 2.79275 114.146 2.07373 112.852 2.07373C111.558 2.07373 110.781 2.79275 110.781 4.12871V28.5315ZM120.099 26.9388C116.786 26.9388 114.922 24.3187 114.922 21.2876C114.922 18.2565 116.786 15.7391 120.099 15.7391C123.36 15.7391 125.276 18.2052 125.276 21.3389C125.276 24.4728 123.36 26.9388 120.099 26.9388Z" fill="white"/>
<path d="M87.9824 28.5315C87.9824 29.6616 88.6035 30.5864 90.0531 30.5864C91.2432 30.5864 92.0199 29.9701 92.0199 28.5315L91.9161 26.8876C93.1589 29.1992 95.1257 30.5864 98.1801 30.5864C103.771 30.5864 106.721 26.2197 106.721 21.2363C106.721 16.3041 103.771 12.0915 98.2316 12.0915C95.4361 12.0915 93.3657 13.3248 92.1235 15.4824V4.12871C92.1235 2.79275 91.347 2.07373 90.0531 2.07373C88.7584 2.07373 87.9824 2.79275 87.9824 4.12871V28.5315ZM97.2999 26.9388C93.9872 26.9388 92.1235 24.3187 92.1235 21.2876C92.1235 18.2565 93.9872 15.7391 97.2999 15.7391C100.561 15.7391 102.476 18.2052 102.476 21.3389C102.476 24.4728 100.561 26.9388 97.2999 26.9388Z" fill="white"/>
<path d="M70.7314 14.1463C70.7314 12.9648 70.1103 12.0913 68.7128 12.0913C67.2632 12.0913 66.5903 12.9648 66.5903 14.1463V22.1096C66.5903 27.1439 68.6091 30.5862 73.5268 30.5862C75.4941 30.5862 77.6164 29.7126 78.8587 27.9661V28.5311C78.8587 29.9186 79.5316 30.5862 80.8255 30.5862C82.1718 30.5862 82.9997 29.8159 82.9997 28.5311V14.1463C82.9997 12.7595 82.2237 12.0913 80.9291 12.0913C79.5832 12.0913 78.8587 12.7595 78.8587 14.1463V22.2123C78.8587 25.5512 77.2022 27.1954 74.7176 27.1954C72.1291 27.1954 70.7314 25.6541 70.7314 22.2123V14.1463Z" fill="white"/>
<path d="M44.1011 28.5315C44.1011 29.6616 44.7221 30.5864 46.1717 30.5864C47.3623 30.5864 48.139 29.9701 48.139 28.5315C48.139 27.0929 48.0352 26.8876 48.0352 26.8876C49.2775 29.1992 51.2448 30.5864 54.2988 30.5864C59.8894 30.5864 62.84 26.2197 62.84 21.2363C62.84 16.3041 59.8894 12.0915 54.3507 12.0915C51.5552 12.0915 49.4848 13.3248 48.2421 15.4824V4.12871C48.2421 2.79275 47.4656 2.07373 46.1717 2.07373C44.8778 2.07373 44.1011 2.79275 44.1011 4.12871V28.5315ZM53.419 26.9388C50.1059 26.9388 48.2421 24.3187 48.2421 21.2876C48.2421 18.2565 50.1059 15.7391 53.419 15.7391C56.6798 15.7391 58.5955 18.2052 58.5955 21.3389C58.5955 24.4728 56.6798 26.9388 53.419 26.9388Z" fill="white"/>
<path d="M8.84913 10.3213C3.98186 10.3213 0.0361328 14.267 0.0361328 19.1343C0.0361328 24.0015 3.98186 27.9474 8.84913 27.9474C13.7164 27.9474 17.6621 24.0015 17.6621 19.1343C17.6621 14.267 13.7164 10.3213 8.84913 10.3213Z" fill="#FF5961"/>
<path d="M23.8594 0C19.9942 0 16.8608 3.13336 16.8608 6.99858C16.8608 10.8638 19.9942 13.9971 23.8594 13.9971C27.7246 13.9971 30.8581 10.8638 30.8581 6.99858C30.8581 3.13336 27.7246 0 23.8594 0Z" fill="#FF5961"/>
<path d="M26.239 23.7056C23.9487 23.7056 22.0918 25.5625 22.0918 27.853C22.0918 30.1433 23.9487 32.0002 26.239 32.0002C28.5295 32.0002 30.3864 30.1433 30.3864 27.853C30.3864 25.5625 28.5295 23.7056 26.239 23.7056Z" fill="#FF5961"/>
</g>
</g>
<defs>
<clipPath id="clip0_408_2075">
<rect width="160" height="32" fill="white"/>
</clipPath>
</defs>
</svg>