<svg width="110" height="32" viewBox="0 0 110 32" fill="none" xmlns="http://www.w3.org/2000/svg">
<g clip-path="url(#clip0_408_2026)">
<path d="M26.9033 0C29.7394 0 32.039 2.29628 32.0391 5.12891V26.8711C32.039 29.7037 29.7394 32 26.9033 32H5.13574C2.29967 32 8.62077e-05 29.7037 0 26.8711V5.12891C7.52789e-05 2.29628 2.29966 0 5.13574 0H26.9033ZM20.6855 8.69629C20.5135 8.62392 20.3141 8.73209 20.3096 8.89941C20.296 9.35156 20.2598 10.1655 20.21 10.7715C20.1873 11.0564 20.1055 11.3281 19.9697 11.5859L11.4521 27.7236H7.63477C7.34054 27.7236 7.10465 27.9591 7.10449 28.2529C7.10449 28.5469 7.34044 28.7822 7.63477 28.7822H12.3438C15.3594 28.8139 22.2374 28.868 23.9453 28.7686C24.9325 27.4026 25.5985 25.8332 25.834 24.1416C25.834 24.1191 25.8388 24.0967 25.8389 24.0742C25.8479 23.9973 25.8564 23.92 25.8564 23.8477C25.8564 23.7753 25.8571 23.7029 25.8525 23.6396C25.8481 23.5673 25.8431 23.4949 25.834 23.4316C25.7072 22.5588 25.1046 21.817 24.2578 21.4326C23.8503 21.2428 23.3932 21.1387 22.9043 21.1387H22.8633C21.7132 21.1388 19.5903 22.3411 19.3135 22.0703C19.2954 22.0522 19.2818 22.0337 19.2637 22.0156C19.1143 21.8573 19.1683 21.6135 19.3721 21.5186L21.7178 20.4375L24.2812 19.3027L28.6553 17.3623C28.6553 17.3623 28.664 17.3619 28.6641 17.3574C28.9312 17.2398 28.85 16.8467 28.5557 16.8467L28.5605 16.8193C26.9892 16.8329 23.2253 16.8549 23.1348 16.7373C23.1213 16.7193 23.1078 16.7015 23.0898 16.6836C22.9585 16.5117 23.0404 16.2761 23.2578 16.1992L25.7119 15.3311L26.7354 14.9873C26.9391 14.9014 27.1523 14.802 27.2881 14.707C27.3786 14.6438 27.4693 14.5707 27.5508 14.5029C27.9898 14.114 28.2838 13.6072 28.3789 13.042C28.2794 12.9381 28.171 12.8386 28.0625 12.7393C27.3334 12.0924 26.4545 11.5729 25.4854 11.2246C25.4854 11.2246 25.3538 11.1792 25.1318 11.1113C24.7514 11.0027 24.0903 10.8397 23.375 10.7764H23.3389C23.0174 10.7492 22.6913 10.7402 22.3652 10.7764C22.2429 9.85383 21.591 9.07628 20.6855 8.69629ZM5.35156 25.4775C5.05734 25.4776 4.82246 25.7121 4.82227 26.0059C4.82227 26.2999 5.05722 26.5351 5.35156 26.5352H10.7861C11.0803 26.5349 11.3154 26.2998 11.3154 26.0059C11.3152 25.7122 11.0802 25.4777 10.7861 25.4775H5.35156ZM4.30566 23.2451C4.01133 23.2451 3.77637 23.4804 3.77637 23.7744C3.77641 24.0683 4.01136 24.3037 4.30566 24.3037H11.8047C12.099 24.3037 12.3349 24.0684 12.335 23.7744C12.335 23.4804 12.0991 23.2451 11.8047 23.2451H4.30566ZM3.73242 21.0166C3.43819 21.0166 3.20234 21.2511 3.20215 21.5449C3.20215 21.8389 3.43807 22.0742 3.73242 22.0742H12.9248C13.2191 22.0742 13.4541 21.8389 13.4541 21.5449C13.4539 21.2511 13.219 21.0166 12.9248 21.0166H3.73242ZM9.85352 18.7959C9.55931 18.796 9.32422 19.0313 9.32422 19.3252C9.32428 19.619 9.55935 19.8543 9.85352 19.8545H13.8662C14.1604 19.8544 14.3954 19.619 14.3955 19.3252C14.3955 19.0313 14.1605 18.796 13.8662 18.7959H9.85352ZM3.73242 18.793C3.43807 18.793 3.20215 19.0282 3.20215 19.3223C3.20232 19.6161 3.43818 19.8516 3.73242 19.8516H8.41406C8.70829 19.8516 8.94417 19.6161 8.94434 19.3223C8.94434 19.0282 8.70839 18.793 8.41406 18.793H3.73242ZM4.66992 16.5645C4.37569 16.5645 4.13984 16.799 4.13965 17.0928C4.13965 17.3867 4.37557 17.6221 4.66992 17.6221H15.0029C15.2973 17.6221 15.5332 17.3867 15.5332 17.0928C15.533 16.799 15.2972 16.5645 15.0029 16.5645H4.66992ZM5.77637 14.3359C5.4821 14.3359 5.24619 14.5713 5.24609 14.8652C5.24609 15.1592 5.48204 15.3945 5.77637 15.3945H16.0283C16.3227 15.3945 16.5586 15.1592 16.5586 14.8652C16.5585 14.5713 16.3226 14.3359 16.0283 14.3359H5.77637ZM7.63477 12.1104C7.34048 12.1104 7.10456 12.3457 7.10449 12.6396C7.10449 12.9336 7.34044 13.1689 7.63477 13.1689H13.4629C13.757 13.1687 13.9922 12.9335 13.9922 12.6396C13.9921 12.3459 13.757 12.1106 13.4629 12.1104H7.63477ZM14.9209 12.1104C14.6267 12.1105 14.3917 12.3458 14.3916 12.6396C14.3916 12.9335 14.6266 13.1688 14.9209 13.1689H17.6426C17.9369 13.1689 18.1729 12.9336 18.1729 12.6396C18.1728 12.3457 17.9369 12.1104 17.6426 12.1104H14.9209ZM8.47754 9.88281C8.18316 9.88281 7.94727 10.1181 7.94727 10.4121C7.94733 10.706 8.1832 10.9414 8.47754 10.9414H18.0771C18.3715 10.9414 18.6074 10.706 18.6074 10.4121C18.6074 10.1181 18.3715 9.88281 18.0771 9.88281H8.47754ZM9.26074 7.64844C8.96645 7.64844 8.73053 7.88382 8.73047 8.17773C8.73047 8.47171 8.96641 8.70703 9.26074 8.70703H11.9316C12.226 8.70703 12.4619 8.47171 12.4619 8.17773C12.4619 7.88382 12.226 7.64844 11.9316 7.64844H9.26074ZM13.4219 7.64844C13.1276 7.64845 12.8926 7.88383 12.8926 8.17773C12.8926 8.4717 13.1276 8.70702 13.4219 8.70703H18.0771C18.3715 8.70703 18.6074 8.47171 18.6074 8.17773C18.6074 7.88382 18.3714 7.64844 18.0771 7.64844H13.4219ZM10.8682 5.42969C10.5738 5.4297 10.3389 5.66497 10.3389 5.95898C10.3391 6.25278 10.574 6.48729 10.8682 6.4873H16.1162C16.4104 6.4873 16.6463 6.25279 16.6465 5.95898C16.6465 5.66496 16.4105 5.42969 16.1162 5.42969H10.8682ZM8.67676 3.19629C8.38237 3.19629 8.14648 3.4316 8.14648 3.72559C8.14654 4.01953 8.38241 4.25488 8.67676 4.25488H12.3623C12.6567 4.25488 12.8925 4.01953 12.8926 3.72559C12.8926 3.4316 12.6567 3.19629 12.3623 3.19629H8.67676Z" fill="#9DA3AF"/>
<path d="M46.7924 15.4308V15.3585C48.563 14.6981 49.4325 13.2869 49.4325 11.8034C49.4325 10.4375 48.8211 9.352 47.8068 8.69162C46.6746 7.89104 45.2572 7.77344 43.2556 7.77344H39.4563C39.1937 7.77344 38.9854 7.98602 38.9854 8.24384V23.7938C38.9854 24.0562 39.1981 24.2642 39.4563 24.2642H42.5945C45.5199 24.2642 47.3811 23.8617 48.4905 22.8485C49.4098 22.0479 49.9985 20.9172 49.9985 19.4789C49.9985 17.3803 48.6309 15.9193 46.7924 15.4263V15.4308ZM42.1462 10.5551C42.1462 10.2927 42.359 10.0847 42.6171 10.0847H43.5862C45.3297 10.0847 46.2535 10.7903 46.2535 12.206C46.2535 13.6217 45.2618 14.4675 43.541 14.4675H42.6217C42.359 14.4675 42.1507 14.2549 42.1507 13.9971V10.5551H42.1462ZM43.5862 21.9575H42.6171C42.3545 21.9575 42.1462 21.7449 42.1462 21.4871V17.2717C42.1462 17.0093 42.359 16.8013 42.6171 16.8013H43.4911C45.2844 16.8013 46.652 17.5793 46.652 19.393C46.652 21.2067 45.2844 21.962 43.5862 21.962V21.9575Z" fill="#9DA3AF"/>
<path d="M61.6048 12.7311C61.6048 12.4688 61.3918 12.2607 61.1339 12.2607H58.8922C58.6295 12.2607 58.4212 12.4733 58.4212 12.7311V18.9999C58.4212 20.5061 57.7602 21.9444 56.3697 21.9444C54.9792 21.9444 54.5312 20.7684 54.5312 19.2578V12.7311C54.5312 12.4688 54.3181 12.2607 54.0602 12.2607H51.8186C51.556 12.2607 51.3477 12.4733 51.3477 12.7311V19.6558C51.3477 23.0706 52.8556 24.5813 55.0022 24.5813C56.1748 24.5813 57.0035 23.9707 57.5605 23.0887C57.8098 22.6952 58.4212 22.8852 58.4212 23.351V23.8034C58.4212 24.0657 58.6338 24.2738 58.8922 24.2738H61.206C61.4735 24.2738 61.6908 24.0521 61.6769 23.7853C61.6406 22.9123 61.6048 21.7997 61.6048 20.7413V12.7311Z" fill="#9DA3AF"/>
<path d="M74.1308 7.23993C74.1308 6.97758 73.9177 6.76953 73.6598 6.76953H71.4182C71.1555 6.76953 70.9472 6.98212 70.9472 7.23993V13.355C70.9472 13.8344 70.3267 13.9972 70.0731 13.5947C69.3896 12.5092 68.4386 11.9528 67.338 11.9528C64.7883 11.9528 63.1174 14.4721 63.1399 18.0317C63.1399 22.3693 65.0056 24.581 67.4106 24.581C68.5336 24.581 69.4435 23.9206 70.0822 22.8939C70.331 22.4959 70.9472 22.6768 70.9472 23.1472V23.803C70.9472 24.0654 71.1597 24.2734 71.4182 24.2734H73.7276C73.9946 24.2734 74.212 24.0518 74.1986 23.7849C74.1623 22.9572 74.1308 21.8627 74.1308 20.8359V7.23993ZM70.9696 18.6695C70.9696 20.4832 69.9326 22.0165 68.7782 22.0165C67.243 22.0165 66.3507 20.5329 66.3507 18.1991C66.3507 16.1502 67.1298 14.5219 68.7098 14.5219C69.9599 14.5219 70.9744 16.0552 70.9744 17.7965V18.6695H70.9696Z" fill="#9DA3AF"/>
<path d="M86.6781 7.23993C86.6781 6.97758 86.4656 6.76953 86.2071 6.76953H83.9655C83.7028 6.76953 83.4945 6.98212 83.4945 7.23993V13.355C83.4945 13.8344 82.8746 13.9972 82.6209 13.5947C81.9369 12.5092 80.9859 11.9528 79.8853 11.9528C77.3361 11.9528 75.6653 14.4721 75.6877 18.0317C75.6877 22.3693 77.5535 24.581 79.958 24.581C81.0809 24.581 81.9914 23.9206 82.63 22.8939C82.8788 22.4959 83.4945 22.6768 83.4945 23.1472V23.803C83.4945 24.0654 83.7076 24.2734 83.9655 24.2734H86.275C86.5425 24.2734 86.7598 24.0518 86.7459 23.7849C86.7102 22.9572 86.6781 21.8627 86.6781 20.8359V7.23993ZM83.5175 18.6695C83.5175 20.4832 82.4805 22.0165 81.3255 22.0165C79.7903 22.0165 78.8985 20.5329 78.8985 18.1991C78.8985 16.1502 79.6771 14.5219 81.2577 14.5219C82.5077 14.5219 83.5218 16.0552 83.5218 17.7965V18.6695H83.5175Z" fill="#9DA3AF"/>
<path d="M104.571 18.383V23.512C104.571 23.7246 104.399 23.8965 104.186 23.8965C103.973 23.8965 103.801 23.7246 103.801 23.512V21.531C103.801 21.3184 103.629 21.1465 103.416 21.1465H101.763C101.55 21.1465 101.378 21.3184 101.378 21.531V23.512C101.378 23.7246 101.206 23.8965 100.993 23.8965C100.78 23.8965 100.608 23.7246 100.608 23.512V18.383C100.608 18.1704 100.78 17.9985 100.993 17.9985C101.206 17.9985 101.378 18.1704 101.378 18.383V20.0927C101.378 20.3053 101.55 20.4771 101.763 20.4771H103.416C103.629 20.4771 103.801 20.3053 103.801 20.0927V18.383C103.801 18.1704 103.973 17.9985 104.186 17.9985C104.399 17.9985 104.571 18.1704 104.571 18.383Z" fill="#9DA3AF"/>
<path d="M108.891 23.4877L109.861 24.0079L109.698 24.2702C109.589 24.4421 109.367 24.5009 109.19 24.4059L108.384 23.9672C108.298 23.9219 108.199 23.9129 108.108 23.9355C107.949 23.9717 107.777 23.9853 107.606 23.9853C106.206 23.9853 105.26 22.8138 105.26 20.9684C105.26 19.1231 106.238 17.8838 107.646 17.8838C109.055 17.8838 109.996 19.0643 109.996 20.9006C109.996 22.054 109.539 22.9993 108.891 23.4289V23.4787V23.4877ZM107.207 23.2797C107.374 23.3385 107.564 23.2661 107.66 23.1123L107.787 22.8997L108.226 23.144H108.303C108.891 22.7821 109.186 21.9047 109.186 20.9277C109.186 19.7246 108.688 18.5351 107.633 18.5351C106.578 18.5351 106.066 19.6975 106.066 20.9684C106.066 22.0132 106.455 23.0083 107.207 23.2752V23.2797Z" fill="#9DA3AF"/>
<path d="M98.4343 12.2417H96.1297C95.9123 12.2417 95.7223 12.3909 95.6721 12.6035L93.9697 19.4965C93.888 19.8267 93.4213 19.8357 93.3311 19.5055C92.7106 17.217 91.4472 12.5854 91.4472 12.5854C91.3885 12.3819 91.2026 12.2417 90.9944 12.2417H88.5354C88.2091 12.2417 87.9785 12.5674 88.0917 12.8749L92.1398 24.716C92.2444 25.0236 92.3032 25.3538 92.2621 25.6749C92.2215 25.996 92.1083 26.2946 91.8728 26.5026C91.3249 26.982 89.9846 26.7514 89.3006 26.8644C89.0064 26.9096 89.0016 27.0227 88.9791 27.3484C88.9567 27.6288 88.9567 29.0355 89.047 29.1938C89.8122 29.352 90.7135 29.2073 91.4696 29.0716C92.1398 28.9495 92.8553 28.7641 93.4304 28.3706C94.1054 27.9138 94.2864 27.3031 94.5219 26.5659C95.0158 25.0236 95.5049 23.4858 95.9983 21.9435C96.5958 20.0709 97.1939 18.1939 97.7914 16.3214C98.1492 15.2042 98.5027 14.0916 98.8605 12.9744L98.8962 12.8659C98.9961 12.5628 98.7697 12.2462 98.4482 12.2462L98.4343 12.2417Z" fill="#9DA3AF"/>
</g>
<defs>
<clipPath id="clip0_408_2026">
<rect width="110" height="32" fill="white"/>
</clipPath>
</defs>
</svg>
