<svg width="120" height="32" viewBox="0 0 120 32" fill="none" xmlns="http://www.w3.org/2000/svg">
<path d="M3.12163 29.4367L4.29119 23.5601H2L2.16298 22.7261H7.71362L7.54106 23.5601H5.24985L4.0707 29.4367H3.12163ZM12.1226 25.6213H15.5737L15.4107 26.4361H11.9596L12.1226 25.6213ZM11.6049 28.6027H15.5258L15.3628 29.4367H10.4833L11.8254 22.7261H16.5611L16.3982 23.5601H12.6115L11.6049 28.6027ZM23.2424 29.5134C22.565 29.5134 21.9866 29.3952 21.5073 29.1587C21.0343 28.9222 20.67 28.5931 20.4144 28.1713C20.1651 27.7431 20.0405 27.2478 20.0405 26.6854C20.0405 26.1293 20.1364 25.6085 20.3281 25.1228C20.5199 24.6307 20.7947 24.1993 21.1526 23.8286C21.5169 23.4579 21.9483 23.1703 22.4467 22.9658C22.9516 22.7549 23.5204 22.6494 24.1531 22.6494C24.7092 22.6494 25.2013 22.7389 25.6295 22.9179C26.0577 23.0968 26.3868 23.3557 26.6169 23.6944L25.9267 24.2888C25.7286 24.0331 25.4761 23.8381 25.1694 23.704C24.8626 23.5697 24.5015 23.5026 24.0861 23.5026C23.6067 23.5026 23.1753 23.5857 22.7919 23.7519C22.4148 23.9117 22.092 24.1385 21.8236 24.4325C21.5552 24.7201 21.3507 25.0525 21.2101 25.4296C21.0695 25.8066 20.9992 26.2061 20.9992 26.6279C20.9992 27.0305 21.0855 27.3852 21.258 27.692C21.437 27.9924 21.6958 28.2288 22.0345 28.4013C22.3796 28.5739 22.8047 28.6602 23.3095 28.6602C23.7186 28.6602 24.0924 28.5931 24.4311 28.4589C24.7763 28.3247 25.0799 28.1265 25.3419 27.8645L25.8979 28.4973C25.5911 28.836 25.2077 29.0916 24.7475 29.2641C24.2874 29.4303 23.7857 29.5134 23.2424 29.5134ZM36.1139 22.7261H37.0725L35.7304 29.4367H34.7718L36.1139 22.7261ZM30.9179 29.4367H29.9593L31.3015 22.7261H32.2601L30.9179 29.4367ZM35.462 26.4457H31.4356L31.5986 25.6117H35.625L35.462 26.4457ZM40.8067 29.4367L42.1488 22.7261H42.9349L46.156 28.2672L45.8684 28.2288L46.9613 22.7261H47.9199L46.5779 29.4367H45.7917L42.5707 23.8957L42.8583 23.9341L41.7654 29.4367H40.8067ZM54.8848 29.5134C54.2201 29.5134 53.6513 29.3952 53.1784 29.1587C52.7055 28.9222 52.3443 28.5931 52.0951 28.1713C51.8523 27.7431 51.7308 27.2478 51.7308 26.6854C51.7308 26.1293 51.8267 25.6085 52.0184 25.1228C52.2102 24.6307 52.485 24.1993 52.8429 23.8286C53.2007 23.4579 53.629 23.1703 54.1275 22.9658C54.6259 22.7549 55.1851 22.6494 55.8051 22.6494C56.4762 22.6494 57.0482 22.7677 57.5211 23.0041C57.994 23.2406 58.3519 23.5729 58.5948 24.0012C58.844 24.4229 58.9687 24.9151 58.9687 25.4775C58.9687 26.0335 58.8728 26.5576 58.6811 27.0497C58.4893 27.5354 58.2145 27.9636 57.8567 28.3343C57.4987 28.7049 57.0673 28.9957 56.5624 29.2066C56.0639 29.4112 55.5047 29.5134 54.8848 29.5134ZM54.9711 28.6602C55.4312 28.6602 55.8499 28.5803 56.2269 28.4205C56.604 28.2544 56.9235 28.0275 57.1855 27.7399C57.4476 27.4459 57.6489 27.1104 57.7895 26.7333C57.9301 26.3562 58.0004 25.9568 58.0004 25.535C58.0004 25.1324 57.9142 24.7809 57.7416 24.4805C57.5691 24.1737 57.3134 23.9341 56.9747 23.7615C56.6359 23.5889 56.2205 23.5026 55.7284 23.5026C55.2619 23.5026 54.84 23.5857 54.463 23.7519C54.0924 23.9117 53.7727 24.1385 53.5043 24.4325C53.2423 24.7201 53.041 25.0525 52.9004 25.4296C52.7598 25.8066 52.6895 26.2061 52.6895 26.6279C52.6895 27.0305 52.7758 27.3852 52.9483 27.692C53.1273 27.9924 53.3829 28.2288 53.7152 28.4013C54.0539 28.5739 54.4726 28.6602 54.9711 28.6602ZM62.7731 29.4367L64.1151 22.7261H65.0738L63.8947 28.6027H67.5375L67.3746 29.4367H62.7731ZM74.6417 29.5134C73.9771 29.5134 73.4083 29.3952 72.9353 29.1587C72.4623 28.9222 72.1013 28.5931 71.852 28.1713C71.6091 27.7431 71.4877 27.2478 71.4877 26.6854C71.4877 26.1293 71.5836 25.6085 71.7753 25.1228C71.9671 24.6307 72.2419 24.1993 72.5998 23.8286C72.9577 23.4579 73.3859 23.1703 73.8843 22.9658C74.3829 22.7549 74.9421 22.6494 75.562 22.6494C76.2331 22.6494 76.8051 22.7677 77.278 23.0041C77.7509 23.2406 78.1088 23.5729 78.3517 24.0012C78.601 24.4229 78.7255 24.9151 78.7255 25.4775C78.7255 26.0335 78.6297 26.5576 78.438 27.0497C78.2463 27.5354 77.9715 27.9636 77.6135 28.3343C77.2556 28.7049 76.8243 28.9957 76.3194 29.2066C75.8208 29.4112 75.2616 29.5134 74.6417 29.5134ZM74.728 28.6602C75.1881 28.6602 75.6067 28.5803 75.9838 28.4205C76.3609 28.2544 76.6804 28.0275 76.9425 27.7399C77.2045 27.4459 77.4059 27.1104 77.5464 26.7333C77.6871 26.3562 77.7573 25.9568 77.7573 25.535C77.7573 25.1324 77.6711 24.7809 77.4985 24.4805C77.3259 24.1737 77.0703 23.9341 76.7315 23.7615C76.3928 23.5889 75.9775 23.5026 75.4853 23.5026C75.0187 23.5026 74.597 23.5857 74.2199 23.7519C73.8492 23.9117 73.5296 24.1385 73.2612 24.4325C72.9992 24.7201 72.7979 25.0525 72.6573 25.4296C72.5167 25.8066 72.4463 26.2061 72.4463 26.6279C72.4463 27.0305 72.5327 27.3852 72.7052 27.692C72.8842 27.9924 73.1398 28.2288 73.4722 28.4013C73.8109 28.5739 74.2295 28.6602 74.728 28.6602ZM85.8089 29.5134C85.1441 29.5134 84.5721 29.3952 84.0929 29.1587C83.6193 28.9222 83.2521 28.5931 82.9897 28.1713C82.7345 27.7431 82.6065 27.2478 82.6065 26.6854C82.6065 26.1293 82.7025 25.6085 82.8945 25.1228C83.0857 24.6307 83.3609 24.1993 83.7185 23.8286C84.0833 23.4579 84.5177 23.1703 85.0225 22.9658C85.5337 22.7549 86.1057 22.6494 86.7385 22.6494C87.3265 22.6494 87.8377 22.7389 88.2721 22.9179C88.7129 23.0968 89.0649 23.3525 89.3265 23.6848L88.6369 24.2696C88.4129 24.0075 88.1377 23.8158 87.8121 23.6944C87.4929 23.5665 87.1217 23.5026 86.7001 23.5026C86.2209 23.5026 85.7897 23.5857 85.4057 23.7519C85.0225 23.9117 84.6929 24.1353 84.4185 24.4229C84.1433 24.7041 83.9329 25.0365 83.7857 25.42C83.6385 25.797 83.5649 26.1997 83.5649 26.6279C83.5649 27.0305 83.6513 27.3852 83.8241 27.692C84.0033 27.9924 84.2649 28.2288 84.6105 28.4013C84.9617 28.5739 85.3961 28.6602 85.9137 28.6602C86.2913 28.6602 86.6393 28.5963 86.9593 28.4685C87.2849 28.3406 87.5913 28.1553 87.8793 27.9125L88.2529 28.6794C87.9273 28.9414 87.5497 29.1459 87.1217 29.2929C86.7001 29.4399 86.2625 29.5134 85.8089 29.5134ZM87.3713 28.5356L87.8601 26.0431H88.7801L88.2529 28.6794L87.3713 28.5356ZM93.0025 29.4367L94.3449 22.7261H95.3033L93.9617 29.4367H93.0025ZM100.678 25.6213H104.129L103.966 26.4361H100.515L100.678 25.6213ZM100.16 28.6027H104.081L103.918 29.4367H99.0385L100.38 22.7261H105.116L104.953 23.5601H101.167L100.16 28.6027ZM110.599 29.5134C110.26 29.5134 109.928 29.4783 109.602 29.408C109.283 29.3313 108.988 29.2322 108.72 29.1108C108.458 28.9893 108.247 28.852 108.087 28.6985L108.509 27.9317C108.682 28.085 108.883 28.2193 109.113 28.3343C109.35 28.4493 109.599 28.5388 109.861 28.6027C110.129 28.6666 110.404 28.6985 110.685 28.6985C111.043 28.6985 111.359 28.6538 111.635 28.5644C111.909 28.4749 112.12 28.347 112.267 28.1809C112.42 28.0083 112.497 27.8006 112.497 27.5577C112.497 27.3597 112.433 27.1967 112.306 27.0689C112.178 26.941 112.011 26.8388 111.807 26.7621C111.609 26.679 111.385 26.6055 111.136 26.5416C110.893 26.4713 110.647 26.3946 110.398 26.3115C110.155 26.2221 109.931 26.1134 109.727 25.9856C109.528 25.8577 109.366 25.6948 109.238 25.4966C109.116 25.2921 109.055 25.0365 109.055 24.7297C109.055 24.3015 109.174 23.9341 109.411 23.6273C109.647 23.3141 109.973 23.0745 110.388 22.9083C110.81 22.7357 111.295 22.6494 111.845 22.6494C112.261 22.6494 112.657 22.6973 113.034 22.7933C113.411 22.8891 113.734 23.0297 114.003 23.215L113.619 24.0012C113.37 23.8222 113.088 23.688 112.775 23.5985C112.462 23.509 112.136 23.4643 111.797 23.4643C111.433 23.4643 111.117 23.5122 110.848 23.6081C110.58 23.704 110.372 23.8413 110.225 24.0203C110.078 24.1929 110.002 24.3974 109.995 24.6338C109.995 24.8384 110.055 25.0045 110.177 25.1324C110.299 25.2602 110.462 25.3657 110.666 25.4487C110.871 25.5318 111.095 25.6117 111.337 25.6884C111.587 25.7587 111.832 25.8353 112.075 25.9185C112.318 25.9952 112.542 26.0974 112.747 26.2253C112.957 26.3466 113.123 26.5033 113.245 26.6949C113.373 26.8867 113.437 27.1296 113.437 27.4236C113.437 27.8517 113.315 28.2256 113.072 28.5452C112.836 28.8583 112.503 29.098 112.075 29.2641C111.654 29.4303 111.162 29.5134 110.599 29.5134Z" fill="white"/>
<path d="M24.8659 8.22276H29.2691V10.4592H24.4045L24.8659 8.22276ZM23.5026 15.9081H20.7759L23.7123 1.67597H34.4304L33.9689 3.89212H25.9776L23.5026 15.9081Z" fill="#9370DB"/>
<path d="M41.9422 16.1114C40.46 16.1114 39.1945 15.8539 38.1458 15.3388C37.097 14.8238 36.293 14.1122 35.7337 13.204C35.1884 12.2823 34.9157 11.2251 34.9157 10.0323C34.9157 8.82593 35.1254 7.70769 35.5449 6.67755C35.9644 5.63386 36.5727 4.72572 37.3697 3.95312C38.1668 3.18051 39.1176 2.57734 40.2223 2.1436C41.3269 1.6963 42.5574 1.47266 43.9138 1.47266C45.382 1.47266 46.6405 1.73019 47.6892 2.24526C48.738 2.76033 49.542 3.47871 50.1013 4.40041C50.6606 5.30856 50.9403 6.35902 50.9403 7.55181C50.9403 8.75816 50.7236 9.88317 50.2901 10.9269C49.8706 11.957 49.2623 12.8584 48.4653 13.631C47.6683 14.4036 46.7174 15.0135 45.6127 15.4608C44.5221 15.8946 43.2985 16.1114 41.9422 16.1114ZM42.1729 13.7936C43.0958 13.7936 43.9278 13.6377 44.6689 13.326C45.41 13.0007 46.0392 12.5602 46.5566 12.0044C47.088 11.4352 47.4935 10.7845 47.7731 10.0526C48.0528 9.30711 48.1926 8.52773 48.1926 7.71447C48.1926 6.94186 48.0178 6.25737 47.6683 5.66097C47.3187 5.06458 46.8083 4.60373 46.1371 4.27842C45.4659 3.95311 44.6409 3.79046 43.6621 3.79046C42.7532 3.79046 41.9212 3.95311 41.1661 4.27842C40.425 4.59017 39.7888 5.03069 39.2574 5.59998C38.7401 6.15571 38.3415 6.80632 38.0619 7.55181C37.7962 8.28375 37.6634 9.05635 37.6634 9.86962C37.6634 10.6422 37.8312 11.3267 38.1668 11.9231C38.5163 12.5195 39.0267 12.9804 39.6979 13.3057C40.3691 13.631 41.1941 13.7936 42.1729 13.7936Z" fill="#9370DB"/>
<path d="M52.4038 15.9081L55.3402 1.67597H61.0453C62.8212 1.67597 64.1915 2.0555 65.1564 2.81454C66.1352 3.56004 66.6246 4.6105 66.6246 5.96595C66.6246 7.15873 66.3379 8.18887 65.7646 9.05635C65.2053 9.91028 64.4013 10.5744 63.3525 11.0489C62.3038 11.5097 61.0593 11.7401 59.619 11.7401H54.8368L56.2421 10.5406L55.1515 15.9081H52.4038ZM62.0521 15.9081L59.0527 10.7439H61.9472L64.9466 15.9081H62.0521ZM56.1792 10.8455L55.2563 9.56464H59.703C61.0313 9.56464 62.0591 9.28 62.7862 8.71072C63.5133 8.14143 63.8769 7.30783 63.8769 6.20993C63.8769 5.43732 63.6042 4.86126 63.0589 4.48174C62.5275 4.10221 61.7585 3.91245 60.7517 3.91245H56.4729L57.8991 2.5909L56.1792 10.8455Z" fill="#9370DB"/>
<path d="M72.1288 15.9081L74.6038 3.91245H69.7377L70.1991 1.67597H82.6371L82.1757 3.91245H77.3095L74.8555 15.9081H72.1288Z" fill="#9370DB"/>
<path d="M97.1214 1.67597H99.8271L96.8907 15.9081H94.1849L97.1214 1.67597ZM87.8029 9.80862L85.1201 9.76135L86.8019 1.67597H89.5286L87.8029 9.80862ZM95.6532 9.80862H87.8029L88.1023 7.55181H96.1356L95.6532 9.80862Z" fill="#9370DB"/>
<path d="M83.284 15.955C83.3184 15.3773 83.5191 14.5962 83.752 14.082C83.985 13.5677 84.307 13.1164 84.6964 12.7586C85.0858 12.4008 85.5335 12.1449 86.0089 12.0082C86.4844 11.8716 86.9766 11.8574 87.4522 11.9666L86.7324 15.9283L83.284 15.955Z" fill="#9370DB"/>
<path d="M11.1953 1.24707C12.6915 1.24707 13.9715 1.49057 15.0342 1.97852C16.0968 2.45286 16.9075 3.13084 17.4668 4.01172C18.0401 4.89276 18.3271 5.93026 18.3271 7.12305C18.3271 8.38337 18.1036 9.52862 17.6562 10.5586C17.2228 11.5887 16.6001 12.4702 15.7891 13.2021C14.9921 13.9204 14.0345 14.4831 12.916 14.8896C11.7975 15.2827 10.5528 15.4785 9.18262 15.4785H2.32324L4.4082 5.37207H7.13574L5.51172 13.2422H9.26562C10.5799 13.2422 11.7058 12.9847 12.6426 12.4697C13.5934 11.9411 14.3208 11.2296 14.8242 10.335C15.3276 9.44038 15.5791 8.42371 15.5791 7.28516C15.5791 6.51264 15.4042 5.8417 15.0547 5.27246C14.7052 4.7034 14.1813 4.26287 13.4824 3.95117C12.8693 3.6722 12.1157 3.51761 11.2227 3.48828V3.48145H4.79883L5.25977 1.24707H11.1953Z" fill="#9370DB"/>
<path d="M0.975564 1.24756L10.2434 1.24756V3.46985H0L0.975564 1.24756Z" fill="#9370DB"/>
<path d="M114.269 7.97806L106.328 0.280917C105.941 -0.0937015 105.315 -0.0937015 104.928 0.280917C104.542 0.655628 104.542 1.26322 104.928 1.63797L108.206 4.81535H101.902C101.574 4.81535 101.308 5.07313 101.308 5.39107C101.308 5.70901 101.574 5.9668 101.902 5.9668H109.394L111.179 7.56521H100.563H89.7701C89.2235 7.56521 88.7803 8.12671 88.7803 8.65661C88.7803 9.18651 89.2235 9.77184 89.7701 9.77184L111.179 9.61614L109.394 11.3464H104.928C104.6 11.3464 104.334 11.6042 104.334 11.9222C104.334 12.2401 104.6 12.4979 104.928 12.4979H108.206L104.928 15.6753C104.542 16.0501 104.542 16.6576 104.928 17.0324C105.122 17.2197 105.375 17.3134 105.628 17.3134C105.881 17.3134 106.135 17.2197 106.328 17.0324L114.269 9.33512C114.655 8.96041 114.655 8.35282 114.269 7.97806Z" fill="#9370DB"/>
<path d="M119.71 8.03345L113.341 1.86007C112.955 1.48545 112.328 1.48545 111.941 1.86007C111.555 2.23478 111.555 2.84237 111.941 3.21712L117.61 8.71201L111.941 14.207C111.555 14.5817 111.555 15.1893 111.941 15.564C112.135 15.7514 112.388 15.8451 112.641 15.8451C112.895 15.8451 113.148 15.7514 113.341 15.564L119.71 9.39051C120.097 9.0158 120.097 8.40821 119.71 8.03345Z" fill="#EA4EE3"/>
</svg>