<svg width="120" height="32" viewBox="0 0 120 32" fill="none" xmlns="http://www.w3.org/2000/svg">
<path d="M4.2686 29.7624L5.43816 23.8858H3.14697L3.30995 23.0518H8.8606L8.68804 23.8858H6.39682L5.21767 29.7624H4.2686ZM13.2696 25.9469H16.7207L16.5577 26.7618H13.1066L13.2696 25.9469ZM12.7519 28.9284H16.6728L16.5098 29.7624H11.6303L12.9724 23.0518H17.7081L17.5452 23.8858H13.7584L12.7519 28.9284ZM24.3894 29.8391C23.712 29.8391 23.1336 29.7209 22.6543 29.4844C22.1813 29.2479 21.817 28.9188 21.5614 28.4969C21.3121 28.0688 21.1875 27.5735 21.1875 27.0111C21.1875 26.455 21.2834 25.9341 21.4751 25.4485C21.6668 24.9564 21.9416 24.5249 22.2996 24.1543C22.6639 23.7836 23.0952 23.496 23.5937 23.2915C24.0986 23.0805 24.6674 22.9751 25.3001 22.9751C25.8562 22.9751 26.3483 23.0646 26.7764 23.2436C27.2047 23.4225 27.5338 23.6813 27.7639 24.0201L27.0736 24.6145C26.8756 24.3588 26.6231 24.1638 26.3164 24.0297C26.0096 23.8954 25.6484 23.8283 25.2331 23.8283C24.7537 23.8283 24.3223 23.9114 23.9388 24.0776C23.5618 24.2373 23.239 24.4642 22.9706 24.7582C22.7022 25.0458 22.4976 25.3781 22.3571 25.7553C22.2164 26.1323 22.1462 26.5317 22.1462 26.9536C22.1462 27.3561 22.2324 27.7109 22.405 28.0177C22.584 28.3181 22.8428 28.5545 23.1815 28.727C23.5266 28.8996 23.9516 28.9859 24.4565 28.9859C24.8656 28.9859 25.2394 28.9188 25.5781 28.7845C25.9232 28.6504 26.2268 28.4522 26.4888 28.1902L27.0449 28.8229C26.7381 29.1617 26.3547 29.4173 25.8945 29.5898C25.4344 29.756 24.9327 29.8391 24.3894 29.8391ZM37.2608 23.0518H38.2195L36.8774 29.7624H35.9188L37.2608 23.0518ZM32.0649 29.7624H31.1063L32.4484 23.0518H33.4071L32.0649 29.7624ZM36.609 26.7714H32.5826L32.7456 25.9373H36.772L36.609 26.7714ZM41.9537 29.7624L43.2958 23.0518H44.0819L47.303 28.5929L47.0154 28.5545L48.1083 23.0518H49.0669L47.7248 29.7624H46.9387L43.7176 24.2213L44.0052 24.2597L42.9124 29.7624H41.9537ZM56.0318 29.8391C55.3671 29.8391 54.7983 29.7209 54.3254 29.4844C53.8524 29.2479 53.4913 28.9188 53.2421 28.4969C52.9992 28.0688 52.8778 27.5735 52.8778 27.0111C52.8778 26.455 52.9736 25.9341 53.1654 25.4485C53.3572 24.9564 53.632 24.5249 53.9899 24.1543C54.3477 23.7836 54.776 23.496 55.2744 23.2915C55.7729 23.0805 56.3321 22.9751 56.9521 22.9751C57.6232 22.9751 58.1952 23.0933 58.668 23.3298C59.141 23.5663 59.4989 23.8986 59.7418 24.3269C59.991 24.7486 60.1156 25.2408 60.1156 25.8032C60.1156 26.3592 60.0198 26.8833 59.828 27.3753C59.6363 27.8611 59.3615 28.2893 59.0036 28.66C58.6457 29.0306 58.2143 29.3214 57.7094 29.5323C57.2109 29.7369 56.6517 29.8391 56.0318 29.8391ZM56.118 28.9859C56.5782 28.9859 56.9968 28.906 57.3739 28.7462C57.751 28.5801 58.0705 28.3532 58.3325 28.0656C58.5946 27.7716 58.7959 27.4361 58.9365 27.059C59.0771 26.6819 59.1474 26.2825 59.1474 25.8607C59.1474 25.4581 59.0612 25.1065 58.8886 24.8061C58.716 24.4994 58.4604 24.2597 58.1216 24.0872C57.7829 23.9146 57.3675 23.8283 56.8754 23.8283C56.4088 23.8283 55.987 23.9114 55.61 24.0776C55.2393 24.2373 54.9197 24.4642 54.6513 24.7582C54.3893 25.0458 54.188 25.3781 54.0474 25.7553C53.9068 26.1323 53.8364 26.5317 53.8364 26.9536C53.8364 27.3561 53.9228 27.7109 54.0953 28.0177C54.2743 28.3181 54.5299 28.5545 54.8622 28.727C55.2009 28.8996 55.6196 28.9859 56.118 28.9859ZM63.92 29.7624L65.2621 23.0518H66.2208L65.0416 28.9284H68.6845L68.5216 29.7624H63.92ZM75.7887 29.8391C75.124 29.8391 74.5552 29.7209 74.0823 29.4844C73.6093 29.2479 73.2483 28.9188 72.999 28.4969C72.7561 28.0688 72.6347 27.5735 72.6347 27.0111C72.6347 26.455 72.7306 25.9341 72.9223 25.4485C73.114 24.9564 73.3888 24.5249 73.7468 24.1543C74.1047 23.7836 74.5328 23.496 75.0313 23.2915C75.5299 23.0805 76.0891 22.9751 76.709 22.9751C77.38 22.9751 77.952 23.0933 78.425 23.3298C78.8979 23.5663 79.2558 23.8986 79.4987 24.3269C79.748 24.7486 79.8725 25.2408 79.8725 25.8032C79.8725 26.3592 79.7767 26.8833 79.5849 27.3753C79.3932 27.8611 79.1184 28.2893 78.7605 28.66C78.4026 29.0306 77.9712 29.3214 77.4664 29.5323C76.9678 29.7369 76.4086 29.8391 75.7887 29.8391ZM75.8749 28.9859C76.3351 28.9859 76.7537 28.906 77.1308 28.7462C77.5079 28.5801 77.8274 28.3532 78.0895 28.0656C78.3515 27.7716 78.5528 27.4361 78.6934 27.059C78.834 26.6819 78.9043 26.2825 78.9043 25.8607C78.9043 25.4581 78.818 25.1065 78.6455 24.8061C78.4729 24.4994 78.2172 24.2597 77.8785 24.0872C77.5398 23.9146 77.1244 23.8283 76.6323 23.8283C76.1657 23.8283 75.744 23.9114 75.3668 24.0776C74.9962 24.2373 74.6766 24.4642 74.4082 24.7582C74.1462 25.0458 73.9448 25.3781 73.8043 25.7553C73.6636 26.1323 73.5933 26.5317 73.5933 26.9536C73.5933 27.3561 73.6796 27.7109 73.8522 28.0177C74.0312 28.3181 74.2868 28.5545 74.6192 28.727C74.9579 28.8996 75.3764 28.9859 75.8749 28.9859ZM86.9559 29.8391C86.2911 29.8391 85.7191 29.7209 85.2399 29.4844C84.7663 29.2479 84.3991 28.9188 84.1367 28.4969C83.8815 28.0688 83.7535 27.5735 83.7535 27.0111C83.7535 26.455 83.8495 25.9341 84.0415 25.4485C84.2327 24.9564 84.5079 24.5249 84.8655 24.1543C85.2303 23.7836 85.6647 23.496 86.1695 23.2915C86.6807 23.0805 87.2527 22.9751 87.8855 22.9751C88.4735 22.9751 88.9847 23.0646 89.4191 23.2436C89.8599 23.4225 90.2119 23.6781 90.4735 24.0105L89.7839 24.5953C89.5599 24.3332 89.2847 24.1415 88.9591 24.0201C88.6399 23.8922 88.2687 23.8283 87.8471 23.8283C87.3679 23.8283 86.9367 23.9114 86.5527 24.0776C86.1695 24.2373 85.8399 24.461 85.5655 24.7486C85.2903 25.0298 85.0799 25.3621 84.9327 25.7457C84.7855 26.1227 84.7119 26.5253 84.7119 26.9536C84.7119 27.3561 84.7983 27.7109 84.9711 28.0177C85.1503 28.3181 85.4119 28.5545 85.7575 28.727C86.1087 28.8996 86.5431 28.9859 87.0607 28.9859C87.4383 28.9859 87.7863 28.922 88.1063 28.7941C88.4319 28.6663 88.7383 28.481 89.0263 28.2381L89.3999 29.0051C89.0743 29.2671 88.6967 29.4716 88.2687 29.6186C87.8471 29.7656 87.4095 29.8391 86.9559 29.8391ZM88.5183 28.8613L89.0071 26.3688H89.9271L89.3999 29.0051L88.5183 28.8613ZM94.1495 29.7624L95.4919 23.0518H96.4503L95.1087 29.7624H94.1495ZM101.825 25.9469H105.276L105.113 26.7618H101.661L101.825 25.9469ZM101.307 28.9284H105.228L105.065 29.7624H100.185L101.527 23.0518H106.263L106.1 23.8858H102.313L101.307 28.9284ZM111.746 29.8391C111.407 29.8391 111.075 29.804 110.749 29.7337C110.429 29.6569 110.135 29.5579 109.867 29.4365C109.605 29.315 109.394 29.1777 109.234 29.0242L109.656 28.2573C109.829 28.4107 110.03 28.5449 110.26 28.66C110.497 28.775 110.745 28.8645 111.008 28.9284C111.276 28.9923 111.551 29.0242 111.832 29.0242C112.19 29.0242 112.506 28.9795 112.781 28.8901C113.056 28.8005 113.267 28.6727 113.414 28.5065C113.567 28.334 113.644 28.1263 113.644 27.8834C113.644 27.6853 113.58 27.5224 113.453 27.3945C113.325 27.2667 113.158 27.1645 112.953 27.0877C112.756 27.0047 112.532 26.9312 112.283 26.8673C112.04 26.7969 111.793 26.7203 111.545 26.6372C111.301 26.5477 111.078 26.4391 110.873 26.3113C110.675 26.1834 110.513 26.0205 110.385 25.8223C110.263 25.6178 110.202 25.3621 110.202 25.0554C110.202 24.6272 110.321 24.2597 110.557 23.9529C110.793 23.6398 111.12 23.4001 111.535 23.234C111.957 23.0614 112.442 22.9751 112.992 22.9751C113.408 22.9751 113.804 23.023 114.181 23.1189C114.558 23.2148 114.881 23.3554 115.149 23.5407L114.765 24.3269C114.517 24.1479 114.235 24.0137 113.922 23.9242C113.609 23.8347 113.283 23.79 112.944 23.79C112.58 23.79 112.264 23.8379 111.995 23.9337C111.727 24.0297 111.519 24.167 111.372 24.346C111.225 24.5185 111.149 24.7231 111.142 24.9595C111.142 25.1641 111.202 25.3302 111.324 25.4581C111.445 25.5859 111.609 25.6913 111.813 25.7744C112.017 25.8575 112.241 25.9373 112.484 26.0141C112.733 26.0844 112.979 26.161 113.222 26.2441C113.465 26.3209 113.689 26.4231 113.893 26.5509C114.104 26.6723 114.27 26.8289 114.392 27.0206C114.52 27.2124 114.584 27.4553 114.584 27.7493C114.584 28.1774 114.462 28.5513 114.219 28.8709C113.983 29.184 113.65 29.4237 113.222 29.5898C112.801 29.756 112.309 29.8391 111.746 29.8391Z" fill="#9DA3AF"/>
<path d="M24.866 8.22268H29.2691V10.4592H24.4045L24.866 8.22268ZM23.5026 15.9081H20.7759L23.7124 1.67578H34.4304L33.9689 3.89197H25.9776L23.5026 15.9081Z" fill="#9DA3AF"/>
<path d="M41.942 16.1112C40.4598 16.1112 39.1943 15.8536 38.1456 15.3385C37.0969 14.8235 36.2929 14.1118 35.7335 13.2037C35.1882 12.282 34.9155 11.2247 34.9155 10.0319C34.9155 8.82558 35.1253 7.7073 35.5447 6.67714C35.9642 5.63344 36.5725 4.72528 37.3695 3.95266C38.1666 3.18005 39.1174 2.57687 40.2221 2.14312C41.3267 1.69582 42.5573 1.47217 43.9136 1.47217C45.3818 1.47217 46.6403 1.7297 47.689 2.24478C48.7378 2.75986 49.5418 3.47826 50.1011 4.39997C50.6605 5.30813 50.9402 6.35861 50.9402 7.55142C50.9402 8.75774 50.7234 9.88278 50.2899 10.9265C49.8704 11.9567 49.2622 12.8581 48.4651 13.6306C47.6681 14.4033 46.7172 15.0133 45.6126 15.4605C44.5219 15.8943 43.2984 16.1112 41.942 16.1112ZM42.1727 13.7933C43.0956 13.7933 43.9276 13.6374 44.6687 13.3257C45.4098 13.0004 46.039 12.5598 46.5564 12.0041C47.0878 11.4348 47.4933 10.7842 47.773 10.0522C48.0526 9.3067 48.1925 8.52734 48.1925 7.71407C48.1925 6.94146 48.0177 6.25695 47.6681 5.66054C47.3185 5.06414 46.8082 4.60329 46.137 4.27798C45.4658 3.95266 44.6407 3.79001 43.6619 3.79001C42.753 3.79001 41.921 3.95266 41.1659 4.27798C40.4249 4.58973 39.7886 5.03026 39.2573 5.59955C38.7399 6.15529 38.3414 6.80591 38.0617 7.55142C37.796 8.28334 37.6632 9.05598 37.6632 9.86926C37.6632 10.6419 37.831 11.3264 38.1666 11.9228C38.5162 12.5192 39.0266 12.9801 39.6978 13.3053C40.3689 13.6306 41.1939 13.7933 42.1727 13.7933Z" fill="#9DA3AF"/>
<path d="M52.4038 15.9081L55.3403 1.67578H61.0453C62.8212 1.67578 64.1916 2.05531 65.1564 2.81437C66.1352 3.55988 66.6246 4.61036 66.6246 5.96582C66.6246 7.15862 66.338 8.18876 65.7646 9.05628C65.2053 9.9102 64.4013 10.5744 63.3525 11.0488C62.3038 11.5096 61.0593 11.7401 59.6191 11.7401H54.8368L56.2421 10.5405L55.1515 15.9081H52.4038ZM62.0521 15.9081L59.0528 10.7438H61.9472L64.9466 15.9081H62.0521ZM56.1792 10.8455L55.2564 9.5646H59.703C61.0314 9.5646 62.0591 9.27996 62.7862 8.7106C63.5133 8.14132 63.8769 7.30773 63.8769 6.2098C63.8769 5.43719 63.6043 4.86112 63.0589 4.48159C62.5276 4.10206 61.7585 3.91229 60.7517 3.91229H56.4728L57.8992 2.59072L56.1792 10.8455Z" fill="#9DA3AF"/>
<path d="M72.1289 15.9081L74.604 3.91229H69.7378L70.1992 1.67578H82.637L82.1754 3.91229H77.3096L74.8556 15.9081H72.1289Z" fill="#9DA3AF"/>
<path d="M97.1217 1.67578H99.8273L96.8905 15.9081H94.1849L97.1217 1.67578ZM87.8033 9.80852L85.1201 9.76132L86.8017 1.67578H89.5289L87.8033 9.80852ZM95.6529 9.80852H87.8033L88.1025 7.55171H96.1353L95.6529 9.80852Z" fill="#9DA3AF"/>
<path d="M83.2842 15.9551C83.3186 15.3774 83.5194 14.5963 83.7522 14.082C83.985 13.5678 84.3074 13.1164 84.6962 12.7586C85.0858 12.4008 85.5338 12.1449 86.009 12.0083C86.4842 11.8716 86.977 11.8574 87.4522 11.9667L86.7322 15.9283L83.2842 15.9551Z" fill="#9DA3AF"/>
<path fill-rule="evenodd" clip-rule="evenodd" d="M4.40851 5.37208L2.32324 15.4789H9.18199C10.5523 15.4789 11.7968 15.2824 12.9154 14.8893C14.0341 14.4827 14.9919 13.9202 15.7889 13.2018C16.6 12.4698 17.2222 11.5887 17.6557 10.5586C18.1032 9.52841 18.3269 8.38305 18.3269 7.1225C18.3269 5.9297 18.0402 4.89277 17.4669 4.01172C16.9076 3.13067 16.0965 2.45294 15.0339 1.97853C13.9712 1.49056 12.6917 1.24658 11.1955 1.24658H5.25969L4.79874 3.48073H11.2225V3.48826C12.1155 3.51759 12.8686 3.67175 13.4817 3.95073C14.1809 4.26248 14.7053 4.70301 15.0549 5.2723C15.4044 5.84159 15.5792 6.51255 15.5792 7.28516C15.5792 8.42377 15.3275 9.44033 14.8241 10.335C14.3207 11.2295 13.5936 11.9411 12.6428 12.4698C11.7059 12.9849 10.5802 13.2424 9.26583 13.2424H5.51139L7.13521 5.37208H4.40851Z" fill="#9DA3AF"/>
<path d="M0.97556 1.24707H10.2434V3.4694H0L0.97556 1.24707Z" fill="#9DA3AF"/>
<path d="M114.269 7.97822L106.328 0.280968C105.941 -0.093656 105.315 -0.093656 104.928 0.280968C104.541 0.655685 104.541 1.26328 104.928 1.63805L108.206 4.81546H101.901C101.573 4.81546 101.307 5.07326 101.307 5.3912C101.307 5.70914 101.573 5.96694 101.901 5.96694H109.393L111.179 7.56537H100.563H89.7702C89.223 7.56537 88.7798 8.12685 88.7798 8.65677C88.7798 9.18669 89.223 9.77205 89.7702 9.77205L111.179 9.61637L109.393 11.3466H104.928C104.6 11.3466 104.334 11.6044 104.334 11.9224C104.334 12.2403 104.6 12.4981 104.928 12.4981H108.206L104.928 15.6756C104.541 16.0504 104.541 16.658 104.928 17.0327C105.121 17.22 105.374 17.3137 105.628 17.3137C105.881 17.3137 106.134 17.22 106.328 17.0327L114.269 9.33533C114.655 8.96061 114.655 8.35301 114.269 7.97822Z" fill="#9DA3AF"/>
<path d="M119.71 8.03356L113.341 1.86007C112.955 1.48545 112.328 1.48545 111.941 1.86007C111.555 2.23479 111.555 2.84239 111.941 3.21715L117.61 8.71212L111.941 14.2072C111.555 14.5819 111.555 15.1895 111.941 15.5643C112.135 15.7516 112.388 15.8452 112.641 15.8452C112.895 15.8452 113.148 15.7516 113.341 15.5643L119.71 9.3906C120.096 9.01588 120.096 8.40828 119.71 8.03356Z" fill="#9DA3AF"/>
</svg>
