<svg width="159" height="32" viewBox="0 0 159 32" fill="none" xmlns="http://www.w3.org/2000/svg">
<g clip-path="url(#clip0_408_1920)">
<path d="M6.21076 0L0 5.35273V13.6727L6.21076 9.83273V0Z" fill="#9DA3AF"/>
<path d="M12.4795 29.7889L18.6903 25.9489V16.1162L12.4795 19.9562V29.7889Z" fill="#9DA3AF"/>
<path d="M12.4796 0V9.3091L0 16.9891V24.4364L6.21076 29.7891V20.48L18.6903 12.7418V5.35273L12.4796 0Z" fill="#9DA3AF"/>
<path d="M40.4569 4.53809V6.69081H31.7502V13.4399H38.7736V15.5926H31.7502V24.6108H29.1382V4.53809H40.4569Z" fill="#9DA3AF"/>
<path d="M46.2033 3.31641V24.5527H43.5913V3.31641H46.2033Z" fill="#9DA3AF"/>
<path d="M53.517 23.8544C52.298 23.1563 51.3693 22.2253 50.7308 21.0035C50.0343 19.7817 49.686 18.3272 49.686 16.6981C49.686 15.069 50.0343 13.6726 50.7308 12.4508C51.4274 11.229 52.3561 10.2399 53.575 9.59993C54.7939 8.95993 56.129 8.61084 57.6381 8.61084C59.1473 8.61084 60.4823 8.95993 61.7012 9.59993C62.9202 10.2399 63.8489 11.229 64.5454 12.4508C65.2419 13.6726 65.5902 15.1272 65.5902 16.7563C65.5902 18.3853 65.2419 19.8399 64.4874 21.0617C63.7908 22.2835 62.8041 23.2726 61.5851 23.9126C60.3662 24.6108 59.0312 24.9017 57.522 24.9017C56.0129 24.9017 54.7359 24.5526 53.517 23.9126V23.8544ZM60.134 21.8763C60.9467 21.4108 61.6432 20.7708 62.1075 19.8981C62.6299 19.0253 62.8621 17.9199 62.8621 16.6981C62.8621 15.4763 62.6299 14.3708 62.1075 13.4981C61.5851 12.6253 60.9467 11.9853 60.134 11.5199C59.3214 11.0544 58.4507 10.8799 57.522 10.8799C56.5933 10.8799 55.6646 11.1126 54.91 11.5199C54.0974 11.9272 53.4589 12.6253 52.9946 13.4981C52.5302 14.3708 52.298 15.4763 52.298 16.6981C52.298 17.9199 52.5302 19.0835 52.9946 19.9563C53.4589 20.829 54.0974 21.469 54.852 21.9344C55.6646 22.3417 56.4772 22.5744 57.4059 22.5744C58.3347 22.5744 59.2053 22.3417 60.0179 21.9344L60.134 21.8763Z" fill="#9DA3AF"/>
<path d="M73.8908 9.48364C74.9356 8.90182 76.0965 8.55273 77.4315 8.55273C78.7665 8.55273 80.1015 8.90182 81.2044 9.54182C82.3653 10.24 83.2359 11.1709 83.8744 12.3927C84.5129 13.6145 84.8612 15.0109 84.8612 16.64C84.8612 18.2691 84.5129 19.6654 83.8744 20.8873C83.2359 22.1091 82.3072 23.0982 81.2044 23.7964C80.0435 24.4945 78.8245 24.8436 77.4315 24.8436C76.0384 24.8436 74.9356 24.5527 73.8908 23.9127C72.846 23.3309 72.0914 22.5745 71.569 21.6436V32H68.957V8.84364H71.569V11.7527C72.0914 10.88 72.846 10.1236 73.8908 9.48364ZM81.5526 13.5564C81.0883 12.6836 80.4498 11.9854 79.6372 11.52C78.8245 11.0545 77.9539 10.8218 76.9671 10.8218C75.9804 10.8218 75.1097 11.0545 74.2971 11.52C73.4845 11.9854 72.846 12.6836 72.3236 13.5564C71.8592 14.4291 71.569 15.4764 71.569 16.64C71.569 17.8036 71.8012 18.8509 72.3236 19.7818C72.7879 20.6545 73.4845 21.3527 74.2971 21.8182C75.1097 22.2836 75.9804 22.5164 76.9671 22.5164C77.9539 22.5164 78.8245 22.2836 79.6372 21.8182C80.4498 21.3527 81.0883 20.6545 81.5526 19.7818C82.017 18.9091 82.2492 17.8618 82.2492 16.64C82.2492 15.4182 82.017 14.4291 81.5526 13.5564Z" fill="#9DA3AF"/>
<path d="M109.182 4.42188V24.611H104.306V16.291H96.702V24.611H91.8262V4.42188H96.702V12.3346H104.306V4.42188H109.182Z" fill="#9DA3AF"/>
<path d="M127.698 17.7457H116.611C116.669 18.7348 117.018 19.4911 117.598 20.0148C118.179 20.5384 118.875 20.8293 119.688 20.8293C120.907 20.8293 121.777 20.3057 122.242 19.2584H127.466C127.175 20.3057 126.711 21.2366 126.015 22.1093C125.318 22.9238 124.447 23.622 123.403 24.0875C122.358 24.5529 121.197 24.7857 119.862 24.7857C118.527 24.7857 116.902 24.4366 115.683 23.7966C114.464 23.0984 113.477 22.1675 112.838 20.9457C112.142 19.7238 111.794 18.2693 111.794 16.582C111.794 14.8948 112.142 13.4402 112.838 12.2184C113.535 10.9966 114.464 10.0075 115.683 9.36751C116.902 8.66933 118.295 8.37842 119.92 8.37842C121.545 8.37842 122.822 8.72751 124.041 9.36751C125.26 10.0075 126.189 10.9384 126.885 12.1602C127.582 13.382 127.93 14.7784 127.93 16.4075C127.93 18.0366 127.93 17.3384 127.872 17.862L127.698 17.7457ZM122.822 15.0111C122.822 14.1966 122.532 13.4984 121.951 12.9748C121.371 12.4511 120.674 12.2184 119.804 12.2184C118.933 12.2184 118.295 12.4511 117.714 12.9166C117.134 13.382 116.786 14.0802 116.669 14.9529H122.822V15.0111Z" fill="#9DA3AF"/>
<path d="M145.692 23.7962C144.415 23.098 143.428 22.1671 142.731 20.9453C142.035 19.7234 141.628 18.2689 141.628 16.5816C141.628 14.8944 141.977 13.498 142.731 12.218C143.486 10.938 144.473 10.0071 145.692 9.30891C146.969 8.61073 148.362 8.31982 149.929 8.31982C151.496 8.31982 152.889 8.66891 154.166 9.30891C155.443 10.0071 156.43 10.938 157.126 12.218C157.881 13.498 158.229 14.9525 158.229 16.5816C158.229 18.2107 157.881 19.6653 157.126 20.9453C156.372 22.2253 155.385 23.1562 154.108 23.8544C152.831 24.5525 151.438 24.8434 149.871 24.8434C148.304 24.8434 146.91 24.4944 145.633 23.8544L145.692 23.7962ZM152.309 19.5489C152.947 18.8507 153.295 17.8616 153.295 16.5816C153.295 15.3016 152.947 14.3125 152.309 13.6144C151.67 12.9162 150.857 12.5671 149.929 12.5671C149 12.5671 148.187 12.9162 147.549 13.6144C146.91 14.3125 146.62 15.3016 146.62 16.5816C146.62 17.8616 146.91 18.8507 147.549 19.5489C148.187 20.2471 148.942 20.5962 149.871 20.5962C150.799 20.5962 151.612 20.2471 152.251 19.5489H152.309Z" fill="#9DA3AF"/>
<path d="M130.368 16.9893V24.6111H134.257L130.368 16.9893Z" fill="#9DA3AF"/>
<path d="M137.449 9.13478C136.579 9.65842 135.882 10.3566 135.302 11.2293V8.55296H130.426V14.8948L135.302 24.5529V17.1638C135.302 15.8257 135.592 14.8948 136.23 14.3711C136.869 13.8475 137.74 13.5566 138.959 13.5566H140.294V8.37842C139.249 8.37842 138.262 8.61115 137.449 9.13478Z" fill="#9DA3AF"/>
</g>
<defs>
<clipPath id="clip0_408_1920">
<rect width="159" height="32" fill="white"/>
</clipPath>
</defs>
</svg>
