    <svg xmlns="http://www.w3.org/2000/svg" width="158" height="32" viewBox="0 0 158 32" fill="none">
  <g clip-path="url(#clip0_408_2089)">
    <path d="M6.19949 0L0 5.34301V13.6479L6.19949 9.81488V0Z" fill="#FFCC00"/>
    <path d="M12.457 29.7348L18.6565 25.9018V16.0869L12.457 19.9199V29.7348Z" fill="#FFCC00"/>
    <path d="M12.4569 0V9.2922L0 16.9583V24.392L6.19949 29.735V20.4428L18.6564 12.7187V5.34301L12.4569 0Z" fill="#FFCC00"/>
    <path d="M40.3836 4.52979V6.67861H31.6927V13.4154H38.7033V15.5643H31.6927V24.5661H29.0854V4.52979H40.3836Z" fill="white"/>
    <path d="M46.1195 3.31055V24.5084H43.5122V3.31055H46.1195Z" fill="white"/>
    <path d="M53.4197 23.8112C52.203 23.1143 51.2759 22.1851 50.6386 20.9655C49.9433 19.7458 49.5957 18.2939 49.5957 16.6678C49.5957 15.0417 49.9433 13.6478 50.6386 12.4282C51.3339 11.2086 52.2609 10.2213 53.4776 9.58251C54.6943 8.94367 56.0269 8.59521 57.5334 8.59521C59.0398 8.59521 60.3724 8.94367 61.5891 9.58251C62.8058 10.2213 63.7328 11.2086 64.4281 12.4282C65.1234 13.6478 65.471 15.0998 65.471 16.7259C65.471 18.352 65.1234 19.8039 64.3702 21.0235C63.6749 22.2431 62.6899 23.2304 61.4732 23.8693C60.2565 24.5662 58.9239 24.8566 57.4175 24.8566C55.9111 24.8566 54.6364 24.5081 53.4197 23.8693V23.8112ZM60.0247 21.8366C60.8359 21.372 61.5312 20.7331 61.9947 19.862C62.5161 18.9909 62.7479 17.8874 62.7479 16.6678C62.7479 15.4482 62.5161 14.3448 61.9947 13.4736C61.4732 12.6025 60.8359 11.9636 60.0247 11.499C59.2136 11.0344 58.3445 10.8602 57.4175 10.8602C56.4905 10.8602 55.5634 11.0925 54.8102 11.499C53.9991 11.9056 53.3617 12.6025 52.8982 13.4736C52.4347 14.3448 52.203 15.4482 52.203 16.6678C52.203 17.8874 52.4347 19.0489 52.8982 19.9201C53.3617 20.7912 53.9991 21.4301 54.7523 21.8947C55.5634 22.3012 56.3746 22.5335 57.3016 22.5335C58.2286 22.5335 59.0977 22.3012 59.9089 21.8947L60.0247 21.8366Z" fill="white"/>
    <path d="M73.7564 9.46633C74.7993 8.88557 75.958 8.53711 77.2906 8.53711C78.6233 8.53711 79.9558 8.88557 81.0567 9.52441C82.2155 10.2213 83.0846 11.1505 83.7219 12.3701C84.3592 13.5897 84.7069 14.9836 84.7069 16.6097C84.7069 18.2358 84.3592 19.6297 83.7219 20.8493C83.0846 22.0689 82.1575 23.0562 81.0567 23.7531C79.8979 24.45 78.6812 24.7985 77.2906 24.7985C75.9001 24.7985 74.7993 24.5081 73.7564 23.8692C72.7135 23.2885 71.9603 22.5335 71.4388 21.6043V31.9418H68.8315V8.82749H71.4388V11.7313C71.9603 10.8602 72.7135 10.1052 73.7564 9.46633ZM81.4043 13.5317C80.9408 12.6605 80.3035 11.9636 79.4923 11.499C78.6812 11.0344 77.8121 10.8021 76.8271 10.8021C75.8422 10.8021 74.9731 11.0344 74.1619 11.499C73.3508 11.9636 72.7135 12.6605 72.192 13.5317C71.7285 14.4028 71.4388 15.4482 71.4388 16.6097C71.4388 17.7712 71.6706 18.8166 72.192 19.7458C72.6555 20.617 73.3508 21.3139 74.1619 21.7785C74.9731 22.2431 75.8422 22.4754 76.8271 22.4754C77.8121 22.4754 78.6812 22.2431 79.4923 21.7785C80.3035 21.3139 80.9408 20.617 81.4043 19.7458C81.8678 18.8747 82.0996 17.8293 82.0996 16.6097C82.0996 15.3901 81.8678 14.4028 81.4043 13.5317Z" fill="white"/>
    <path d="M108.983 4.41357V24.566H104.117V16.2611H96.5266V24.566H91.6597V4.41357H96.5266V12.3119H104.117V4.41357H108.983Z" fill="#FFCC00"/>
    <path d="M127.466 17.7131H116.4C116.458 18.7004 116.805 19.4554 117.385 19.978C117.964 20.5007 118.659 20.7911 119.471 20.7911C120.687 20.7911 121.556 20.2684 122.02 19.223H127.234C126.945 20.2684 126.481 21.1976 125.786 22.0688C125.091 22.8819 124.222 23.5788 123.179 24.0434C122.136 24.508 120.977 24.7403 119.644 24.7403C118.312 24.7403 116.689 24.3918 115.473 23.753C114.256 23.0561 113.271 22.1269 112.634 20.9073C111.938 19.6877 111.591 18.2358 111.591 16.5515C111.591 14.8673 111.938 13.4154 112.634 12.1958C113.329 10.9762 114.256 9.98893 115.473 9.35009C116.689 8.65317 118.08 8.36279 119.702 8.36279C121.325 8.36279 122.599 8.71125 123.816 9.35009C125.033 9.98893 125.96 10.9181 126.655 12.1377C127.35 13.3573 127.698 14.7512 127.698 16.3773C127.698 18.0034 127.698 17.3065 127.64 17.8292L127.466 17.7131ZM122.599 14.9835C122.599 14.1704 122.31 13.4735 121.73 12.9508C121.151 12.4281 120.455 12.1958 119.586 12.1958C118.717 12.1958 118.08 12.4281 117.501 12.8927C116.921 13.3573 116.574 14.0543 116.458 14.9254H122.599V14.9835Z" fill="#FFCC00"/>
    <path d="M145.427 23.753C144.153 23.0561 143.168 22.1268 142.472 20.9072C141.777 19.6876 141.372 18.2357 141.372 16.5515C141.372 14.8673 141.719 13.4735 142.472 12.1958C143.226 10.9181 144.211 9.9889 145.427 9.29198C146.702 8.59507 148.093 8.30469 149.657 8.30469C151.221 8.30469 152.612 8.65314 153.886 9.29198C155.161 9.9889 156.146 10.9181 156.841 12.1958C157.595 13.4735 157.942 14.9254 157.942 16.5515C157.942 18.1776 157.595 19.6296 156.841 20.9072C156.088 22.1849 155.103 23.1141 153.828 23.811C152.554 24.508 151.163 24.7983 149.599 24.7983C148.035 24.7983 146.644 24.4499 145.369 23.811L145.427 23.753ZM152.032 19.5134C152.67 18.8165 153.017 17.8292 153.017 16.5515C153.017 15.2738 152.67 14.2865 152.032 13.5896C151.395 12.8927 150.584 12.5443 149.657 12.5443C148.73 12.5443 147.919 12.8927 147.281 13.5896C146.644 14.2865 146.354 15.2738 146.354 16.5515C146.354 17.8292 146.644 18.8165 147.281 19.5134C147.919 20.2103 148.672 20.5588 149.599 20.5588C150.526 20.5588 151.337 20.2103 151.974 19.5134H152.032Z" fill="#FFCC00"/>
    <path d="M130.131 16.9585V24.5665H134.013L130.131 16.9585Z" fill="#FFCC00"/>
    <path d="M137.2 9.11778C136.331 9.64047 135.636 10.3374 135.056 11.2085V8.53702H130.189V14.8673L135.056 24.508V17.1323C135.056 15.7966 135.346 14.8673 135.983 14.3446C136.621 13.822 137.49 13.5316 138.707 13.5316H140.039V8.36279C138.996 8.36279 138.011 8.5951 137.2 9.11778Z" fill="#FFCC00"/>
  </g>
  <defs>
    <clipPath id="clip0_408_2089">
      <rect width="158" height="32" fill="white"/>
    </clipPath>
  </defs>
</svg>