<svg width="162" height="32" viewBox="0 0 162 32" fill="none" xmlns="http://www.w3.org/2000/svg">
<mask id="mask0_408_1871" style="mask-type:luminance" maskUnits="userSpaceOnUse" x="0" y="0" width="33" height="32">
<path d="M32.616 0H0.672363V32H32.616V0Z" fill="white"/>
</mask>
<g mask="url(#mask0_408_1871)">
<path d="M16.6444 0.444336H1.11621V9.77767L2.41787 10.0189C5.18436 10.5315 7.74826 11.5524 10.0207 12.9746C14.0335 10.0682 16.6444 5.78393 16.6444 0.444336Z" fill="#9DA3AF"/>
<path d="M0.672363 32H16.6442C16.6442 23.1634 9.49339 16 0.672363 16V32Z" fill="#9DA3AF"/>
<path d="M2.41787 10.019C12.7831 11.9397 20.3046 20.996 20.3046 31.5556H22.9848C23.2856 24.8147 27.2841 19.7778 32.1726 19.7778V19.5556C27.8832 19.5556 24.1253 21.7786 22.0403 25.2234C19.3343 16.2686 11.0053 9.92981 1.11621 9.77783L2.41787 10.019Z" fill="#9DA3AF"/>
<path fill-rule="evenodd" clip-rule="evenodd" d="M32.1724 0.444445H1.11603V31.5555H32.1724V0.444445ZM0.672363 0V32H32.6161V0H0.672363Z" fill="#9DA3AF"/>
</g>
<path d="M146.193 6.7041H145.323V25.0934H146.959V12.026L146.912 10.0357C147.198 10.3801 147.589 10.8364 148.085 11.4031L160.078 25.2428H160.947V6.85343H159.311V19.9681C159.311 20.7029 159.327 21.3799 159.361 21.999C158.983 21.5235 158.517 20.9563 157.963 20.2978L157.962 20.2966L146.193 6.7041Z" fill="#9DA3AF"/>
<path d="M133.268 6.729H132.276L124.613 25.0934H126.361L132.131 11.1445C132.315 10.7212 132.502 10.2234 132.696 9.65185L132.71 9.68567C132.856 10.0463 133.075 10.5422 133.364 11.1719L139.134 25.0934H140.957L133.268 6.729Z" fill="#9DA3AF"/>
<path d="M109.858 6.85352H108.033L115.901 25.2429H116.889L124.731 6.85352H122.981L116.961 21.1763C116.745 21.6894 116.569 22.1486 116.435 22.5533C116.299 22.1759 116.113 21.7002 115.879 21.1283L109.858 6.85352Z" fill="#9DA3AF"/>
<path d="M103.684 6.85352H102.048V25.0935H103.684V6.85352Z" fill="#9DA3AF"/>
<path d="M97.4186 6.85352H83.7573V8.3433H89.7698V25.0935H91.4061V8.3433H97.4186V6.85352Z" fill="#9DA3AF"/>
<path d="M79.1445 6.85352H77.5083V25.0935H79.1445V6.85352Z" fill="#9DA3AF"/>
<path d="M64.0853 6.75391C63.0179 6.75391 61.6952 6.81235 60.1186 6.92873L59.9131 6.94391V25.0934H61.5493V8.35418C62.4536 8.29703 63.249 8.26858 63.9362 8.26858C65.31 8.26858 66.3833 8.59213 67.1782 9.21676L67.1802 9.21825L67.182 9.21969C67.9768 9.8168 68.3852 10.7068 68.3852 11.929C68.3852 13.1364 67.9905 14.1966 67.1968 15.119C66.3812 16.0668 65.6591 16.4854 65.0294 16.4854C64.8035 16.4854 64.5741 16.4838 64.3411 16.4806L64.1161 16.4774V17.9079L64.3336 17.9122C64.7569 17.9203 65.1913 17.9247 65.637 17.9254C67.8636 20.9846 69.2674 22.8267 69.8372 23.4309L69.8382 23.4321L69.8394 23.4333C70.4341 24.046 71.0596 24.5111 71.7172 24.8231L71.7194 24.8242L71.7215 24.8252C72.3879 25.1238 73.2406 25.2757 74.2681 25.2925L74.4867 25.2962L74.5247 24.0769L74.3223 24.0532C73.1075 23.9109 72.0115 23.3273 71.0318 22.2822C70.7713 21.9884 70.1889 21.2654 69.2794 20.106C68.4487 19.0117 67.7399 18.0613 67.153 17.2546C67.8842 16.705 68.5455 15.9905 69.1384 15.1151C69.7918 14.1507 70.1208 13.1037 70.1208 11.9788C70.1208 10.3292 69.5514 9.03257 68.3973 8.12129C67.2573 7.20452 65.8141 6.75391 64.0853 6.75391Z" fill="#9DA3AF"/>
<path d="M44.9005 6.85352H43.2642V25.0935H44.9005V15.7831L44.98 15.8791C45.7931 16.8599 47.0034 18.2799 48.6104 20.1385L48.6118 20.1401C50.2336 21.9803 51.2902 23.1475 51.7765 23.6346L51.7778 23.636L51.7793 23.6374C52.2787 24.1203 52.8628 24.5158 53.5298 24.8242L53.532 24.8251L53.5342 24.8262C54.2156 25.1237 55.0669 25.2757 56.0788 25.2926L56.2974 25.2962L56.3354 24.0785L56.1348 24.0535C55.6253 23.9897 55.1497 23.8625 54.707 23.6728C54.2543 23.4621 53.9243 23.2802 53.7093 23.1277C53.4961 22.9467 53.1937 22.6848 52.8017 22.3411C52.4304 22.0011 51.5865 21.0909 50.2611 19.597C49.006 18.1648 47.8886 16.8627 46.9087 15.6909L54.6596 6.85352H52.678L44.9005 15.6853V6.85352Z" fill="#9DA3AF"/>
</svg>
