 <svg width="161" height="32" viewBox="0 0 161 32" fill="none" xmlns="http://www.w3.org/2000/svg">
<g clip-path="url(#clip0_408_2054)">
<g clip-path="url(#clip1_408_2054)">
<path d="M16.1335 0.444336H0.569824V9.77767L1.87445 10.0189C4.64726 10.5315 7.21703 11.5524 9.49461 12.9746C13.5165 10.0682 16.1335 5.78393 16.1335 0.444336Z" fill="#9EE09E"/>
<path d="M0.125 32H16.1333C16.1333 23.1634 8.96617 16 0.125 16V32Z" fill="#9EE09E"/>
<path d="M1.87445 10.019C12.2634 11.9397 19.802 20.9959 19.802 31.5556H22.4883C22.7899 24.8147 26.7975 19.7778 31.6971 19.7778V19.5556C27.3979 19.5556 23.6315 21.7786 21.5416 25.2234C18.8295 16.2687 10.4815 9.92981 0.569824 9.77783L1.87445 10.019Z" fill="#CC99C9"/>
<path fill-rule="evenodd" clip-rule="evenodd" d="M31.6969 0.444444H0.569675V31.5556H31.6969V0.444444ZM0.125 0V32H32.1416V0H0.125Z" fill="#3D977F"/>
</g>
<path d="M145.978 6.7041H145.106V25.0934H146.746V12.0259L146.699 10.0357C146.985 10.3801 147.378 10.8364 147.875 11.4031L159.894 25.2428H160.766V6.85343H159.126V19.9681C159.126 20.7029 159.143 21.38 159.176 21.9989C158.797 21.5234 158.33 20.9563 157.775 20.2978L157.774 20.2966L145.978 6.7041Z" fill="url(#paint0_linear_408_2054)"/>
<path d="M133.023 6.72899H132.03L124.349 25.0934H126.101L131.885 11.1445C132.068 10.7212 132.257 10.2234 132.45 9.65184L132.464 9.68565C132.611 10.0463 132.83 10.5421 133.12 11.1719L138.902 25.0934H140.73L133.023 6.72899Z" fill="url(#paint1_linear_408_2054)"/>
<path d="M109.56 6.85343H107.731L115.616 25.2428H116.607L124.467 6.85343H122.712L116.679 21.1763C116.463 21.6893 116.287 22.1485 116.152 22.5532C116.016 22.1758 115.83 21.7002 115.595 21.1283L109.56 6.85343Z" fill="url(#paint2_linear_408_2054)"/>
<path d="M103.372 6.85343H101.732V25.0934H103.372V6.85343Z" fill="url(#paint3_linear_408_2054)"/>
<path d="M97.0925 6.85343H83.4V8.34321H89.4263V25.0934H91.0662V8.34321H97.0925V6.85343Z" fill="url(#paint4_linear_408_2054)"/>
<path d="M78.7766 6.85343H77.1366V25.0934H78.7766V6.85343Z" fill="url(#paint5_linear_408_2054)"/>
<path d="M63.6828 6.75388C62.613 6.75388 61.2873 6.81233 59.7071 6.9287L59.5011 6.94387V25.0934H61.1411V8.35415C62.0474 8.297 62.8447 8.26855 63.5334 8.26855C64.9103 8.26855 65.986 8.59211 66.7828 9.21674L66.7847 9.21822L66.7867 9.21966C67.5832 9.81676 67.9926 10.7067 67.9926 11.929C67.9926 13.1363 67.597 14.1966 66.8015 15.119C65.984 16.0668 65.2602 16.4854 64.6291 16.4854C64.4027 16.4854 64.1728 16.4838 63.9391 16.4806L63.7137 16.4774V17.9079L63.9317 17.9121C64.356 17.9203 64.7914 17.9247 65.2381 17.9254C67.4699 20.9846 68.8769 22.8267 69.4478 23.4309L69.4489 23.4321L69.45 23.4332C70.0461 24.046 70.6731 24.5112 71.3321 24.8232L71.3343 24.8242L71.3365 24.8252C72.0044 25.1238 72.859 25.2756 73.8889 25.2925L74.1079 25.2961L74.1461 24.0768L73.9433 24.0532C72.7257 23.9109 71.6271 23.3272 70.6452 22.2822C70.3841 21.9883 69.8003 21.2654 68.8889 20.1059C68.0562 19.0116 67.3458 18.0612 66.7576 17.2546C67.4904 16.7049 68.1533 15.9904 68.7476 15.1151C69.4023 14.1507 69.7322 13.1037 69.7322 11.9788C69.7322 10.3291 69.1614 9.03254 68.0047 8.12126C66.862 7.2045 65.4156 6.75388 63.6828 6.75388Z" fill="url(#paint6_linear_408_2054)"/>
<path d="M44.4539 6.85343H42.814V25.0934H44.4539V15.783L44.5337 15.879C45.3486 16.8597 46.5617 18.2798 48.1723 20.1385L48.1737 20.1401C49.7993 21.9803 50.8584 23.1475 51.3457 23.6346L51.3471 23.6359L51.3485 23.6373C51.849 24.1203 52.4345 24.5157 53.1031 24.8241L53.1052 24.8251L53.1074 24.826C53.7903 25.1236 54.6436 25.2756 55.6578 25.2925L55.8769 25.2962L55.915 24.0785L55.714 24.0534C55.2034 23.9896 54.7266 23.8624 54.2829 23.6727C53.8291 23.462 53.4984 23.2802 53.283 23.1276C53.0693 22.9467 52.7662 22.6847 52.3733 22.3411C52.0011 22.001 51.1553 21.0908 49.8268 19.597C48.5689 18.1647 47.4489 16.8626 46.4668 15.6908L54.2354 6.85343H52.2492L44.4539 15.6852V6.85343Z" fill="url(#paint7_linear_408_2054)"/>
</g>
<defs>
<linearGradient id="paint0_linear_408_2054" x1="42.814" y1="16.0001" x2="160.766" y2="16.0001" gradientUnits="userSpaceOnUse">
<stop stop-color="#3D997D"/>
<stop offset="0.51" stop-color="#31678D"/>
<stop offset="1" stop-color="#703187"/>
</linearGradient>
<linearGradient id="paint1_linear_408_2054" x1="42.814" y1="16.0001" x2="160.766" y2="16.0001" gradientUnits="userSpaceOnUse">
<stop stop-color="#3D997D"/>
<stop offset="0.51" stop-color="#31678D"/>
<stop offset="1" stop-color="#703187"/>
</linearGradient>
<linearGradient id="paint2_linear_408_2054" x1="42.814" y1="16.0001" x2="160.766" y2="16.0001" gradientUnits="userSpaceOnUse">
<stop stop-color="#3D997D"/>
<stop offset="0.51" stop-color="#31678D"/>
<stop offset="1" stop-color="#703187"/>
</linearGradient>
<linearGradient id="paint3_linear_408_2054" x1="42.814" y1="16.0001" x2="160.766" y2="16.0001" gradientUnits="userSpaceOnUse">
<stop stop-color="#3D997D"/>
<stop offset="0.51" stop-color="#31678D"/>
<stop offset="1" stop-color="#703187"/>
</linearGradient>
<linearGradient id="paint4_linear_408_2054" x1="42.814" y1="16.0001" x2="160.766" y2="16.0001" gradientUnits="userSpaceOnUse">
<stop stop-color="#3D997D"/>
<stop offset="0.51" stop-color="#31678D"/>
<stop offset="1" stop-color="#703187"/>
</linearGradient>
<linearGradient id="paint5_linear_408_2054" x1="42.814" y1="16.0001" x2="160.766" y2="16.0001" gradientUnits="userSpaceOnUse">
<stop stop-color="#3D997D"/>
<stop offset="0.51" stop-color="#31678D"/>
<stop offset="1" stop-color="#703187"/>
</linearGradient>
<linearGradient id="paint6_linear_408_2054" x1="42.814" y1="16.0001" x2="160.766" y2="16.0001" gradientUnits="userSpaceOnUse">
<stop stop-color="#3D997D"/>
<stop offset="0.51" stop-color="#31678D"/>
<stop offset="1" stop-color="#703187"/>
</linearGradient>
<linearGradient id="paint7_linear_408_2054" x1="42.814" y1="16.0001" x2="160.766" y2="16.0001" gradientUnits="userSpaceOnUse">
<stop stop-color="#3D997D"/>
<stop offset="0.51" stop-color="#31678D"/>
<stop offset="1" stop-color="#703187"/>
</linearGradient>
<clipPath id="clip0_408_2054">
<rect width="161" height="32" fill="white"/>
</clipPath>
<clipPath id="clip1_408_2054">
<rect width="32.0166" height="32" fill="white" transform="translate(0.125)"/>
</clipPath>
</defs>
</svg>