<svg width="238" height="32" viewBox="0 0 238 32" fill="none" xmlns="http://www.w3.org/2000/svg">
<mask id="mask0_408_1935" style="mask-type:luminance" maskUnits="userSpaceOnUse" x="1" y="0" width="235" height="32">
<path d="M235.887 0H1.7959V32H235.887V0Z" fill="white"/>
</mask>
<g mask="url(#mask0_408_1935)">
<path d="M119.949 12.3828H115.213C113.917 12.3828 112.866 13.4323 112.866 14.727V29.6559C112.866 30.9505 113.917 32.0001 115.213 32.0001H119.949C121.245 32.0001 122.296 30.9505 122.296 29.6559V14.727C122.296 13.4323 121.245 12.3828 119.949 12.3828Z" fill="#9DA3AF"/>
<path d="M149.399 0.304199H128.405C127.11 0.304199 126.058 1.3529 126.058 2.64839V7.37874C126.058 8.67296 127.108 9.72292 128.405 9.72292H134.187V29.6557C134.187 30.9501 135.237 31.9999 136.534 31.9999H141.27C142.565 31.9999 143.617 30.9501 143.617 29.6557V9.72292H149.399C150.695 9.72292 151.746 8.67422 151.746 7.37874V2.64839C151.746 1.35416 150.695 0.304199 149.399 0.304199Z" fill="#9DA3AF"/>
<path d="M69.8745 12.3828H65.1386C63.8424 12.3828 62.7915 13.4323 62.7915 14.727V29.6559C62.7915 30.9505 63.8424 32.0001 65.1386 32.0001H69.8745C71.1709 32.0001 72.2216 30.9505 72.2216 29.6559V14.727C72.2216 13.4323 71.1709 12.3828 69.8745 12.3828Z" fill="#9DA3AF"/>
<path d="M183.901 31.3874V31.3833H183.853C183.869 31.3833 183.884 31.3874 183.901 31.3874Z" fill="#9DA3AF"/>
<path d="M233.888 23.3465L234.506 23.8304C236.531 25.4231 236.291 28.5607 234.048 29.8281L233.982 29.8661L233.995 29.8855C231.68 31.1879 229.009 31.9339 226.162 31.9339C217.355 31.9339 210.175 24.7947 210.175 15.9662C210.175 7.13764 217.333 0 226.162 0C227.587 0 229.148 0.2146 230.723 0.674411C237.559 2.67367 237.11 10.2727 232.03 15.2596C226.091 21.0907 221.898 24.6025 219.255 27.0955L215.725 23.2089L227.486 10.3677C228.321 9.45627 227.676 7.98848 226.439 7.98439C222.496 7.973 218.938 10.7057 218.285 14.5893C217.476 19.4024 221.004 23.6251 225.638 23.9157C227.104 24.0023 228.553 23.6997 229.883 22.9735C231.162 22.2755 232.744 22.4449 233.888 23.3465Z" fill="#9DA3AF"/>
<path d="M189.972 19.2037C189.972 9.80298 196.865 2.01205 205.879 0.597266C207.428 0.35458 208.831 1.55192 208.831 3.11818V7.51212C208.831 8.72208 207.973 9.74554 206.789 10.0062C202.563 10.9372 199.4 14.7015 199.4 19.2034V29.4521C199.4 30.8596 198.258 31.9995 196.85 31.9995H192.524C191.114 31.9995 189.973 30.8583 189.973 29.4521L189.972 19.2037Z" fill="#9DA3AF"/>
<path d="M108.653 13.1089C106.764 4.76978 99.6655 0.347749 92.5683 0.304199C89.2949 0.323765 86.0256 1.28568 83.263 3.12651C83.19 3.17543 83.1199 3.22875 83.0469 3.27799C77.0685 7.55705 76.1252 16.8483 76.0213 21.1021C76.0312 21.7778 76.0369 22.514 76.0381 23.3062C76.041 24.8582 76.0312 26.6429 76.0186 28.7097C76.0058 30.6754 75.9921 26.8575 75.9863 29.3771C75.9834 30.7876 77.126 31.9359 78.5384 31.9359H82.9616C84.3735 31.9359 84.9633 30.8717 84.9603 29.4614C84.9548 26.9828 84.9518 30.8285 84.9603 28.8822C85.0052 17.3112 85.404 14.447 87.4632 12.1378C88.8361 10.5996 90.7016 9.84978 92.5699 9.84411C94.4368 9.84978 96.3051 10.6 97.6766 12.1378C99.7202 14.4287 99.7287 17.2061 99.6598 28.5387C99.6472 30.5476 99.6332 26.7862 99.6259 29.3771C99.6232 30.7876 100.766 31.9359 102.178 31.9359H106.503C107.911 31.9359 109.052 30.7931 109.053 29.3855C109.056 26.8367 109.062 30.6546 109.069 28.7112C109.114 16.4898 109.198 15.2918 108.653 13.1089Z" fill="#9DA3AF"/>
<path d="M155.217 19.1307C157.107 27.4699 164.205 31.8918 171.303 31.9355C174.576 31.9158 177.845 30.954 180.608 29.1131C180.681 29.0641 180.751 29.0109 180.824 28.9617C186.802 24.6827 187.745 15.3913 187.849 11.1375C187.84 10.4619 187.834 9.7256 187.833 8.93347C187.83 7.3814 187.84 5.59676 187.852 3.52997C187.865 1.56417 187.879 5.38215 187.885 2.86249C187.887 1.45214 186.745 0.303711 185.332 0.303711H180.909C179.497 0.303711 178.908 1.36788 178.91 2.77824C178.916 5.25687 178.919 1.41111 178.91 3.35735C178.865 14.9284 178.467 17.7927 176.408 20.1018C175.035 21.64 173.169 22.3898 171.301 22.3955C169.434 22.3898 167.565 21.6397 166.194 20.1018C164.151 17.811 164.142 15.0335 164.211 3.70101C164.224 1.69198 164.237 5.45349 164.245 2.86249C164.247 1.45214 163.105 0.303711 161.693 0.303711H157.368C155.96 0.303711 154.819 1.44646 154.817 2.85397C154.814 5.40298 154.809 1.585 154.802 3.52839C154.757 15.7499 154.672 16.9478 155.217 19.1307Z" fill="#9DA3AF"/>
<path d="M58.4579 13.1089C56.5688 4.76978 49.47 0.346172 42.373 0.304199C39.0996 0.323765 35.8303 1.28568 33.0679 3.12651C32.9949 3.17543 32.9246 3.22875 32.8516 3.27799C26.8732 7.55705 25.9302 16.8483 25.826 21.1021C25.8359 21.7778 25.8416 22.514 25.843 23.3062C25.8457 24.8582 25.8359 26.6429 25.8233 28.7097C25.8107 30.6754 25.7967 26.8575 25.791 29.3771C25.7883 30.7876 26.9307 31.9359 28.3431 31.9359H32.7665C34.1785 31.9359 34.768 30.8717 34.7652 29.4614C34.7595 26.9828 34.7568 30.8285 34.7652 28.8822C34.8101 17.3112 35.2087 14.447 37.2679 12.1378C38.6407 10.5996 40.5063 9.84978 42.3746 9.84411C44.2417 9.84978 46.11 10.6 47.4813 12.1378C49.5249 14.4287 49.5336 17.2061 49.4647 28.5387C49.4519 30.5476 49.4382 26.7862 49.4308 29.3771C49.4279 30.7876 50.5705 31.9359 51.9829 31.9359H56.3079C57.7157 31.9359 58.857 30.7931 58.8584 29.3855C58.8611 26.8367 58.8668 30.6546 58.8737 28.7112C58.9186 16.4898 59.0028 15.2918 58.4579 13.1089Z" fill="#9DA3AF"/>
<path d="M34.4631 13.1089C32.5737 4.76978 25.4751 0.346172 18.3779 0.304199C15.1045 0.323765 11.8351 1.28568 9.07264 3.12651C8.99964 3.17543 8.9295 3.22875 8.85652 3.27799C2.87809 7.55831 1.93493 16.8483 1.83098 21.1018C1.84077 21.7774 1.84646 22.5137 1.84772 23.3058C1.85057 24.858 1.84077 26.6424 1.82813 28.7094C1.81707 30.6749 1.80159 26.8571 1.7959 29.3764C1.79306 30.7869 2.9356 31.9352 4.34797 31.9352H8.77088C10.1829 31.9352 10.7725 30.871 10.7697 29.4607C10.764 26.9821 10.7612 30.8278 10.7697 28.8818C10.8146 17.3106 11.2133 14.4463 13.2725 12.1372C14.6453 10.599 16.5108 9.84916 18.3791 9.84347C20.2462 9.84916 22.1145 10.5993 23.4858 12.1372C25.5294 14.428 25.5381 17.2055 25.4692 28.538C25.4566 30.5469 25.4426 26.7855 25.4353 29.3764C25.4326 30.7869 26.575 31.9352 27.9874 31.9352H32.3124C33.7202 31.9352 34.8615 30.7926 34.8629 29.3851C34.8656 26.836 34.8713 30.6541 34.8784 28.7106C34.9233 16.4891 35.0079 15.2918 34.4631 13.1089Z" fill="#9DA3AF"/>
<path d="M117.58 9.72324C120.184 9.72324 122.295 7.61472 122.295 5.01371C122.295 2.41273 120.184 0.304199 117.58 0.304199C114.975 0.304199 112.864 2.41273 112.864 5.01371C112.864 7.61472 114.975 9.72324 117.58 9.72324Z" fill="#9DA3AF"/>
<path d="M115.307 4.4204H116.708C116.863 4.4204 116.989 4.29573 116.989 4.13985V2.74053C116.989 2.5862 117.114 2.45996 117.27 2.45996H117.895C118.049 2.45996 118.176 2.58462 118.176 2.74053V4.13985C118.176 4.29416 118.3 4.4204 118.457 4.4204H119.858C120.012 4.4204 120.139 4.54506 120.139 4.70097V5.32488C120.139 5.47921 120.014 5.60542 119.858 5.60542H118.457C118.302 5.60542 118.176 5.73009 118.176 5.886V7.28531C118.176 7.43964 118.051 7.56586 117.895 7.56586H117.27C117.116 7.56586 116.989 7.44122 116.989 7.28531V5.886C116.989 5.73166 116.864 5.60542 116.708 5.60542H115.307C115.153 5.60542 115.026 5.48078 115.026 5.32488V4.70097C115.026 4.54664 115.151 4.4204 115.307 4.4204Z" fill="#9DA3AF"/>
<path d="M67.5067 9.72324C70.1109 9.72324 72.2218 7.61472 72.2218 5.01371C72.2218 2.41273 70.1109 0.304199 67.5067 0.304199C64.9026 0.304199 62.7915 2.41273 62.7915 5.01371C62.7915 7.61472 64.9026 9.72324 67.5067 9.72324Z" fill="#9DA3AF"/>
<path d="M66.9138 7.28336V5.88402C66.9138 5.72971 66.789 5.60347 66.633 5.60347H65.232C65.0775 5.60347 64.9512 5.47881 64.9512 5.32292V4.69899C64.9512 4.54468 65.0759 4.41844 65.232 4.41844H66.633C66.7874 4.41844 66.9138 4.29378 66.9138 4.13787V2.73856C66.9138 2.58425 67.0387 2.45801 67.1948 2.45801H67.8195C67.974 2.45801 68.1003 2.58267 68.1003 2.73856V4.13787C68.1003 4.2922 68.225 4.41844 68.3811 4.41844H69.7821C69.9368 4.41844 70.0631 4.54311 70.0631 4.69899V5.32292C70.0631 5.47723 69.9384 5.60347 69.7821 5.60347H68.3811C68.2266 5.60347 68.1003 5.72813 68.1003 5.88402V7.28336C68.1003 7.43767 67.9756 7.56391 67.8195 7.56391H67.1948C67.0403 7.56391 66.9138 7.43924 66.9138 7.28336Z" fill="#9DA3AF"/>
</g>
</svg>
