<svg width="187" height="32" viewBox="0 0 187 32" fill="none" xmlns="http://www.w3.org/2000/svg">
<g clip-path="url(#clip0_408_1954)">
<path d="M22.168 1.26123L15.5938 16.7873C15.4083 17.2407 15.2131 17.7472 15.0301 18.2393C14.847 17.7448 14.6518 17.2359 14.4639 16.7776L7.89204 1.26123H2.37774L0 30.7335H5.70945L7.06815 12.9208L12.7126 25.76H17.3427L22.9967 12.9908L24.3916 30.731H30.0578L27.6824 1.26123H22.168Z" fill="#9DA3AF"/>
<path d="M67.6631 6.45668H77.1283V30.7335H82.8258V6.45668H92.2908V1.26123H67.6631V6.45668Z" fill="#9DA3AF"/>
<path d="M146.393 18.1911C149.178 16.7993 150.92 13.8133 150.92 10.2821C150.92 6.35538 148.908 3.16189 145.67 1.94624C144.533 1.52414 143.22 1.26123 140.19 1.26123H130.828V30.7335H136.528V19.7299H140.97L146.798 30.7335H153.269L146.658 18.6397C146.564 18.4733 146.475 18.3237 146.393 18.1886V18.1911ZM136.528 6.45668H140.072C142.052 6.45668 142.83 6.65686 143.423 6.96802C144.565 7.60237 145.143 8.76978 145.143 10.4365C145.143 13.0414 143.693 14.5345 141.168 14.5345H136.528V6.45668Z" fill="#9DA3AF"/>
<path d="M183.659 24.87C185.555 22.2747 186.591 19.1005 186.591 15.8394C186.591 7.39986 179.954 0.788574 171.481 0.788574C163.008 0.788574 156.41 7.39986 156.41 15.8394C156.41 24.2791 163.03 31.2014 171.481 31.2014C174.709 31.2014 177.692 30.2777 180.159 28.5193L183.471 31.8359L187.003 28.0562L183.659 24.8677V24.87ZM172.941 21.5462L176.034 24.5685C174.714 25.3475 173.052 25.8108 171.484 25.8108C166.208 25.8108 162.228 21.5245 162.228 15.8394C162.228 10.1544 166.208 6.14322 171.484 6.14322C176.759 6.14322 180.778 10.3112 180.778 15.8394C180.778 17.5954 180.32 19.3634 179.503 20.8419L176.473 17.769L172.943 21.5438L172.941 21.5462Z" fill="#9DA3AF"/>
<path d="M66.0656 18.1431C66.1594 17.4412 66.2245 16.7296 66.2245 16.0012C66.2245 15.2728 66.1642 14.6119 66.0752 13.9317L62.8109 12.8077C62.5049 11.5969 62.0328 10.456 61.4137 9.40921L62.9289 6.30014C62.0762 5.18338 61.0836 4.18482 59.9707 3.32855L56.8703 4.84329C55.8174 4.21376 54.6707 3.73378 53.4541 3.42263L52.3316 0.151956C51.6449 0.062712 50.9511 0 50.2404 0C49.5298 0 48.836 0.062712 48.1495 0.151956L47.0268 3.42263C45.8079 3.73378 44.6635 4.21376 43.6108 4.84329L40.5104 3.32855C39.3972 4.18482 38.4049 5.18338 37.552 6.30014L39.0674 9.40921C38.4482 10.4584 37.9759 11.5993 37.67 12.8077L34.4059 13.9317C34.3191 14.6119 34.2563 15.2969 34.2563 16.0012C34.2563 16.7055 34.3214 17.4412 34.4155 18.1431L37.6869 19.2695C37.9976 20.4634 38.4699 21.5898 39.0843 22.6245L37.5689 25.7289C38.4313 26.8528 39.4358 27.8537 40.5609 28.7147L43.6686 27.1952C44.6973 27.8007 45.8127 28.2663 46.998 28.5701L48.123 31.8432C48.8168 31.9349 49.5202 32 50.2381 32C50.9559 32 51.6595 31.9374 52.3533 31.8432L53.4783 28.5701C54.6611 28.2638 55.7788 27.8007 56.8075 27.1952L59.9152 28.7147C61.0402 27.8562 62.0449 26.8528 62.9072 25.7289L61.392 22.6245C62.0064 21.5898 62.4785 20.4634 62.7892 19.2695L66.0608 18.1431H66.0656ZM50.2452 23.6183C46.044 23.6183 42.6376 20.2077 42.6376 16.0012C42.6376 11.7947 46.044 8.38412 50.2452 8.38412C54.4467 8.38412 57.853 11.7947 57.853 16.0012C57.853 20.2077 54.4467 23.6183 50.2452 23.6183Z" fill="#9DA3AF"/>
<path d="M125.451 18.1431C125.545 17.4412 125.61 16.7296 125.61 16.0012C125.61 15.2728 125.55 14.6119 125.461 13.9317L122.197 12.8077C121.891 11.5969 121.418 10.456 120.799 9.40921L122.315 6.30014C121.462 5.18338 120.469 4.18482 119.356 3.32855L116.256 4.84329C115.203 4.21376 114.056 3.73378 112.84 3.42263L111.717 0.151956C111.031 0.062712 110.337 0 109.626 0C108.916 0 108.222 0.062712 107.535 0.151956L106.413 3.42263C105.193 3.73378 104.049 4.21376 102.996 4.84329L99.8959 3.32855C98.783 4.18482 97.7904 5.18338 96.9377 6.30014L98.4529 9.40921C97.8338 10.4584 97.3616 11.5993 97.0557 12.8077L93.7914 13.9317C93.7046 14.6119 93.6421 15.2969 93.6421 16.0012C93.6421 16.7055 93.7072 17.4412 93.801 18.1431L97.0726 19.2695C97.3833 20.4634 97.8554 21.5898 98.4698 22.6245L96.9546 25.7289C97.8171 26.8528 98.8216 27.8537 99.9466 28.7147L103.054 27.1952C104.083 27.8007 105.198 28.2663 106.384 28.5701L107.509 31.8432C108.202 31.9349 108.906 32 109.624 32C110.342 32 111.045 31.9374 111.739 31.8432L112.864 28.5701C114.047 28.2638 115.165 27.8007 116.193 27.1952L119.301 28.7147C120.426 27.8562 121.43 26.8528 122.293 25.7289L120.778 22.6245C121.392 21.5898 121.864 20.4634 122.175 19.2695L125.446 18.1431H125.451ZM109.631 23.6183C105.429 23.6183 102.023 20.2077 102.023 16.0012C102.023 11.7947 105.429 8.38412 109.631 8.38412C113.832 8.38412 117.239 11.7947 117.239 16.0012C117.239 20.2077 113.832 23.6183 109.631 23.6183Z" fill="#9DA3AF"/>
</g>
<defs>
<clipPath id="clip0_408_1954">
<rect width="187" height="32" fill="white"/>
</clipPath>
</defs>
</svg>
