<svg width="187" height="32" viewBox="0 0 187 32" fill="none" xmlns="http://www.w3.org/2000/svg">
<g clip-path="url(#clip0_408_2123)">
<path d="M22.1681 1.26172L15.5938 16.7878C15.4083 17.2412 15.2131 17.7477 15.0301 18.2398C14.847 17.7453 14.6518 17.2364 14.4639 16.7781L7.89204 1.26172H2.37773L0 30.7339H5.70945L7.06815 12.9213L12.7126 25.7604H17.3427L22.9968 12.9913L24.3916 30.7315H30.0577L27.6824 1.26172H22.1681Z" fill="#0561FC"/>
<path d="M67.6631 6.45717H77.1282V30.7339H82.8256V6.45717H92.2908V1.26172H67.6631V6.45717Z" fill="#0561FC"/>
<path d="M146.393 18.1915C149.178 16.7998 150.92 13.8138 150.92 10.2826C150.92 6.35586 148.908 3.16237 145.67 1.94673C144.533 1.52463 143.22 1.26172 140.19 1.26172H130.828V30.7339H136.528V19.7304H140.97L146.798 30.7339H153.268L146.658 18.6402C146.564 18.4737 146.475 18.3242 146.393 18.1891V18.1915ZM136.528 6.45717H140.072C142.052 6.45717 142.83 6.65736 143.423 6.96851C144.565 7.60287 145.143 8.77027 145.143 10.437C145.143 13.0419 143.692 14.535 141.168 14.535H136.528V6.45717Z" fill="#0561FC"/>
<path d="M183.658 24.87C185.554 22.2747 186.59 19.1005 186.59 15.8395C186.59 7.39986 179.953 0.788574 171.481 0.788574C163.008 0.788574 156.41 7.39986 156.41 15.8395C156.41 24.279 163.03 31.2015 171.481 31.2015C174.709 31.2015 177.691 30.2777 180.158 28.5193L183.471 31.8358L187.002 28.0562L183.658 24.8676V24.87ZM172.941 21.5462L176.034 24.5685C174.714 25.3476 173.051 25.8107 171.483 25.8107C166.207 25.8107 162.228 21.5245 162.228 15.8395C162.228 10.1544 166.207 6.14321 171.483 6.14321C176.759 6.14321 180.777 10.3111 180.777 15.8395C180.777 17.5954 180.319 19.3634 179.503 20.8419L176.472 17.7691L172.943 21.5438L172.941 21.5462Z" fill="#0561FC"/>
<path d="M66.0659 18.1431C66.1599 17.4412 66.2249 16.7296 66.2249 16.0012C66.2249 15.2728 66.1647 14.6119 66.0756 13.9317L62.8113 12.8077C62.5053 11.5969 62.0332 10.456 61.414 9.40921L62.9293 6.30014C62.0765 5.18339 61.084 4.18482 59.971 3.32856L56.8706 4.8433C55.8178 4.21376 54.6711 3.73378 53.4545 3.42263L52.3319 0.151956C51.6453 0.062712 50.9515 0 50.2409 0C49.5302 0 48.8364 0.062712 48.1498 0.151956L47.0272 3.42263C45.8082 3.73378 44.6639 4.21376 43.6112 4.8433L40.5107 3.32856C39.3977 4.18482 38.4052 5.18339 37.5524 6.30014L39.0677 9.40921C38.4486 10.4584 37.9764 11.5993 37.6705 12.8077L34.4062 13.9317C34.3195 14.6119 34.2568 15.2969 34.2568 16.0012C34.2568 16.7055 34.3219 17.4412 34.4158 18.1431L37.6873 19.2695C37.9981 20.4634 38.4703 21.5898 39.0846 22.6246L37.5693 25.7288C38.4317 26.8528 39.4363 27.8538 40.5613 28.7149L43.669 27.1953C44.6977 27.8007 45.813 28.2662 46.9983 28.5701L48.1233 31.8432C48.8171 31.9349 49.5206 32 50.2385 32C50.9564 32 51.6598 31.9373 52.3536 31.8432L53.4786 28.5701C54.6615 28.2638 55.7793 27.8007 56.8079 27.1953L59.9156 28.7149C61.0406 27.8562 62.0452 26.8528 62.9077 25.7288L61.3924 22.6246C62.0067 21.5898 62.4788 20.4634 62.7896 19.2695L66.0611 18.1431H66.0659ZM50.2457 23.6183C46.0443 23.6183 42.6379 20.2077 42.6379 16.0012C42.6379 11.7947 46.0443 8.38411 50.2457 8.38411C54.4471 8.38411 57.8535 11.7947 57.8535 16.0012C57.8535 20.2077 54.4471 23.6183 50.2457 23.6183Z" fill="#0561FC"/>
<path d="M125.451 18.1431C125.545 17.4412 125.61 16.7296 125.61 16.0012C125.61 15.2728 125.55 14.6119 125.461 13.9317L122.197 12.8077C121.891 11.5969 121.418 10.456 120.799 9.40921L122.315 6.30014C121.462 5.18339 120.469 4.18482 119.356 3.32856L116.256 4.8433C115.203 4.21376 114.056 3.73378 112.84 3.42263L111.717 0.151956C111.031 0.062712 110.337 0 109.626 0C108.915 0 108.222 0.062712 107.535 0.151956L106.412 3.42263C105.193 3.73378 104.049 4.21376 102.996 4.8433L99.896 3.32856C98.783 4.18482 97.7905 5.18339 96.9377 6.30014L98.453 9.40921C97.8338 10.4584 97.3617 11.5993 97.0557 12.8077L93.7914 13.9317C93.7047 14.6119 93.6421 15.2969 93.6421 16.0012C93.6421 16.7055 93.7071 17.4412 93.8011 18.1431L97.0726 19.2695C97.3833 20.4634 97.8555 21.5898 98.4698 22.6246L96.9545 25.7288C97.817 26.8528 98.8215 27.8538 99.9466 28.7149L103.054 27.1953C104.083 27.8007 105.198 28.2662 106.384 28.5701L107.509 31.8432C108.202 31.9349 108.906 32 109.624 32C110.342 32 111.045 31.9373 111.739 31.8432L112.864 28.5701C114.047 28.2638 115.165 27.8007 116.193 27.1953L119.301 28.7149C120.426 27.8562 121.43 26.8528 122.293 25.7288L120.778 22.6246C121.392 21.5898 121.864 20.4634 122.175 19.2695L125.446 18.1431H125.451ZM109.631 23.6183C105.43 23.6183 102.023 20.2077 102.023 16.0012C102.023 11.7947 105.43 8.38411 109.631 8.38411C113.832 8.38411 117.239 11.7947 117.239 16.0012C117.239 20.2077 113.832 23.6183 109.631 23.6183Z" fill="#0561FC"/>
</g>
<defs>
<clipPath id="clip0_408_2123">
<rect width="187" height="32" fill="white"/>
</clipPath>
</defs>
</svg>