<svg width="158" height="32" viewBox="0 0 158 32" fill="none" xmlns="http://www.w3.org/2000/svg">
<g clip-path="url(#clip0_408_1965)">
<path d="M23.9514 9.71364L45.5708 0L22.8661 15.8594L13.3262 2.26991L23.9514 9.71364Z" fill="#9DA3AF" fill-opacity="0.854902"/>
<path fill-rule="evenodd" clip-rule="evenodd" d="M28.1705 12.3965L37.7104 25.986L27.0851 18.5423L5.46582 28.2559L28.1705 12.3965ZM27.2171 17.8066L35.2999 23.5785L28.0116 13.3146L27.6248 15.5068L27.2201 17.8066H27.2171Z" fill="#9DA3AF"/>
<path fill-rule="evenodd" clip-rule="evenodd" d="M16.5435 14.8906L13.1647 2.38672L22.7046 15.9763L0 31.8357L16.5435 14.8936V14.8906ZM21.8832 15.8297L14.6098 5.47008L17.2001 15.0611L4.79696 27.7624L21.8832 15.8297Z" fill="#9DA3AF"/>
<path d="M154.339 16.4873V16.0866L154.999 16.0806C155.101 16.0746 155.179 16.0596 155.229 16.0327C155.286 15.9998 155.328 15.961 155.355 15.9131C155.406 15.8204 155.436 15.6529 155.445 15.4167C155.451 15.3568 155.466 14.6839 155.493 13.4039V10.494C155.493 9.71348 155.478 8.90899 155.451 8.0746C155.433 7.51236 155.406 7.20133 155.373 7.13553C155.349 7.08768 155.313 7.05479 155.259 7.03684C155.188 7.00395 154.867 6.98899 154.288 6.98899V6.57628C155.346 6.44469 156.084 6.2832 156.495 6.08581C156.555 6.0589 156.603 6.04395 156.636 6.04395C156.669 6.04395 156.696 6.05591 156.714 6.07983C156.732 6.09778 156.741 6.12768 156.741 6.16357C156.741 6.19647 156.735 6.24432 156.726 6.30413L156.72 6.53441C156.696 7.3718 156.684 8.08357 156.678 8.67273L156.663 9.76731V13.4039C156.687 14.6182 156.699 15.2761 156.705 15.3748C156.708 15.6081 156.738 15.7785 156.789 15.8862C156.807 15.9281 156.836 15.9669 156.872 15.9998C156.908 16.0267 156.965 16.0507 157.04 16.0686C157.073 16.0746 157.334 16.0806 157.82 16.0896V16.4903C157.184 16.4544 156.624 16.4335 156.141 16.4335C155.658 16.4335 155.077 16.4514 154.327 16.4903L154.339 16.4873Z" fill="#9DA3AF" fill-opacity="0.854902"/>
<path d="M153.293 15.4017L153.068 15.9071C152.744 16.1075 152.507 16.2421 152.357 16.3079C152.135 16.4066 151.884 16.4873 151.599 16.5531C151.317 16.6219 151.02 16.6578 150.705 16.6578C150.088 16.6578 149.527 16.5292 149.026 16.272C148.526 16.0148 148.133 15.632 147.854 15.1236C147.578 14.6092 147.44 14.0081 147.44 13.3232C147.44 12.7849 147.512 12.3034 147.659 11.8728C147.809 11.4391 147.977 11.1191 148.166 10.9128C148.301 10.7632 148.514 10.5928 148.799 10.4014C149.083 10.204 149.368 10.0514 149.65 9.9378C150.019 9.78229 150.421 9.70752 150.852 9.70752C151.377 9.70752 151.851 9.82715 152.27 10.0664C152.696 10.3057 153.008 10.6286 153.206 11.0414C153.404 11.4541 153.5 11.9176 153.5 12.435C153.5 12.5666 153.491 12.7251 153.473 12.9105C153.137 12.9763 152.834 13.0182 152.567 13.0361C152.061 13.072 151.554 13.0929 151.05 13.0929H148.796C148.805 13.7599 148.918 14.3042 149.14 14.7199C149.365 15.1326 149.671 15.4346 150.061 15.632C150.454 15.8294 150.861 15.9251 151.284 15.9251C151.569 15.9251 151.854 15.8802 152.135 15.7905C152.42 15.6978 152.771 15.5273 153.191 15.2851L153.305 15.4047L153.293 15.4017ZM148.79 12.5367C148.921 12.5516 149.17 12.5636 149.536 12.5785C150.235 12.6025 150.714 12.6144 150.975 12.6144C151.599 12.6144 152.01 12.6025 152.204 12.5785C152.21 12.4649 152.21 12.3812 152.21 12.3184C152.21 11.5797 152.061 11.0384 151.761 10.6914C151.461 10.3445 151.059 10.1741 150.558 10.1741C150.028 10.1741 149.602 10.3625 149.278 10.7423C148.954 11.1221 148.793 11.7202 148.787 12.5367H148.79Z" fill="#9DA3AF" fill-opacity="0.854902"/>
<path d="M142.527 16.5592C142.344 16.0837 142.218 15.7637 142.146 15.5992L141.571 14.2594L140.132 10.9159C140.039 10.7065 139.958 10.566 139.892 10.4942C139.826 10.4254 139.754 10.3805 139.673 10.3596C139.607 10.3417 139.433 10.3267 139.154 10.3177V9.89606C139.931 9.92895 140.497 9.94391 140.854 9.94391C141.247 9.94391 141.787 9.92895 142.47 9.89606V10.3177C141.964 10.3327 141.667 10.3656 141.577 10.4164C141.487 10.4673 141.442 10.539 141.442 10.6258C141.442 10.7663 141.535 11.0684 141.724 11.529L142.581 13.6583L142.785 14.1338C143.013 14.6901 143.172 15.0609 143.256 15.2493L143.957 13.6583C143.999 13.5656 144.212 13.0392 144.596 12.0822C144.821 11.526 144.971 11.1013 145.046 10.8052C145.064 10.7245 145.073 10.6557 145.073 10.5959C145.073 10.5151 145.043 10.4613 144.983 10.4284C144.869 10.3686 144.569 10.3297 144.083 10.3147V9.89307C144.782 9.92596 145.228 9.94092 145.426 9.94092C145.591 9.94092 146.038 9.92596 146.769 9.89307V10.3147C146.479 10.3297 146.284 10.3626 146.185 10.4194C146.092 10.4703 145.999 10.5809 145.903 10.7484C145.837 10.862 145.585 11.3645 145.145 12.2617L144.47 13.6972C144.353 13.9544 143.948 14.9054 143.253 16.5503H142.521L142.527 16.5592Z" fill="#9DA3AF" fill-opacity="0.854902"/>
<path d="M133.274 11.6875L132.903 11.5888C132.909 11.4812 132.909 11.3346 132.909 11.1462C132.909 10.9488 132.909 10.7933 132.903 10.6767C133.496 10.2879 133.985 10.0277 134.366 9.89312C134.657 9.79443 134.98 9.74658 135.343 9.74658C135.877 9.74658 136.327 9.84826 136.692 10.0486C137.058 10.249 137.328 10.5361 137.508 10.9099C137.631 11.1731 137.691 11.529 137.691 11.9836L137.664 13.2666V15.3541C137.664 15.5784 137.682 15.7399 137.721 15.8385C137.748 15.9073 137.793 15.9612 137.856 15.9941C137.904 16.021 137.999 16.0419 138.149 16.0509L138.605 16.0928V16.4935C138.221 16.4606 137.883 16.4456 137.592 16.4456C137.301 16.4456 136.935 16.4606 136.467 16.4935L136.503 15.2613C135.547 15.9821 134.98 16.3888 134.804 16.4815C134.627 16.5713 134.402 16.6161 134.129 16.6161C133.562 16.6161 133.119 16.4666 132.801 16.1675C132.486 15.8625 132.33 15.4617 132.33 14.9623C132.33 14.6393 132.384 14.3462 132.492 14.08C132.606 13.8139 132.738 13.6045 132.894 13.449C133.05 13.2905 133.206 13.1739 133.364 13.0991C133.637 12.9735 134.078 12.8359 134.687 12.6924C135.301 12.5488 135.907 12.4412 136.506 12.3694C136.512 11.9268 136.458 11.5799 136.345 11.3316C136.231 11.0834 136.042 10.88 135.775 10.7215C135.508 10.563 135.181 10.4823 134.798 10.4823C134.522 10.4823 134.279 10.5182 134.066 10.5959C133.859 10.6707 133.733 10.7335 133.685 10.7843L133.559 11.0356C133.433 11.3167 133.34 11.535 133.277 11.6935L133.274 11.6875ZM136.497 12.7881C135.889 12.8898 135.367 13.0064 134.938 13.132C134.507 13.2576 134.204 13.3892 134.024 13.5238C133.916 13.6045 133.823 13.7212 133.742 13.8827C133.619 14.1159 133.559 14.3761 133.559 14.6602C133.559 15.0071 133.655 15.2763 133.847 15.4737C134.039 15.6651 134.306 15.7608 134.648 15.7608C134.962 15.7608 135.271 15.6711 135.574 15.4946C135.883 15.3122 136.189 15.04 136.494 14.6812V12.7881H136.497Z" fill="#9DA3AF" fill-opacity="0.854902"/>
<path d="M126.388 16.4873V16.0865C126.918 16.0776 127.203 16.0686 127.245 16.0596C127.326 16.0447 127.383 16.0237 127.422 15.9968C127.464 15.9639 127.497 15.919 127.521 15.8622C127.569 15.7546 127.596 15.5871 127.605 15.3568C127.632 14.1097 127.647 13.4577 127.647 13.4009V12.5665C127.647 12.1927 127.641 11.7919 127.626 11.3613C127.617 11.0862 127.596 10.9217 127.563 10.8708C127.536 10.82 127.482 10.7811 127.401 10.7572C127.326 10.7303 127.02 10.7183 126.487 10.7213V10.3205C127.434 10.189 128.124 10.0185 128.558 9.80914C128.651 9.76129 128.714 9.74036 128.747 9.74036C128.78 9.74036 128.807 9.75232 128.825 9.77624C128.843 9.80017 128.852 9.83606 128.852 9.88092C128.852 9.91381 128.852 9.9497 128.846 9.99456C128.822 10.2787 128.81 10.7213 128.804 11.3194C129.014 11.0772 129.209 10.8349 129.389 10.5987C129.566 10.3594 129.695 10.2069 129.776 10.1351C129.916 10.0125 130.078 9.91681 130.261 9.84802C130.444 9.77325 130.633 9.73438 130.831 9.73438C131.029 9.73438 131.221 9.77624 131.416 9.85998L131.457 9.95867C131.389 10.5807 131.347 11.128 131.338 11.5976H131.023C130.915 11.3733 130.789 11.2088 130.642 11.1071C130.501 11.0054 130.324 10.9516 130.108 10.9516C129.749 10.9516 129.44 11.1011 129.188 11.4002C128.936 11.6933 128.807 12.1389 128.807 12.731V13.4518C128.807 13.7598 128.819 14.322 128.843 15.1415C128.849 15.4316 128.858 15.617 128.879 15.6947C128.897 15.7755 128.921 15.8323 128.948 15.8712C128.981 15.9041 129.032 15.931 129.104 15.9549C129.245 15.9968 129.623 16.0387 130.243 16.0805V16.4813C129.419 16.4484 128.717 16.4334 128.136 16.4334C127.554 16.4334 126.954 16.4484 126.394 16.4813L126.388 16.4873Z" fill="#9DA3AF" fill-opacity="0.854902"/>
<path d="M119.334 8.84913H118.899C118.893 7.73362 118.872 6.95904 118.83 6.52838C119.34 6.54633 120.143 6.57025 121.235 6.59717C122.119 6.61511 122.71 6.62408 123.006 6.62408C123.324 6.62408 124.062 6.60913 125.219 6.58221C126.059 6.56427 126.67 6.54633 127.054 6.52539C126.997 7.04876 126.961 7.82333 126.94 8.84614H126.49L126.433 8.17324C126.397 7.76651 126.37 7.53623 126.355 7.47941C126.34 7.42259 126.319 7.38371 126.292 7.35978C126.268 7.33586 126.232 7.31791 126.178 7.30296C126.112 7.28801 125.879 7.27006 125.477 7.24614C125.075 7.22221 124.754 7.21025 124.52 7.21025H123.663C123.615 7.65885 123.594 8.26296 123.594 9.02558V13.1258C123.594 13.7598 123.6 14.3818 123.615 14.983C123.63 15.4256 123.663 15.6917 123.714 15.7755C123.771 15.8592 123.858 15.922 123.975 15.9639C124.098 15.9998 124.437 16.0237 124.994 16.0327V16.4813C124.155 16.4454 123.525 16.4245 123.105 16.4245C122.922 16.4245 122.191 16.4424 120.914 16.4813V16.0327C121.471 16.0237 121.81 15.9998 121.933 15.9639C122.056 15.922 122.137 15.8652 122.179 15.7964C122.239 15.7037 122.278 15.4764 122.293 15.1175C122.293 15.0188 122.302 14.3549 122.32 13.1258V9.04053C122.32 8.84315 122.314 8.62782 122.305 8.39455L122.263 7.21025H121.217C120.611 7.21025 120.131 7.23418 119.777 7.27904C119.664 7.29399 119.592 7.3239 119.559 7.36875C119.508 7.4495 119.46 7.70371 119.418 8.13137L119.34 8.84016L119.334 8.84913Z" fill="#9DA3AF" fill-opacity="0.854902"/>
<path d="M109.565 16.4873V16.0865C110.096 16.0776 110.381 16.0686 110.423 16.0596C110.504 16.0447 110.561 16.0237 110.6 15.9968C110.642 15.9639 110.675 15.919 110.699 15.8622C110.747 15.7546 110.774 15.5871 110.783 15.3568C110.81 14.1097 110.825 13.4577 110.825 13.4009V12.5665C110.825 12.1927 110.819 11.7919 110.804 11.3613C110.795 11.0862 110.774 10.9217 110.741 10.8708C110.714 10.82 110.66 10.7811 110.579 10.7572C110.504 10.7303 110.198 10.7183 109.664 10.7213V10.3205C110.612 10.189 111.301 10.0185 111.736 9.80914C111.829 9.76129 111.892 9.74036 111.925 9.74036C111.958 9.74036 111.985 9.75232 112.003 9.77624C112.021 9.80017 112.03 9.83606 112.03 9.88092C112.03 9.91381 112.03 9.9497 112.024 9.99456C112 10.2787 111.988 10.7213 111.982 11.3194C112.192 11.0772 112.387 10.8349 112.567 10.5987C112.743 10.3594 112.872 10.2069 112.953 10.1351C113.094 10.0125 113.256 9.91681 113.439 9.84802C113.622 9.77325 113.811 9.73438 114.009 9.73438C114.206 9.73438 114.398 9.77624 114.593 9.85998L114.635 9.95867C114.566 10.5807 114.524 11.128 114.515 11.5976H114.2C114.093 11.3733 113.967 11.2088 113.82 11.1071C113.679 11.0054 113.502 10.9516 113.286 10.9516C112.926 10.9516 112.617 11.1011 112.366 11.4002C112.114 11.6933 111.985 12.1389 111.985 12.731V13.4518C111.985 13.7598 111.997 14.322 112.021 15.1415C112.027 15.4316 112.036 15.617 112.057 15.6947C112.075 15.7755 112.099 15.8323 112.126 15.8712C112.159 15.9041 112.21 15.931 112.282 15.9549C112.423 15.9968 112.8 16.0387 113.421 16.0805V16.4813C112.597 16.4484 111.895 16.4334 111.313 16.4334C110.732 16.4334 110.132 16.4484 109.571 16.4813L109.565 16.4873Z" fill="#9DA3AF"/>
<path d="M108.861 16.0896V16.4903C108.247 16.4574 107.785 16.4425 107.47 16.4425C107.122 16.4425 106.772 16.4574 106.415 16.4903C106.442 16.1105 106.463 15.6858 106.478 15.2133C106.196 15.4376 105.863 15.7427 105.473 16.1314C105.383 16.2212 105.297 16.287 105.213 16.3288C105.012 16.4425 104.811 16.5202 104.607 16.5681C104.406 16.6189 104.163 16.6458 103.884 16.6458C103.504 16.6458 103.186 16.595 102.928 16.4903C102.676 16.3886 102.457 16.2301 102.274 16.0208C102.14 15.8653 102.035 15.6679 101.96 15.4257C101.891 15.1774 101.855 14.8814 101.855 14.5344C101.855 14.3699 101.861 14.2174 101.87 14.0709C101.885 13.9273 101.891 13.7838 101.891 13.6432V12.444C101.891 12.3214 101.885 12.0163 101.87 11.5258C101.861 11.2178 101.84 11.0174 101.807 10.9217C101.789 10.8739 101.759 10.838 101.717 10.8081C101.648 10.7602 101.522 10.7393 101.345 10.7393C101.087 10.7393 100.883 10.7393 100.733 10.7333V10.3326C101.741 10.2189 102.472 10.0395 102.925 9.79425C103 9.75238 103.06 9.73145 103.102 9.73145C103.135 9.73145 103.162 9.74341 103.18 9.76733C103.204 9.79126 103.216 9.82715 103.216 9.87201C103.216 9.90789 103.216 9.95574 103.21 10.0126C103.192 10.1621 103.174 10.4492 103.162 10.8739C103.135 11.6544 103.12 12.1778 103.12 12.444V13.8107C103.12 14.3819 103.156 14.7827 103.234 15.0159C103.315 15.2462 103.465 15.4286 103.684 15.5692C103.908 15.7038 104.184 15.7726 104.514 15.7726C104.739 15.7726 104.961 15.7367 105.183 15.6589C105.407 15.5782 105.608 15.4675 105.788 15.324C105.92 15.2163 106.052 15.0728 106.19 14.8903C106.292 14.7557 106.361 14.6511 106.394 14.5823C106.427 14.5075 106.448 14.3999 106.457 14.2593C106.481 13.8466 106.493 13.4399 106.493 13.0331V12.444C106.493 12.3214 106.487 12.0163 106.472 11.5258C106.463 11.2178 106.442 11.0174 106.409 10.9217C106.391 10.8739 106.361 10.838 106.319 10.8081C106.25 10.7602 106.124 10.7393 105.947 10.7393C105.689 10.7393 105.485 10.7393 105.335 10.7333V10.3326C106.343 10.2189 107.074 10.0395 107.527 9.79425C107.602 9.75238 107.662 9.73145 107.704 9.73145C107.737 9.73145 107.764 9.74341 107.782 9.76733C107.806 9.79126 107.818 9.82715 107.818 9.87201C107.818 9.90789 107.818 9.95574 107.812 10.0126C107.797 10.1621 107.782 10.4582 107.764 10.9038C107.737 11.6664 107.722 12.1808 107.722 12.447V13.407L107.737 14.3819C107.752 14.9471 107.761 15.2791 107.764 15.3778C107.77 15.6111 107.794 15.7815 107.842 15.8892C107.866 15.9311 107.896 15.9699 107.932 16.0028C107.968 16.0298 108.025 16.0537 108.1 16.0716C108.127 16.0776 108.388 16.0836 108.879 16.0926L108.861 16.0896Z" fill="#9DA3AF"/>
<path d="M93.1719 13.2633C93.1719 12.2166 93.5047 11.3643 94.1702 10.7063C94.8388 10.0424 95.6963 9.71045 96.7426 9.71045C97.726 9.71045 98.5265 10.0185 99.1471 10.6346C99.7647 11.2506 100.074 12.0491 100.074 13.0241C100.074 13.706 99.9146 14.331 99.5968 14.8962C99.279 15.4615 98.8293 15.9071 98.2477 16.2271C97.666 16.5441 97.0274 16.7026 96.3289 16.7026C95.7862 16.7026 95.3245 16.6129 94.9438 16.4304C94.569 16.248 94.2632 16.0177 94.0293 15.7426C93.7955 15.4675 93.6156 15.1833 93.4957 14.8933C93.2798 14.3848 93.1719 13.8405 93.1719 13.2604V13.2633ZM94.5 12.746C94.5 13.3202 94.596 13.9063 94.7879 14.4985C94.9797 15.0906 95.2556 15.5273 95.6183 15.8024C95.9841 16.0746 96.3799 16.2091 96.8056 16.2091C97.3482 16.2091 97.8039 15.9938 98.1697 15.5632C98.5355 15.1325 98.7184 14.4716 98.7184 13.5804C98.7184 12.8387 98.6074 12.1987 98.3886 11.6604C98.1727 11.119 97.8969 10.7362 97.5581 10.5179C97.2223 10.2936 96.8476 10.183 96.4398 10.183C95.8642 10.183 95.3965 10.3923 95.0337 10.808C94.6769 11.2237 94.5 11.8697 94.5 12.749V12.746Z" fill="#9DA3AF"/>
<path d="M84.5762 7.14482V6.71716L86.2701 6.38818C86.456 6.45398 86.5849 6.51678 86.6569 6.57659C86.7258 6.63342 86.8757 6.80987 87.1006 7.10893C87.4334 7.55155 87.8171 8.15865 88.2518 8.92426C88.6866 9.68987 89.1513 10.5661 89.643 11.553C90.1406 10.7904 90.6473 9.96501 91.169 9.0708L92.665 6.52575H93.7414V6.71416C93.4835 6.99828 93.0098 7.61734 92.3233 8.57136C91.9245 9.12164 91.4088 9.92314 90.7703 10.9758C90.3715 11.6248 90.1466 12.0256 90.0957 12.1751C90.0447 12.3187 90.0177 12.4592 90.0177 12.5878V13.1261C90.0177 13.7601 90.0237 14.3822 90.0387 14.9833C90.0537 15.4259 90.0867 15.6921 90.1376 15.7758C90.1946 15.8596 90.2816 15.9224 90.3985 15.9643C90.5214 16.0001 90.8602 16.0241 91.4178 16.033V16.4816C90.6533 16.4458 89.9937 16.4248 89.4361 16.4248C88.8784 16.4248 88.1979 16.4428 87.3224 16.4816V16.033C87.8741 16.0241 88.2129 16.0001 88.3358 15.9643C88.4587 15.9224 88.5397 15.8656 88.5816 15.7968C88.6416 15.7041 88.6806 15.4768 88.6956 15.1179C88.7016 15.0192 88.7106 14.3553 88.7225 13.1261V12.3067C88.6236 12.0973 88.5277 11.9059 88.4347 11.7385C88.3688 11.6218 88.1289 11.2211 87.7182 10.5332L87.2535 9.77659C86.8877 9.17846 86.6179 8.75379 86.438 8.49959C86.0962 8.0151 85.8114 7.66519 85.5865 7.45585C85.4636 7.33921 85.3347 7.25846 85.1998 7.21061C85.0679 7.16276 84.864 7.14183 84.5822 7.14183L84.5762 7.14482Z" fill="#9DA3AF"/>
<path d="M80.3826 15.4017L80.1577 15.9071C79.8339 16.1075 79.5971 16.2421 79.4472 16.3079C79.2283 16.4066 78.9735 16.4873 78.6886 16.5531C78.4068 16.6219 78.11 16.6578 77.7952 16.6578C77.1776 16.6578 76.617 16.5292 76.1163 16.272C75.6156 16.0148 75.2228 15.632 74.944 15.1236C74.6682 14.6092 74.5303 14.0081 74.5303 13.3232C74.5303 12.7849 74.6022 12.3034 74.7491 11.8728C74.899 11.4391 75.0669 11.1191 75.2558 10.9128C75.3907 10.7632 75.6036 10.5928 75.8884 10.4014C76.1732 10.204 76.4581 10.0514 76.7399 9.9378C77.1086 9.78229 77.5104 9.70752 77.9421 9.70752C78.4668 9.70752 78.9405 9.82715 79.3602 10.0664C79.786 10.3057 80.0978 10.6286 80.2956 11.0414C80.4935 11.4541 80.5894 11.9176 80.5894 12.435C80.5894 12.5666 80.5804 12.7251 80.5625 12.9105C80.2267 12.9763 79.9239 13.0182 79.657 13.0361C79.1504 13.072 78.6437 13.0929 78.14 13.0929H75.8854C75.8944 13.7599 76.0083 14.3042 76.2302 14.7199C76.4551 15.1326 76.7609 15.4346 77.1506 15.632C77.5434 15.8294 77.9511 15.9251 78.3738 15.9251C78.6587 15.9251 78.9435 15.8802 79.2253 15.7905C79.5101 15.6978 79.8609 15.5273 80.2806 15.2851L80.3946 15.4047L80.3826 15.4017ZM75.8794 12.5367C76.0113 12.5516 76.2602 12.5636 76.623 12.5785C77.3215 12.6025 77.8012 12.6144 78.062 12.6144C78.6856 12.6144 79.0964 12.6025 79.2913 12.5785C79.2973 12.4649 79.2973 12.3812 79.2973 12.3184C79.2973 11.5797 79.1473 11.0384 78.8475 10.6914C78.5477 10.3445 78.146 10.1741 77.6453 10.1741C77.1146 10.1741 76.6889 10.3625 76.3651 10.7423C76.0413 11.1221 75.8794 11.7202 75.8734 12.5367H75.8794Z" fill="#9DA3AF"/>
<path d="M69.8018 10.9939V10.7008C70.2695 10.5243 70.6413 10.3658 70.9201 10.2253C70.9201 9.11276 70.9051 8.40397 70.8781 8.09593C71.3638 7.92846 71.7626 7.74902 72.0654 7.55762L72.2333 7.69818C72.1823 8.08696 72.1254 8.94229 72.0654 10.2642C72.4402 10.2701 72.665 10.2701 72.74 10.2701C72.7819 10.2701 73.0248 10.2642 73.4625 10.2552C73.7054 10.2492 73.8882 10.2402 74.0112 10.2283L74.0591 10.2761L73.9122 10.9281C73.6184 10.9221 73.3456 10.9221 73.0967 10.9221C72.8479 10.9221 72.5031 10.9221 72.0624 10.9281L72.0204 13.7812C72.0054 14.478 72.0114 14.8937 72.0354 15.0283C72.0594 15.1629 72.1044 15.2825 72.1703 15.3871C72.2363 15.4858 72.3202 15.5636 72.4222 15.6264C72.5301 15.6862 72.71 15.7341 72.9618 15.767C73.1537 15.767 73.3096 15.761 73.4265 15.746C73.5495 15.7281 73.6994 15.6862 73.8822 15.6204L73.9662 15.8926C73.7473 16.066 73.5315 16.2455 73.3276 16.4309C73.1507 16.4967 72.9828 16.5386 72.8299 16.5565C72.674 16.5804 72.4971 16.5924 72.2962 16.5924C72.0474 16.5924 71.8495 16.5655 71.6996 16.5086C71.5557 16.4518 71.4208 16.3741 71.2979 16.2784C71.175 16.1767 71.076 16.0481 70.9951 15.8926C70.9141 15.7371 70.8632 15.4948 70.8392 15.1629C70.8452 14.8458 70.8542 14.4959 70.8662 14.1191C70.8721 14.0443 70.8721 13.9636 70.8721 13.8739V10.964H70.5843C70.3505 10.964 70.0866 10.9759 69.7988 10.9999L69.8018 10.9939Z" fill="#9DA3AF"/>
<path d="M69.1064 16.0896V16.4903C68.4918 16.4574 68.0301 16.4425 67.7153 16.4425C67.3675 16.4425 67.0168 16.4574 66.66 16.4903C66.687 16.1105 66.708 15.6858 66.7229 15.2133C66.4411 15.4376 66.1083 15.7427 65.7186 16.1314C65.6286 16.2212 65.5417 16.287 65.4577 16.3288C65.2569 16.4425 65.056 16.5202 64.8521 16.5681C64.6513 16.6189 64.4084 16.6458 64.1296 16.6458C63.7488 16.6458 63.431 16.595 63.1732 16.4903C62.9214 16.3886 62.7025 16.2301 62.5196 16.0208C62.3847 15.8653 62.2768 15.6679 62.2018 15.4257C62.1329 15.1774 62.0969 14.8814 62.0969 14.5344C62.0969 14.3699 62.1029 14.2174 62.1119 14.0709C62.1269 13.9273 62.1329 13.7838 62.1329 13.6432V12.444C62.1329 12.3214 62.1269 12.0163 62.1119 11.5258C62.1029 11.2178 62.0819 11.0174 62.0489 10.9217C62.0309 10.8739 62.0009 10.838 61.959 10.8081C61.89 10.7602 61.7641 10.7393 61.5872 10.7393C61.3294 10.7393 61.1255 10.7393 60.9756 10.7333V10.3326C61.9829 10.2189 62.7145 10.0395 63.1672 9.79425C63.2422 9.75238 63.3021 9.73145 63.3441 9.73145C63.3771 9.73145 63.404 9.74341 63.422 9.76733C63.446 9.79126 63.458 9.82715 63.458 9.87201C63.458 9.90789 63.458 9.95574 63.452 10.0126C63.434 10.1621 63.416 10.4492 63.404 10.8739C63.3771 11.6544 63.3621 12.1778 63.3621 12.444V13.8107C63.3621 14.3819 63.3981 14.7827 63.476 15.0159C63.557 15.2462 63.7069 15.4286 63.9257 15.5692C64.1506 15.7038 64.4264 15.7726 64.7562 15.7726C64.9811 15.7726 65.2029 15.7367 65.4248 15.6589C65.6496 15.5782 65.8505 15.4675 66.0304 15.324C66.1623 15.2163 66.2942 15.0728 66.4321 14.8903C66.5341 14.7557 66.603 14.6511 66.636 14.5823C66.669 14.5075 66.69 14.3999 66.699 14.2593C66.7229 13.8466 66.7349 13.4399 66.7349 13.0331V12.444C66.7349 12.3214 66.7289 12.0163 66.714 11.5258C66.705 11.2178 66.684 11.0174 66.651 10.9217C66.633 10.8739 66.603 10.838 66.561 10.8081C66.4921 10.7602 66.3662 10.7393 66.1893 10.7393C65.9314 10.7393 65.7276 10.7393 65.5777 10.7333V10.3326C66.585 10.2189 67.3166 10.0395 67.7693 9.79425C67.8442 9.75238 67.9042 9.73145 67.9462 9.73145C67.9792 9.73145 68.0061 9.74341 68.0241 9.76733C68.0481 9.79126 68.0601 9.82715 68.0601 9.87201C68.0601 9.90789 68.0601 9.95574 68.0541 10.0126C68.0391 10.1621 68.0241 10.4582 68.0061 10.9038C67.9792 11.6664 67.9642 12.1808 67.9642 12.447V13.407L67.9792 14.3819C67.9941 14.9471 68.0031 15.2791 68.0061 15.3778C68.0121 15.6111 68.0361 15.7815 68.0841 15.8892C68.1081 15.9311 68.1381 15.9699 68.174 16.0028C68.21 16.0298 68.267 16.0537 68.3419 16.0716C68.3689 16.0776 68.6297 16.0836 69.1214 16.0926L69.1064 16.0896Z" fill="#9DA3AF"/>
<path d="M53.4141 13.2633C53.4141 12.2166 53.7469 11.3643 54.4124 10.7063C55.084 10.0424 55.9385 9.71045 56.9848 9.71045C57.9682 9.71045 58.7687 10.0185 59.3893 10.6346C60.0069 11.2506 60.3157 12.0491 60.3157 13.0241C60.3157 13.706 60.1568 14.331 59.839 14.8962C59.5212 15.4615 59.0715 15.9071 58.4898 16.2271C57.9082 16.5441 57.2696 16.7026 56.5711 16.7026C56.0284 16.7026 55.5667 16.6129 55.1859 16.4304C54.8112 16.248 54.5084 16.0177 54.2715 15.7426C54.0377 15.4675 53.8578 15.1833 53.7379 14.8933C53.522 14.3848 53.4141 13.8405 53.4141 13.2604V13.2633ZM54.7422 12.746C54.7422 13.3202 54.8382 13.9063 55.03 14.4985C55.2219 15.0906 55.4977 15.5273 55.8575 15.8024C56.2233 16.0746 56.619 16.2091 57.0448 16.2091C57.5874 16.2091 58.0431 15.9938 58.4089 15.5632C58.7747 15.1325 58.9576 14.4716 58.9576 13.5804C58.9576 12.8387 58.8466 12.1987 58.6278 11.6604C58.4119 11.119 58.1361 10.7362 57.7973 10.5179C57.4615 10.2936 57.0867 10.183 56.679 10.183C56.1034 10.183 55.6327 10.3923 55.2729 10.808C54.9161 11.2237 54.7392 11.8697 54.7392 12.749L54.7422 12.746Z" fill="#9DA3AF"/>
<path d="M43.6407 6.97716V6.52856C43.8236 6.53455 44.1024 6.54053 44.4772 6.5495L45.8263 6.58539C46.0931 6.58539 46.5069 6.57641 47.0705 6.55847C47.8021 6.53155 48.2248 6.5166 48.3417 6.5166C49.2382 6.5166 49.8887 6.59735 50.2965 6.75585C50.7102 6.91436 51.028 7.17455 51.2529 7.53342C51.4777 7.88931 51.5887 8.27511 51.5887 8.69679C51.5887 9.08856 51.4837 9.48034 51.2739 9.86613C51.064 10.2549 50.7552 10.5779 50.3534 10.8321C49.9547 11.0893 49.436 11.2867 48.7944 11.4273C48.9114 11.5917 49.1872 11.9566 49.6249 12.5218L51.3968 14.8486C51.9035 15.4975 52.1973 15.8594 52.2812 15.9342C52.3232 15.9671 52.3652 15.991 52.4071 16.003C52.4791 16.0269 52.632 16.0388 52.8719 16.0388V16.4874C52.5151 16.4605 52.2033 16.4456 51.9364 16.4456C51.6696 16.4456 51.3218 16.4605 50.9171 16.4874C50.6143 16.1375 50.1016 15.4527 49.3851 14.4329C48.9863 13.8676 48.6355 13.3951 48.3297 13.0183C47.838 12.3932 47.3703 11.825 46.9236 11.3136L46.9926 11.1043C47.2354 11.1192 47.4213 11.1252 47.5472 11.1252C48.3987 11.1252 49.0463 10.9248 49.487 10.5211C49.9277 10.1203 50.1466 9.588 50.1466 8.93006C50.1466 8.35585 49.9577 7.89828 49.5769 7.56333C49.1992 7.2224 48.6235 7.05193 47.856 7.05193C47.3733 7.05193 46.8996 7.1237 46.4379 7.27025C46.4199 7.52146 46.4049 7.75772 46.3959 7.97903C46.39 8.04483 46.375 8.7237 46.348 10.0187V13.1319C46.348 13.7659 46.357 14.388 46.375 14.9891C46.384 15.4317 46.4139 15.6979 46.4649 15.7816C46.5219 15.8654 46.6118 15.9282 46.7317 15.9701C46.8547 16.0059 47.1904 16.0299 47.7451 16.0388V16.4874C47.0795 16.4516 46.4679 16.4306 45.9103 16.4306C45.4605 16.4306 44.705 16.4486 43.6407 16.4874V16.0388C44.1923 16.0299 44.5311 16.0059 44.6541 15.9701C44.777 15.9282 44.8609 15.8714 44.9059 15.8026C44.9629 15.7099 44.9988 15.4826 45.0108 15.1237C45.0168 15.025 45.0258 14.3611 45.0378 13.1319V9.88707C45.0378 9.25305 45.0318 8.63099 45.0168 8.02389C45.0018 7.58127 44.9689 7.3181 44.9119 7.24034C44.8609 7.1566 44.774 7.09679 44.6511 7.05791C44.5341 7.01604 44.1953 6.98912 43.6377 6.98015L43.6407 6.97716Z" fill="#9DA3AF"/>
<path d="M107.098 24.8794V24.7657C107.188 24.7149 107.263 24.667 107.326 24.6252C107.335 24.5205 107.344 24.371 107.35 24.1826C107.362 23.8626 107.365 23.6383 107.365 23.5156V22.5616C107.365 22.4091 107.359 22.2297 107.35 22.0233C107.344 21.8947 107.332 21.814 107.317 21.7811C107.305 21.7601 107.29 21.7452 107.269 21.7362C107.218 21.7153 107.11 21.7033 106.948 21.7003V21.5538C107.176 21.5627 107.377 21.5687 107.554 21.5687C107.689 21.5687 107.872 21.5657 108.103 21.5598C108.336 21.5538 108.516 21.5508 108.642 21.5508C109.026 21.5508 109.332 21.5986 109.566 21.6973C109.799 21.793 109.994 21.9575 110.159 22.1848C110.321 22.4121 110.402 22.6932 110.402 23.0222C110.402 23.2584 110.363 23.4798 110.288 23.6891C110.21 23.8955 110.108 24.0779 109.976 24.2334C109.844 24.3889 109.703 24.5085 109.554 24.6013C109.404 24.694 109.245 24.7598 109.08 24.8076C108.915 24.8525 108.69 24.8764 108.402 24.8764C108.306 24.8764 108.177 24.8734 108.016 24.8674C107.803 24.8614 107.665 24.8584 107.599 24.8584C107.503 24.8584 107.335 24.8644 107.098 24.8764V24.8794ZM107.827 24.6252C107.998 24.6551 108.18 24.67 108.369 24.67C108.558 24.67 108.738 24.6521 108.888 24.6192C109.041 24.5833 109.167 24.5355 109.275 24.4727C109.383 24.4098 109.488 24.3201 109.587 24.1975C109.686 24.0749 109.763 23.9194 109.817 23.731C109.871 23.5396 109.898 23.3452 109.898 23.1418C109.898 22.8517 109.847 22.6035 109.742 22.3971C109.641 22.1878 109.485 22.0293 109.275 21.9186C109.065 21.808 108.777 21.7541 108.411 21.7541C108.219 21.7541 108.025 21.7691 107.827 21.799C107.821 21.8738 107.818 22.0113 107.815 22.2057L107.806 22.5437V23.4768L107.812 24.2005C107.812 24.3112 107.818 24.4517 107.827 24.6252Z" fill="#9DA3AF"/>
<path d="M103.162 24.8793V24.7327C103.327 24.7327 103.435 24.7178 103.486 24.6968C103.507 24.6879 103.522 24.6729 103.534 24.652C103.549 24.6221 103.561 24.5383 103.567 24.4067C103.576 24.2004 103.582 24.0239 103.582 23.8744V22.6811C103.582 22.4688 103.582 22.2624 103.576 22.0591C103.57 21.9125 103.561 21.8228 103.54 21.7959C103.522 21.769 103.495 21.748 103.453 21.7361C103.414 21.7211 103.3 21.7122 103.117 21.7092V21.5596L103.786 21.5746L104.493 21.5626C104.832 21.5566 105.078 21.5566 105.231 21.5566C105.384 21.5566 105.531 21.5656 105.669 21.5836C105.645 21.6733 105.627 21.748 105.618 21.8138C105.615 21.8288 105.6 21.9903 105.576 22.2983H105.429C105.429 22.1398 105.42 21.9933 105.399 21.8647C105.312 21.8288 105.219 21.8049 105.114 21.7929C104.94 21.772 104.763 21.76 104.589 21.76C104.553 21.76 104.469 21.763 104.337 21.769C104.208 21.775 104.116 21.7809 104.059 21.7869C104.053 21.9604 104.047 22.1219 104.044 22.2714L104.035 23.0609C104.217 23.0699 104.385 23.0759 104.538 23.0759C104.724 23.0759 104.883 23.0669 105.015 23.049C105.066 23.043 105.096 23.031 105.111 23.0131C105.126 22.9951 105.138 22.9293 105.147 22.8217L105.162 22.6572H105.303V22.7021L105.291 23.1865L105.303 23.7308H105.138L105.132 23.5723C105.132 23.4557 105.117 23.3869 105.099 23.357C105.081 23.3301 105.048 23.3092 104.997 23.3002C104.907 23.2822 104.736 23.2733 104.478 23.2733C104.373 23.2733 104.226 23.2763 104.035 23.2852C104.026 23.4408 104.023 23.671 104.023 23.9791C104.023 24.2662 104.026 24.4875 104.035 24.637C104.259 24.655 104.511 24.6639 104.79 24.6639C104.988 24.6639 105.129 24.6579 105.213 24.646C105.297 24.634 105.375 24.6131 105.447 24.5832C105.465 24.5353 105.483 24.4695 105.504 24.3858C105.54 24.2482 105.561 24.1436 105.573 24.0718H105.729C105.687 24.3858 105.669 24.646 105.669 24.8553C105.534 24.8763 105.372 24.8852 105.18 24.8852L103.783 24.8673C103.762 24.8673 103.558 24.8733 103.168 24.8852L103.162 24.8793Z" fill="#9DA3AF"/>
<path d="M101.911 24.7298V24.8793C101.579 24.8674 101.36 24.8614 101.255 24.8614L100.532 24.8793V24.7298C100.715 24.7268 100.829 24.7178 100.868 24.7059C100.91 24.6909 100.937 24.673 100.952 24.649C100.97 24.6191 100.982 24.5414 100.988 24.4217C100.988 24.3889 100.994 24.1675 100.997 23.7578V22.6752C100.997 22.4629 100.997 22.2565 100.991 22.0531C100.985 21.9066 100.976 21.8169 100.955 21.79C100.937 21.7631 100.91 21.7421 100.868 21.7302C100.829 21.7152 100.715 21.7062 100.532 21.7032V21.5537C100.829 21.5657 101.06 21.5717 101.222 21.5717C101.384 21.5717 101.609 21.5657 101.911 21.5537V21.7032C101.725 21.7062 101.612 21.7152 101.573 21.7302C101.534 21.7421 101.507 21.7601 101.492 21.784C101.474 21.8139 101.462 21.8917 101.456 22.0113C101.456 22.0412 101.45 22.2625 101.447 22.6752V23.7578C101.447 23.9702 101.447 24.1765 101.453 24.3769C101.459 24.5264 101.468 24.6132 101.486 24.6401C101.504 24.667 101.534 24.6879 101.573 24.7029C101.615 24.7148 101.725 24.7238 101.911 24.7268V24.7298Z" fill="#9DA3AF"/>
<path d="M96.8955 21.7092V21.5596C97.1324 21.5686 97.3332 21.5746 97.4981 21.5746C97.6151 21.5746 97.8249 21.5716 98.1277 21.5656C98.4305 21.5596 98.6344 21.5566 98.7423 21.5566C98.8563 21.5566 98.9612 21.5566 99.0541 21.5596C99.1501 21.5596 99.234 21.5656 99.312 21.5716C99.273 21.7032 99.249 21.9394 99.237 22.2804H99.0901C99.0751 22.092 99.0571 21.9484 99.0332 21.8467C98.9522 21.8198 98.8503 21.7989 98.7303 21.7869C98.6104 21.772 98.4725 21.766 98.3166 21.766C98.1607 21.766 97.9958 21.775 97.8279 21.7929C97.8189 21.8766 97.8129 21.9544 97.8099 22.0292C97.8099 22.071 97.8039 22.2505 97.7979 22.5645V23.0819C97.9718 23.0879 98.1277 23.0879 98.2626 23.0879C98.4605 23.0879 98.6194 23.0789 98.7393 23.0579C98.7843 23.049 98.8143 23.037 98.8263 23.0221C98.8413 23.0041 98.8563 22.9383 98.8713 22.8247L98.8892 22.6811H99.0361L99.0182 23.2135L99.0361 23.7847H98.8892L98.8743 23.6351C98.8563 23.4647 98.8443 23.375 98.8383 23.363C98.8263 23.3421 98.7963 23.3241 98.7483 23.3151C98.6584 23.2942 98.4575 23.2852 98.1427 23.2852C98.0318 23.2852 97.9179 23.2882 97.8009 23.2942V23.7667C97.8009 23.9791 97.8009 24.1854 97.8099 24.3858C97.8129 24.5353 97.8219 24.6221 97.8399 24.649C97.8579 24.6759 97.8879 24.6968 97.9299 24.7118C97.9718 24.7237 98.0828 24.7327 98.2656 24.7357V24.8852C98.0678 24.8733 97.8699 24.8673 97.672 24.8673C97.4951 24.8673 97.2373 24.8733 96.8985 24.8852V24.7357C97.0814 24.7327 97.1953 24.7237 97.2343 24.7118C97.2733 24.6968 97.3033 24.6789 97.3182 24.655C97.3362 24.6251 97.3482 24.5473 97.3542 24.4277C97.3542 24.3948 97.3602 24.1735 97.3632 23.7637V22.6811C97.3632 22.4688 97.3632 22.2624 97.3572 22.0591C97.3512 21.9125 97.3422 21.8228 97.3212 21.7959C97.3032 21.769 97.2763 21.748 97.2343 21.7361C97.1953 21.7211 97.0814 21.7122 96.8985 21.7092H96.8955Z" fill="#9DA3AF"/>
<path d="M95.7053 24.7298V24.8793C95.3725 24.8674 95.1536 24.8614 95.0487 24.8614L94.3262 24.8793V24.7298C94.5091 24.7268 94.623 24.7178 94.662 24.7059C94.7039 24.6909 94.7309 24.673 94.7459 24.649C94.7639 24.6191 94.7759 24.5414 94.7819 24.4217C94.7819 24.3889 94.7879 24.1675 94.7909 23.7578V22.6752C94.7909 22.4629 94.7909 22.2565 94.7849 22.0531C94.7789 21.9066 94.7699 21.8169 94.7489 21.79C94.7309 21.7631 94.7039 21.7421 94.662 21.7302C94.623 21.7152 94.5091 21.7062 94.3262 21.7032V21.5537C94.623 21.5657 94.8538 21.5717 95.0157 21.5717C95.1776 21.5717 95.4025 21.5657 95.7053 21.5537V21.7032C95.5194 21.7062 95.4055 21.7152 95.3665 21.7302C95.3275 21.7421 95.3006 21.7601 95.2856 21.784C95.2676 21.8139 95.2556 21.8917 95.2496 22.0113C95.2496 22.0412 95.2436 22.2625 95.2406 22.6752V23.7578C95.2406 23.9702 95.2406 24.1765 95.2466 24.3769C95.2526 24.5264 95.2616 24.6132 95.2796 24.6401C95.2976 24.667 95.3275 24.6879 95.3665 24.7029C95.4085 24.7148 95.5194 24.7238 95.7053 24.7268V24.7298Z" fill="#9DA3AF"/>
<path d="M90.621 24.8793V24.7566C90.7169 24.7118 90.7799 24.6759 90.8069 24.649C90.8219 24.634 90.8339 24.6161 90.8399 24.5951C90.8548 24.5503 90.8638 24.4576 90.8668 24.314C90.8728 24.1017 90.8758 23.9731 90.8758 23.9342V22.6781C90.8758 22.4658 90.8758 22.2594 90.8698 22.0561C90.8638 21.9095 90.8549 21.8198 90.8339 21.7929C90.8159 21.766 90.7889 21.7451 90.7469 21.7331C90.7079 21.7181 90.594 21.7092 90.4111 21.7062V21.5566C90.7919 21.5686 91.0287 21.5746 91.1187 21.5746C91.2176 21.5746 91.4425 21.5686 91.7903 21.5566V21.7062C91.6044 21.7092 91.4905 21.7181 91.4515 21.7331C91.4125 21.7451 91.3855 21.763 91.3705 21.7869C91.3525 21.8168 91.3405 21.8946 91.3346 22.0142C91.3346 22.0441 91.3285 22.2654 91.3256 22.6781V24.2482C91.3256 24.4127 91.3286 24.5443 91.3346 24.649C91.5114 24.6609 91.6883 24.6669 91.8652 24.6669C92.3059 24.6669 92.6147 24.64 92.7916 24.5832C92.8126 24.5353 92.8306 24.4815 92.8456 24.4217L92.9385 24.0329H93.0944C93.0615 24.2662 93.0255 24.5383 92.9925 24.8493C92.9295 24.8613 92.8786 24.8703 92.8396 24.8733C92.7586 24.8793 92.6327 24.8793 92.4648 24.8793L91.0797 24.8613C90.9298 24.8613 90.7769 24.8673 90.624 24.8793H90.621Z" fill="#9DA3AF"/>
<path d="M86.5908 21.7092V21.5596C86.9056 21.5686 87.1545 21.5746 87.3343 21.5746C87.4573 21.5746 87.5862 21.5746 87.7241 21.5686L88.0929 21.5566C88.1348 21.5566 88.1708 21.5566 88.2068 21.5566C88.4556 21.5566 88.6505 21.5836 88.7914 21.6374C88.9323 21.6912 89.0433 21.7779 89.1242 21.9006C89.2052 22.0202 89.2441 22.1548 89.2441 22.3073C89.2441 22.4449 89.2112 22.5794 89.1422 22.717C89.0762 22.8516 88.9803 22.9682 88.8544 23.0639C88.7285 23.1566 88.5965 23.2254 88.4586 23.2643C88.3657 23.2912 88.2578 23.3062 88.1408 23.3062C88.0419 23.3062 87.934 23.2942 87.817 23.2733L87.7691 23.0998C87.907 23.1297 88.0179 23.1477 88.0959 23.1477C88.2128 23.1477 88.3237 23.1208 88.4287 23.0639C88.5336 23.0071 88.6175 22.9204 88.6745 22.8067C88.7345 22.6901 88.7644 22.5645 88.7644 22.4269C88.7644 22.2893 88.7345 22.1727 88.6775 22.0651C88.6205 21.9574 88.5336 21.8736 88.4167 21.8168C88.2997 21.76 88.1618 21.7331 87.9939 21.7331C87.847 21.7331 87.6851 21.76 87.5172 21.8108C87.5022 21.9753 87.4962 22.2355 87.4962 22.5854V23.7637C87.4962 23.9761 87.4962 24.1824 87.5022 24.3828C87.5082 24.5323 87.5172 24.6191 87.5352 24.646C87.5532 24.6729 87.5832 24.6938 87.6222 24.7088C87.6641 24.7208 87.7751 24.7297 87.961 24.7327V24.8822C87.6731 24.8703 87.4603 24.8643 87.3253 24.8643C87.2714 24.8643 87.0285 24.8703 86.5908 24.8822V24.7327C86.7737 24.7297 86.8876 24.7208 86.9266 24.7088C86.9686 24.6938 86.9956 24.6759 87.0106 24.652C87.0285 24.6221 87.0405 24.5443 87.0465 24.4247C87.0465 24.3918 87.0495 24.1705 87.0555 23.7608V22.6781C87.0555 22.4658 87.0555 22.2594 87.0495 22.0561C87.0435 21.9095 87.0345 21.8198 87.0136 21.7929C86.9956 21.766 86.9686 21.7451 86.9266 21.7331C86.8876 21.7181 86.7737 21.7092 86.5908 21.7062V21.7092Z" fill="#9DA3AF"/>
<path d="M81.0537 21.7092V21.5596C81.2186 21.5656 81.3745 21.5686 81.5244 21.5686C81.6743 21.5686 81.8212 21.5656 81.9591 21.5596C82.097 21.8707 82.223 22.1458 82.3369 22.3791L83.2243 24.2004L84.0248 22.5286C84.2437 22.074 84.3906 21.751 84.4626 21.5566C84.6274 21.5626 84.7684 21.5656 84.8823 21.5656C84.9872 21.5656 85.1551 21.5626 85.392 21.5566V21.7062C85.2061 21.7092 85.0922 21.7181 85.0532 21.7331C85.0142 21.7451 84.9872 21.763 84.9722 21.7869C84.9512 21.8168 84.9392 21.8946 84.9362 22.0142C84.9362 22.0441 84.9303 22.2654 84.9243 22.6781V23.7608C84.9243 23.9731 84.9273 24.1794 84.9333 24.3798C84.9393 24.5293 84.9482 24.6161 84.9662 24.643C84.9842 24.6699 85.0142 24.6908 85.0532 24.7058C85.0952 24.7178 85.2061 24.7267 85.392 24.7297V24.8793C85.0772 24.8643 84.8553 24.8583 84.7234 24.8583C84.6185 24.8583 84.3876 24.8643 84.0308 24.8793V24.7297C84.2167 24.7267 84.3306 24.7178 84.3696 24.7058C84.4116 24.6908 84.4386 24.6729 84.4506 24.649C84.4715 24.6191 84.4835 24.5413 84.4865 24.4217C84.4865 24.3888 84.4925 24.1675 84.4985 23.7578V22.0411L83.689 23.7279C83.5631 23.991 83.4642 24.2034 83.3922 24.3619C83.3413 24.4785 83.2633 24.6639 83.1584 24.9181H83.0684C83.0474 24.8583 83.0295 24.8105 83.0115 24.7746L82.8526 24.4366L81.7343 22.1159V23.7548C81.7343 23.9671 81.7373 24.1735 81.7433 24.3738C81.7493 24.5234 81.7583 24.6101 81.7763 24.637C81.7942 24.6639 81.8242 24.6849 81.8632 24.6998C81.9052 24.7118 82.0161 24.7208 82.202 24.7237V24.8733L81.6383 24.8553L81.0537 24.8733V24.7237C81.2366 24.7208 81.3505 24.7118 81.3895 24.6998C81.4315 24.6849 81.4585 24.6669 81.4734 24.643C81.4914 24.6131 81.5034 24.5353 81.5094 24.4157C81.5094 24.3828 81.5154 24.1615 81.5184 23.7518V22.6692C81.5184 22.4568 81.5184 22.2505 81.5124 22.0471C81.5064 21.9006 81.4974 21.8108 81.4764 21.7839C81.4585 21.757 81.4315 21.7361 81.3895 21.7241C81.3505 21.7092 81.2366 21.7002 81.0537 21.6972V21.7092Z" fill="#9DA3AF"/>
<path d="M79.8811 24.7298V24.8793C79.5483 24.8674 79.3294 24.8614 79.2245 24.8614L78.502 24.8793V24.7298C78.6878 24.7268 78.7988 24.7178 78.8377 24.7059C78.8797 24.6909 78.9067 24.673 78.9217 24.649C78.9397 24.6191 78.9517 24.5414 78.9577 24.4217C78.9577 24.3889 78.9637 24.1675 78.9667 23.7578V22.6752C78.9667 22.4629 78.9667 22.2565 78.9607 22.0531C78.9577 21.9066 78.9457 21.8169 78.9247 21.79C78.9067 21.7631 78.8797 21.7421 78.8377 21.7302C78.7988 21.7152 78.6848 21.7062 78.502 21.7032V21.5537C78.7988 21.5657 79.0296 21.5717 79.1945 21.5717C79.3594 21.5717 79.5813 21.5657 79.8841 21.5537V21.7032C79.6982 21.7062 79.5843 21.7152 79.5453 21.7302C79.5063 21.7421 79.4793 21.7601 79.4643 21.784C79.4464 21.8139 79.4344 21.8917 79.4284 22.0113C79.4284 22.0412 79.4224 22.2625 79.4194 22.6752V23.7578C79.4194 23.9702 79.4194 24.1765 79.4254 24.3769C79.4314 24.5264 79.4404 24.6132 79.4583 24.6401C79.4763 24.667 79.5063 24.6879 79.5453 24.7029C79.5873 24.7148 79.6982 24.7238 79.8841 24.7268L79.8811 24.7298Z" fill="#9DA3AF"/>
<path d="M75.063 24.7654C75.087 24.6159 75.102 24.3737 75.108 24.0387H75.2669C75.2759 24.266 75.2879 24.4006 75.3029 24.4424C75.3209 24.4813 75.3659 24.5262 75.4348 24.574C75.5038 24.6219 75.5967 24.6637 75.7106 24.6996C75.8276 24.7355 75.9385 24.7535 76.0464 24.7535C76.2053 24.7535 76.3492 24.7176 76.4812 24.6458C76.6131 24.571 76.712 24.4783 76.772 24.3617C76.8319 24.2421 76.8619 24.1165 76.8619 23.9849C76.8619 23.8832 76.8469 23.7935 76.8139 23.7187C76.784 23.6439 76.739 23.5841 76.676 23.5393C76.6131 23.4914 76.5351 23.4585 76.4452 23.4406C76.3882 23.4316 76.2713 23.4166 76.0974 23.3927C75.9235 23.3718 75.7766 23.3479 75.6537 23.3209C75.4918 23.2701 75.3719 23.2133 75.2939 23.1445C75.216 23.0787 75.156 22.989 75.108 22.8813C75.0601 22.7737 75.0391 22.654 75.0391 22.5284C75.0391 22.346 75.087 22.1725 75.183 22.008C75.2789 21.8436 75.4228 21.718 75.6087 21.6282C75.7976 21.5385 76.0015 21.4937 76.2233 21.4937C76.3552 21.4937 76.4991 21.5116 76.658 21.5475C76.8169 21.5804 76.9638 21.6312 77.0988 21.7C77.0778 21.7987 77.0628 21.8914 77.0508 21.9751C77.0418 22.0589 77.0358 22.1845 77.0298 22.349H76.8709C76.8649 22.1097 76.8589 21.9781 76.8499 21.9572C76.8109 21.9004 76.757 21.8495 76.691 21.8047C76.5291 21.715 76.3612 21.6701 76.1873 21.6701C75.9595 21.6701 75.7796 21.7389 75.6447 21.8765C75.5098 22.014 75.4438 22.1935 75.4438 22.4118C75.4438 22.5434 75.4678 22.648 75.5158 22.7198C75.5637 22.7916 75.6507 22.8484 75.7766 22.8933C75.8635 22.9232 76.0045 22.9501 76.1993 22.977C76.3942 23.0009 76.5711 23.0279 76.727 23.0578C76.8739 23.1026 76.9818 23.1535 77.0538 23.2133C77.1227 23.2731 77.1827 23.3508 77.2277 23.4495C77.2726 23.5452 77.2966 23.6589 77.2966 23.7905C77.2966 24.1015 77.1677 24.3707 76.9099 24.6009C76.652 24.8312 76.3193 24.9479 75.9085 24.9479C75.5997 24.9479 75.3179 24.888 75.069 24.7654H75.063Z" fill="#9DA3AF"/>
<path d="M68.7317 21.763V21.6194L69.2953 21.5088C69.3583 21.5297 69.4002 21.5507 69.4242 21.5716C69.4482 21.5895 69.4962 21.6494 69.5711 21.748C69.682 21.8946 69.811 22.0979 69.9549 22.3522C70.0988 22.6064 70.2547 22.8994 70.4196 23.2284C70.5845 22.9742 70.7554 22.6991 70.9293 22.4L71.4269 21.5507H71.7837V21.6135C71.6968 21.7092 71.5409 21.9155 71.31 22.2325C71.1781 22.415 71.0042 22.6841 70.7913 23.034C70.6594 23.2493 70.5845 23.3839 70.5665 23.4348C70.5485 23.4826 70.5395 23.5275 70.5395 23.5723V23.7518C70.5395 23.9641 70.5395 24.1705 70.5455 24.3708C70.5515 24.5204 70.5605 24.6071 70.5785 24.634C70.5965 24.6609 70.6264 24.6819 70.6654 24.6968C70.7074 24.7088 70.8183 24.7178 71.0042 24.7208V24.8703C70.7494 24.8583 70.5305 24.8523 70.3446 24.8523C70.1587 24.8523 69.9309 24.8583 69.6401 24.8703V24.7208C69.823 24.7178 69.9369 24.7088 69.9759 24.6968C70.0178 24.6819 70.0448 24.6639 70.0568 24.64C70.0778 24.6101 70.0898 24.5323 70.0928 24.4127C70.0928 24.3798 70.0988 24.1585 70.1018 23.7488V23.4736C70.0688 23.4049 70.0358 23.3421 70.0058 23.2852C69.9849 23.2464 69.9039 23.1118 69.766 22.8845L69.6131 22.6333C69.4902 22.4329 69.4002 22.2923 69.3403 22.2086C69.2263 22.0471 69.1334 21.9305 69.0584 21.8617C69.0165 21.8228 68.9745 21.7959 68.9295 21.7809C68.8876 21.766 68.8156 21.757 68.7227 21.757L68.7317 21.763Z" fill="#9DA3AF"/>
<path d="M64.9512 24.8793V24.7327C65.1161 24.7327 65.224 24.7178 65.275 24.6968C65.296 24.6879 65.311 24.6729 65.323 24.652C65.338 24.6221 65.35 24.5383 65.356 24.4067C65.365 24.2004 65.371 24.0239 65.371 23.8744V22.6811C65.371 22.4688 65.371 22.2624 65.365 22.0591C65.359 21.9125 65.35 21.8228 65.329 21.7959C65.311 21.769 65.284 21.748 65.242 21.7361C65.2031 21.7211 65.0891 21.7122 64.9062 21.7092V21.5596L65.5748 21.5746L66.2824 21.5626C66.6212 21.5566 66.867 21.5566 67.0199 21.5566C67.1728 21.5566 67.3197 21.5656 67.4576 21.5836C67.4336 21.6733 67.4157 21.748 67.4067 21.8138C67.4037 21.8288 67.3887 21.9903 67.3647 22.2983H67.2178C67.2178 22.1398 67.2088 21.9933 67.1878 21.8647C67.1009 21.8288 67.0079 21.8049 66.903 21.7929C66.7291 21.772 66.5522 21.76 66.3783 21.76C66.3423 21.76 66.2584 21.763 66.1265 21.769C65.9976 21.775 65.9046 21.7809 65.8477 21.7869C65.8417 21.9604 65.8357 22.1219 65.8327 22.2714L65.8237 23.0609C66.0066 23.0699 66.1744 23.0759 66.3273 23.0759C66.5132 23.0759 66.6721 23.0669 66.804 23.049C66.855 23.043 66.885 23.031 66.9 23.0131C66.915 22.9951 66.927 22.9293 66.936 22.8217L66.951 22.6572H67.0919V22.7021L67.0799 23.1865L67.0919 23.7308H66.927L66.921 23.5723C66.918 23.4557 66.906 23.3869 66.888 23.357C66.87 23.3301 66.837 23.3092 66.7861 23.3002C66.6961 23.2822 66.5252 23.2733 66.2674 23.2733C66.1625 23.2733 66.0155 23.2763 65.8237 23.2852C65.8147 23.4408 65.8117 23.671 65.8117 23.9791C65.8117 24.2662 65.8147 24.4875 65.8237 24.637C66.0485 24.655 66.3004 24.6639 66.5792 24.6639C66.7771 24.6639 66.918 24.6579 67.0019 24.646C67.0859 24.634 67.1638 24.6131 67.2358 24.5832C67.2538 24.5353 67.2718 24.4695 67.2927 24.3858C67.3257 24.2482 67.3497 24.1436 67.3617 24.0718H67.5176C67.4756 24.3858 67.4576 24.646 67.4576 24.8553C67.3227 24.8763 67.1608 24.8852 66.9689 24.8852L65.5718 24.8673C65.5508 24.8673 65.347 24.8733 64.9572 24.8852L64.9512 24.8793Z" fill="#9DA3AF"/>
<path d="M59.974 24.8794V24.7328C60.1389 24.7328 60.2468 24.7179 60.2978 24.697C60.3188 24.688 60.3337 24.673 60.3457 24.6521C60.3607 24.6222 60.3727 24.5384 60.3787 24.4069C60.3877 24.2005 60.3937 24.0241 60.3937 23.8745V21.9695C60.3937 21.9186 60.3907 21.8857 60.3847 21.8678C60.3727 21.8409 60.3427 21.805 60.3008 21.7661C60.2738 21.7422 60.2408 21.7272 60.2018 21.7183C60.1659 21.7093 60.0849 21.7063 59.959 21.7033V21.5568C60.2198 21.5627 60.3847 21.5657 60.4507 21.5657C60.5646 21.5657 60.6785 21.5627 60.7895 21.5568C60.9214 21.7302 61.0203 21.8588 61.0833 21.9396L61.569 22.5347L62.2765 23.3841C62.5044 23.6562 62.6843 23.8685 62.8222 24.0241C62.9091 24.1257 62.9841 24.2065 63.041 24.2663V22.5586C63.041 22.4061 63.035 22.2267 63.026 22.0203C63.02 21.8917 63.011 21.811 62.9961 21.7781C62.9841 21.7571 62.9691 21.7422 62.9481 21.7332C62.8971 21.7123 62.7892 21.7003 62.6273 21.6973V21.5508C62.8102 21.5568 62.9991 21.5598 63.1879 21.5598C63.3648 21.5598 63.5267 21.5568 63.6736 21.5508V21.6973C63.5117 21.6973 63.4038 21.7093 63.3528 21.7332C63.3318 21.7422 63.3169 21.7571 63.3049 21.7811C63.2899 21.811 63.2779 21.8917 63.2719 22.0263C63.2629 22.2327 63.2569 22.4091 63.2569 22.5556V23.6801C63.2569 23.9074 63.2599 24.3321 63.2689 24.9541L63.029 24.8854L62.9721 24.8734C62.9721 24.8734 62.9541 24.8644 62.9451 24.8584C62.9331 24.8495 62.9031 24.8196 62.8551 24.7657C62.7262 24.6192 62.6303 24.5085 62.5703 24.4338L62.2675 24.054L60.6066 22.0741V23.8655C60.6066 24.0181 60.6126 24.1975 60.6216 24.4039C60.6276 24.5325 60.6366 24.6132 60.6515 24.6431C60.6635 24.6641 60.6785 24.679 60.6995 24.691C60.7505 24.7119 60.8584 24.7239 61.0203 24.7269V24.8734C60.8824 24.8614 60.7325 24.8555 60.5676 24.8555C60.3877 24.8555 60.1898 24.8614 59.977 24.8734L59.974 24.8794Z" fill="#9DA3AF"/>
<path d="M55.7822 21.7092V21.5597C55.8422 21.5597 55.9351 21.5627 56.0611 21.5657L56.5108 21.5776C56.6007 21.5776 56.7386 21.5746 56.9245 21.5687C57.1673 21.5597 57.3083 21.5537 57.3472 21.5537C57.644 21.5537 57.8629 21.5806 57.9978 21.6315C58.1357 21.6853 58.2407 21.772 58.3156 21.8917C58.3906 22.0113 58.4296 22.1399 58.4296 22.2804C58.4296 22.412 58.3936 22.5406 58.3246 22.6722C58.2527 22.8008 58.1507 22.9085 58.0188 22.9952C57.8869 23.0819 57.713 23.1477 57.5001 23.1926C57.5391 23.2464 57.6321 23.369 57.776 23.5574L58.3666 24.332C58.5345 24.5474 58.6334 24.67 58.6634 24.6939C58.6784 24.7059 58.6904 24.7118 58.7054 24.7178C58.7294 24.7268 58.7803 24.7298 58.8613 24.7298V24.8793C58.7414 24.8703 58.6394 24.8644 58.5495 24.8644C58.4595 24.8644 58.3456 24.8703 58.2107 24.8793C58.1088 24.7627 57.9379 24.5354 57.701 24.1945C57.5691 24.006 57.4522 23.8475 57.3502 23.7219C57.1853 23.5126 57.0294 23.3242 56.8825 23.1537L56.9065 23.0849C56.9875 23.0879 57.0504 23.0909 57.0924 23.0909C57.3772 23.0909 57.5931 23.0251 57.74 22.8905C57.8869 22.756 57.9618 22.5795 57.9618 22.3612C57.9618 22.1698 57.8989 22.0173 57.773 21.9066C57.647 21.793 57.4552 21.7361 57.2003 21.7361C57.0384 21.7361 56.8825 21.7601 56.7266 21.8079C56.7206 21.8917 56.7146 21.9694 56.7116 22.0442C56.7116 22.0651 56.7056 22.2924 56.6966 22.7231V23.7608C56.6966 23.9731 56.6966 24.1795 56.7056 24.3799C56.7086 24.5294 56.7176 24.6161 56.7356 24.6431C56.7536 24.67 56.7836 24.6909 56.8256 24.7059C56.8675 24.7178 56.9785 24.7268 57.1614 24.7298V24.8793C56.9395 24.8674 56.7356 24.8614 56.5497 24.8614C56.3998 24.8614 56.148 24.8674 55.7942 24.8793V24.7298C55.9771 24.7268 56.091 24.7178 56.13 24.7059C56.172 24.6909 56.199 24.673 56.214 24.649C56.2319 24.6191 56.2439 24.5414 56.2499 24.4217C56.2499 24.3889 56.2529 24.1675 56.2589 23.7578V22.6752C56.2589 22.4629 56.2589 22.2565 56.2529 22.0531C56.2499 21.9066 56.2379 21.8169 56.217 21.79C56.199 21.7631 56.172 21.7421 56.13 21.7302C56.091 21.7152 55.9771 21.7062 55.7942 21.7032L55.7822 21.7092Z" fill="#9DA3AF"/>
<path d="M51.0547 21.7091V21.5596C51.3095 21.5715 51.5464 21.5775 51.7652 21.5775C51.9841 21.5775 52.206 21.5715 52.4248 21.5596V21.7091C52.2419 21.7121 52.128 21.7211 52.089 21.736C52.0501 21.748 52.0201 21.7659 52.0081 21.7899C51.9871 21.8198 51.9751 21.8975 51.9721 22.0171C51.9721 22.047 51.9691 22.2684 51.9631 22.6811V23.5454C51.9631 23.8803 51.9841 24.1016 52.0261 24.2093C52.071 24.314 52.14 24.4037 52.2329 24.4725C52.3049 24.5263 52.4008 24.5682 52.5238 24.6011C52.6467 24.631 52.7816 24.6489 52.9315 24.6489C53.1054 24.6489 53.2613 24.628 53.3962 24.5861C53.5311 24.5413 53.6331 24.4904 53.702 24.4306C53.771 24.3678 53.8219 24.299 53.8549 24.2242C53.8909 24.1465 53.9149 24.0448 53.9269 23.9102C53.9419 23.7756 53.9509 23.6082 53.9509 23.4048V22.6841C53.9509 22.4717 53.9509 22.2654 53.9419 22.062C53.9419 21.9155 53.9269 21.8257 53.9089 21.7988C53.8909 21.7719 53.8639 21.751 53.8219 21.739C53.78 21.7241 53.669 21.7151 53.4861 21.7121V21.5626C53.744 21.5745 53.9329 21.5805 54.0498 21.5805C54.1577 21.5805 54.3526 21.5745 54.6344 21.5626V21.7121C54.4485 21.7151 54.3346 21.7241 54.2956 21.739C54.2567 21.751 54.2297 21.7689 54.2147 21.7928C54.1967 21.8227 54.1847 21.9005 54.1787 22.0201C54.1787 22.05 54.1757 22.2713 54.1697 22.6841V23.4676C54.1697 23.8534 54.1427 24.1196 54.0888 24.2721C54.0348 24.4246 53.9359 24.5592 53.792 24.6758C53.684 24.7626 53.5461 24.8313 53.3752 24.8792C53.2073 24.927 53.0184 24.951 52.8116 24.951C52.5717 24.951 52.3619 24.9241 52.185 24.8672C52.0081 24.8104 51.8732 24.7356 51.7832 24.6429C51.6903 24.5502 51.6273 24.4545 51.5943 24.3588C51.5494 24.2302 51.5284 24.0179 51.5284 23.7158V22.6841C51.5284 22.4717 51.5284 22.2654 51.5224 22.062C51.5164 21.9155 51.5074 21.8257 51.4864 21.7988C51.4684 21.7719 51.4414 21.751 51.3995 21.739C51.3605 21.7241 51.2466 21.7151 51.0637 21.7121L51.0547 21.7091Z" fill="#9DA3AF"/>
<path d="M46.3691 23.2403C46.3691 22.995 46.4051 22.7677 46.4801 22.5584C46.555 22.349 46.6779 22.1606 46.8518 21.9961C47.0257 21.8317 47.2176 21.7031 47.4335 21.6193C47.6493 21.5326 47.8982 21.4907 48.177 21.4907C48.4348 21.4907 48.6687 21.5266 48.8786 21.6014C49.0884 21.6732 49.2623 21.7689 49.3972 21.8885C49.5321 22.0081 49.6401 22.1367 49.718 22.2773C49.778 22.3819 49.823 22.5075 49.8589 22.6511C49.8949 22.7946 49.9129 22.9472 49.9129 23.1117C49.9129 23.638 49.736 24.0746 49.3822 24.4216C49.0285 24.7715 48.5847 24.9449 48.0451 24.9449C47.7992 24.9449 47.5714 24.9061 47.3585 24.8253C47.1457 24.7446 46.9658 24.6279 46.8189 24.4724C46.6719 24.3139 46.561 24.1255 46.4831 23.9012C46.4081 23.6769 46.3691 23.4556 46.3691 23.2373V23.2403ZM46.8548 23.0459C46.8548 23.1924 46.8698 23.3449 46.8998 23.4975C46.9298 23.65 46.9658 23.7816 47.0137 23.8922C47.0887 24.0776 47.1846 24.2361 47.3075 24.3647C47.4305 24.4903 47.5654 24.5831 47.7123 24.6459C47.8622 24.7057 48.0271 24.7356 48.21 24.7356C48.4618 24.7356 48.6807 24.6758 48.8666 24.5532C49.0524 24.4305 49.1904 24.2571 49.2803 24.0358C49.3732 23.8145 49.4182 23.5573 49.4182 23.2672C49.4182 23.0189 49.3852 22.7917 49.3193 22.5823C49.2803 22.4537 49.2233 22.3401 49.1574 22.2354C49.0914 22.1307 49.0105 22.041 48.9175 21.9632C48.8246 21.8855 48.7047 21.8197 48.5578 21.7659C48.4108 21.712 48.249 21.6881 48.0781 21.6881C47.8292 21.6881 47.6104 21.7419 47.4245 21.8526C47.2386 21.9632 47.0947 22.1247 47.0017 22.3341C46.9088 22.5434 46.8608 22.7797 46.8608 23.0459H46.8548Z" fill="#9DA3AF"/>
<path d="M43.6406 25.7764L43.6466 25.6149V25.582C43.6466 25.5461 43.6466 25.4923 43.6406 25.4175L43.6856 25.3876C43.7306 25.4205 43.7725 25.4414 43.8085 25.4564C43.8475 25.4713 43.8895 25.4773 43.9374 25.4773C44.0214 25.4773 44.0873 25.4594 44.1323 25.4265C44.1773 25.3936 44.2103 25.3427 44.2313 25.271C44.2522 25.1992 44.2612 25.0138 44.2612 24.7117V22.6811C44.2612 22.4687 44.2582 22.2624 44.2522 22.059C44.2492 21.9125 44.2372 21.8227 44.2193 21.7958C44.2013 21.7689 44.1743 21.748 44.1323 21.736C44.0903 21.7211 43.9794 21.7121 43.7965 21.7091V21.5596C44.0424 21.5685 44.2732 21.5745 44.4891 21.5745C44.7169 21.5745 44.9478 21.5685 45.1847 21.5596V21.7091C44.9988 21.7121 44.8878 21.7211 44.8489 21.736C44.8099 21.748 44.7799 21.7659 44.7679 21.7899C44.7469 21.8198 44.7349 21.8975 44.7319 22.0171C44.7319 22.047 44.7289 22.2684 44.7229 22.6811V24.3588C44.7229 24.613 44.702 24.8164 44.657 24.9629C44.612 25.1125 44.5401 25.25 44.4351 25.3846C44.3332 25.5192 44.2193 25.6209 44.0993 25.6897C43.9764 25.7585 43.8595 25.7913 43.7456 25.7913C43.7156 25.7913 43.6826 25.7884 43.6466 25.7794L43.6406 25.7764Z" fill="#9DA3AF"/>
</g>
<defs>
<clipPath id="clip0_408_1965">
<rect width="158" height="32" fill="white"/>
</clipPath>
</defs>
</svg>
