<svg width="272" height="32" viewBox="0 0 272 32" fill="none" xmlns="http://www.w3.org/2000/svg">
<g clip-path="url(#clip0_408_2019)">
<path d="M54.3628 8.70673C56.3517 4.82689 59.4352 3.4955 62.7963 3.52C65.9206 3.5445 69.0939 4.30005 72.1447 5.12094C76.1757 6.20321 80.1045 7.66122 84.5765 9.11922C83.2778 9.82576 82.3589 10.5364 81.3256 10.8508C76.5595 12.3048 72.9819 15.4168 69.437 18.7575C63.2987 24.5405 55.8943 27.5668 47.6119 25.3451C43.3237 24.1934 39.4561 21.159 35.6416 18.6105C30.2302 14.9961 25.358 10.4302 18.7663 8.9967C15.7441 8.33917 12.6035 8.22073 9.50782 7.91443C8.52356 7.81641 7.52297 7.89809 6.53055 7.89809C6.46112 7.72656 6.39169 7.55503 6.32227 7.3835C8.7196 6.11745 11.0434 4.67987 13.5265 3.6221C20.4898 0.665258 27.7839 0.0894082 35.1311 1.54741C43.2052 3.14835 49.7029 7.67347 55.2817 13.5545C56.9848 15.3474 58.598 17.0994 61.1137 17.7815C64.0951 18.5901 66.4761 17.7692 67.4889 15.38C68.3915 13.2482 67.2439 10.083 64.6709 9.15189C62.584 8.39226 60.1989 8.39634 57.9363 8.22481C56.9603 8.1513 55.9515 8.47394 54.3587 8.70673H54.3628Z" fill="#9DA3AF"/>
<path d="M54.3628 8.70673C56.3517 4.82689 59.4352 3.4955 62.7963 3.52C65.9206 3.5445 69.0939 4.30005 72.1447 5.12094C76.1757 6.20321 80.1045 7.66122 84.5765 9.11922C83.2778 9.82576 82.3589 10.5364 81.3256 10.8508C76.5595 12.3048 72.9819 15.4168 69.437 18.7575C63.2987 24.5405 55.8943 27.5668 47.6119 25.3451C43.3237 24.1934 39.4561 21.159 35.6416 18.6105C30.2302 14.9961 25.358 10.4302 18.7663 8.9967C15.7441 8.33917 12.6035 8.22073 9.50782 7.91443C8.52356 7.81641 7.52297 7.89809 6.53055 7.89809C6.46112 7.72656 6.39169 7.55503 6.32227 7.3835C8.7196 6.11745 11.0434 4.67987 13.5265 3.6221C20.4898 0.665258 27.7839 0.0894082 35.1311 1.54741C43.2052 3.14835 49.7029 7.67347 55.2817 13.5545C56.9848 15.3474 58.598 17.0994 61.1137 17.7815C64.0951 18.5901 66.4761 17.7692 67.4889 15.38C68.3915 13.2482 67.2439 10.083 64.6709 9.15189C62.584 8.39226 60.1989 8.39634 57.9363 8.22481C56.9603 8.1513 55.9515 8.47394 54.3587 8.70673H54.3628Z" fill="#9DA3AF"/>
<path d="M46.0685 29.9111C44.2797 30.3726 42.5032 30.8831 40.698 31.2833C31.66 33.3008 23.5165 30.8586 15.7445 26.3457C11.1132 23.6543 6.3921 21.1222 1.71179 18.5207C1.54026 18.4268 1.3769 18.3124 0.772461 17.9326C1.78122 17.8142 2.26722 17.6794 2.74097 17.708C7.62548 18.0102 12.5018 18.5044 17.3863 18.5942C20.2615 18.6473 23.1448 18.0265 26.0322 17.8346C26.6571 17.7937 27.768 18.1531 27.8986 18.5656C30.4879 26.7827 36.6834 29.2372 44.5125 29.176C44.9822 29.176 45.4478 29.2331 45.9174 29.2617C45.9664 29.4782 46.0154 29.6946 46.0604 29.907L46.0685 29.9111Z" fill="#9DA3AF"/>
<path d="M46.0685 29.9111C44.2797 30.3726 42.5032 30.8831 40.698 31.2833C31.66 33.3008 23.5165 30.8586 15.7445 26.3457C11.1132 23.6543 6.3921 21.1222 1.71179 18.5207C1.54026 18.4268 1.3769 18.3124 0.772461 17.9326C1.78122 17.8142 2.26722 17.6794 2.74097 17.708C7.62548 18.0102 12.5018 18.5044 17.3863 18.5942C20.2615 18.6473 23.1448 18.0265 26.0322 17.8346C26.6571 17.7937 27.768 18.1531 27.8986 18.5656C30.4879 26.7827 36.6834 29.2372 44.5125 29.176C44.9822 29.176 45.4478 29.2331 45.9174 29.2617C45.9664 29.4782 46.0154 29.6946 46.0604 29.907L46.0685 29.9111Z" fill="#9DA3AF"/>
<path d="M101.601 19.368V10.808H100.977C100.54 10.808 100.188 10.8293 99.9212 10.872C99.6546 10.904 99.4572 10.9787 99.3292 11.096C99.2012 11.2027 99.1266 11.352 99.1052 11.544L98.9612 13.4H97.6812V9.64H108.033V13.4H106.753L106.593 11.544C106.583 11.352 106.513 11.2027 106.385 11.096C106.257 10.9787 106.06 10.904 105.793 10.872C105.527 10.8293 105.175 10.808 104.737 10.808H104.113V19.368C104.113 19.6027 104.22 19.7573 104.433 19.832C104.647 19.9067 104.913 19.944 105.233 19.944H105.505V21H100.209V19.944H100.481C100.801 19.944 101.068 19.9067 101.281 19.832C101.495 19.7573 101.601 19.6027 101.601 19.368ZM114.572 15.88L116.908 15.464L118.988 19.32C119.084 19.4907 119.185 19.624 119.292 19.72C119.398 19.8053 119.516 19.864 119.644 19.896C119.782 19.928 119.932 19.944 120.092 19.944H120.236V21H117.068L114.572 15.88ZM113.052 19.784C113.052 19.816 113.084 19.8427 113.148 19.864C113.212 19.8747 113.292 19.8907 113.388 19.912C113.494 19.9227 113.612 19.9333 113.74 19.944C113.868 19.944 113.996 19.944 114.124 19.944H114.332V21H109.292V19.944H109.452C109.772 19.944 110.033 19.9067 110.236 19.832C110.449 19.7573 110.556 19.6027 110.556 19.368V11.272C110.556 11.0373 110.449 10.8827 110.236 10.808C110.033 10.7333 109.772 10.696 109.452 10.696H109.292V9.64H114.94C115.836 9.64 116.593 9.768 117.212 10.024C117.841 10.28 118.321 10.648 118.652 11.128C118.982 11.5973 119.148 12.168 119.148 12.84C119.148 13.4267 119.014 13.9493 118.748 14.408C118.481 14.856 118.092 15.224 117.58 15.512C117.078 15.8 116.46 15.992 115.724 16.088C115.638 16.1307 115.553 16.168 115.468 16.2C115.382 16.2213 115.292 16.2427 115.196 16.264C115.11 16.2853 115.02 16.3013 114.924 16.312H112.732V15.192H114.508C114.977 15.192 115.361 15.1013 115.66 14.92C115.969 14.728 116.193 14.4613 116.332 14.12C116.481 13.7787 116.556 13.3733 116.556 12.904C116.556 12.456 116.481 12.0773 116.332 11.768C116.193 11.448 115.974 11.208 115.676 11.048C115.388 10.8773 115.025 10.792 114.588 10.792H113.052V19.784ZM130.54 17.4V21H121.292V19.944H121.452C121.772 19.944 122.033 19.9067 122.236 19.832C122.449 19.7573 122.556 19.6027 122.556 19.368V11.272C122.556 11.0373 122.449 10.8827 122.236 10.808C122.033 10.7333 121.772 10.696 121.452 10.696H121.292V9.64H130.14V12.84H128.892L128.748 11.512C128.737 11.32 128.662 11.176 128.524 11.08C128.396 10.9733 128.204 10.904 127.948 10.872C127.692 10.8293 127.372 10.808 126.988 10.808H125.052V19.832H127.18C127.51 19.832 127.793 19.8213 128.028 19.8C128.262 19.7787 128.454 19.7413 128.604 19.688C128.753 19.6347 128.865 19.5653 128.94 19.48C129.025 19.384 129.073 19.2667 129.084 19.128L129.276 17.4H130.54ZM124.668 14.648C125.116 14.6267 125.558 14.6053 125.996 14.584C126.433 14.5627 126.87 14.5413 127.308 14.52C127.756 14.488 128.198 14.4613 128.636 14.44V15.912C128.198 15.88 127.761 15.8533 127.324 15.832C126.886 15.8107 126.444 15.7893 125.996 15.768C125.558 15.736 125.116 15.7147 124.668 15.704V14.648ZM134.377 16.2H138.857L138.953 17.304H134.265L134.377 16.2ZM136.361 10.44L136.745 10.92L133.913 19.624C133.913 19.688 133.966 19.7467 134.073 19.8C134.179 19.8427 134.318 19.88 134.489 19.912C134.659 19.9333 134.851 19.944 135.065 19.944H135.257V21H131.657V19.944H131.737C132.003 19.944 132.217 19.896 132.377 19.8C132.537 19.6933 132.67 19.4747 132.777 19.144L135.913 9.592H138.569L141.785 19.304C141.87 19.5707 141.998 19.7467 142.169 19.832C142.339 19.9067 142.553 19.944 142.809 19.944H142.889V21H137.993V19.944H138.217C138.419 19.944 138.606 19.9387 138.777 19.928C138.958 19.9173 139.102 19.9013 139.209 19.88C139.326 19.848 139.385 19.816 139.385 19.784L136.361 10.44ZM148.843 20.04C149.291 20.04 149.665 19.9867 149.963 19.88C150.273 19.7627 150.502 19.5813 150.651 19.336C150.801 19.0907 150.875 18.776 150.875 18.392C150.875 18.04 150.795 17.752 150.635 17.528C150.486 17.2933 150.273 17.1013 149.995 16.952C149.718 16.792 149.393 16.6587 149.019 16.552C148.646 16.4347 148.246 16.3173 147.819 16.2C147.361 16.0827 146.923 15.944 146.507 15.784C146.091 15.6133 145.718 15.4 145.387 15.144C145.057 14.888 144.795 14.5573 144.603 14.152C144.411 13.7467 144.315 13.2453 144.315 12.648C144.315 11.9547 144.475 11.368 144.795 10.888C145.115 10.3973 145.558 10.0293 146.123 9.784C146.689 9.528 147.334 9.4 148.059 9.4C148.678 9.4 149.211 9.48533 149.659 9.656C150.107 9.82667 150.486 10.1147 150.795 10.52C151.115 10.9147 151.371 11.4533 151.563 12.136L150.955 11.816L151.227 9.592H152.363V12.76H151.067C150.929 12.2907 150.726 11.896 150.459 11.576C150.193 11.2453 149.878 11 149.515 10.84C149.153 10.6693 148.742 10.584 148.283 10.584C147.867 10.584 147.521 10.6427 147.243 10.76C146.966 10.8773 146.758 11.048 146.619 11.272C146.491 11.496 146.427 11.7733 146.427 12.104C146.427 12.424 146.502 12.6907 146.651 12.904C146.801 13.1067 147.003 13.2773 147.259 13.416C147.526 13.544 147.835 13.656 148.187 13.752C148.55 13.848 148.939 13.9493 149.355 14.056C149.825 14.1733 150.278 14.3173 150.715 14.488C151.163 14.648 151.563 14.856 151.915 15.112C152.267 15.368 152.545 15.6987 152.747 16.104C152.961 16.5093 153.067 17.0107 153.067 17.608C153.067 18.3867 152.897 19.048 152.555 19.592C152.225 20.136 151.755 20.5467 151.147 20.824C150.539 21.1013 149.825 21.24 149.003 21.24C148.331 21.24 147.713 21.1387 147.147 20.936C146.582 20.7333 146.097 20.4027 145.691 19.944C145.297 19.4747 145.003 18.8453 144.811 18.056L145.467 18.424L145.195 21.032H144.011V17.368H145.387C145.558 17.944 145.809 18.4347 146.139 18.84C146.481 19.2347 146.881 19.5333 147.339 19.736C147.798 19.9387 148.299 20.04 148.843 20.04ZM157.847 16.68C157.847 17.2773 157.906 17.7787 158.023 18.184C158.151 18.5893 158.327 18.9147 158.551 19.16C158.775 19.3947 159.042 19.5707 159.351 19.688C159.671 19.7947 160.034 19.848 160.439 19.848C160.823 19.848 161.17 19.7893 161.479 19.672C161.799 19.5547 162.071 19.3733 162.295 19.128C162.53 18.8827 162.706 18.5627 162.823 18.168C162.951 17.7627 163.015 17.2667 163.015 16.68V11.016C163.015 10.9627 162.978 10.92 162.903 10.888C162.839 10.8453 162.749 10.8133 162.631 10.792C162.525 10.76 162.402 10.7387 162.263 10.728C162.125 10.7067 161.991 10.696 161.863 10.696H161.719V9.64H165.543V10.696H165.383C165.17 10.696 164.978 10.7173 164.807 10.76C164.637 10.792 164.503 10.856 164.407 10.952C164.322 11.048 164.279 11.1867 164.279 11.368V16.68C164.279 17.4907 164.167 18.184 163.943 18.76C163.719 19.336 163.41 19.8107 163.015 20.184C162.621 20.5467 162.157 20.8133 161.623 20.984C161.101 21.1547 160.535 21.24 159.927 21.24C159.255 21.24 158.637 21.1547 158.071 20.984C157.517 20.8027 157.031 20.5307 156.615 20.168C156.21 19.8053 155.895 19.336 155.671 18.76C155.458 18.184 155.351 17.4907 155.351 16.68V11.272C155.351 11.0373 155.245 10.8827 155.031 10.808C154.829 10.7333 154.567 10.696 154.247 10.696H154.071V9.64H159.127V10.696H158.967C158.85 10.696 158.722 10.7013 158.583 10.712C158.455 10.712 158.333 10.7227 158.215 10.744C158.109 10.7547 158.018 10.7707 157.943 10.792C157.879 10.8027 157.847 10.824 157.847 10.856V16.68ZM172.072 15.88L174.408 15.464L176.488 19.32C176.584 19.4907 176.685 19.624 176.792 19.72C176.898 19.8053 177.016 19.864 177.144 19.896C177.282 19.928 177.432 19.944 177.592 19.944H177.736V21H174.568L172.072 15.88ZM170.552 19.784C170.552 19.816 170.584 19.8427 170.648 19.864C170.712 19.8747 170.792 19.8907 170.888 19.912C170.994 19.9227 171.112 19.9333 171.24 19.944C171.368 19.944 171.496 19.944 171.624 19.944H171.832V21H166.792V19.944H166.952C167.272 19.944 167.533 19.9067 167.736 19.832C167.949 19.7573 168.056 19.6027 168.056 19.368V11.272C168.056 11.0373 167.949 10.8827 167.736 10.808C167.533 10.7333 167.272 10.696 166.952 10.696H166.792V9.64H172.44C173.336 9.64 174.093 9.768 174.712 10.024C175.341 10.28 175.821 10.648 176.152 11.128C176.482 11.5973 176.648 12.168 176.648 12.84C176.648 13.4267 176.514 13.9493 176.248 14.408C175.981 14.856 175.592 15.224 175.08 15.512C174.578 15.8 173.96 15.992 173.224 16.088C173.138 16.1307 173.053 16.168 172.968 16.2C172.882 16.2213 172.792 16.2427 172.696 16.264C172.61 16.2853 172.52 16.3013 172.424 16.312H170.232V15.192H172.008C172.477 15.192 172.861 15.1013 173.16 14.92C173.469 14.728 173.693 14.4613 173.832 14.12C173.981 13.7787 174.056 13.3733 174.056 12.904C174.056 12.456 173.981 12.0773 173.832 11.768C173.693 11.448 173.474 11.208 173.176 11.048C172.888 10.8773 172.525 10.792 172.088 10.792H170.552V19.784ZM188.04 17.4V21H178.792V19.944H178.952C179.272 19.944 179.533 19.9067 179.736 19.832C179.949 19.7573 180.056 19.6027 180.056 19.368V11.272C180.056 11.0373 179.949 10.8827 179.736 10.808C179.533 10.7333 179.272 10.696 178.952 10.696H178.792V9.64H187.64V12.84H186.392L186.248 11.512C186.237 11.32 186.162 11.176 186.024 11.08C185.896 10.9733 185.704 10.904 185.448 10.872C185.192 10.8293 184.872 10.808 184.488 10.808H182.552V19.832H184.68C185.01 19.832 185.293 19.8213 185.528 19.8C185.762 19.7787 185.954 19.7413 186.104 19.688C186.253 19.6347 186.365 19.5653 186.44 19.48C186.525 19.384 186.573 19.2667 186.584 19.128L186.776 17.4H188.04ZM182.168 14.648C182.616 14.6267 183.058 14.6053 183.496 14.584C183.933 14.5627 184.37 14.5413 184.808 14.52C185.256 14.488 185.698 14.4613 186.136 14.44V15.912C185.698 15.88 185.261 15.8533 184.824 15.832C184.386 15.8107 183.944 15.7893 183.496 15.768C183.058 15.736 182.616 15.7147 182.168 15.704V14.648ZM197.523 19.368V10.808H196.899C196.462 10.808 196.11 10.8293 195.843 10.872C195.576 10.904 195.379 10.9787 195.251 11.096C195.123 11.2027 195.048 11.352 195.027 11.544L194.883 13.4H193.603V9.64H203.955V13.4H202.675L202.515 11.544C202.504 11.352 202.435 11.2027 202.307 11.096C202.179 10.9787 201.982 10.904 201.715 10.872C201.448 10.8293 201.096 10.808 200.659 10.808H200.035V19.368C200.035 19.6027 200.142 19.7573 200.355 19.832C200.568 19.9067 200.835 19.944 201.155 19.944H201.427V21H196.131V19.944H196.403C196.723 19.944 196.99 19.9067 197.203 19.832C197.416 19.7573 197.523 19.6027 197.523 19.368ZM210.494 15.88L212.83 15.464L214.91 19.32C215.006 19.4907 215.107 19.624 215.214 19.72C215.32 19.8053 215.438 19.864 215.566 19.896C215.704 19.928 215.854 19.944 216.014 19.944H216.158V21H212.99L210.494 15.88ZM208.974 19.784C208.974 19.816 209.006 19.8427 209.07 19.864C209.134 19.8747 209.214 19.8907 209.31 19.912C209.416 19.9227 209.534 19.9333 209.662 19.944C209.79 19.944 209.918 19.944 210.046 19.944H210.254V21H205.214V19.944H205.374C205.694 19.944 205.955 19.9067 206.158 19.832C206.371 19.7573 206.478 19.6027 206.478 19.368V11.272C206.478 11.0373 206.371 10.8827 206.158 10.808C205.955 10.7333 205.694 10.696 205.374 10.696H205.214V9.64H210.862C211.758 9.64 212.515 9.768 213.134 10.024C213.763 10.28 214.243 10.648 214.574 11.128C214.904 11.5973 215.07 12.168 215.07 12.84C215.07 13.4267 214.936 13.9493 214.67 14.408C214.403 14.856 214.014 15.224 213.502 15.512C213 15.8 212.382 15.992 211.646 16.088C211.56 16.1307 211.475 16.168 211.39 16.2C211.304 16.2213 211.214 16.2427 211.118 16.264C211.032 16.2853 210.942 16.3013 210.846 16.312H208.654V15.192H210.43C210.899 15.192 211.283 15.1013 211.582 14.92C211.891 14.728 212.115 14.4613 212.254 14.12C212.403 13.7787 212.478 13.3733 212.478 12.904C212.478 12.456 212.403 12.0773 212.254 11.768C212.115 11.448 211.896 11.208 211.598 11.048C211.31 10.8773 210.947 10.792 210.51 10.792H208.974V19.784ZM219.627 16.2H224.107L224.203 17.304H219.515L219.627 16.2ZM221.611 10.44L221.995 10.92L219.163 19.624C219.163 19.688 219.216 19.7467 219.323 19.8C219.429 19.8427 219.568 19.88 219.739 19.912C219.909 19.9333 220.101 19.944 220.315 19.944H220.507V21H216.907V19.944H216.987C217.253 19.944 217.467 19.896 217.627 19.8C217.787 19.6933 217.92 19.4747 218.027 19.144L221.163 9.592H223.819L227.035 19.304C227.12 19.5707 227.248 19.7467 227.419 19.832C227.589 19.9067 227.803 19.944 228.059 19.944H228.139V21H223.243V19.944H223.467C223.669 19.944 223.856 19.9387 224.027 19.928C224.208 19.9173 224.352 19.9013 224.459 19.88C224.576 19.848 224.635 19.816 224.635 19.784L221.611 10.44ZM234.091 20.184L233.707 19.688L236.539 11.016C236.539 10.9413 236.486 10.8827 236.379 10.84C236.283 10.7973 236.144 10.7653 235.963 10.744C235.792 10.712 235.611 10.696 235.419 10.696H235.211V9.64H238.811V10.696H238.731C238.464 10.696 238.251 10.7493 238.091 10.856C237.931 10.952 237.792 11.1653 237.675 11.496L234.539 21.032H231.883L228.667 11.336C228.571 11.0587 228.438 10.8827 228.267 10.808C228.107 10.7333 227.894 10.696 227.627 10.696H227.547V9.64H232.443V10.696H232.203C232 10.696 231.814 10.7013 231.643 10.712C231.472 10.7227 231.334 10.7387 231.227 10.76C231.12 10.7813 231.067 10.8133 231.067 10.856L234.091 20.184ZM248.93 17.4V21H239.682V19.944H239.842C240.162 19.944 240.424 19.9067 240.626 19.832C240.84 19.7573 240.946 19.6027 240.946 19.368V11.272C240.946 11.0373 240.84 10.8827 240.626 10.808C240.424 10.7333 240.162 10.696 239.842 10.696H239.682V9.64H248.53V12.84H247.282L247.138 11.512C247.128 11.32 247.053 11.176 246.914 11.08C246.786 10.9733 246.594 10.904 246.338 10.872C246.082 10.8293 245.762 10.808 245.378 10.808H243.442V19.832H245.57C245.901 19.832 246.184 19.8213 246.418 19.8C246.653 19.7787 246.845 19.7413 246.994 19.688C247.144 19.6347 247.256 19.5653 247.33 19.48C247.416 19.384 247.464 19.2667 247.474 19.128L247.666 17.4H248.93ZM243.058 14.648C243.506 14.6267 243.949 14.6053 244.386 14.584C244.824 14.5627 245.261 14.5413 245.698 14.52C246.146 14.488 246.589 14.4613 247.026 14.44V15.912C246.589 15.88 246.152 15.8533 245.714 15.832C245.277 15.8107 244.834 15.7893 244.386 15.768C243.949 15.736 243.506 15.7147 243.058 15.704V14.648ZM255.601 9.64V10.696H255.377C255.025 10.696 254.737 10.7333 254.513 10.808C254.299 10.8827 254.193 11.0373 254.193 11.272V19.832H256.145C256.593 19.832 256.95 19.816 257.217 19.784C257.494 19.7413 257.697 19.672 257.825 19.576C257.963 19.4693 258.043 19.32 258.065 19.128L258.241 17.16H259.537V21H250.417V19.944H250.577C250.897 19.944 251.158 19.9067 251.361 19.832C251.574 19.7573 251.681 19.6027 251.681 19.368V11.272C251.681 11.0373 251.574 10.8827 251.361 10.808C251.158 10.7333 250.897 10.696 250.577 10.696H250.417V9.64H255.601ZM265.718 20.04C266.166 20.04 266.54 19.9867 266.838 19.88C267.148 19.7627 267.377 19.5813 267.526 19.336C267.676 19.0907 267.75 18.776 267.75 18.392C267.75 18.04 267.67 17.752 267.51 17.528C267.361 17.2933 267.148 17.1013 266.87 16.952C266.593 16.792 266.268 16.6587 265.894 16.552C265.521 16.4347 265.121 16.3173 264.694 16.2C264.236 16.0827 263.798 15.944 263.382 15.784C262.966 15.6133 262.593 15.4 262.262 15.144C261.932 14.888 261.67 14.5573 261.478 14.152C261.286 13.7467 261.19 13.2453 261.19 12.648C261.19 11.9547 261.35 11.368 261.67 10.888C261.99 10.3973 262.433 10.0293 262.998 9.784C263.564 9.528 264.209 9.4 264.934 9.4C265.553 9.4 266.086 9.48533 266.534 9.656C266.982 9.82667 267.361 10.1147 267.67 10.52C267.99 10.9147 268.246 11.4533 268.438 12.136L267.83 11.816L268.102 9.592H269.238V12.76H267.942C267.804 12.2907 267.601 11.896 267.334 11.576C267.068 11.2453 266.753 11 266.39 10.84C266.028 10.6693 265.617 10.584 265.158 10.584C264.742 10.584 264.396 10.6427 264.118 10.76C263.841 10.8773 263.633 11.048 263.494 11.272C263.366 11.496 263.302 11.7733 263.302 12.104C263.302 12.424 263.377 12.6907 263.526 12.904C263.676 13.1067 263.878 13.2773 264.134 13.416C264.401 13.544 264.71 13.656 265.062 13.752C265.425 13.848 265.814 13.9493 266.23 14.056C266.7 14.1733 267.153 14.3173 267.59 14.488C268.038 14.648 268.438 14.856 268.79 15.112C269.142 15.368 269.42 15.6987 269.622 16.104C269.836 16.5093 269.942 17.0107 269.942 17.608C269.942 18.3867 269.772 19.048 269.43 19.592C269.1 20.136 268.63 20.5467 268.022 20.824C267.414 21.1013 266.7 21.24 265.878 21.24C265.206 21.24 264.588 21.1387 264.022 20.936C263.457 20.7333 262.972 20.4027 262.566 19.944C262.172 19.4747 261.878 18.8453 261.686 18.056L262.342 18.424L262.07 21.032H260.886V17.368H262.262C262.433 17.944 262.684 18.4347 263.014 18.84C263.356 19.2347 263.756 19.5333 264.214 19.736C264.673 19.9387 265.174 20.04 265.718 20.04Z" fill="#9DA3AF"/>
<path d="M101.601 19.368V10.808H100.977C100.54 10.808 100.188 10.8293 99.9212 10.872C99.6546 10.904 99.4572 10.9787 99.3292 11.096C99.2012 11.2027 99.1266 11.352 99.1052 11.544L98.9612 13.4H97.6812V9.64H108.033V13.4H106.753L106.593 11.544C106.583 11.352 106.513 11.2027 106.385 11.096C106.257 10.9787 106.06 10.904 105.793 10.872C105.527 10.8293 105.175 10.808 104.737 10.808H104.113V19.368C104.113 19.6027 104.22 19.7573 104.433 19.832C104.647 19.9067 104.913 19.944 105.233 19.944H105.505V21H100.209V19.944H100.481C100.801 19.944 101.068 19.9067 101.281 19.832C101.495 19.7573 101.601 19.6027 101.601 19.368ZM114.572 15.88L116.908 15.464L118.988 19.32C119.084 19.4907 119.185 19.624 119.292 19.72C119.398 19.8053 119.516 19.864 119.644 19.896C119.782 19.928 119.932 19.944 120.092 19.944H120.236V21H117.068L114.572 15.88ZM113.052 19.784C113.052 19.816 113.084 19.8427 113.148 19.864C113.212 19.8747 113.292 19.8907 113.388 19.912C113.494 19.9227 113.612 19.9333 113.74 19.944C113.868 19.944 113.996 19.944 114.124 19.944H114.332V21H109.292V19.944H109.452C109.772 19.944 110.033 19.9067 110.236 19.832C110.449 19.7573 110.556 19.6027 110.556 19.368V11.272C110.556 11.0373 110.449 10.8827 110.236 10.808C110.033 10.7333 109.772 10.696 109.452 10.696H109.292V9.64H114.94C115.836 9.64 116.593 9.768 117.212 10.024C117.841 10.28 118.321 10.648 118.652 11.128C118.982 11.5973 119.148 12.168 119.148 12.84C119.148 13.4267 119.014 13.9493 118.748 14.408C118.481 14.856 118.092 15.224 117.58 15.512C117.078 15.8 116.46 15.992 115.724 16.088C115.638 16.1307 115.553 16.168 115.468 16.2C115.382 16.2213 115.292 16.2427 115.196 16.264C115.11 16.2853 115.02 16.3013 114.924 16.312H112.732V15.192H114.508C114.977 15.192 115.361 15.1013 115.66 14.92C115.969 14.728 116.193 14.4613 116.332 14.12C116.481 13.7787 116.556 13.3733 116.556 12.904C116.556 12.456 116.481 12.0773 116.332 11.768C116.193 11.448 115.974 11.208 115.676 11.048C115.388 10.8773 115.025 10.792 114.588 10.792H113.052V19.784ZM130.54 17.4V21H121.292V19.944H121.452C121.772 19.944 122.033 19.9067 122.236 19.832C122.449 19.7573 122.556 19.6027 122.556 19.368V11.272C122.556 11.0373 122.449 10.8827 122.236 10.808C122.033 10.7333 121.772 10.696 121.452 10.696H121.292V9.64H130.14V12.84H128.892L128.748 11.512C128.737 11.32 128.662 11.176 128.524 11.08C128.396 10.9733 128.204 10.904 127.948 10.872C127.692 10.8293 127.372 10.808 126.988 10.808H125.052V19.832H127.18C127.51 19.832 127.793 19.8213 128.028 19.8C128.262 19.7787 128.454 19.7413 128.604 19.688C128.753 19.6347 128.865 19.5653 128.94 19.48C129.025 19.384 129.073 19.2667 129.084 19.128L129.276 17.4H130.54ZM124.668 14.648C125.116 14.6267 125.558 14.6053 125.996 14.584C126.433 14.5627 126.87 14.5413 127.308 14.52C127.756 14.488 128.198 14.4613 128.636 14.44V15.912C128.198 15.88 127.761 15.8533 127.324 15.832C126.886 15.8107 126.444 15.7893 125.996 15.768C125.558 15.736 125.116 15.7147 124.668 15.704V14.648ZM134.377 16.2H138.857L138.953 17.304H134.265L134.377 16.2ZM136.361 10.44L136.745 10.92L133.913 19.624C133.913 19.688 133.966 19.7467 134.073 19.8C134.179 19.8427 134.318 19.88 134.489 19.912C134.659 19.9333 134.851 19.944 135.065 19.944H135.257V21H131.657V19.944H131.737C132.003 19.944 132.217 19.896 132.377 19.8C132.537 19.6933 132.67 19.4747 132.777 19.144L135.913 9.592H138.569L141.785 19.304C141.87 19.5707 141.998 19.7467 142.169 19.832C142.339 19.9067 142.553 19.944 142.809 19.944H142.889V21H137.993V19.944H138.217C138.419 19.944 138.606 19.9387 138.777 19.928C138.958 19.9173 139.102 19.9013 139.209 19.88C139.326 19.848 139.385 19.816 139.385 19.784L136.361 10.44ZM148.843 20.04C149.291 20.04 149.665 19.9867 149.963 19.88C150.273 19.7627 150.502 19.5813 150.651 19.336C150.801 19.0907 150.875 18.776 150.875 18.392C150.875 18.04 150.795 17.752 150.635 17.528C150.486 17.2933 150.273 17.1013 149.995 16.952C149.718 16.792 149.393 16.6587 149.019 16.552C148.646 16.4347 148.246 16.3173 147.819 16.2C147.361 16.0827 146.923 15.944 146.507 15.784C146.091 15.6133 145.718 15.4 145.387 15.144C145.057 14.888 144.795 14.5573 144.603 14.152C144.411 13.7467 144.315 13.2453 144.315 12.648C144.315 11.9547 144.475 11.368 144.795 10.888C145.115 10.3973 145.558 10.0293 146.123 9.784C146.689 9.528 147.334 9.4 148.059 9.4C148.678 9.4 149.211 9.48533 149.659 9.656C150.107 9.82667 150.486 10.1147 150.795 10.52C151.115 10.9147 151.371 11.4533 151.563 12.136L150.955 11.816L151.227 9.592H152.363V12.76H151.067C150.929 12.2907 150.726 11.896 150.459 11.576C150.193 11.2453 149.878 11 149.515 10.84C149.153 10.6693 148.742 10.584 148.283 10.584C147.867 10.584 147.521 10.6427 147.243 10.76C146.966 10.8773 146.758 11.048 146.619 11.272C146.491 11.496 146.427 11.7733 146.427 12.104C146.427 12.424 146.502 12.6907 146.651 12.904C146.801 13.1067 147.003 13.2773 147.259 13.416C147.526 13.544 147.835 13.656 148.187 13.752C148.55 13.848 148.939 13.9493 149.355 14.056C149.825 14.1733 150.278 14.3173 150.715 14.488C151.163 14.648 151.563 14.856 151.915 15.112C152.267 15.368 152.545 15.6987 152.747 16.104C152.961 16.5093 153.067 17.0107 153.067 17.608C153.067 18.3867 152.897 19.048 152.555 19.592C152.225 20.136 151.755 20.5467 151.147 20.824C150.539 21.1013 149.825 21.24 149.003 21.24C148.331 21.24 147.713 21.1387 147.147 20.936C146.582 20.7333 146.097 20.4027 145.691 19.944C145.297 19.4747 145.003 18.8453 144.811 18.056L145.467 18.424L145.195 21.032H144.011V17.368H145.387C145.558 17.944 145.809 18.4347 146.139 18.84C146.481 19.2347 146.881 19.5333 147.339 19.736C147.798 19.9387 148.299 20.04 148.843 20.04ZM157.847 16.68C157.847 17.2773 157.906 17.7787 158.023 18.184C158.151 18.5893 158.327 18.9147 158.551 19.16C158.775 19.3947 159.042 19.5707 159.351 19.688C159.671 19.7947 160.034 19.848 160.439 19.848C160.823 19.848 161.17 19.7893 161.479 19.672C161.799 19.5547 162.071 19.3733 162.295 19.128C162.53 18.8827 162.706 18.5627 162.823 18.168C162.951 17.7627 163.015 17.2667 163.015 16.68V11.016C163.015 10.9627 162.978 10.92 162.903 10.888C162.839 10.8453 162.749 10.8133 162.631 10.792C162.525 10.76 162.402 10.7387 162.263 10.728C162.125 10.7067 161.991 10.696 161.863 10.696H161.719V9.64H165.543V10.696H165.383C165.17 10.696 164.978 10.7173 164.807 10.76C164.637 10.792 164.503 10.856 164.407 10.952C164.322 11.048 164.279 11.1867 164.279 11.368V16.68C164.279 17.4907 164.167 18.184 163.943 18.76C163.719 19.336 163.41 19.8107 163.015 20.184C162.621 20.5467 162.157 20.8133 161.623 20.984C161.101 21.1547 160.535 21.24 159.927 21.24C159.255 21.24 158.637 21.1547 158.071 20.984C157.517 20.8027 157.031 20.5307 156.615 20.168C156.21 19.8053 155.895 19.336 155.671 18.76C155.458 18.184 155.351 17.4907 155.351 16.68V11.272C155.351 11.0373 155.245 10.8827 155.031 10.808C154.829 10.7333 154.567 10.696 154.247 10.696H154.071V9.64H159.127V10.696H158.967C158.85 10.696 158.722 10.7013 158.583 10.712C158.455 10.712 158.333 10.7227 158.215 10.744C158.109 10.7547 158.018 10.7707 157.943 10.792C157.879 10.8027 157.847 10.824 157.847 10.856V16.68ZM172.072 15.88L174.408 15.464L176.488 19.32C176.584 19.4907 176.685 19.624 176.792 19.72C176.898 19.8053 177.016 19.864 177.144 19.896C177.282 19.928 177.432 19.944 177.592 19.944H177.736V21H174.568L172.072 15.88ZM170.552 19.784C170.552 19.816 170.584 19.8427 170.648 19.864C170.712 19.8747 170.792 19.8907 170.888 19.912C170.994 19.9227 171.112 19.9333 171.24 19.944C171.368 19.944 171.496 19.944 171.624 19.944H171.832V21H166.792V19.944H166.952C167.272 19.944 167.533 19.9067 167.736 19.832C167.949 19.7573 168.056 19.6027 168.056 19.368V11.272C168.056 11.0373 167.949 10.8827 167.736 10.808C167.533 10.7333 167.272 10.696 166.952 10.696H166.792V9.64H172.44C173.336 9.64 174.093 9.768 174.712 10.024C175.341 10.28 175.821 10.648 176.152 11.128C176.482 11.5973 176.648 12.168 176.648 12.84C176.648 13.4267 176.514 13.9493 176.248 14.408C175.981 14.856 175.592 15.224 175.08 15.512C174.578 15.8 173.96 15.992 173.224 16.088C173.138 16.1307 173.053 16.168 172.968 16.2C172.882 16.2213 172.792 16.2427 172.696 16.264C172.61 16.2853 172.52 16.3013 172.424 16.312H170.232V15.192H172.008C172.477 15.192 172.861 15.1013 173.16 14.92C173.469 14.728 173.693 14.4613 173.832 14.12C173.981 13.7787 174.056 13.3733 174.056 12.904C174.056 12.456 173.981 12.0773 173.832 11.768C173.693 11.448 173.474 11.208 173.176 11.048C172.888 10.8773 172.525 10.792 172.088 10.792H170.552V19.784ZM188.04 17.4V21H178.792V19.944H178.952C179.272 19.944 179.533 19.9067 179.736 19.832C179.949 19.7573 180.056 19.6027 180.056 19.368V11.272C180.056 11.0373 179.949 10.8827 179.736 10.808C179.533 10.7333 179.272 10.696 178.952 10.696H178.792V9.64H187.64V12.84H186.392L186.248 11.512C186.237 11.32 186.162 11.176 186.024 11.08C185.896 10.9733 185.704 10.904 185.448 10.872C185.192 10.8293 184.872 10.808 184.488 10.808H182.552V19.832H184.68C185.01 19.832 185.293 19.8213 185.528 19.8C185.762 19.7787 185.954 19.7413 186.104 19.688C186.253 19.6347 186.365 19.5653 186.44 19.48C186.525 19.384 186.573 19.2667 186.584 19.128L186.776 17.4H188.04ZM182.168 14.648C182.616 14.6267 183.058 14.6053 183.496 14.584C183.933 14.5627 184.37 14.5413 184.808 14.52C185.256 14.488 185.698 14.4613 186.136 14.44V15.912C185.698 15.88 185.261 15.8533 184.824 15.832C184.386 15.8107 183.944 15.7893 183.496 15.768C183.058 15.736 182.616 15.7147 182.168 15.704V14.648ZM197.523 19.368V10.808H196.899C196.462 10.808 196.11 10.8293 195.843 10.872C195.576 10.904 195.379 10.9787 195.251 11.096C195.123 11.2027 195.048 11.352 195.027 11.544L194.883 13.4H193.603V9.64H203.955V13.4H202.675L202.515 11.544C202.504 11.352 202.435 11.2027 202.307 11.096C202.179 10.9787 201.982 10.904 201.715 10.872C201.448 10.8293 201.096 10.808 200.659 10.808H200.035V19.368C200.035 19.6027 200.142 19.7573 200.355 19.832C200.568 19.9067 200.835 19.944 201.155 19.944H201.427V21H196.131V19.944H196.403C196.723 19.944 196.99 19.9067 197.203 19.832C197.416 19.7573 197.523 19.6027 197.523 19.368ZM210.494 15.88L212.83 15.464L214.91 19.32C215.006 19.4907 215.107 19.624 215.214 19.72C215.32 19.8053 215.438 19.864 215.566 19.896C215.704 19.928 215.854 19.944 216.014 19.944H216.158V21H212.99L210.494 15.88ZM208.974 19.784C208.974 19.816 209.006 19.8427 209.07 19.864C209.134 19.8747 209.214 19.8907 209.31 19.912C209.416 19.9227 209.534 19.9333 209.662 19.944C209.79 19.944 209.918 19.944 210.046 19.944H210.254V21H205.214V19.944H205.374C205.694 19.944 205.955 19.9067 206.158 19.832C206.371 19.7573 206.478 19.6027 206.478 19.368V11.272C206.478 11.0373 206.371 10.8827 206.158 10.808C205.955 10.7333 205.694 10.696 205.374 10.696H205.214V9.64H210.862C211.758 9.64 212.515 9.768 213.134 10.024C213.763 10.28 214.243 10.648 214.574 11.128C214.904 11.5973 215.07 12.168 215.07 12.84C215.07 13.4267 214.936 13.9493 214.67 14.408C214.403 14.856 214.014 15.224 213.502 15.512C213 15.8 212.382 15.992 211.646 16.088C211.56 16.1307 211.475 16.168 211.39 16.2C211.304 16.2213 211.214 16.2427 211.118 16.264C211.032 16.2853 210.942 16.3013 210.846 16.312H208.654V15.192H210.43C210.899 15.192 211.283 15.1013 211.582 14.92C211.891 14.728 212.115 14.4613 212.254 14.12C212.403 13.7787 212.478 13.3733 212.478 12.904C212.478 12.456 212.403 12.0773 212.254 11.768C212.115 11.448 211.896 11.208 211.598 11.048C211.31 10.8773 210.947 10.792 210.51 10.792H208.974V19.784ZM219.627 16.2H224.107L224.203 17.304H219.515L219.627 16.2ZM221.611 10.44L221.995 10.92L219.163 19.624C219.163 19.688 219.216 19.7467 219.323 19.8C219.429 19.8427 219.568 19.88 219.739 19.912C219.909 19.9333 220.101 19.944 220.315 19.944H220.507V21H216.907V19.944H216.987C217.253 19.944 217.467 19.896 217.627 19.8C217.787 19.6933 217.92 19.4747 218.027 19.144L221.163 9.592H223.819L227.035 19.304C227.12 19.5707 227.248 19.7467 227.419 19.832C227.589 19.9067 227.803 19.944 228.059 19.944H228.139V21H223.243V19.944H223.467C223.669 19.944 223.856 19.9387 224.027 19.928C224.208 19.9173 224.352 19.9013 224.459 19.88C224.576 19.848 224.635 19.816 224.635 19.784L221.611 10.44ZM234.091 20.184L233.707 19.688L236.539 11.016C236.539 10.9413 236.486 10.8827 236.379 10.84C236.283 10.7973 236.144 10.7653 235.963 10.744C235.792 10.712 235.611 10.696 235.419 10.696H235.211V9.64H238.811V10.696H238.731C238.464 10.696 238.251 10.7493 238.091 10.856C237.931 10.952 237.792 11.1653 237.675 11.496L234.539 21.032H231.883L228.667 11.336C228.571 11.0587 228.438 10.8827 228.267 10.808C228.107 10.7333 227.894 10.696 227.627 10.696H227.547V9.64H232.443V10.696H232.203C232 10.696 231.814 10.7013 231.643 10.712C231.472 10.7227 231.334 10.7387 231.227 10.76C231.12 10.7813 231.067 10.8133 231.067 10.856L234.091 20.184ZM248.93 17.4V21H239.682V19.944H239.842C240.162 19.944 240.424 19.9067 240.626 19.832C240.84 19.7573 240.946 19.6027 240.946 19.368V11.272C240.946 11.0373 240.84 10.8827 240.626 10.808C240.424 10.7333 240.162 10.696 239.842 10.696H239.682V9.64H248.53V12.84H247.282L247.138 11.512C247.128 11.32 247.053 11.176 246.914 11.08C246.786 10.9733 246.594 10.904 246.338 10.872C246.082 10.8293 245.762 10.808 245.378 10.808H243.442V19.832H245.57C245.901 19.832 246.184 19.8213 246.418 19.8C246.653 19.7787 246.845 19.7413 246.994 19.688C247.144 19.6347 247.256 19.5653 247.33 19.48C247.416 19.384 247.464 19.2667 247.474 19.128L247.666 17.4H248.93ZM243.058 14.648C243.506 14.6267 243.949 14.6053 244.386 14.584C244.824 14.5627 245.261 14.5413 245.698 14.52C246.146 14.488 246.589 14.4613 247.026 14.44V15.912C246.589 15.88 246.152 15.8533 245.714 15.832C245.277 15.8107 244.834 15.7893 244.386 15.768C243.949 15.736 243.506 15.7147 243.058 15.704V14.648ZM255.601 9.64V10.696H255.377C255.025 10.696 254.737 10.7333 254.513 10.808C254.299 10.8827 254.193 11.0373 254.193 11.272V19.832H256.145C256.593 19.832 256.95 19.816 257.217 19.784C257.494 19.7413 257.697 19.672 257.825 19.576C257.963 19.4693 258.043 19.32 258.065 19.128L258.241 17.16H259.537V21H250.417V19.944H250.577C250.897 19.944 251.158 19.9067 251.361 19.832C251.574 19.7573 251.681 19.6027 251.681 19.368V11.272C251.681 11.0373 251.574 10.8827 251.361 10.808C251.158 10.7333 250.897 10.696 250.577 10.696H250.417V9.64H255.601ZM265.718 20.04C266.166 20.04 266.54 19.9867 266.838 19.88C267.148 19.7627 267.377 19.5813 267.526 19.336C267.676 19.0907 267.75 18.776 267.75 18.392C267.75 18.04 267.67 17.752 267.51 17.528C267.361 17.2933 267.148 17.1013 266.87 16.952C266.593 16.792 266.268 16.6587 265.894 16.552C265.521 16.4347 265.121 16.3173 264.694 16.2C264.236 16.0827 263.798 15.944 263.382 15.784C262.966 15.6133 262.593 15.4 262.262 15.144C261.932 14.888 261.67 14.5573 261.478 14.152C261.286 13.7467 261.19 13.2453 261.19 12.648C261.19 11.9547 261.35 11.368 261.67 10.888C261.99 10.3973 262.433 10.0293 262.998 9.784C263.564 9.528 264.209 9.4 264.934 9.4C265.553 9.4 266.086 9.48533 266.534 9.656C266.982 9.82667 267.361 10.1147 267.67 10.52C267.99 10.9147 268.246 11.4533 268.438 12.136L267.83 11.816L268.102 9.592H269.238V12.76H267.942C267.804 12.2907 267.601 11.896 267.334 11.576C267.068 11.2453 266.753 11 266.39 10.84C266.028 10.6693 265.617 10.584 265.158 10.584C264.742 10.584 264.396 10.6427 264.118 10.76C263.841 10.8773 263.633 11.048 263.494 11.272C263.366 11.496 263.302 11.7733 263.302 12.104C263.302 12.424 263.377 12.6907 263.526 12.904C263.676 13.1067 263.878 13.2773 264.134 13.416C264.401 13.544 264.71 13.656 265.062 13.752C265.425 13.848 265.814 13.9493 266.23 14.056C266.7 14.1733 267.153 14.3173 267.59 14.488C268.038 14.648 268.438 14.856 268.79 15.112C269.142 15.368 269.42 15.6987 269.622 16.104C269.836 16.5093 269.942 17.0107 269.942 17.608C269.942 18.3867 269.772 19.048 269.43 19.592C269.1 20.136 268.63 20.5467 268.022 20.824C267.414 21.1013 266.7 21.24 265.878 21.24C265.206 21.24 264.588 21.1387 264.022 20.936C263.457 20.7333 262.972 20.4027 262.566 19.944C262.172 19.4747 261.878 18.8453 261.686 18.056L262.342 18.424L262.07 21.032H260.886V17.368H262.262C262.433 17.944 262.684 18.4347 263.014 18.84C263.356 19.2347 263.756 19.5333 264.214 19.736C264.673 19.9387 265.174 20.04 265.718 20.04Z" fill="#9DA3AF"/>
</g>
<defs>
<clipPath id="clip0_408_2019">
<rect width="271.073" height="32" rx="16" fill="white"/>
</clipPath>
</defs>
</svg>
